<svg width="574" height="439" viewBox="0 0 574 439" fill="none" xmlns="http://www.w3.org/2000/svg">
<path opacity="0.95" d="M23.5053 395.661C11.4272 386.176 3.54391 372.337 1.5444 357.11C-5.24661 305.996 6.59158 192.214 114.156 96.9765C244.702 -18.6068 381.047 -10.6384 447.072 18.3708C519.831 50.3433 565.993 157.49 573.478 252.912C579.149 324.712 538.12 386.459 468.778 405.926C352.466 438.579 111.108 464.313 23.5053 395.661Z" fill="url(#paint0_linear)"/>
<path d="M59.2724 373.686C48.8596 365.517 42.0608 353.605 40.3295 340.497C34.4791 296.546 44.6889 198.536 137.444 116.49C250.022 16.9779 367.599 23.8399 424.527 48.8208C487.249 76.4246 527.066 168.65 533.555 250.809C538.412 312.623 503.068 365.775 443.271 382.547C342.933 410.633 134.803 432.793 59.2724 373.686Z" fill="url(#paint1_linear)"/>
<defs>
<linearGradient id="paint0_linear" x1="27305.2" y1="116445" x2="259695" y2="116445" gradientUnits="userSpaceOnUse">
<stop stop-color="#B9B9B9"/>
<stop offset="1" stop-color="#259AFF" stop-opacity="0"/>
</linearGradient>
<linearGradient id="paint1_linear" x1="37520.4" y1="100846" x2="210058" y2="100846" gradientUnits="userSpaceOnUse">
<stop stop-color="white"/>
<stop offset="1" stop-color="white" stop-opacity="0"/>
</linearGradient>
</defs>
</svg>
