<svg width="57" height="43" viewBox="0 0 57 43" fill="none" xmlns="http://www.w3.org/2000/svg">
<path d="M28.5483 11.0343C28.2231 11.0343 27.9113 10.9051 27.6814 10.6752C27.4514 10.4452 27.3223 10.1334 27.3223 9.80824V1.22603C27.3223 0.900866 27.4514 0.58902 27.6814 0.359095C27.9113 0.12917 28.2231 0 28.5483 0C28.8735 0 29.1853 0.12917 29.4152 0.359095C29.6452 0.58902 29.7743 0.900866 29.7743 1.22603V9.80824C29.7743 10.1334 29.6452 10.4452 29.4152 10.6752C29.1853 10.9051 28.8735 11.0343 28.5483 11.0343Z" fill="#E0E0E0"/>
<path d="M37.6093 13.4979C37.3946 13.4994 37.1832 13.4444 36.9963 13.3385C36.8569 13.2574 36.7348 13.1496 36.6371 13.0212C36.5394 12.8928 36.468 12.7464 36.427 12.5903C36.386 12.4343 36.3762 12.2717 36.3981 12.1118C36.4201 11.952 36.4734 11.7981 36.555 11.6589L40.8093 4.20461C40.8859 4.0581 40.9914 3.9286 41.1194 3.82391C41.2474 3.71922 41.3952 3.6415 41.554 3.59543C41.7128 3.54935 41.8793 3.53588 42.0435 3.55582C42.2076 3.57576 42.3661 3.6287 42.5092 3.71145C42.6524 3.7942 42.7773 3.90505 42.8765 4.03734C42.9757 4.16963 43.0471 4.32062 43.0865 4.48123C43.1258 4.64183 43.1323 4.80873 43.1054 4.97189C43.0786 5.13505 43.019 5.2911 42.9303 5.43064L38.6269 12.8849C38.5232 13.0649 38.3753 13.2157 38.1973 13.3229C38.0193 13.4301 37.817 13.4904 37.6093 13.4979Z" fill="#E0E0E0"/>
<path d="M44.2551 20.1439C43.9836 20.1458 43.7192 20.0576 43.5033 19.893C43.2874 19.7284 43.1322 19.4969 43.0621 19.2346C42.992 18.9723 43.0109 18.6942 43.1158 18.4439C43.2208 18.1935 43.4059 17.9851 43.6421 17.8512L51.1086 13.5479C51.3888 13.4013 51.7148 13.3686 52.0185 13.4568C52.3222 13.5449 52.5801 13.7469 52.7384 14.0207C52.8966 14.2944 52.943 14.6188 52.8677 14.9259C52.7925 15.2331 52.6015 15.4993 52.3346 15.6689L44.8681 19.9845C44.6813 20.0904 44.4699 20.1454 44.2551 20.1439Z" fill="#E0E0E0"/>
<path d="M55.2887 29.2899H46.7065C46.3813 29.2899 46.0695 29.1608 45.8396 28.9309C45.6097 28.7009 45.4805 28.3891 45.4805 28.0639C45.4805 27.7388 45.6097 27.4269 45.8396 27.197C46.0695 26.9671 46.3813 26.8379 46.7065 26.8379H55.2887C55.6139 26.8379 55.9257 26.9671 56.1557 27.197C56.3856 27.4269 56.5147 27.7388 56.5147 28.0639C56.5147 28.3891 56.3856 28.7009 56.1557 28.9309C55.9257 29.1608 55.6139 29.2899 55.2887 29.2899Z" fill="#E0E0E0"/>
<path d="M51.6718 42.6897C51.4559 42.6875 51.2445 42.6283 51.0588 42.5181L43.5923 38.2147C43.4458 38.1381 43.3163 38.0326 43.2116 37.9046C43.1069 37.7766 43.0292 37.6288 42.9831 37.47C42.9371 37.3112 42.9236 37.1447 42.9435 36.9805C42.9635 36.8164 43.0164 36.658 43.0992 36.5148C43.1819 36.3717 43.2928 36.2467 43.425 36.1475C43.5573 36.0483 43.7083 35.9769 43.8689 35.9375C44.0295 35.8982 44.1964 35.8918 44.3596 35.9186C44.5227 35.9454 44.6788 36.005 44.8183 36.0937L52.2726 40.3971C52.4131 40.4772 52.5364 40.5843 52.6353 40.7122C52.7342 40.8401 52.8068 40.9864 52.849 41.1425C52.8912 41.2986 52.902 41.4615 52.8809 41.6219C52.8599 41.7822 52.8073 41.9368 52.7262 42.0767C52.6193 42.262 52.4657 42.4161 52.2807 42.5237C52.0957 42.6312 51.8858 42.6885 51.6718 42.6897Z" fill="#E0E0E0"/>
<path d="M5.25413 42.6034C4.98267 42.6053 4.71825 42.517 4.50234 42.3525C4.28644 42.1879 4.13126 41.9563 4.06114 41.6941C3.99102 41.4318 4.00992 41.1537 4.11489 40.9034C4.21985 40.653 4.40493 40.4446 4.64111 40.3107L12.0954 36.0074C12.3783 35.8448 12.7142 35.8012 13.0292 35.8863C13.3442 35.9714 13.6124 36.1781 13.775 36.461C13.9376 36.7439 13.9812 37.0798 13.8961 37.3948C13.811 37.7098 13.6043 37.9781 13.3214 38.1407L5.86714 42.444C5.68029 42.5499 5.4689 42.6049 5.25413 42.6034Z" fill="#E0E0E0"/>
<path d="M10.2682 29.1903H1.68599C1.36083 29.1903 1.04898 29.0612 0.819056 28.8312C0.589131 28.6013 0.459961 28.2895 0.459961 27.9643C0.459961 27.6391 0.589131 27.3273 0.819056 27.0974C1.04898 26.8675 1.36083 26.7383 1.68599 26.7383H10.2682C10.5934 26.7383 10.9052 26.8675 11.1351 27.0974C11.3651 27.3273 11.4942 27.6391 11.4942 27.9643C11.4942 28.2895 11.3651 28.6013 11.1351 28.8312C10.9052 29.0612 10.5934 29.1903 10.2682 29.1903Z" fill="#E0E0E0"/>
<path d="M12.7333 20.1444C12.5186 20.1459 12.3072 20.0909 12.1203 19.985L4.66607 15.6817C4.52599 15.6012 4.40314 15.4939 4.30454 15.3659C4.20593 15.2379 4.13351 15.0918 4.09138 14.9358C4.04926 14.7798 4.03827 14.6171 4.05904 14.4569C4.07981 14.2966 4.13192 14.1421 4.21242 14.002C4.29292 13.8619 4.40023 13.7391 4.52821 13.6405C4.65619 13.5419 4.80235 13.4694 4.95832 13.4273C5.11429 13.3852 5.27702 13.3742 5.43724 13.395C5.59745 13.4157 5.75202 13.4679 5.89209 13.5484L13.3464 17.8517C13.4868 17.9318 13.6101 18.0389 13.709 18.1669C13.8079 18.2948 13.8806 18.441 13.9227 18.5972C13.9649 18.7533 13.9758 18.9162 13.9547 19.0765C13.9336 19.2369 13.881 19.3915 13.8 19.5314C13.692 19.7185 13.5364 19.8737 13.3491 19.9814C13.1618 20.089 12.9494 20.1453 12.7333 20.1444Z" fill="#E0E0E0"/>
<path d="M19.4159 13.4489C19.1998 13.4497 18.9874 13.3935 18.8001 13.2858C18.6128 13.1782 18.4572 13.023 18.3492 12.8359L14.0459 5.43064C13.9571 5.2911 13.8976 5.13505 13.8707 4.97189C13.8439 4.80873 13.8504 4.64183 13.8897 4.48123C13.929 4.32062 14.0004 4.16963 14.0997 4.03734C14.1989 3.90505 14.3238 3.7942 14.467 3.71145C14.6101 3.6287 14.7685 3.57576 14.9327 3.55582C15.0968 3.53588 15.2633 3.54935 15.4221 3.59543C15.5809 3.6415 15.7288 3.71922 15.8568 3.82391C15.9847 3.9286 16.0902 4.0581 16.1669 4.20461L20.4825 11.6589C20.5903 11.8456 20.647 12.0575 20.6468 12.2731C20.6466 12.4887 20.5895 12.7005 20.4813 12.887C20.3731 13.0735 20.2176 13.2282 20.0306 13.3355C19.8435 13.4427 19.6315 13.4988 19.4159 13.4979V13.4489Z" fill="#E0E0E0"/>
</svg>
