<svg width="119" height="118" viewBox="0 0 119 118" fill="none" xmlns="http://www.w3.org/2000/svg">
<path d="M107.638 0.42867L16.0259 53.2341C15.523 53.5597 15.1046 54.0001 14.8053 54.5191C14.5061 55.0382 14.3345 55.6209 14.3047 56.2193V110.577C14.3367 111.175 14.5106 111.756 14.812 112.273C15.1134 112.791 15.5337 113.228 16.038 113.551L22.2129 117.005C22.7495 117.272 23.3407 117.411 23.9402 117.411C24.5396 117.411 25.1308 117.272 25.6674 117.005L117.243 64.1997C117.744 63.8713 118.16 63.4302 118.459 62.9118C118.758 62.3933 118.931 61.812 118.965 61.2145V6.83225C118.933 6.23626 118.759 5.65655 118.457 5.14146C118.156 4.62637 117.735 4.19084 117.231 3.8712L111.117 0.4046C110.576 0.134508 109.979 -0.00409128 109.375 9.1956e-05C108.77 0.0042752 108.175 0.151119 107.638 0.42867Z" fill="#6CAF3A"/>
<path d="M23.9814 115.994V61.6362C24.0131 61.0383 24.1856 60.4563 24.4847 59.9375C24.7838 59.4188 25.2011 58.978 25.7027 58.6511L117.279 5.8456C118.23 5.2919 119 5.73727 119 6.83262V61.2029C118.966 61.8004 118.793 62.3816 118.494 62.9001C118.195 63.4185 117.779 63.8596 117.279 64.188L25.6546 116.993C24.7518 117.535 23.9814 117.09 23.9814 115.994Z" fill="#6CAF3A"/>
<path opacity="0.2" d="M25.6538 116.992C25.12 117.269 24.5276 117.413 23.9265 117.413C23.3253 117.413 22.733 117.269 22.1992 116.992L16.0243 113.538C15.5196 113.219 15.0988 112.783 14.7972 112.268C14.4956 111.753 14.322 111.173 14.291 110.577V56.2183C14.3169 55.5956 14.5035 54.9902 14.8327 54.4609L24.4621 59.9377C24.1495 60.4501 23.9753 61.0349 23.9566 61.6349V115.993C23.9806 116.992 24.6908 117.582 25.6538 116.992Z" fill="black"/>
<path opacity="0.4" d="M118.976 6.51796C118.843 5.65131 118.133 5.31428 117.279 5.8439L25.6544 58.6494C25.1496 58.9686 24.7352 59.4121 24.4507 59.9373L14.8213 54.4606C15.1142 53.9639 15.5283 53.5498 16.025 53.2569L107.601 0.439374C108.138 0.17224 108.729 0.0332031 109.328 0.0332031C109.928 0.0332031 110.519 0.17224 111.056 0.439374L117.23 3.90597C117.691 4.19134 118.085 4.57213 118.386 5.0227C118.687 5.47327 118.888 5.98314 118.976 6.51796Z" fill="white"/>
<path d="M14.34 79.9199L0.47355 94.027C0.304375 94.1884 0.174487 94.3864 0.0938367 94.6059C0.0131864 94.8253 -0.0160559 95.0603 0.00835807 95.2929C0.0327721 95.5254 0.110201 95.7492 0.234673 95.9471C0.359144 96.145 0.527347 96.3117 0.726349 96.4344C1.01523 96.615 10.3558 101.959 10.3558 101.959L24.0055 85.517L14.34 79.9199Z" fill="#6CAF3A"/>
<path opacity="0.1" d="M14.34 79.9199L0.47355 94.027C0.304375 94.1884 0.174487 94.3864 0.0938367 94.6059C0.0131864 94.8253 -0.0160559 95.0603 0.00835807 95.2929C0.0327721 95.5254 0.110201 95.7492 0.234673 95.9471C0.359144 96.145 0.527347 96.3117 0.726349 96.4344C1.01523 96.615 10.3558 101.959 10.3558 101.959L24.0055 85.517L14.34 79.9199Z" fill="black"/>
<path d="M23.9811 85.4688L10.1147 99.5759C9.89012 99.8034 9.74248 100.096 9.69257 100.411C9.64267 100.727 9.69301 101.05 9.8365 101.336C9.97999 101.622 10.2094 101.855 10.4925 102.004C10.7756 102.152 11.0981 102.208 11.4147 102.164L23.9811 100.346C25.3292 100.346 25.3292 85.4688 23.9811 85.4688Z" fill="#6CAF3A"/>
<path d="M33.0571 76.1876C33.125 74.5646 33.3507 72.9521 33.7311 71.3728C34.1165 69.7828 34.6777 68.2407 35.4043 66.7748C36.115 65.3467 37.0005 64.0124 38.0403 62.8026C39.0648 61.6121 40.2863 60.6064 41.6514 59.8296C42.7276 59.1163 43.9735 58.701 45.2624 58.6259C46.2279 58.6057 47.1683 58.9348 47.9105 59.5527C48.7042 60.267 49.2836 61.188 49.5836 62.2128C50.0077 63.5283 50.2349 64.8993 50.2577 66.2813C50.2577 67.485 50.3178 68.6886 50.3178 70.0608C50.3178 71.433 50.3179 72.6367 50.2577 73.8043C50.2015 75.4283 49.9756 77.042 49.5836 78.619C49.2037 80.2184 48.6423 81.7691 47.9105 83.2411C47.2024 84.6773 46.3124 86.0164 45.2624 87.2253C44.2303 88.3982 43.0099 89.3908 41.6514 90.1623C40.5724 90.8699 39.328 91.2847 38.0403 91.366C37.0761 91.4015 36.1341 91.0703 35.4043 90.4391C34.6172 89.7096 34.0395 88.7828 33.7311 87.7549C33.3187 86.4367 33.0918 85.0674 33.0571 83.6865C33.0571 82.555 33.0571 81.2791 33.0571 79.9912C33.0571 78.7033 33.021 77.4153 33.0571 76.1876ZM45.0939 76.5366C45.0939 76.019 45.0939 75.4533 45.0939 74.8154C45.0939 74.1774 45.0939 73.5515 45.0939 72.9015C45.0939 72.2515 45.0939 71.6377 45.0939 71.0358C45.0939 70.434 45.0939 69.9164 45.0939 69.447C45.0712 68.8435 44.9742 68.2452 44.805 67.6655C44.6924 67.2162 44.4689 66.8024 44.155 66.4618C43.8668 66.1942 43.489 66.044 43.0958 66.0405C42.5669 66.0594 42.054 66.2262 41.6153 66.522C41.0565 66.8355 40.5557 67.2427 40.1347 67.7257C39.7102 68.2261 39.354 68.7806 39.0755 69.3747C38.7833 69.9899 38.5613 70.6359 38.4135 71.3006C38.2552 71.9929 38.1585 72.6978 38.1245 73.4071C38.1245 73.9126 38.1005 74.4663 38.0523 75.0681C38.0523 75.682 38.0523 76.2718 38.0523 76.9579C38.0523 77.644 38.0523 78.2459 38.0523 78.8597C38.0523 79.4736 38.0523 80.0634 38.1245 80.5088C38.0939 81.5754 38.4295 82.6204 39.0755 83.4698C39.6292 84.0717 40.4718 84.0476 41.6153 83.3976C42.7401 82.7437 43.6228 81.7427 44.1309 80.5449C44.6944 79.2741 45.0246 77.9123 45.1059 76.5246L45.0939 76.5366Z" fill="#455A64"/>
<path d="M67.6629 62.1645C67.6629 62.5737 67.6629 63.1154 67.6629 63.7774C67.6629 64.4394 67.6629 64.9811 67.6629 65.4144C67.6264 66.8175 67.4244 68.2114 67.0611 69.5671C66.7041 70.9454 66.1996 72.2811 65.5565 73.5513C64.9262 74.786 64.1459 75.9382 63.2334 76.9818C62.3678 77.9784 61.3428 78.8245 60.2001 79.4855C59.2906 80.0694 58.2459 80.4093 57.1668 80.4725C56.331 80.5161 55.5083 80.2504 54.8558 79.7262C54.1577 79.1303 53.6336 78.3567 53.3391 77.4873C52.9497 76.3768 52.7464 75.2096 52.7373 74.0328C52.7373 73.6235 52.7373 73.0939 52.7373 72.4319C52.7373 71.7699 52.7373 71.2282 52.7373 70.7828C52.7655 69.3886 52.9595 68.0026 53.3151 66.6542C53.6696 65.2679 54.1825 63.927 54.8437 62.658C55.4767 61.4174 56.2567 60.2576 57.1668 59.2034C58.0281 58.1958 59.0537 57.3411 60.2001 56.6757C61.1085 56.091 62.1544 55.7548 63.2334 55.7007C64.0779 55.6764 64.9043 55.949 65.5685 56.4711C66.2713 57.0555 66.7931 57.8279 67.0731 58.6979C67.456 59.8139 67.6552 60.9847 67.6629 62.1645ZM57.6844 70.9754C57.6568 71.3554 57.7089 71.7369 57.8374 72.0955C57.9659 72.4541 58.168 72.7819 58.4307 73.0578C58.7021 73.2225 59.0178 73.2993 59.3345 73.2777C59.6512 73.2562 59.9535 73.1373 60.2001 72.9374C60.9666 72.4836 61.5821 71.8136 61.9696 71.0115C62.4333 70.0952 62.692 69.0889 62.7278 68.0625C62.7278 67.6172 62.788 67.1236 62.788 66.594C62.788 66.0644 62.788 65.5829 62.7278 65.1857C62.7539 64.8049 62.6999 64.4229 62.5693 64.0642C62.4387 63.7055 62.2344 63.3782 61.9696 63.1034C61.5242 62.7543 60.9344 62.8024 60.2001 63.2237C59.4337 63.6776 58.8182 64.3475 58.4307 65.1496C57.9708 66.0668 57.7161 67.0731 57.6844 68.0986C57.6386 68.5867 57.6185 69.0769 57.6242 69.5671C57.617 70.0373 57.6371 70.5075 57.6844 70.9754Z" fill="#455A64"/>
<path d="M79.1464 68.5565C78.713 68.8223 78.2363 69.0097 77.738 69.1102C77.3971 69.1853 77.0439 69.1853 76.7029 69.1102C76.4268 69.0371 76.1714 68.9011 75.9566 68.713C75.7704 68.558 75.6045 68.3801 75.4631 68.1834V77.1749C75.4603 77.4999 75.3863 77.8204 75.2464 78.1138C75.1367 78.374 74.9524 78.5959 74.7168 78.7517L71.2623 80.7498C71.1892 80.8094 71.0977 80.842 71.0034 80.842C70.9091 80.842 70.8177 80.8094 70.7446 80.7498C70.6652 80.6553 70.6052 80.5461 70.568 80.4283C70.5308 80.3106 70.5172 80.1867 70.528 80.0637V52.3791C70.5308 52.054 70.6048 51.7336 70.7446 51.4402C70.8506 51.1812 71.0307 50.9593 71.2623 50.8022L74.5844 48.8884C74.6553 48.8241 74.7475 48.7885 74.8432 48.7885C74.9389 48.7885 75.0311 48.8241 75.102 48.8884C75.1832 48.9798 75.2453 49.0865 75.2846 49.2023C75.3238 49.318 75.3395 49.4405 75.3307 49.5624V50.5374C75.4871 50.1643 75.6677 49.755 75.8603 49.3337C76.0636 48.9137 76.3011 48.5111 76.5705 48.1301C76.8781 47.6946 77.2289 47.2913 77.6177 46.9264C78.0779 46.4901 78.5915 46.114 79.1464 45.807C79.849 45.3703 80.6451 45.1063 81.4694 45.0366C81.8186 45.0103 82.1695 45.0554 82.5006 45.1692C82.8317 45.283 83.1362 45.4632 83.3953 45.6986C84.0271 46.3214 84.4873 47.0967 84.7314 47.9495C85.1066 49.244 85.2932 50.5859 85.2851 51.9337C85.2851 52.355 85.2851 52.9087 85.2851 53.6309C85.2851 54.3531 85.2851 54.9309 85.2851 55.3642C85.266 56.9242 85.0804 58.4777 84.7314 59.9984C84.4238 61.3066 83.9759 62.5779 83.3953 63.7899C82.8886 64.8401 82.2406 65.8161 81.4694 66.6908C80.7947 67.4275 80.0113 68.0567 79.1464 68.5565ZM80.35 57.6151C80.4127 56.8138 80.4127 56.0089 80.35 55.2077C80.351 54.4257 80.1343 53.6588 79.7241 52.9929C79.355 52.4633 78.7411 52.4633 77.8825 52.9929C77.4811 53.2222 77.126 53.5243 76.8353 53.8837C76.5467 54.2542 76.3042 54.6584 76.1131 55.0873C75.9195 55.5176 75.7664 55.9648 75.6557 56.4234C75.5493 56.8707 75.4768 57.3254 75.439 57.7836C75.439 58.2169 75.3788 58.7224 75.3788 59.2882C75.3788 59.8539 75.3788 60.3354 75.439 60.7326C75.4694 61.1087 75.5421 61.4802 75.6557 61.84C75.7485 62.1385 75.9045 62.4136 76.1131 62.6465C76.2036 62.7514 76.314 62.8374 76.438 62.8994C76.5619 62.9614 76.697 62.9982 76.8353 63.0076C77.2072 63.0191 77.5734 62.9139 77.8825 62.7066C78.7268 62.2227 79.3775 61.4614 79.7241 60.552C80.0954 59.6138 80.3148 58.6224 80.3741 57.6151H80.35Z" fill="#455A64"/>
<path d="M96.2624 51.6578C96.2624 51.3448 96.2022 51.1402 96.0578 51.0559C95.834 50.9649 95.5835 50.9649 95.3597 51.0559C94.9192 51.1732 94.4852 51.3138 94.0597 51.4772C93.518 51.6698 92.856 51.8985 92.0375 52.1272C91.5085 52.354 90.9263 52.4268 90.3577 52.3374C89.7892 52.248 89.2575 51.9999 88.8237 51.6217C87.9534 50.4817 87.5528 49.0516 87.7042 47.6254C87.71 46.6282 87.8683 45.6378 88.1737 44.6885C88.4941 43.6748 88.9303 42.7014 89.4736 41.7876C90.0346 40.8313 90.714 39.9496 91.4959 39.1636C92.2736 38.3622 93.1563 37.6698 94.1199 37.1053C94.9298 36.6157 95.8237 36.281 96.7559 36.1183C97.4557 36.0016 98.1732 36.0511 98.8503 36.2627C99.422 36.4677 99.909 36.8574 100.235 37.3701C100.58 37.911 100.776 38.5342 100.8 39.1756C100.807 39.4978 100.732 39.8165 100.584 40.1024C100.476 40.3642 100.292 40.5869 100.054 40.7404L96.792 42.6302C96.5874 42.7505 96.431 42.7746 96.3106 42.7024C96.1715 42.6164 96.0267 42.54 95.8772 42.4737C95.6739 42.3968 95.4556 42.3679 95.2393 42.3894C94.841 42.4509 94.4599 42.5944 94.1199 42.8107C93.7196 43.0416 93.3647 43.3434 93.0727 43.7015C92.7832 44.0346 92.6286 44.4639 92.6393 44.9051C92.6173 45.1278 92.6679 45.3516 92.7838 45.5431C92.868 45.6635 93.0606 45.6875 93.3254 45.6273C93.7327 45.5328 94.1345 45.4163 94.5291 45.2783L96.4791 44.6162C98.1402 44.0746 99.3559 44.2431 100.09 45.1218C100.926 46.2199 101.332 47.5851 101.234 48.9615C101.226 49.9625 101.068 50.9567 100.764 51.9106C100.435 52.9596 99.9737 53.9626 99.392 54.8957C98.7743 55.9022 98.0389 56.8316 97.2013 57.6641C96.324 58.5386 95.3367 59.2952 94.2643 59.915C93.3801 60.47 92.3938 60.8425 91.3634 61.0104C90.6567 61.1324 89.9297 61.0489 89.269 60.7696C88.715 60.518 88.2554 60.0964 87.957 59.566C87.6509 59.0201 87.4777 58.4098 87.4515 57.7845C87.4396 57.467 87.5101 57.1519 87.6561 56.8697C87.7708 56.6057 87.9587 56.3801 88.1978 56.2197L91.5921 54.2577C91.7968 54.1374 91.9412 54.1374 92.0375 54.2577C92.1391 54.3786 92.2614 54.4805 92.3986 54.5587C92.5887 54.6669 92.8063 54.7171 93.0245 54.7031C93.4562 54.6327 93.8671 54.4683 94.2282 54.2216C94.7684 53.9066 95.2492 53.4992 95.6485 53.0179C96.0211 52.6608 96.2411 52.1734 96.2624 51.6578Z" fill="#455A64"/>
<path d="M108.913 40.7171C108.911 41.0384 108.837 41.3552 108.696 41.6439C108.597 41.9069 108.415 42.1307 108.178 42.2818L104.712 44.28C104.641 44.3442 104.549 44.3798 104.453 44.3798C104.357 44.3798 104.265 44.3442 104.194 44.28C104.114 44.188 104.054 44.0809 104.017 43.965C103.98 43.8492 103.966 43.7271 103.977 43.6059V25.3581C103.979 25.0368 104.053 24.7199 104.194 24.4313C104.297 24.1703 104.478 23.9475 104.712 23.7933L108.178 21.7952C108.249 21.7309 108.341 21.6953 108.437 21.6953C108.533 21.6953 108.625 21.7309 108.696 21.7952C108.776 21.8872 108.836 21.9943 108.873 22.1101C108.91 22.2259 108.924 22.3481 108.913 22.4693V40.7171ZM108.913 49.8049C108.91 50.126 108.836 50.4426 108.696 50.7317C108.593 50.9926 108.412 51.2154 108.178 51.3696L104.712 53.3677C104.641 53.432 104.549 53.4676 104.453 53.4676C104.357 53.4676 104.265 53.432 104.194 53.3677C104.114 53.2758 104.054 53.1687 104.017 53.0528C103.98 52.937 103.966 52.8148 103.977 52.6937V48.4206C103.98 48.0994 104.054 47.7828 104.194 47.4938C104.297 47.2329 104.478 47.0101 104.712 46.8558L108.178 44.8577C108.249 44.7934 108.341 44.7578 108.437 44.7578C108.533 44.7578 108.625 44.7934 108.696 44.8577C108.776 44.9497 108.836 45.0568 108.873 45.1726C108.91 45.2885 108.924 45.4106 108.913 45.5318V49.8049Z" fill="#455A64"/>
</svg>
