<svg width="576" height="477" viewBox="0 0 576 477" fill="none" xmlns="http://www.w3.org/2000/svg">
<g filter="url(#filter0_d)">
<path d="M288 446.178C438.774 446.178 561 375.571 561 288.474C561 201.376 438.774 130.77 288 130.77C137.226 130.77 15 201.376 15 288.474C15 375.571 137.226 446.178 288 446.178Z" fill="#E0E0E0"/>
</g>
<path d="M213.34 304.788V300.018C213.336 299.748 213.231 299.49 213.046 299.294C212.861 299.098 212.609 298.978 212.34 298.958L204.74 298.478V287.818C204.74 287.696 204.705 287.577 204.64 287.474C204.574 287.371 204.481 287.289 204.37 287.238L196.37 282.618C196.098 282.477 195.8 282.397 195.494 282.383C195.188 282.369 194.883 282.422 194.6 282.538L186.49 286.298C185.897 286.531 185.246 286.57 184.63 286.408C182.567 285.764 180.462 285.263 178.33 284.908C178.047 284.848 177.787 284.709 177.58 284.507C177.373 284.305 177.227 284.049 177.16 283.768L176.16 278.418C176.104 278.143 175.957 277.895 175.743 277.714C175.529 277.532 175.26 277.428 174.98 277.418H163.19C162.908 277.426 162.637 277.529 162.421 277.711C162.205 277.892 162.056 278.141 162 278.418L161 283.768C160.934 284.05 160.788 284.307 160.581 284.508C160.374 284.71 160.113 284.849 159.83 284.908C157.698 285.264 155.593 285.765 153.53 286.408C152.917 286.569 152.267 286.527 151.68 286.288L143.56 282.538C143.277 282.423 142.973 282.369 142.667 282.381C142.362 282.393 142.063 282.471 141.79 282.608L133.79 287.238C133.683 287.29 133.591 287.371 133.526 287.472C133.461 287.572 133.424 287.688 133.42 287.808V298.478L125.83 298.958C125.561 298.978 125.309 299.098 125.124 299.294C124.939 299.49 124.834 299.748 124.83 300.018V306.018V310.188V316.138C124.83 316.268 124.93 316.368 124.97 316.478C124.996 316.614 125.051 316.744 125.13 316.858C125.276 316.981 125.452 317.064 125.64 317.098C125.71 317.098 125.75 317.188 125.83 317.188H125.97L133.42 317.658V323.798V328.358C133.426 328.431 133.446 328.503 133.48 328.568C133.55 328.679 133.646 328.772 133.76 328.838L141.76 333.458C141.997 333.585 142.261 333.654 142.53 333.658H142.74C142.833 333.668 142.927 333.668 143.02 333.658V333.608C143.186 333.603 143.351 333.576 143.51 333.528L151.63 329.768C152.219 329.532 152.868 329.493 153.48 329.658C155.545 330.295 157.65 330.796 159.78 331.158C160.065 331.216 160.327 331.355 160.536 331.556C160.745 331.758 160.892 332.015 160.96 332.298L161.96 337.638C162.007 337.756 162.075 337.864 162.16 337.958V338.088C162.16 338.148 162.27 338.178 162.32 338.228C162.366 338.283 162.42 338.33 162.48 338.368C162.67 338.523 162.905 338.611 163.15 338.618H174.92C175.19 338.615 175.452 338.52 175.66 338.348C175.886 338.175 176.042 337.926 176.1 337.648L177.1 332.308C177.166 332.026 177.312 331.769 177.519 331.567C177.726 331.365 177.987 331.227 178.27 331.168C180.401 330.808 182.506 330.307 184.57 329.668C185.186 329.506 185.837 329.545 186.43 329.778L194.54 333.538C194.781 333.637 195.04 333.685 195.3 333.678C195.646 333.696 195.991 333.623 196.3 333.468L204.3 328.848C204.405 328.798 204.495 328.72 204.56 328.624C204.626 328.527 204.663 328.414 204.67 328.298V317.598L212.27 317.118C212.54 317.1 212.793 316.981 212.978 316.785C213.164 316.588 213.268 316.328 213.27 316.058V304.948C213.299 304.898 213.323 304.844 213.34 304.788ZM184.16 309.788C183.659 310.15 183.138 310.483 182.6 310.788C175.13 315.098 163.02 315.098 155.55 310.788C155.008 310.486 154.483 310.152 153.98 309.788C154.46 309.448 154.98 309.118 155.55 308.788C163.02 304.478 175.13 304.478 182.6 308.788C183.16 309.108 183.67 309.438 184.16 309.778V309.788Z" fill="#37474F"/>
<path d="M213.37 304.998V316.108C213.366 316.378 213.261 316.636 213.076 316.832C212.891 317.028 212.639 317.148 212.37 317.168L204.77 317.648V328.348C204.763 328.464 204.726 328.577 204.66 328.674C204.595 328.771 204.505 328.848 204.4 328.898L196.4 333.518C196.091 333.673 195.746 333.746 195.4 333.728C195.14 333.735 194.881 333.687 194.64 333.588L186.53 329.828C186.289 329.724 186.032 329.663 185.77 329.648C185.402 329.602 185.028 329.629 184.67 329.728C182.607 330.369 180.502 330.867 178.37 331.218C178.196 331.258 178.03 331.33 177.88 331.428V331.488C177.713 331.581 177.567 331.707 177.45 331.858C177.333 332.009 177.248 332.183 177.2 332.368L176.2 337.708C176.145 337.985 175.993 338.234 175.77 338.408C175.557 338.579 175.293 338.674 175.02 338.678H163.19H162.97C162.658 338.618 162.382 338.439 162.2 338.178V338.048C162.13 337.938 162.02 337.858 162 337.728L161 332.388C160.929 332.086 160.761 331.815 160.52 331.618C160.322 331.439 160.081 331.315 159.82 331.258C157.689 330.904 155.584 330.407 153.52 329.768C153.116 329.656 152.693 329.636 152.28 329.708C152.072 329.731 151.867 329.778 151.67 329.848L143.55 333.608C143.391 333.657 143.226 333.684 143.06 333.688V333.738C142.628 333.808 142.186 333.734 141.8 333.528L133.8 328.908C133.74 328.87 133.683 328.826 133.63 328.778C133.581 328.73 133.537 328.676 133.5 328.618C133.462 328.543 133.438 328.462 133.43 328.378V317.678L132.04 317.578L125.97 317.198H125.83C125.571 317.179 125.327 317.068 125.144 316.884C124.96 316.701 124.849 316.457 124.83 316.198V305.978C124.834 306.248 124.939 306.506 125.124 306.702C125.309 306.898 125.561 307.018 125.83 307.038L136.5 307.708C136.802 307.753 137.09 307.866 137.341 308.04C137.592 308.213 137.801 308.442 137.95 308.708C138.573 309.846 139.332 310.904 140.21 311.858C140.3 311.944 140.368 312.05 140.412 312.167C140.455 312.283 140.471 312.408 140.46 312.532C140.448 312.656 140.409 312.775 140.345 312.882C140.281 312.989 140.194 313.08 140.09 313.148L133.67 317.678C133.565 317.724 133.476 317.8 133.414 317.896C133.351 317.992 133.318 318.104 133.318 318.218C133.318 318.333 133.351 318.445 133.414 318.54C133.476 318.636 133.565 318.712 133.67 318.758L141.67 323.388C141.943 323.525 142.242 323.603 142.547 323.615C142.853 323.627 143.157 323.573 143.44 323.458L151.55 319.708C152.141 319.468 152.795 319.429 153.41 319.598C155.475 320.233 157.58 320.731 159.71 321.088C159.993 321.15 160.254 321.289 160.462 321.49C160.67 321.692 160.819 321.947 160.89 322.228L161.89 327.578C161.95 327.853 162.099 328.1 162.314 328.281C162.53 328.462 162.799 328.567 163.08 328.578H174.85C175.13 328.568 175.399 328.464 175.613 328.282C175.827 328.101 175.974 327.853 176.03 327.578L177.03 322.228C177.1 321.948 177.246 321.693 177.453 321.491C177.659 321.29 177.918 321.15 178.2 321.088C180.332 320.733 182.437 320.232 184.5 319.588C185.117 319.43 185.769 319.472 186.36 319.708L194.47 323.458C194.753 323.573 195.057 323.627 195.363 323.615C195.668 323.603 195.967 323.525 196.24 323.388L204.24 318.758C204.345 318.712 204.434 318.636 204.497 318.54C204.559 318.445 204.592 318.333 204.592 318.218C204.592 318.104 204.559 317.992 204.497 317.896C204.434 317.8 204.345 317.724 204.24 317.678L197.9 313.108C197.796 313.039 197.709 312.947 197.645 312.839C197.581 312.732 197.542 312.611 197.53 312.487C197.519 312.362 197.535 312.236 197.578 312.119C197.622 312.002 197.69 311.895 197.78 311.808C198.66 310.856 199.422 309.802 200.05 308.668C200.198 308.403 200.405 308.175 200.655 308.002C200.904 307.829 201.19 307.714 201.49 307.668L212.16 306.998C212.429 306.978 212.681 306.858 212.866 306.662C213.051 306.466 213.156 306.208 213.16 305.938V304.748C213.247 304.815 213.319 304.9 213.37 304.998Z" fill="#263238"/>
<path d="M204.75 287.818V298.478L201.68 298.288C201.379 298.242 201.094 298.128 200.844 297.955C200.595 297.781 200.388 297.553 200.24 297.288C199.609 296.177 198.847 295.147 197.97 294.218C197.88 294.13 197.811 294.023 197.768 293.905C197.724 293.787 197.708 293.66 197.719 293.535C197.731 293.41 197.77 293.288 197.834 293.18C197.898 293.072 197.985 292.979 198.09 292.908L204.43 288.348C204.517 288.294 204.591 288.221 204.646 288.135C204.702 288.048 204.737 287.95 204.75 287.848V287.818Z" fill="#263238"/>
<path d="M140.17 294.219C139.288 295.166 138.529 296.221 137.91 297.359C137.761 297.625 137.553 297.854 137.301 298.027C137.05 298.2 136.762 298.314 136.46 298.359L133.4 298.549V287.799C133.409 287.905 133.442 288.007 133.498 288.097C133.553 288.188 133.63 288.264 133.72 288.319L140.06 292.879C140.169 292.95 140.26 293.044 140.327 293.156C140.393 293.267 140.433 293.392 140.444 293.522C140.455 293.651 140.436 293.781 140.388 293.902C140.341 294.023 140.266 294.131 140.17 294.219Z" fill="#263238"/>
<path d="M141.77 282.609L133.77 287.239C133.666 287.285 133.576 287.361 133.514 287.457C133.451 287.553 133.418 287.665 133.418 287.779C133.418 287.894 133.451 288.006 133.514 288.102C133.576 288.197 133.666 288.273 133.77 288.319L140.11 292.889C140.214 292.959 140.302 293.051 140.366 293.158C140.43 293.266 140.469 293.386 140.48 293.511C140.492 293.635 140.475 293.761 140.432 293.878C140.389 293.996 140.32 294.102 140.23 294.189C139.348 295.137 138.589 296.192 137.97 297.329C137.821 297.595 137.613 297.824 137.361 297.997C137.11 298.171 136.822 298.284 136.52 298.329L125.86 298.999C125.591 299.019 125.34 299.139 125.155 299.335C124.97 299.531 124.865 299.79 124.86 300.059V306.059C124.865 306.329 124.97 306.587 125.155 306.783C125.34 306.979 125.591 307.099 125.86 307.119L136.52 307.789C136.822 307.834 137.11 307.948 137.361 308.121C137.613 308.294 137.821 308.523 137.97 308.789C138.589 309.927 139.348 310.982 140.23 311.929C140.32 312.017 140.389 312.125 140.432 312.243C140.476 312.361 140.492 312.487 140.481 312.613C140.469 312.738 140.43 312.859 140.366 312.968C140.302 313.076 140.215 313.169 140.11 313.239L133.67 317.679C133.569 317.728 133.483 317.805 133.423 317.901C133.364 317.996 133.332 318.106 133.332 318.219C133.332 318.332 133.364 318.442 133.423 318.538C133.483 318.633 133.569 318.71 133.67 318.759L141.67 323.389C141.943 323.527 142.242 323.604 142.548 323.616C142.853 323.628 143.157 323.575 143.44 323.459L151.56 319.709C152.148 319.471 152.797 319.429 153.41 319.589C155.474 320.232 157.579 320.733 159.71 321.089C159.994 321.148 160.254 321.287 160.462 321.489C160.669 321.691 160.814 321.948 160.88 322.229L161.88 327.579C161.937 327.856 162.085 328.105 162.301 328.287C162.517 328.468 162.788 328.571 163.07 328.579H174.84C175.121 328.569 175.39 328.465 175.604 328.284C175.818 328.102 175.964 327.854 176.02 327.579L177.02 322.229C177.088 321.948 177.233 321.692 177.44 321.49C177.648 321.288 177.908 321.149 178.19 321.089C180.322 320.734 182.427 320.233 184.49 319.589C185.107 319.431 185.759 319.473 186.35 319.709L194.46 323.459C194.743 323.575 195.048 323.628 195.353 323.616C195.658 323.604 195.957 323.527 196.23 323.389L204.23 318.759C204.335 318.713 204.424 318.637 204.487 318.542C204.549 318.446 204.583 318.334 204.583 318.219C204.583 318.105 204.549 317.993 204.487 317.897C204.424 317.801 204.335 317.725 204.23 317.679L197.89 313.119C197.786 313.049 197.699 312.956 197.635 312.848C197.571 312.739 197.532 312.618 197.52 312.493C197.509 312.367 197.525 312.241 197.568 312.123C197.612 312.005 197.681 311.897 197.77 311.809C198.653 310.859 199.415 309.805 200.04 308.669C200.189 308.404 200.395 308.176 200.645 308.003C200.894 307.83 201.18 307.716 201.48 307.669L212.15 306.999C212.419 306.979 212.671 306.859 212.856 306.663C213.041 306.467 213.146 306.209 213.15 305.939V299.939C213.146 299.67 213.041 299.411 212.856 299.215C212.671 299.019 212.419 298.899 212.15 298.879L201.67 298.289C201.37 298.243 201.084 298.129 200.835 297.955C200.585 297.782 200.379 297.554 200.23 297.289C199.603 296.179 198.844 295.148 197.97 294.219C197.881 294.132 197.812 294.026 197.769 293.908C197.725 293.791 197.709 293.665 197.72 293.541C197.732 293.416 197.771 293.296 197.835 293.188C197.899 293.081 197.986 292.989 198.09 292.919L204.43 288.349C204.535 288.303 204.624 288.227 204.687 288.132C204.749 288.036 204.783 287.924 204.783 287.809C204.783 287.695 204.749 287.583 204.687 287.487C204.624 287.391 204.535 287.315 204.43 287.269L196.43 282.649C196.159 282.508 195.86 282.428 195.554 282.414C195.249 282.401 194.944 282.453 194.66 282.569L186.55 286.329C185.958 286.562 185.306 286.601 184.69 286.439C182.627 285.795 180.522 285.294 178.39 284.939C178.108 284.879 177.848 284.74 177.64 284.538C177.433 284.337 177.288 284.08 177.22 283.799L176.22 278.449C176.164 278.174 176.018 277.926 175.804 277.745C175.59 277.563 175.321 277.459 175.04 277.449H163.19C162.908 277.457 162.637 277.56 162.421 277.742C162.205 277.923 162.057 278.173 162 278.449L161 283.799C160.934 284.081 160.789 284.338 160.582 284.54C160.374 284.742 160.114 284.88 159.83 284.939C157.699 285.295 155.594 285.796 153.53 286.439C152.917 286.6 152.268 286.558 151.68 286.319L143.56 282.569C143.277 282.446 142.97 282.386 142.661 282.393C142.352 282.4 142.048 282.474 141.77 282.609ZM182.6 295.219C190.06 299.529 190.06 306.529 182.6 310.839C175.14 315.149 163.02 315.149 155.55 310.839C148.08 306.529 148.08 299.529 155.55 295.219C163.02 290.909 175.13 290.879 182.6 295.219Z" fill="#455A64"/>
<path d="M133.39 318.219C133.397 318.111 133.429 318.007 133.485 317.914C133.541 317.822 133.618 317.745 133.71 317.689L136.9 315.389V307.819C136.761 307.757 136.612 307.72 136.46 307.708L125.79 307.039C125.521 307.019 125.269 306.899 125.084 306.703C124.899 306.506 124.794 306.248 124.79 305.979V316.129C124.809 316.388 124.92 316.631 125.104 316.815C125.287 316.999 125.531 317.11 125.79 317.129H125.93L132 317.509L133.39 317.609V318.219Z" fill="#37474F"/>
<path d="M152.27 319.539C152.057 319.57 151.849 319.628 151.65 319.709L143.54 323.459C143.223 323.587 142.88 323.635 142.54 323.599V333.729C142.719 333.749 142.901 333.749 143.08 333.729V333.679C143.246 333.675 143.411 333.648 143.57 333.599L151.69 329.839C151.887 329.767 152.092 329.72 152.3 329.699L152.27 319.539Z" fill="#37474F"/>
<path d="M162.15 327.958C162.081 327.84 162.031 327.712 162 327.578L161 322.228C160.966 322.085 160.912 321.947 160.84 321.818V331.968C160.913 332.093 160.967 332.228 161 332.368L162 337.708C162.03 337.805 162.081 337.894 162.15 337.968V327.958Z" fill="#37474F"/>
<path opacity="0.15" d="M177.32 321.828C177.243 321.951 177.189 322.087 177.16 322.228L176.16 327.578C176.136 327.714 176.085 327.843 176.01 327.958V338.088C176.085 337.973 176.136 337.844 176.16 337.708L177.16 332.368C177.181 332.233 177.236 332.106 177.32 331.998V321.828Z" fill="black"/>
<path opacity="0.15" d="M195.67 323.589C195.331 323.632 194.987 323.587 194.67 323.459L186.56 319.709C186.365 319.628 186.16 319.57 185.95 319.539V329.679C186.16 329.703 186.366 329.756 186.56 329.839L194.67 333.599C194.911 333.698 195.17 333.746 195.43 333.739H195.67V323.589Z" fill="black"/>
<path opacity="0.15" d="M212.35 307.039L201.68 307.709C201.528 307.721 201.38 307.758 201.24 307.819V315.379L204.43 317.679C204.524 317.736 204.602 317.815 204.657 317.909C204.713 318.003 204.745 318.11 204.75 318.219V317.649L212.35 317.169C212.619 317.149 212.871 317.029 213.056 316.833C213.241 316.637 213.346 316.379 213.35 316.109V304.999C213.36 304.929 213.36 304.859 213.35 304.789V305.979C213.346 306.249 213.241 306.507 213.056 306.703C212.871 306.899 212.619 307.019 212.35 307.039Z" fill="black"/>
<path d="M52.2102 269.708C52.2102 270.168 52.2102 278.548 52.2102 278.778C52.2123 278.861 52.2403 278.941 52.2902 279.008L55.8502 284.008C56.0206 284.173 56.2293 284.295 56.4577 284.361C56.6862 284.427 56.9274 284.437 57.1602 284.388L65.3702 283.008C65.8776 282.921 66.3995 283.009 66.8502 283.258C67.4934 283.717 68.161 284.141 68.8502 284.528C68.8502 284.528 68.8502 291.198 68.8502 291.338C68.866 291.458 68.9187 291.571 69.001 291.66C69.0833 291.75 69.1913 291.812 69.3102 291.838L78.2602 293.978C78.5225 293.999 78.7861 293.96 79.0307 293.862C79.2753 293.765 79.4941 293.613 79.6702 293.418L83.3602 289.528C83.7624 289.126 84.3024 288.894 84.8702 288.878C86.7384 288.993 88.612 288.993 90.4802 288.878C90.9672 288.841 91.45 288.991 91.8302 289.298L95.9502 293.628C96.1461 293.775 96.3736 293.875 96.6147 293.921C96.8558 293.966 97.1041 293.954 97.3402 293.888L105.95 291.838C106.37 291.738 106.64 291.468 106.62 291.188V284.468C107.21 284.128 107.77 283.778 108.3 283.408C108.775 283.081 109.344 282.92 109.92 282.948L118.4 284.368C118.657 284.383 118.914 284.334 119.148 284.226C119.382 284.118 119.585 283.954 119.74 283.748L122.98 279.218C123.098 279.07 123.162 278.886 123.16 278.698C123.16 278.538 123.16 275.878 123.16 272.158C123.203 272.099 123.227 272.03 123.23 271.958C123.23 271.878 123.23 259.798 123.23 259.048C123.226 258.968 123.198 258.891 123.15 258.828L119.59 253.828C119.418 253.664 119.21 253.544 118.982 253.478C118.754 253.412 118.513 253.401 118.28 253.448L110.07 254.838C109.563 254.915 109.044 254.827 108.59 254.588C107.947 254.125 107.28 253.698 106.59 253.308C106.59 250.198 106.59 246.998 106.59 246.628C106.595 246.491 106.552 246.356 106.468 246.248C106.384 246.14 106.264 246.066 106.13 246.038L97.1802 243.898C96.9155 243.868 96.6474 243.9 96.3974 243.992C96.1474 244.084 95.9223 244.233 95.7402 244.428L92.0602 248.308C91.6584 248.711 91.1189 248.946 90.5502 248.968C88.6821 248.848 86.8083 248.848 84.9402 248.968C84.4541 248.997 83.9741 248.847 83.5902 248.548L79.4702 244.218C79.2723 244.074 79.0449 243.976 78.8045 243.931C78.5641 243.886 78.3167 243.895 78.0802 243.958L69.4702 246.018C69.0502 246.118 68.7902 246.378 68.8002 246.648V253.388C68.2202 253.728 67.6502 254.088 67.1202 254.448C66.6458 254.777 66.077 254.942 65.5002 254.918L57.0202 253.488C56.7622 253.474 56.505 253.525 56.2713 253.635C56.0375 253.745 55.8345 253.91 55.6802 254.118L52.4402 258.638C52.3312 258.782 52.2685 258.957 52.2602 259.138C52.2602 259.538 52.2602 265.878 52.2602 269.528C52.2224 269.588 52.2016 269.657 52.2002 269.728L52.2102 269.708ZM98.7902 270.828C97.2067 271.707 95.5064 272.357 93.7402 272.758C87.7402 274.198 81.0302 273.318 76.6702 270.838C76.1979 270.575 75.7436 270.281 75.3102 269.958C75.7002 269.688 76.1202 269.418 76.5702 269.158C82.7102 265.608 92.6702 265.608 98.8202 269.158C99.2802 269.428 99.7102 269.698 100.1 269.968C99.6814 270.281 99.2439 270.568 98.7902 270.828Z" fill="#37474F"/>
<path d="M104.67 252.299C105.36 252.619 106.02 252.959 106.67 253.299V246.619C106.658 246.738 106.624 246.853 106.57 246.959L104.35 251.219C104.297 251.311 104.264 251.412 104.252 251.516C104.24 251.621 104.249 251.727 104.279 251.827C104.309 251.928 104.359 252.022 104.426 252.103C104.493 252.184 104.576 252.251 104.67 252.299Z" fill="#263238"/>
<path opacity="0.15" d="M114.49 262.918C114.64 263.849 114.64 264.798 114.49 265.728C114.457 265.935 114.496 266.147 114.599 266.328C114.703 266.51 114.865 266.651 115.06 266.728L122.81 269.168C122.916 269.201 123.009 269.268 123.074 269.358C123.139 269.448 123.173 269.557 123.17 269.668C123.17 269.818 123.17 272.178 123.17 272.178C123.204 272.124 123.225 272.062 123.23 271.998C123.23 267.598 123.23 260.248 123.23 259.608V259.068C123.23 259.298 122.98 259.528 122.6 259.648L115.29 261.968C115.069 262.013 114.87 262.132 114.725 262.304C114.579 262.477 114.497 262.693 114.49 262.918Z" fill="black"/>
<path opacity="0.15" d="M109.67 273.869V282.949C109.773 282.939 109.877 282.939 109.98 282.949L118.46 284.369C118.601 284.403 118.749 284.403 118.89 284.369V275.299C118.741 275.328 118.589 275.328 118.44 275.299L109.96 273.869C109.864 273.854 109.766 273.854 109.67 273.869Z" fill="black"/>
<path d="M106.67 284.479C107.25 284.139 107.82 283.789 108.35 283.419C108.744 283.162 109.193 283.001 109.66 282.949V273.869C109.187 273.917 108.734 274.082 108.34 274.349C107.247 275.104 106.097 275.773 104.9 276.349C104.4 276.599 104.12 277.029 104.28 277.349L106.61 281.959C106.623 282.022 106.623 282.086 106.61 282.149C106.67 282.409 106.67 284.479 106.67 284.479Z" fill="#263238"/>
<path opacity="0.15" d="M91.3398 279.938V289.017C91.5334 289.072 91.7115 289.172 91.8598 289.307L95.9798 293.638C96.1889 293.819 96.4532 293.925 96.7298 293.938V284.858C96.448 284.85 96.1768 284.748 95.9598 284.568L91.8398 280.217C91.6982 280.085 91.5267 279.989 91.3398 279.938Z" fill="black"/>
<path d="M84.3604 279.889V288.969C84.5338 288.908 84.7165 288.878 84.9004 288.879C86.7686 288.994 88.6421 288.994 90.5103 288.879C90.7929 288.868 91.0749 288.912 91.3403 289.009V279.929C91.0698 279.825 90.7798 279.78 90.4903 279.799C88.6255 279.914 86.7552 279.914 84.8904 279.799C84.7097 279.797 84.5302 279.828 84.3604 279.889Z" fill="#263238"/>
<path opacity="0.15" d="M78.8799 284.819V293.899C79.1888 293.809 79.4706 293.644 79.6999 293.419L83.3899 289.529C83.6747 289.266 84.0173 289.074 84.3899 288.969V279.889C84.0143 279.992 83.6706 280.188 83.3899 280.459L79.6699 284.339C79.4476 284.558 79.1771 284.723 78.8799 284.819Z" fill="black"/>
<path d="M68.8496 282.219V284.469V288.029C68.8496 289.639 68.8496 291.209 68.8496 291.279C68.8654 291.399 68.9181 291.512 69.0004 291.602C69.0828 291.691 69.1907 291.753 69.3096 291.779L78.2596 293.909C78.4594 293.962 78.6698 293.962 78.8696 293.909V284.819C78.6629 284.872 78.4463 284.872 78.2396 284.819L69.2896 282.679C69.1776 282.657 69.0751 282.601 68.9963 282.519C68.9175 282.436 68.8662 282.332 68.8496 282.219Z" fill="#37474F"/>
<path opacity="0.15" d="M65.96 273.879V282.959C66.2766 282.979 66.5845 283.071 66.86 283.229C67.5031 283.688 68.1708 284.112 68.86 284.499C68.86 284.499 68.86 282.419 68.86 282.139C68.8623 282.01 68.893 281.884 68.95 281.769L71.1 277.509C71.1553 277.422 71.1923 277.324 71.2086 277.222C71.225 277.12 71.2204 277.016 71.1951 276.916C71.1698 276.816 71.1244 276.722 71.0616 276.64C70.9989 276.558 70.92 276.489 70.83 276.439C69.4312 275.8 68.0925 275.037 66.83 274.159C66.5697 273.991 66.2696 273.894 65.96 273.879Z" fill="black"/>
<path d="M52.21 269.719C52.21 270.169 52.21 278.539 52.21 278.779C52.2121 278.862 52.24 278.942 52.29 279.009L55.86 284.009C56.018 284.191 56.233 284.314 56.47 284.359V275.219C56.2214 275.176 55.9952 275.049 55.83 274.859L52.27 269.859C52.2393 269.817 52.2188 269.769 52.21 269.719Z" fill="#37474F"/>
<path d="M97.18 243.868L106.13 246.008C106.205 246.026 106.276 246.058 106.339 246.104C106.402 246.149 106.454 246.207 106.495 246.273C106.535 246.339 106.561 246.412 106.572 246.489C106.584 246.565 106.579 246.643 106.56 246.718C106.557 246.837 106.527 246.954 106.47 247.058L104.32 251.308C104.266 251.397 104.23 251.495 104.214 251.597C104.198 251.7 104.203 251.804 104.228 251.905C104.254 252.005 104.298 252.1 104.361 252.183C104.423 252.266 104.501 252.336 104.59 252.388C105.3 252.698 105.96 253.038 106.59 253.388C107.279 253.778 107.947 254.206 108.59 254.668C109.044 254.908 109.563 254.995 110.07 254.918L118.28 253.528C118.513 253.482 118.753 253.492 118.981 253.558C119.209 253.624 119.418 253.744 119.59 253.908L123.15 258.908C123.198 258.972 123.226 259.049 123.23 259.128C123.21 259.358 122.98 259.588 122.6 259.708L115.29 262.028C115.061 262.075 114.855 262.201 114.709 262.383C114.563 262.566 114.485 262.794 114.49 263.028C114.64 263.956 114.64 264.901 114.49 265.828C114.455 266.035 114.493 266.248 114.597 266.43C114.701 266.612 114.864 266.753 115.06 266.828L122.8 269.278C122.908 269.306 123.004 269.369 123.071 269.458C123.139 269.547 123.173 269.657 123.17 269.768C123.156 269.948 123.094 270.121 122.99 270.268L119.74 274.788C119.587 274.997 119.384 275.164 119.15 275.274C118.916 275.384 118.658 275.433 118.4 275.418L109.92 273.988C109.347 273.955 108.779 274.117 108.31 274.448C107.219 275.207 106.069 275.876 104.87 276.448C104.37 276.678 104.09 277.118 104.25 277.448L106.58 282.058C106.75 282.388 106.46 282.748 105.95 282.878L97.34 284.938C97.1052 285.001 96.8592 285.011 96.6203 284.966C96.3815 284.921 96.1558 284.822 95.96 284.678L91.83 280.338C91.4461 280.039 90.9661 279.889 90.48 279.918C88.6149 280.028 86.745 280.028 84.88 279.918C84.3104 279.926 83.7673 280.16 83.37 280.568L79.68 284.448C79.4964 284.641 79.2712 284.789 79.0216 284.881C78.7719 284.972 78.5046 285.006 78.24 284.978L69.29 282.838C69.185 282.817 69.0873 282.77 69.0061 282.7C68.925 282.63 68.8634 282.541 68.8271 282.44C68.7909 282.339 68.7813 282.231 68.7993 282.126C68.8174 282.02 68.8624 281.921 68.93 281.838L71.07 277.588C71.1255 277.5 71.1626 277.402 71.1791 277.299C71.1956 277.196 71.1911 277.091 71.1658 276.991C71.1406 276.89 71.0952 276.795 71.0323 276.712C70.9694 276.629 70.8904 276.56 70.8 276.508C69.4012 275.869 68.0625 275.106 66.8 274.228C66.3556 273.972 65.8353 273.88 65.33 273.968L57.11 275.348C56.8788 275.399 56.6386 275.391 56.4114 275.325C56.1842 275.258 55.9774 275.136 55.81 274.968L52.24 269.968C52.1931 269.905 52.1685 269.827 52.17 269.748C52.1714 269.677 52.1922 269.608 52.23 269.548C52.3651 269.357 52.5634 269.219 52.79 269.158L60.1 266.848C60.62 266.648 60.97 266.218 60.9 265.848C60.75 264.921 60.75 263.976 60.9 263.048C60.9361 262.84 60.8978 262.626 60.7918 262.443C60.6857 262.26 60.5187 262.12 60.32 262.048L52.58 259.588C52.4769 259.56 52.386 259.499 52.321 259.414C52.256 259.329 52.2205 259.225 52.22 259.118C52.2283 258.937 52.291 258.763 52.4 258.618L55.64 254.098C55.7943 253.891 55.9973 253.725 56.231 253.615C56.4648 253.505 56.722 253.455 56.98 253.468L65.46 254.898C66.0368 254.922 66.6056 254.757 67.08 254.428C67.61 254.068 68.2 253.678 68.76 253.368C69.32 253.058 70 252.688 70.51 252.458C71.02 252.228 71.3 251.778 71.13 251.458L68.8 246.828C68.7859 246.769 68.7859 246.707 68.8 246.648C68.79 246.378 69.05 246.118 69.47 246.018L78.08 243.958C78.3165 243.896 78.5638 243.887 78.8042 243.932C79.0446 243.977 79.272 244.075 79.47 244.218L83.59 248.518C83.9738 248.818 84.4539 248.967 84.94 248.938C86.8081 248.818 88.6819 248.818 90.55 248.938C91.1187 248.917 91.6582 248.681 92.06 248.278L95.74 244.398C95.9221 244.204 96.1472 244.055 96.3972 243.963C96.6472 243.871 96.9153 243.838 97.18 243.868Z" fill="#455A64"/>
<path d="M428.725 264.318C428.261 264.32 427.797 264.279 427.34 264.196L349.217 249.484C347.297 249.119 345.6 248.007 344.5 246.392C343.4 244.777 342.987 242.791 343.351 240.871C343.715 238.951 344.827 237.254 346.442 236.154C348.057 235.053 350.044 234.64 351.964 235.004L430.086 249.716C431.925 250.016 433.582 251.003 434.722 252.477C435.861 253.952 436.399 255.803 436.226 257.659C436.054 259.514 435.183 261.235 433.791 262.473C432.399 263.712 430.588 264.375 428.725 264.331V264.318Z" fill="#455A64"/>
<path d="M416.513 247.14C409.991 245.914 406.803 260.308 411.977 261.289" stroke="#37474F" stroke-width="1.2" stroke-linecap="round" stroke-linejoin="round"/>
<path d="M403.492 244.678C396.982 243.452 393.782 257.845 398.968 258.826" stroke="#37474F" stroke-width="1.2" stroke-linecap="round" stroke-linejoin="round"/>
<path d="M390.484 242.224C383.962 240.998 380.774 255.392 385.948 256.373" stroke="#37474F" stroke-width="1.2" stroke-linecap="round" stroke-linejoin="round"/>
<path d="M377.502 239.762C370.992 238.536 367.792 252.929 372.978 253.91" stroke="#37474F" stroke-width="1.2" stroke-linecap="round" stroke-linejoin="round"/>
<path d="M364.456 237.297C357.934 236.071 354.746 250.464 359.932 251.445" stroke="#37474F" stroke-width="1.2" stroke-linecap="round" stroke-linejoin="round"/>
<path opacity="0.15" d="M343.172 242.225C343.177 243.936 343.778 245.592 344.872 246.908C345.966 248.224 347.485 249.117 349.167 249.434L427.29 264.146C427.747 264.229 428.211 264.27 428.675 264.269C430.393 264.269 432.056 263.669 433.377 262.571C434.698 261.474 435.594 259.949 435.909 258.261V258.004L343.172 242.225Z" fill="black"/>
<path d="M512.879 199.977C507.044 198.432 497.861 197.954 490.124 204.121C483.822 209.147 476.54 231.817 474.1 239.675L432.795 239.577C430.524 239.858 428.404 240.864 426.751 242.446C419.836 249.312 418.524 256.987 419.113 264.294C419.48 268.806 422.546 271.92 424.74 272.3C425.402 272.435 479.74 283.432 487.452 284.793C500.288 287.061 497.493 287.037 505.082 276.15C510.072 269.002 510.072 258.434 510.072 251.445C510.072 244.457 513.21 232.895 515.859 223.835C518.507 214.775 518.715 201.521 512.879 199.977Z" fill="#6CAF3A"/>
<path opacity="0.15" d="M504.592 200.136C497.727 202.686 493.472 208.718 491.388 217.95C489.304 227.182 491.155 234.82 489.206 248.147C487.907 255.402 485.596 262.439 482.34 269.051C479.692 274.065 475.928 276.15 468.854 274.924C461.779 273.698 436.793 270.019 430.258 266.991C428.417 266.171 426.863 264.821 425.793 263.113C424.723 261.406 424.186 259.418 424.251 257.404C428.489 257.382 432.689 256.61 436.658 255.123C442.236 252.769 441.82 250.096 441.648 248.638L434.905 239.577H432.821C430.549 239.858 428.43 240.864 426.776 242.446C419.861 249.312 418.55 256.987 419.138 264.294C419.506 268.806 422.571 271.92 424.766 272.3C425.428 272.435 479.765 283.432 487.477 284.793C500.313 287.061 497.518 287.037 505.107 276.15C510.097 269.002 510.097 258.433 510.097 251.445C510.097 244.457 513.236 232.895 515.884 223.835C516.779 220.724 517.342 217.526 517.564 214.296C512.365 205.788 507.265 199.13 504.592 200.136Z" fill="black"/>
<path d="M512.88 199.976L511.74 199.694C510.479 199.418 509.201 199.222 507.915 199.105C499.1 200.871 494.944 208.669 493.681 219.384C492.418 230.1 493.57 242.102 492.786 249.569C492.001 257.035 487.354 269.05 487.661 276.983C487.614 279.985 488.539 282.923 490.297 285.357C499.848 287.036 498.082 286.178 505.009 276.198C509.999 269.05 509.999 258.482 509.999 251.494C509.999 244.505 513.138 232.944 515.786 223.884C518.434 214.823 518.716 201.521 512.88 199.976Z" fill="#455A64"/>
<path opacity="0.15" d="M474.1 239.676C472.405 246.417 471.091 253.249 470.165 260.138C469.229 253.35 469.229 246.464 470.165 239.676H474.1Z" fill="black"/>
<path d="M500.104 212.224C496.095 222.522 497.652 238.167 496.769 248.294C495.886 258.421 491.301 272.593 492 277.951C492.699 283.309 495.384 287.048 499.479 284.658C501.641 283.044 503.392 280.944 504.591 278.527C505.817 276.161 506.663 273.623 507.252 272.164C510.084 265.446 510.084 257.219 510.084 251.432C510.084 244.444 513.222 232.882 515.871 223.822C517.857 217.042 518.47 207.884 516.202 203.127C514.436 199.203 504.505 200.907 500.104 212.224Z" fill="#37474F"/>
<path d="M497.113 238.044C497.113 238.522 497.113 239 497.113 239.479L514.278 229.585C514.425 229.021 514.584 228.457 514.744 227.893L497.113 238.044Z" fill="#263238"/>
<path d="M516.558 203.984L499.553 213.793C499.381 214.344 499.222 214.908 499.062 215.497L516.938 205.174C516.828 204.769 516.693 204.364 516.558 203.984Z" fill="#263238"/>
<path d="M512.365 236.867L496.941 245.768C496.941 246.271 496.88 246.761 496.855 247.239L511.972 238.51C512.083 237.958 512.218 237.419 512.365 236.867Z" fill="#263238"/>
<path d="M493.974 264.085L510.071 254.791C510.071 254.313 510.071 253.835 510.071 253.369L494.305 262.479C494.194 263.018 494.084 263.557 493.974 264.085Z" fill="#263238"/>
<path d="M497.261 230.357V231.791L516.718 220.561C516.828 220.033 516.926 219.506 517.024 218.967L497.261 230.357Z" fill="#263238"/>
<path d="M496.01 253.909C495.911 254.436 495.826 254.964 495.728 255.491L510.44 247.019C510.501 246.516 510.575 246.001 510.648 245.486L496.01 253.909Z" fill="#263238"/>
<path d="M517.637 212.395C517.637 211.917 517.637 211.439 517.637 210.973L497.812 222.424C497.812 222.926 497.701 223.417 497.652 223.932L517.637 212.395Z" fill="#263238"/>
<path d="M507.534 271.491C507.755 270.902 507.951 270.265 508.147 269.713L492.209 278.933C492.298 279.351 492.421 279.761 492.577 280.159L507.534 271.491Z" fill="#263238"/>
<path d="M509.581 262.749C509.581 262.234 509.704 261.731 509.753 261.229L492.589 271.184C492.49 271.723 492.405 272.251 492.331 272.753L509.581 262.749Z" fill="#263238"/>
<path d="M423.968 254.278C433.506 255.185 441.255 251.715 441.623 248.638C441.623 248.638 443.928 235.789 426.91 234.416C409.893 233.043 409.427 245.512 409.427 245.512C409.378 248.454 414.417 253.383 423.968 254.278Z" fill="#6CAF3A"/>
<path opacity="0.7" d="M423.968 254.278C433.506 255.185 441.255 251.715 441.623 248.638C441.623 248.638 443.928 235.789 426.91 234.416C409.893 233.043 409.427 245.512 409.427 245.512C409.378 248.454 414.417 253.383 423.968 254.278Z" fill="white"/>
<path d="M441.622 248.636C441.857 246.886 441.7 245.106 441.161 243.424C440.622 241.742 439.716 240.202 438.508 238.914C439.157 240.14 441.879 246.393 431.912 249.262C420.804 252.437 410.615 245.461 410.051 242.715C409.723 243.615 409.516 244.555 409.438 245.51C409.438 248.453 414.416 253.381 423.967 254.276C433.518 255.171 441.254 251.714 441.622 248.636Z" fill="#6CAF3A"/>
<path opacity="0.05" d="M441.622 248.636C441.857 246.886 441.7 245.106 441.161 243.424C440.622 241.742 439.716 240.202 438.508 238.914C439.157 240.14 441.879 246.393 431.912 249.262C420.804 252.437 410.615 245.461 410.051 242.715C409.723 243.615 409.516 244.555 409.438 245.51C409.438 248.453 414.416 253.381 423.967 254.276C433.518 255.171 441.254 251.714 441.622 248.636Z" fill="black"/>
<path d="M405.284 130.938C405.039 128.278 404.058 122.748 399.411 120.566C394.765 118.384 392.251 120.566 392.913 122.601C393.575 124.636 398.369 125.286 398.565 132.274C398.565 132.274 402.734 134.077 405.284 130.938Z" fill="#455A64"/>
<path opacity="0.15" d="M401.238 129.859C400.979 128.368 400.408 126.949 399.563 125.694C398.718 124.439 397.617 123.377 396.334 122.576C394.85 121.411 394.617 120.198 396.334 119.683C393.685 119.45 392.374 121.056 392.876 122.601C393.551 124.673 398.332 125.286 398.528 132.274C399.484 132.648 400.507 132.819 401.532 132.777C401.508 131.906 401.397 130.876 401.238 129.859Z" fill="black"/>
<path d="M395.303 135.781C398.306 129.651 407.845 128.866 415.262 135.781C426.395 146.166 428.221 156.452 423.526 161.92C418.83 167.388 411.658 165.819 405.282 160.081C400.378 155.63 390.987 144.572 395.303 135.781Z" fill="#6CAF3A"/>
<path opacity="0.1" d="M423.527 161.894C424.99 160.149 425.831 157.967 425.918 155.691C425.341 158.756 423.797 160.926 421.712 161.662C419.162 162.569 414.626 163.979 407.098 156.193C399.57 148.408 395.622 135.474 400.747 131.342C399.58 131.653 398.492 132.207 397.554 132.968C396.616 133.728 395.849 134.678 395.304 135.755C390.963 144.571 400.379 155.629 405.283 160.055C411.659 165.793 418.831 167.375 423.527 161.894Z" fill="black"/>
<path d="M379.23 159.481C360.361 149.439 350.087 144.425 340.794 149.243L336.27 140.514C350.577 133.096 364.53 140.514 383.852 150.812L379.23 159.481Z" fill="#455A64"/>
<path d="M352.404 137.793C354.856 139.522 356.082 144.879 353.63 148.043" stroke="#37474F" stroke-width="1.02" stroke-linecap="round" stroke-linejoin="round"/>
<path d="M364.444 141.225C366.16 142.635 367.325 148.397 364.015 151.768" stroke="#37474F" stroke-width="1.02" stroke-linecap="round" stroke-linejoin="round"/>
<path opacity="0.15" d="M340.794 149.267C350.087 144.449 360.41 149.463 379.23 159.504L381.142 155.924C376.824 153.16 372.318 150.702 367.656 148.568C354.378 142.561 349.327 141.886 338.918 145.773L340.794 149.267Z" fill="black"/>
<path d="M335.562 161.577C343.694 158.209 347.556 148.885 344.187 140.753C340.819 132.621 331.495 128.759 323.363 132.127C315.23 135.496 311.368 144.819 314.737 152.952C318.106 161.084 327.429 164.946 335.562 161.577Z" fill="#6CAF3A"/>
<path opacity="0.25" d="M335.562 161.577C343.694 158.209 347.556 148.885 344.187 140.753C340.819 132.621 331.495 128.759 323.363 132.127C315.23 135.496 311.368 144.819 314.737 152.952C318.106 161.084 327.429 164.946 335.562 161.577Z" fill="black"/>
<path d="M313.687 273.612C335.585 273.612 353.337 255.86 353.337 233.962C353.337 212.064 335.585 194.312 313.687 194.312C291.789 194.312 274.037 212.064 274.037 233.962C274.037 255.86 291.789 273.612 313.687 273.612Z" fill="#6CAF3A"/>
<path opacity="0.35" d="M313.687 273.612C335.585 273.612 353.337 255.86 353.337 233.962C353.337 212.064 335.585 194.312 313.687 194.312C291.789 194.312 274.037 212.064 274.037 233.962C274.037 255.86 291.789 273.612 313.687 273.612Z" fill="black"/>
<path opacity="0.15" d="M316.2 265.029C306.392 263.901 301.709 257.979 301.709 257.979C301.709 257.979 336.111 258.077 352.589 226.103C351.383 220.175 348.838 214.602 345.149 209.809C341.461 205.015 336.725 201.128 331.305 198.443L284.973 206.682C281.157 210.724 278.234 215.522 276.392 220.767C274.551 226.011 273.833 231.584 274.284 237.124C274.736 242.664 276.347 248.047 279.014 252.924C281.68 257.801 285.342 262.063 289.762 265.433C294.183 268.803 299.262 271.206 304.671 272.486C310.079 273.767 315.697 273.895 321.159 272.864C326.621 271.833 331.805 269.665 336.374 266.501C340.944 263.337 344.798 259.247 347.685 254.497C339.765 263.803 326.156 266.194 316.2 265.029Z" fill="black"/>
<path d="M352.27 212.775L352.061 212.358C352 212.248 351.951 212.137 351.902 212.039C347.494 202.546 343.882 192.705 341.1 182.615C337.893 170.685 335.986 158.443 335.412 146.104H244.023C244.023 180.334 250.595 213.964 265.565 239.993C268.115 245.007 273.509 249.151 281.503 251.579C301.23 257.55 329.404 250.954 344.435 236.867C353.14 228.775 355.531 219.947 352.27 212.775Z" fill="#6CAF3A"/>
<path opacity="0.1" d="M342.253 238.841C335.853 243.549 321.337 249.397 310.474 249.299C298.042 249.176 273.117 242.286 264.204 222.829C255.291 203.372 252.446 167.375 252.446 167.375C252.446 167.375 263.002 173.432 286.898 172.844L283.771 146.141H244.048C244.048 180.371 250.619 214.001 265.589 240.03C268.139 245.044 273.534 249.188 281.528 251.616C300.335 257.305 326.793 251.579 342.253 238.841Z" fill="black"/>
<path d="M347.047 200.552C346.924 200.221 346.789 199.89 346.667 199.546C346.544 199.203 346.519 199.154 346.434 198.958V198.823C344.778 194.348 342.939 188.917 341.149 182.652C339.186 175.551 337.732 168.32 336.797 161.012V160.914C337.815 168.332 333.413 175.97 323.556 181.646C311.786 188.438 295.186 190.768 280.13 188.586C281.895 205.468 287.584 223.233 296.951 236.621C311.663 237.7 328.938 232.244 338.722 223.135C346.679 215.558 349.302 207.417 347.047 200.552Z" fill="#37474F"/>
<path d="M344.717 199.657C344.595 199.338 344.484 198.995 344.362 198.652L344.141 198.063V197.928C342.572 193.417 340.831 187.948 339.176 181.659C337.955 176.977 336.981 172.234 336.258 167.449C334.725 172.648 330.495 177.638 323.531 181.647C311.762 188.439 295.161 190.768 280.105 188.586C281.748 204.23 286.751 220.61 294.928 233.581C309.224 234.476 326.388 230.614 335.927 222.032C344.055 214.664 346.851 206.572 344.717 199.657Z" fill="#455A64"/>
<path d="M317.646 195.477L313.036 193.393C313.036 193.393 296.203 197.328 286.063 196.384C286.13 201.424 286.78 206.439 288.001 211.329C289.172 216 291.032 220.471 293.518 224.595L298.826 227.17L317.646 195.477Z" fill="#263238"/>
<path d="M289.828 200.589C289.828 207.001 295.137 222.768 298.839 227.169C298.839 227.169 317.438 226.299 325.444 218.967C325.187 216.92 317.647 195.477 317.647 195.477C312.73 199.106 298.202 200.601 289.828 200.589Z" fill="#37474F"/>
<path d="M319.621 217.974C320.643 217.974 321.472 217.145 321.472 216.123C321.472 215.1 320.643 214.271 319.621 214.271C318.598 214.271 317.77 215.1 317.77 216.123C317.77 217.145 318.598 217.974 319.621 217.974Z" fill="#6CAF3A"/>
<path d="M313.943 218.883C314.444 218.883 314.851 218.477 314.851 217.976C314.851 217.475 314.444 217.068 313.943 217.068C313.442 217.068 313.036 217.475 313.036 217.976C313.036 218.477 313.442 218.883 313.943 218.883Z" fill="#6CAF3A"/>
<path d="M318.738 205.812C318.658 205.829 318.574 205.829 318.493 205.812C318.374 205.812 318.256 205.778 318.156 205.712C318.056 205.647 317.977 205.554 317.929 205.444C317.871 205.292 317.873 205.124 317.934 204.974C317.996 204.823 318.112 204.702 318.26 204.635C319.073 204.296 319.735 203.671 320.119 202.878C320.503 202.085 320.583 201.179 320.344 200.331L316.017 185.104C316.397 184.957 316.789 184.81 317.157 184.65L321.521 200C321.857 201.142 321.758 202.367 321.244 203.44C320.73 204.513 319.838 205.357 318.738 205.812Z" fill="#6CAF3A"/>
<path d="M311.296 208.179C311.215 208.196 311.131 208.196 311.05 208.179C310.93 208.177 310.812 208.14 310.712 208.073C310.612 208.005 310.534 207.91 310.486 207.799C310.428 207.647 310.43 207.479 310.491 207.329C310.553 207.178 310.67 207.057 310.818 206.99C311.628 206.651 312.286 206.028 312.667 205.237C313.049 204.447 313.128 203.544 312.889 202.699L308.537 187.349L309.763 187.055L314.116 202.368C314.449 203.514 314.345 204.742 313.824 205.816C313.303 206.89 312.402 207.732 311.296 208.179Z" fill="#6CAF3A"/>
<path d="M303.94 210.568C303.863 210.585 303.784 210.585 303.707 210.568C303.585 210.57 303.466 210.537 303.363 210.471C303.26 210.406 303.179 210.311 303.131 210.2C303.072 210.048 303.074 209.88 303.136 209.73C303.197 209.579 303.314 209.458 303.462 209.391C304.275 209.052 304.935 208.426 305.317 207.633C305.699 206.84 305.776 205.934 305.534 205.087L300.899 188.769L302.125 188.609L306.699 204.756C307.038 205.895 306.944 207.118 306.435 208.191C305.926 209.265 305.037 210.111 303.94 210.568Z" fill="#6CAF3A"/>
<g opacity="0.3">
<path opacity="0.3" d="M318.737 205.812C318.657 205.829 318.573 205.829 318.492 205.812C318.373 205.812 318.255 205.778 318.155 205.712C318.055 205.647 317.976 205.554 317.928 205.444C317.87 205.292 317.872 205.124 317.933 204.974C317.995 204.823 318.111 204.702 318.259 204.635C319.073 204.296 319.734 203.671 320.118 202.878C320.502 202.085 320.582 201.179 320.344 200.331L316.016 185.104C316.396 184.957 316.788 184.81 317.156 184.65L321.52 200C321.856 201.142 321.757 202.367 321.243 203.44C320.729 204.513 319.837 205.357 318.737 205.812Z" fill="black"/>
<path opacity="0.3" d="M311.296 208.177C311.215 208.194 311.131 208.194 311.05 208.177C310.93 208.175 310.812 208.138 310.712 208.071C310.612 208.003 310.534 207.908 310.486 207.797C310.428 207.645 310.43 207.477 310.491 207.327C310.553 207.176 310.67 207.055 310.818 206.988C311.628 206.649 312.286 206.026 312.667 205.235C313.049 204.445 313.128 203.542 312.889 202.697L308.537 187.347L309.763 187.053L314.116 202.366C314.449 203.512 314.345 204.74 313.824 205.814C313.303 206.888 312.402 207.73 311.296 208.177Z" fill="black"/>
<path opacity="0.3" d="M303.939 210.57C303.862 210.587 303.783 210.587 303.706 210.57C303.584 210.572 303.465 210.539 303.362 210.473C303.259 210.408 303.178 210.313 303.13 210.202C303.071 210.05 303.073 209.882 303.135 209.731C303.196 209.581 303.313 209.46 303.461 209.393C304.274 209.054 304.934 208.428 305.316 207.635C305.698 206.842 305.775 205.936 305.533 205.089L300.898 188.771L302.124 188.611L306.698 204.758C307.037 205.896 306.943 207.12 306.434 208.193C305.925 209.267 305.036 210.113 303.939 210.57Z" fill="black"/>
</g>
<path d="M323.557 181.646C322.613 182.198 321.62 182.7 320.614 183.191C321.693 188.671 323.679 197.192 325.69 201.814C325.69 201.814 335.498 198.847 338.747 192.398C336.671 185.899 335.032 179.267 333.843 172.549C331.154 176.327 327.635 179.439 323.557 181.646Z" fill="#37474F"/>
<path d="M332.481 180.262C332.481 180.473 332.418 180.679 332.301 180.855C332.184 181.03 332.017 181.167 331.822 181.247C331.628 181.328 331.413 181.349 331.206 181.308C330.999 181.267 330.809 181.165 330.66 181.016C330.511 180.867 330.409 180.677 330.368 180.47C330.327 180.263 330.348 180.049 330.429 179.854C330.51 179.659 330.646 179.492 330.822 179.375C330.997 179.258 331.203 179.195 331.414 179.195C331.554 179.195 331.693 179.223 331.822 179.277C331.952 179.33 332.069 179.409 332.169 179.508C332.268 179.607 332.346 179.724 332.4 179.854C332.453 179.983 332.481 180.122 332.481 180.262Z" fill="#6CAF3A"/>
<path d="M333.99 185.104C333.99 185.315 333.927 185.522 333.809 185.698C333.691 185.873 333.524 186.01 333.328 186.09C333.133 186.171 332.918 186.191 332.71 186.149C332.503 186.107 332.313 186.004 332.165 185.854C332.016 185.703 331.915 185.512 331.875 185.304C331.836 185.097 331.859 184.882 331.941 184.687C332.024 184.492 332.162 184.327 332.339 184.211C332.516 184.095 332.724 184.035 332.935 184.037C333.075 184.037 333.213 184.065 333.342 184.119C333.47 184.172 333.587 184.251 333.685 184.35C333.783 184.45 333.861 184.567 333.913 184.697C333.965 184.826 333.991 184.964 333.99 185.104Z" fill="#6CAF3A"/>
<path d="M336.124 190.031C336.124 190.242 336.061 190.449 335.944 190.624C335.827 190.799 335.66 190.936 335.465 191.017C335.27 191.098 335.056 191.119 334.849 191.078C334.642 191.036 334.452 190.935 334.303 190.786C334.154 190.637 334.052 190.446 334.011 190.24C333.97 190.033 333.991 189.818 334.071 189.623C334.152 189.428 334.289 189.262 334.464 189.145C334.64 189.027 334.846 188.965 335.057 188.965C335.34 188.965 335.611 189.077 335.811 189.277C336.011 189.477 336.124 189.749 336.124 190.031Z" fill="#6CAF3A"/>
<path d="M327.382 197.977C327.259 197.977 327.139 197.941 327.036 197.874C326.934 197.806 326.854 197.71 326.806 197.597C325.407 193.251 324.269 188.825 323.397 184.344C323.372 184.183 323.411 184.019 323.504 183.886C323.598 183.753 323.74 183.662 323.9 183.633C324.062 183.611 324.226 183.652 324.358 183.748C324.49 183.844 324.581 183.987 324.611 184.148C325.473 188.519 326.587 192.838 327.946 197.082C328.007 197.232 328.006 197.399 327.944 197.549C327.882 197.698 327.764 197.817 327.615 197.879C327.545 197.929 327.466 197.962 327.382 197.977Z" fill="#6CAF3A"/>
<path d="M330.753 195.858C330.63 195.858 330.51 195.822 330.408 195.754C330.305 195.687 330.225 195.59 330.177 195.477C328.784 191.13 327.646 186.704 326.769 182.224C326.741 182.061 326.779 181.895 326.874 181.76C326.97 181.626 327.115 181.534 327.277 181.507C327.44 181.479 327.607 181.517 327.741 181.613C327.876 181.708 327.967 181.853 327.995 182.016C328.852 186.405 329.966 190.74 331.329 194.999C331.391 195.151 331.391 195.32 331.329 195.471C331.267 195.623 331.148 195.744 330.998 195.808C330.92 195.838 330.837 195.854 330.753 195.858Z" fill="#6CAF3A"/>
<path d="M410.273 187.667C410.273 187.667 402.317 200.283 383.951 207.001C373.613 210.703 362.625 212.239 351.669 211.513C347.389 202.189 343.859 192.538 341.113 182.653C339.145 175.553 337.691 168.321 336.761 161.013C336.761 161.013 350.934 162.852 366.112 153.35C383.423 142.525 387.384 130.914 387.384 130.914C398.124 146.056 405.7 165.133 410.273 187.667Z" fill="#6CAF3A"/>
<path opacity="0.25" d="M410.273 187.667C410.273 187.667 402.317 200.283 383.951 207.001C373.613 210.703 362.625 212.239 351.669 211.513C347.389 202.189 343.859 192.538 341.113 182.653C339.145 175.553 337.691 168.321 336.761 161.013C336.761 161.013 350.934 162.852 366.112 153.35C383.423 142.525 387.384 130.914 387.384 130.914C398.124 146.056 405.7 165.133 410.273 187.667Z" fill="black"/>
<path opacity="0.25" d="M410.273 187.667C405.651 165.133 398.123 146.056 387.383 130.914C386.84 132.299 386.166 133.629 385.372 134.886C394.543 145.577 405.614 172.231 407.441 191.284C408.469 190.146 409.415 188.938 410.273 187.667Z" fill="black"/>
<path d="M388.339 172.966C390.08 172.966 391.49 171.555 391.49 169.815C391.49 168.075 390.08 166.664 388.339 166.664C386.599 166.664 385.188 168.075 385.188 169.815C385.188 171.555 386.599 172.966 388.339 172.966Z" fill="#37474F"/>
<path d="M289.717 172.882C314.96 172.882 335.424 161.069 335.424 146.497C335.424 131.926 314.96 120.113 289.717 120.113C264.474 120.113 244.011 131.926 244.011 146.497C244.011 161.069 264.474 172.882 289.717 172.882Z" fill="#6CAF3A"/>
<path opacity="0.5" d="M289.717 172.882C314.96 172.882 335.424 161.069 335.424 146.497C335.424 131.926 314.96 120.113 289.717 120.113C264.474 120.113 244.011 131.926 244.011 146.497C244.011 161.069 264.474 172.882 289.717 172.882Z" fill="white"/>
<path opacity="0.1" d="M257.35 127.837C250.386 131.87 246.144 136.86 244.624 142.071C245.85 146.583 249.455 150.911 255.462 154.331C270.555 163.048 295.014 163.048 310.106 154.331C325.199 145.614 325.186 131.65 310.351 122.933C293.248 117.943 271.744 119.561 257.35 127.837Z" fill="black"/>
<path d="M349.707 198.308C347.933 197.152 345.818 196.638 343.712 196.849C341.254 197.082 338.936 198.101 337.103 199.755C336.895 199.939 336.699 200.135 336.515 200.343C334.111 200.972 331.982 202.377 330.458 204.34C329.651 205.369 329.089 206.568 328.816 207.847C328.027 208.797 327.518 209.947 327.344 211.169C327.151 213.093 327.709 215.017 328.901 216.539C329.875 217.808 331.103 218.858 332.507 219.623C333.912 220.387 335.461 220.849 337.054 220.978C337.68 220.364 338.28 219.751 338.832 219.126C336.494 219.283 334.176 218.61 332.285 217.226C331.304 216.6 330.496 215.737 329.934 214.718C329.373 213.698 329.077 212.554 329.073 211.39V211.513C329.523 212.59 330.19 213.562 331.034 214.368C331.878 215.174 332.88 215.796 333.977 216.196C335.016 216.656 336.162 216.818 337.288 216.664C338.414 216.511 339.475 216.047 340.352 215.326C340.872 214.851 341.289 214.275 341.578 213.634C341.962 213.658 342.347 213.658 342.731 213.634C343.781 213.7 344.83 213.478 345.763 212.992C346.697 212.506 347.48 211.774 348.027 210.875C348.476 209.966 348.723 208.97 348.75 207.956C348.778 206.942 348.586 205.935 348.187 205.002C347.584 203.499 346.503 202.236 345.109 201.41C344.65 201.125 344.166 200.883 343.663 200.687C342.242 200.132 340.725 199.865 339.2 199.902C340.64 198.852 342.332 198.201 344.104 198.014C345.051 197.905 346.007 197.926 346.948 198.075C347.831 198.214 348.687 198.487 349.486 198.884C350.001 199.142 350.038 198.504 349.707 198.308ZM331.55 205.542C332.46 204.24 333.683 203.186 335.105 202.477C334.758 203.2 334.51 203.967 334.369 204.757C333.338 204.936 332.341 205.275 331.415 205.762C331.454 205.674 331.499 205.588 331.55 205.505V205.542ZM335.73 214.847C334.82 214.671 333.954 214.314 333.184 213.798C332.413 213.282 331.753 212.618 331.243 211.844C330.592 210.838 330.311 209.638 330.446 208.447C331.47 207.383 332.797 206.659 334.247 206.375C334.252 207.323 334.45 208.26 334.829 209.129C335.209 209.997 335.761 210.779 336.454 211.427C337.42 212.27 338.558 212.893 339.788 213.254C339.355 213.9 338.732 214.396 338.006 214.674C337.279 214.953 336.485 215.001 335.73 214.811V214.847ZM338.182 210.593C337.532 210.077 337.003 209.424 336.635 208.68C336.266 207.936 336.066 207.12 336.049 206.29C336.653 206.334 337.24 206.506 337.772 206.793C338.305 207.08 338.77 207.477 339.139 207.957C339.973 208.998 340.408 210.302 340.365 211.635C339.566 211.408 338.812 211.047 338.133 210.569L338.182 210.593ZM342.265 201.9C343.468 202.226 344.56 202.87 345.428 203.764C345.808 204.143 346.123 204.582 346.36 205.064C347.09 206.432 347.274 208.027 346.875 209.526C346.646 210.209 346.217 210.808 345.645 211.245C345.072 211.682 344.382 211.937 343.663 211.978C343.15 212.04 342.631 212.04 342.118 211.978C342.243 211.028 342.159 210.061 341.873 209.146C341.579 208.101 341.021 207.149 340.252 206.382C339.483 205.615 338.53 205.06 337.484 204.769C337.052 204.675 336.613 204.618 336.172 204.598C336.385 203.518 336.837 202.5 337.496 201.619C339.066 201.314 340.686 201.398 342.216 201.864L342.265 201.9Z" fill="#6CAF3A"/>
<path opacity="0.5" d="M349.707 198.308C347.933 197.152 345.818 196.638 343.712 196.849C341.254 197.082 338.936 198.101 337.103 199.755C336.895 199.939 336.699 200.135 336.515 200.343C334.111 200.972 331.982 202.377 330.458 204.34C329.651 205.369 329.089 206.568 328.816 207.847C328.027 208.797 327.518 209.947 327.344 211.169C327.151 213.093 327.709 215.017 328.901 216.539C329.875 217.808 331.103 218.858 332.507 219.623C333.912 220.387 335.461 220.849 337.054 220.978C337.68 220.364 338.28 219.751 338.832 219.126C336.494 219.283 334.176 218.61 332.285 217.226C331.304 216.6 330.496 215.737 329.934 214.718C329.373 213.698 329.077 212.554 329.073 211.39V211.513C329.523 212.59 330.19 213.562 331.034 214.368C331.878 215.174 332.88 215.796 333.977 216.196C335.016 216.656 336.162 216.818 337.288 216.664C338.414 216.511 339.475 216.047 340.352 215.326C340.872 214.851 341.289 214.275 341.578 213.634C341.962 213.658 342.347 213.658 342.731 213.634C343.781 213.7 344.83 213.478 345.763 212.992C346.697 212.506 347.48 211.774 348.027 210.875C348.476 209.966 348.723 208.97 348.75 207.956C348.778 206.942 348.586 205.935 348.187 205.002C347.584 203.499 346.503 202.236 345.109 201.41C344.65 201.125 344.166 200.883 343.663 200.687C342.242 200.132 340.725 199.865 339.2 199.902C340.64 198.852 342.332 198.201 344.104 198.014C345.051 197.905 346.007 197.926 346.948 198.075C347.831 198.214 348.687 198.487 349.486 198.884C350.001 199.142 350.038 198.504 349.707 198.308ZM331.55 205.542C332.46 204.24 333.683 203.186 335.105 202.477C334.758 203.2 334.51 203.967 334.369 204.757C333.338 204.936 332.341 205.275 331.415 205.762C331.454 205.674 331.499 205.588 331.55 205.505V205.542ZM335.73 214.847C334.82 214.671 333.954 214.314 333.184 213.798C332.413 213.282 331.753 212.618 331.243 211.844C330.592 210.838 330.311 209.638 330.446 208.447C331.47 207.383 332.797 206.659 334.247 206.375C334.252 207.323 334.45 208.26 334.829 209.129C335.209 209.997 335.761 210.779 336.454 211.427C337.42 212.27 338.558 212.893 339.788 213.254C339.355 213.9 338.732 214.396 338.006 214.674C337.279 214.953 336.485 215.001 335.73 214.811V214.847ZM338.182 210.593C337.532 210.077 337.003 209.424 336.635 208.68C336.266 207.936 336.066 207.12 336.049 206.29C336.653 206.334 337.24 206.506 337.772 206.793C338.305 207.08 338.77 207.477 339.139 207.957C339.973 208.998 340.408 210.302 340.365 211.635C339.566 211.408 338.812 211.047 338.133 210.569L338.182 210.593ZM342.265 201.9C343.468 202.226 344.56 202.87 345.428 203.764C345.808 204.143 346.123 204.582 346.36 205.064C347.09 206.432 347.274 208.027 346.875 209.526C346.646 210.209 346.217 210.808 345.645 211.245C345.072 211.682 344.382 211.937 343.663 211.978C343.15 212.04 342.631 212.04 342.118 211.978C342.243 211.028 342.159 210.061 341.873 209.146C341.579 208.101 341.021 207.149 340.252 206.382C339.483 205.615 338.53 205.06 337.484 204.769C337.052 204.675 336.613 204.618 336.172 204.598C336.385 203.518 336.837 202.5 337.496 201.619C339.066 201.314 340.686 201.398 342.216 201.864L342.265 201.9Z" fill="white"/>
<path opacity="0.15" d="M327.381 210.974C327.773 212.001 328.476 212.88 329.392 213.488C329.14 212.806 329.031 212.08 329.073 211.354V211.477C328.733 210.282 328.633 209.032 328.779 207.799C328.041 208.716 327.559 209.811 327.381 210.974Z" fill="black"/>
<path opacity="0.15" d="M330.912 207.97C330.958 207.203 331.119 206.446 331.39 205.727C330.846 206.525 330.513 207.449 330.422 208.412C330.577 208.255 330.74 208.108 330.912 207.97Z" fill="black"/>
<path opacity="0.15" d="M333.598 203.396C334.067 203.028 334.572 202.707 335.106 202.44C335.462 201.66 335.937 200.94 336.516 200.307C336.099 200.422 335.69 200.561 335.29 200.723C334.498 201.448 333.914 202.371 333.598 203.396Z" fill="black"/>
<path opacity="0.15" d="M334.37 204.721C334.139 204.758 333.91 204.807 333.683 204.868C333.545 205.428 333.451 205.997 333.401 206.572C333.683 206.486 333.965 206.4 334.247 206.339C334.206 205.796 334.247 205.251 334.37 204.721Z" fill="black"/>
<path opacity="0.15" d="M341.603 213.597C340.992 213.501 340.386 213.374 339.788 213.217C339.595 213.526 339.355 213.803 339.077 214.038C339.609 214.394 340.211 214.633 340.843 214.737C341.139 214.387 341.394 214.005 341.603 213.597Z" fill="black"/>
<path opacity="0.15" d="M339.224 199.928C338.582 200.447 337.987 201.021 337.446 201.644C337.667 201.644 337.888 201.583 338.096 201.546C338.427 200.976 338.804 200.435 339.224 199.928Z" fill="black"/>
<path opacity="0.15" d="M336.001 206.253L336.368 206.326C336.282 205.77 336.282 205.203 336.368 204.646H336.123C336.028 205.176 335.987 205.714 336.001 206.253Z" fill="black"/>
<path opacity="0.15" d="M342.13 211.316C341.513 211.421 340.883 211.421 340.267 211.316C340.273 211.427 340.273 211.537 340.267 211.647C340.846 211.839 341.448 211.958 342.057 212.003C342.094 211.776 342.118 211.546 342.13 211.316Z" fill="black"/>
<path d="M265.528 192.963C265.528 196.395 264.376 198.848 262.5 200.086C262.024 200.341 261.532 200.566 261.029 200.76C258.612 201.704 256.001 202.044 253.422 201.75C250.844 201.456 248.377 200.536 246.235 199.072C244.093 197.608 242.34 195.642 241.13 193.347C239.92 191.052 239.289 188.495 239.291 185.901C239.287 183.448 239.852 181.028 240.941 178.83C242.03 176.633 243.614 174.718 245.568 173.236C245.579 173.209 245.595 173.185 245.617 173.166C245.638 173.147 245.663 173.133 245.691 173.125C245.887 172.991 246.059 172.856 246.255 172.733C248.278 171.507 251.085 171.728 254.2 173.518C260.489 177.061 265.528 185.778 265.528 192.963Z" fill="#6CAF3A"/>
<path opacity="0.25" d="M265.528 192.963C265.528 196.395 264.376 198.848 262.5 200.086C262.024 200.341 261.532 200.566 261.029 200.76C258.612 201.704 256.001 202.044 253.422 201.75C250.844 201.456 248.377 200.536 246.235 199.072C244.093 197.608 242.34 195.642 241.13 193.347C239.92 191.052 239.289 188.495 239.291 185.901C239.287 183.448 239.852 181.028 240.941 178.83C242.03 176.633 243.614 174.718 245.568 173.236C245.579 173.209 245.595 173.185 245.617 173.166C245.638 173.147 245.663 173.133 245.691 173.125C245.887 172.991 246.059 172.856 246.255 172.733C248.278 171.507 251.085 171.728 254.2 173.518C260.489 177.061 265.528 185.778 265.528 192.963Z" fill="black"/>
<path opacity="0.1" d="M265.527 192.962C265.527 187.421 262.523 180.972 258.294 176.656C261.444 180.604 264.424 190.67 260.574 195.807C256.724 200.944 242.527 198.026 239.731 189.591C240.258 191.808 241.254 193.887 242.652 195.687C244.05 197.487 245.818 198.966 247.836 200.025C249.855 201.083 252.076 201.697 254.352 201.824C256.628 201.95 258.904 201.588 261.028 200.76C261.527 200.57 262.014 200.348 262.487 200.098C264.375 198.847 265.527 196.395 265.527 192.962Z" fill="black"/>
<path d="M246.904 290.739C246.332 293.065 246.278 295.489 246.745 297.838C246.941 298.819 247.971 299.628 248.424 299.15L258.11 289.219L265.883 291.144L268.102 298.856L257.963 309.265C257.583 309.657 257.632 310.061 258.024 310.172L258.748 310.368C262.336 311.253 266.12 310.885 269.47 309.323C272.82 307.762 275.535 305.101 277.165 301.784C278.794 298.466 279.24 294.691 278.427 291.085C277.615 287.479 275.594 284.26 272.7 281.961L285.438 228.862C289.643 228.01 293.339 225.526 295.717 221.956C298.095 218.385 298.962 214.017 298.128 209.809C297.919 208.816 296.902 208.007 296.436 208.485L286.75 218.416L278.977 216.491L276.758 208.779L286.897 198.358C287.265 197.99 287.216 197.561 286.897 197.451L286.174 197.255C282.582 196.363 278.794 196.728 275.438 198.289C272.083 199.851 269.364 202.514 267.733 205.836C266.102 209.158 265.658 212.938 266.475 216.547C267.291 220.157 269.32 223.378 272.222 225.674L259.483 278.773C256.466 279.367 253.681 280.808 251.453 282.927C249.225 285.046 247.647 287.756 246.904 290.739Z" fill="#6CAF3A"/>
<path opacity="0.8" d="M246.904 290.739C246.332 293.065 246.278 295.489 246.745 297.838C246.941 298.819 247.971 299.628 248.424 299.15L258.11 289.219L265.883 291.144L268.102 298.856L257.963 309.265C257.583 309.657 257.632 310.061 258.024 310.172L258.748 310.368C262.336 311.253 266.12 310.885 269.47 309.323C272.82 307.762 275.535 305.101 277.165 301.784C278.794 298.466 279.24 294.691 278.427 291.085C277.615 287.479 275.594 284.26 272.7 281.961L285.438 228.862C289.643 228.01 293.339 225.526 295.717 221.956C298.095 218.385 298.962 214.017 298.128 209.809C297.919 208.816 296.902 208.007 296.436 208.485L286.75 218.416L278.977 216.491L276.758 208.779L286.897 198.358C287.265 197.99 287.216 197.561 286.897 197.451L286.174 197.255C282.582 196.363 278.794 196.728 275.438 198.289C272.083 199.851 269.364 202.514 267.733 205.836C266.102 209.158 265.658 212.938 266.475 216.547C267.291 220.157 269.32 223.378 272.222 225.674L259.483 278.773C256.466 279.367 253.681 280.808 251.453 282.927C249.225 285.046 247.647 287.756 246.904 290.739Z" fill="white"/>
<path d="M279.566 250.574C278.442 251.405 277.118 251.924 275.729 252.076C274.34 252.229 272.935 252.011 271.658 251.445C269.637 250.728 267.957 249.28 266.95 247.387L260.28 275.193C262.329 276.43 264.633 277.184 267.017 277.396C269.4 277.609 271.801 277.275 274.036 276.419L280.093 251.151C279.921 250.954 279.75 250.758 279.566 250.574Z" fill="#6CAF3A"/>
<path opacity="0.05" d="M279.566 250.574C278.442 251.405 277.118 251.924 275.729 252.076C274.34 252.229 272.935 252.011 271.658 251.445C269.637 250.728 267.957 249.28 266.95 247.387L260.28 275.193C262.329 276.43 264.633 277.184 267.017 277.396C269.4 277.609 271.801 277.275 274.036 276.419L280.093 251.151C279.921 250.954 279.75 250.758 279.566 250.574Z" fill="black"/>
<path d="M255.217 254.815C244.869 255.551 229.911 249.997 223.119 243.475C219.527 240.005 218.742 235.15 220.667 228.161C224.407 214.675 240.578 196.027 248.253 192.41C248.636 192.176 248.945 191.836 249.142 191.432C249.34 191.029 249.418 190.577 249.369 190.13C249.304 188.923 248.955 187.749 248.35 186.702C247.745 185.656 246.901 184.768 245.887 184.11C245.545 183.864 245.145 183.709 244.727 183.662C244.308 183.615 243.884 183.676 243.496 183.84C232.805 188.879 214.917 210.163 210.552 225.881C207.622 236.425 209.326 244.848 215.64 250.904C223.794 258.739 240.382 264.746 253.206 264.746C254.125 264.746 255.045 264.746 255.928 264.648L255.217 254.815Z" fill="#455A64"/>
<path d="M232.045 192.594C235.196 191.969 239.744 195.475 239.72 199.105" stroke="#37474F" stroke-width="1.2" stroke-linecap="round" stroke-linejoin="round"/>
<path d="M224.75 200.76C227.84 200.012 232.511 202.844 233.614 205.885" stroke="#37474F" stroke-width="1.2" stroke-linecap="round" stroke-linejoin="round"/>
<path d="M217.945 210.226C219.762 209.962 221.614 210.288 223.232 211.155C224.849 212.022 226.146 213.385 226.932 215.044" stroke="#37474F" stroke-width="1.2" stroke-linecap="round" stroke-linejoin="round"/>
<path d="M222.089 224.177C221.182 221.725 213.887 220.106 211.423 223.147" stroke="#37474F" stroke-width="1.2" stroke-linecap="round" stroke-linejoin="round"/>
<path d="M219.662 234.193C218.583 231.741 210.577 232.465 209.204 236.4" stroke="#37474F" stroke-width="1.2" stroke-linecap="round" stroke-linejoin="round"/>
<path d="M222.433 242.751C221.305 241.218 213.519 243.29 213.103 247.961" stroke="#37474F" stroke-width="1.2" stroke-linecap="round" stroke-linejoin="round"/>
<path d="M230.058 248.379C226.944 247.337 221.218 252.13 223.474 256.52" stroke="#37474F" stroke-width="1.2" stroke-linecap="round" stroke-linejoin="round"/>
<path d="M237.733 251.85C235.109 251.972 231.787 257.195 233.405 261.02" stroke="#37474F" stroke-width="1.2" stroke-linecap="round" stroke-linejoin="round"/>
<path d="M246.425 254.203C243.74 255.147 241.975 260.431 243.557 263.754" stroke="#37474F" stroke-width="1.2" stroke-linecap="round" stroke-linejoin="round"/>
<path opacity="0.15" d="M212.182 228.432C215.664 212.763 228.648 199.534 235.403 193.196C239.744 189.15 244.635 186.563 247.958 186.06C247.421 185.265 246.718 184.596 245.898 184.098C245.557 183.852 245.157 183.697 244.738 183.65C244.32 183.603 243.896 183.664 243.508 183.829C232.817 188.868 214.929 210.152 210.564 225.869C207.634 236.413 209.338 244.836 215.652 250.893C215.664 250.88 208.713 244.113 212.182 228.432Z" fill="black"/>
<path opacity="0.15" d="M255.217 254.817C244.869 255.552 229.912 249.998 223.12 243.476C221.401 241.837 220.257 239.687 219.858 237.346H219.662C220.459 242.348 221.097 248.257 235.404 253.983C241.746 256.54 248.573 257.671 255.401 257.293L255.217 254.817Z" fill="black"/>
<path d="M261.764 246.308C261.335 241.882 261.923 236.831 263.836 233.741C265.748 230.652 268.85 228.531 270.309 231.068C271.29 232.76 269.218 235.347 268.25 238.523C267.777 240.441 267.706 242.436 268.041 244.383L261.764 246.308Z" fill="#455A64"/>
<path opacity="0.15" d="M268.249 238.521C269.217 235.346 271.289 232.759 270.309 231.067C270.182 230.823 270.009 230.606 269.798 230.43C269.588 230.253 269.345 230.119 269.083 230.037C269.916 231.177 267.955 233.311 266.569 236.045C265.336 238.929 264.913 242.096 265.343 245.203L268.04 244.382C267.705 242.435 267.776 240.439 268.249 238.521Z" fill="black"/>
<path d="M285.059 262.528C284.421 265.348 283.02 267.937 281.01 270.014C278.999 272.09 276.456 273.573 273.659 274.301C270.861 275.029 267.918 274.973 265.15 274.139C262.382 273.306 259.897 271.728 257.967 269.576C256.036 267.425 254.735 264.785 254.205 261.943C253.675 259.102 253.936 256.169 254.961 253.467C255.986 250.764 257.735 248.396 260.016 246.621C262.297 244.846 265.023 243.732 267.894 243.402C268.054 245.45 270.346 247.914 272.933 248.846C274.212 249.411 275.617 249.627 277.006 249.472C278.395 249.317 279.719 248.796 280.841 247.963C282.713 249.84 284.082 252.158 284.819 254.705C285.556 257.251 285.639 259.942 285.059 262.528Z" fill="#6CAF3A"/>
<path d="M285.059 262.528C284.421 265.348 283.02 267.937 281.01 270.014C278.999 272.09 276.456 273.573 273.659 274.301C270.861 275.029 267.918 274.973 265.15 274.139C262.382 273.306 259.897 271.728 257.967 269.576C256.036 267.425 254.735 264.785 254.205 261.943C253.675 259.102 253.936 256.169 254.961 253.467C255.986 250.764 257.735 248.396 260.016 246.621C262.297 244.846 265.023 243.732 267.894 243.402C268.054 245.45 270.346 247.914 272.933 248.846C274.212 249.411 275.617 249.627 277.006 249.472C278.395 249.317 279.719 248.796 280.841 247.963C282.713 249.84 284.082 252.158 284.819 254.705C285.556 257.251 285.639 259.942 285.059 262.528Z" fill="#6CAF3A"/>
<path opacity="0.1" d="M285.059 262.527C285.18 262.002 285.27 261.469 285.329 260.933C283.159 265.31 277.899 271.404 267.466 269.614C256.75 267.775 254.531 254.901 255.929 251.432C255.188 252.746 254.647 254.163 254.323 255.637C253.813 257.676 253.716 259.796 254.037 261.873C254.359 263.949 255.093 265.941 256.196 267.73C257.299 269.519 258.749 271.069 260.46 272.289C262.171 273.509 264.109 274.374 266.16 274.834C268.211 275.293 270.332 275.338 272.401 274.965C274.469 274.593 276.442 273.81 278.203 272.663C279.964 271.516 281.478 270.029 282.655 268.288C283.833 266.547 284.65 264.589 285.059 262.527Z" fill="black"/>
<path d="M285.144 255.931C290.514 253.761 292.279 248.844 291.445 243.867C290.612 238.889 283.488 236.939 283.488 236.939L282.115 242.677C282.115 242.677 285.622 243.989 285.45 246.441C285.307 247.223 284.987 247.962 284.512 248.599C284.038 249.237 283.424 249.757 282.716 250.119C282.472 250.658 282.342 251.24 282.333 251.831C282.325 252.422 282.438 253.008 282.665 253.553C282.893 254.098 283.231 254.591 283.657 255C284.083 255.409 284.589 255.726 285.144 255.931Z" fill="#455A64"/>
<path opacity="0.15" d="M283.488 236.988L282.115 242.726C282.115 242.726 285.622 244.038 285.45 246.49C285.307 247.272 284.987 248.01 284.512 248.648C284.038 249.286 283.424 249.806 282.716 250.168C282.358 250.995 282.27 251.914 282.463 252.794C282.657 253.675 283.123 254.472 283.795 255.072C283.231 253.147 284.457 252.216 286.37 250.168C288.282 248.121 287.522 244.663 286.296 242.493C285.584 241.057 285.453 239.402 285.928 237.871C285.141 237.508 284.325 237.213 283.488 236.988Z" fill="black"/>
<path d="M284.433 264.625C288.614 265.851 293.665 264.147 294.34 260.738C295.014 257.33 293.886 254.51 289.938 252.156C288.756 253.868 287.085 255.184 285.145 255.932L285.402 257.771C284.542 258.668 283.986 259.812 283.812 261.042C283.638 262.272 283.856 263.525 284.433 264.625Z" fill="#455A64"/>
<path opacity="0.15" d="M289.937 252.254C288.755 253.965 287.084 255.281 285.144 256.03L285.401 257.869H290.514C290.514 257.869 289.189 257.44 289.57 256.57C289.95 255.699 292.095 256.03 293.137 257.379C293.719 258.125 294.057 259.033 294.106 259.978C294.154 260.924 293.91 261.861 293.407 262.663C293.874 262.129 294.196 261.482 294.339 260.787C295.025 257.33 293.885 254.51 289.937 252.254Z" fill="black"/>
<path d="M278.756 271.969C280.395 273.42 282.297 274.543 284.359 275.279C285.965 275.88 288.773 275.917 290.281 274.311C291.789 272.705 290.746 270.927 289.618 270.13C287.687 268.796 285.635 267.647 283.488 266.697C283.488 266.697 279.124 266.697 278.756 271.969Z" fill="#455A64"/>
<path opacity="0.15" d="M289.618 270.13C287.687 268.796 285.635 267.647 283.488 266.697C282.787 266.736 282.103 266.924 281.481 267.25C280.859 267.576 280.314 268.031 279.884 268.585C280.803 267.666 283.881 269.37 286.394 270.89C288.907 272.411 290.881 273.269 289.851 274.666C290.003 274.558 290.146 274.44 290.281 274.311C291.887 272.57 290.746 270.927 289.618 270.13Z" fill="black"/>
<path d="M405.075 145.589C405.851 145.239 406.468 144.61 406.804 143.827C407.14 143.044 407.17 142.164 406.889 141.36C405.872 138.405 402.304 137.534 402.304 137.534C402.304 137.534 395.696 135.708 390.657 138.76C385.618 141.813 385.544 148.201 385.691 150.248C385.769 150.894 386.062 151.495 386.525 151.952C386.987 152.41 387.59 152.698 388.237 152.769C388.884 152.84 389.535 152.69 390.086 152.344C390.636 151.997 391.054 151.475 391.27 150.861C392.434 148.348 392.422 144.866 396.627 143.64C400.097 142.61 403.015 146.497 405.075 145.589Z" fill="#455A64"/>
<path opacity="0.15" d="M403.052 142.916C399.545 141.482 395.794 139.606 392.815 142.916C389.835 146.227 390.448 149.463 389.21 150.824C387.972 152.185 386.488 151.952 385.826 150.824C386.023 151.39 386.39 151.88 386.878 152.227C387.366 152.574 387.949 152.76 388.548 152.76C389.147 152.76 389.73 152.574 390.218 152.227C390.706 151.88 391.073 151.39 391.27 150.824C392.434 148.311 392.422 144.829 396.627 143.603C400.097 142.598 403.015 146.484 405.075 145.577C405.851 145.226 406.468 144.597 406.804 143.815C407.14 143.032 407.17 142.151 406.889 141.347C406.926 142.843 405.798 144.032 403.052 142.916Z" fill="black"/>
<path d="M411.904 159.91C412.327 159.517 412.869 159.277 413.445 159.228C414.02 159.179 414.596 159.324 415.079 159.64C415.643 159.884 416.13 160.276 416.488 160.775C416.846 161.274 417.063 161.86 417.114 162.472C417.114 162.472 417.298 166.812 412.59 171.263C411.109 172.6 409.355 173.598 407.45 174.189C405.544 174.78 403.533 174.948 401.556 174.684C398.466 173.85 397.939 170.368 401.556 169.583C404.265 168.995 406.656 169.056 409.562 165.795C411.34 163.784 411.34 161.124 411.904 159.91Z" fill="#455A64"/>
<path opacity="0.15" d="M410.739 169.815C405.97 173.493 403.039 173.064 401.262 172.622C399.484 172.181 399.508 170.464 400.256 170.084C398.172 171.31 398.92 173.971 401.568 174.682C403.545 174.947 405.557 174.778 407.462 174.187C409.368 173.597 411.122 172.598 412.602 171.261C417.31 166.811 417.126 162.471 417.126 162.471C417.075 161.859 416.859 161.272 416.5 160.774C416.142 160.275 415.655 159.883 415.091 159.639C415.974 160.803 415.851 165.953 410.739 169.815Z" fill="black"/>
<path d="M407.27 147.552C408.167 147.513 409.058 147.721 409.845 148.153C410.632 148.585 411.285 149.225 411.733 150.004C414.087 153.571 411.316 155.067 411.316 155.067C409.489 155.288 407.184 154.135 403.445 155.619C398.798 157.458 398.284 160.989 397.192 163.772C395.966 166.861 391.246 165.182 392.018 160.364C392.791 155.545 394.777 152.431 397.928 150.396C400.716 148.595 403.952 147.61 407.27 147.552Z" fill="#455A64"/>
<path opacity="0.15" d="M408.802 152.259C405.529 152.088 400.661 152.59 398.455 156.109C396.971 158.488 396.603 161.81 395.304 162.791C395.022 163.026 394.683 163.182 394.321 163.242C393.96 163.302 393.588 163.265 393.246 163.134C392.904 163.002 392.602 162.782 392.374 162.496C392.145 162.209 391.997 161.867 391.944 161.504C392.018 165.439 396.088 166.616 397.192 163.784C398.295 160.952 398.798 157.47 403.444 155.631C407.123 154.147 409.489 155.3 411.316 155.079C411.316 155.079 413.841 153.706 412.002 150.457C412.517 151.72 412.063 152.443 408.802 152.259Z" fill="black"/>
<path d="M325.333 258.997C324.701 258.266 323.93 257.667 323.066 257.233C322.201 256.8 321.26 256.542 320.296 256.472C319.332 256.403 318.363 256.524 317.446 256.829C316.528 257.134 315.68 257.616 314.949 258.249C314.218 258.882 313.619 259.652 313.186 260.516C312.752 261.381 312.494 262.322 312.424 263.286C312.355 264.251 312.476 265.219 312.781 266.137C313.086 267.054 313.568 267.902 314.201 268.633L361.207 323.032L372.364 313.396L325.333 258.997Z" fill="#455A64"/>
<path d="M332.555 267.358C331.923 266.627 331.153 266.028 330.29 265.594C329.426 265.161 328.486 264.902 327.522 264.832C326.558 264.762 325.59 264.882 324.673 265.186C323.756 265.491 322.908 265.972 322.177 266.604C321.446 267.236 320.846 268.006 320.413 268.869C319.979 269.733 319.72 270.674 319.65 271.637C319.58 272.601 319.701 273.569 320.005 274.486C320.309 275.403 320.791 276.252 321.423 276.983" stroke="#37474F" stroke-width="1.2" stroke-linecap="round" stroke-linejoin="round"/>
<path d="M340.537 276.591C339.259 275.114 337.447 274.206 335.499 274.066C333.552 273.926 331.628 274.565 330.152 275.843C328.676 277.121 327.768 278.933 327.627 280.88C327.487 282.827 328.126 284.751 329.404 286.227" stroke="#37474F" stroke-width="1.2" stroke-linecap="round" stroke-linejoin="round"/>
<path d="M348.519 285.835C347.887 285.104 347.117 284.505 346.254 284.071C345.39 283.638 344.45 283.378 343.486 283.308C342.522 283.238 341.554 283.359 340.637 283.663C339.72 283.967 338.871 284.449 338.14 285.081C337.41 285.713 336.81 286.482 336.377 287.346C335.943 288.21 335.684 289.15 335.614 290.114C335.544 291.078 335.665 292.046 335.969 292.963C336.273 293.88 336.755 294.728 337.386 295.459" stroke="#37474F" stroke-width="1.2" stroke-linecap="round" stroke-linejoin="round"/>
<path d="M356.512 295.068C355.234 293.59 353.422 292.68 351.473 292.539C349.524 292.397 347.599 293.036 346.122 294.314C344.644 295.592 343.734 297.404 343.593 299.353C343.451 301.302 344.09 303.227 345.368 304.704" stroke="#37474F" stroke-width="1.2" stroke-linecap="round" stroke-linejoin="round"/>
<path d="M353.348 313.934C352.716 313.203 352.234 312.354 351.931 311.436C351.627 310.518 351.507 309.549 351.577 308.585C351.648 307.621 351.908 306.68 352.342 305.816C352.776 304.952 353.376 304.182 354.108 303.55C354.84 302.918 355.689 302.436 356.607 302.133C357.525 301.829 358.493 301.709 359.458 301.779C360.422 301.85 361.363 302.11 362.227 302.544C363.091 302.978 363.861 303.578 364.493 304.31" stroke="#37474F" stroke-width="1.2" stroke-linecap="round" stroke-linejoin="round"/>
<path opacity="0.15" d="M319.755 256.447C318.342 256.444 316.958 256.847 315.768 257.61C314.578 258.373 313.633 259.462 313.046 260.747C312.459 262.033 312.254 263.46 312.457 264.859C312.66 266.258 313.261 267.568 314.189 268.634L361.195 323.033L365.83 319.024C351.473 302.951 328.178 276.861 321.901 269.713C312.632 259.169 316.408 257.244 319.755 256.447Z" fill="black"/>
<path d="M447.716 320.802C447.716 320.802 433.96 308.799 422.938 316.646C416.23 321.455 410.279 327.241 405.283 333.81L375.588 307.561C373.761 305.979 370.574 305.943 367.423 307.757C361.906 310.945 357.443 318.681 357.443 325.044C357.369 326.822 357.849 328.578 358.816 330.071C358.816 330.071 391.465 375.716 397.019 382.79C402.573 389.864 409.623 393.579 419.088 389.264C428.553 384.948 431.348 372.59 432.488 364.24C433.629 355.891 444.319 344.182 447.201 336.691C450.204 328.502 449.481 323.561 447.716 320.802Z" fill="#6CAF3A"/>
<path opacity="0.15" d="M436.988 317.504C431.728 317.945 419.112 324.468 415.422 338.346C414.082 343.662 412.361 348.873 410.272 353.941C408.574 357.758 406.226 361.251 403.333 364.264C398.981 368.887 393.77 365.736 389.258 361.996C384.747 358.257 371.996 341.497 367.692 334.276C364.542 329.053 363.548 325.093 364.407 321.292C364.701 321.684 365.007 322.065 365.314 322.408C369.556 327.116 377.66 330.99 383.839 326.27C386.855 323.977 387.1 320.36 386.107 316.78L375.637 307.524C373.81 305.942 370.623 305.905 367.472 307.72C367.141 307.916 366.822 308.125 366.503 308.333L366.172 308.578L365.571 309.032L365.179 309.363L364.664 309.817L364.247 310.209L363.806 310.65L363.377 311.104L362.984 311.557C362.837 311.717 362.69 311.888 362.555 312.06L362.212 312.502C362.065 312.685 361.918 312.882 361.783 313.078C361.648 313.274 361.599 313.335 361.513 313.458C359.071 316.831 357.672 320.847 357.492 325.007C357.418 326.784 357.897 328.541 358.865 330.034C358.865 330.034 391.514 375.679 397.068 382.753C402.622 389.827 409.672 393.542 419.137 389.226C428.602 384.911 431.397 372.552 432.537 364.203C433.371 358.073 439.427 350.043 443.682 343.263L436.988 317.504Z" fill="black"/>
<path d="M447.102 336.655C450.204 328.502 449.481 323.561 447.715 320.802C445.919 319.315 443.971 318.02 441.904 316.94C434.315 315.972 424.997 324.873 421.552 330.574C418.107 336.275 416.255 343.165 413.767 352.36C411.56 360.513 406.03 365.062 402.892 372.724C400.611 378.291 400.096 382.533 401.666 387.437C406.398 391.115 412.075 392.341 419.063 389.19C428.467 384.887 431.323 372.516 432.464 364.167C433.604 355.817 444.258 344.207 447.102 336.655Z" fill="#455A64"/>
<path d="M423.746 333.772C418.842 342.514 417.861 354.615 413.717 361.689C409.573 368.763 403.296 376.597 404.019 383.389C404.485 387.828 406.042 390.157 408.923 390.856C410.495 391.108 412.097 391.108 413.668 390.856L414.306 390.733C415.927 390.414 417.504 389.899 419.001 389.201C428.405 384.897 431.262 372.527 432.402 364.178C433.542 355.828 444.233 344.12 447.114 336.629C450.216 328.476 449.493 323.535 447.727 320.776C441.72 316.926 430.22 322.247 423.746 333.772Z" fill="#37474F"/>
<path opacity="0.15" d="M403.334 332.057C396.774 338.346 395.009 347.995 395.009 347.995C398.145 343.057 401.576 338.311 405.283 333.785L403.334 332.057Z" fill="black"/>
<path d="M416.17 356.062C415.986 356.589 415.802 357.092 415.618 357.595L436.13 354.983C436.424 354.468 436.73 353.941 437.049 353.414L416.17 356.062Z" fill="#263238"/>
<path d="M412.651 363.456C412.333 363.987 412.001 364.514 411.658 365.037L432.832 362.352C432.967 361.85 433.126 361.347 433.31 360.832L412.651 363.456Z" fill="#263238"/>
<path d="M404.731 386.749L425.316 384.126C425.733 383.611 426.113 383.071 426.542 382.52L404.363 385.339C404.461 385.816 404.584 386.286 404.731 386.749Z" fill="#263238"/>
<path d="M404.584 378.364C404.436 378.862 404.314 379.365 404.216 379.872L429.472 376.659C429.668 376.157 429.84 375.642 430.011 375.127L404.584 378.364Z" fill="#263238"/>
<path d="M407.98 370.996C407.674 371.511 407.38 372.038 407.098 372.565L431.532 369.451C431.643 368.948 431.741 368.458 431.827 367.955L407.98 370.996Z" fill="#263238"/>
<path d="M429.093 326.661C428.578 327.176 428.075 327.728 427.572 328.304L449.175 325.558C449.141 325.076 449.079 324.597 448.991 324.123L429.093 326.661Z" fill="#263238"/>
<path d="M423.465 334.312C423.183 334.827 422.925 335.342 422.668 335.869L448.415 332.595C448.549 332.08 448.672 331.578 448.77 331.1L423.465 334.312Z" fill="#263238"/>
<path d="M420.413 341.644C420.253 342.146 420.082 342.649 419.935 343.164L445.559 339.903C445.853 339.363 446.123 338.848 446.368 338.346L420.413 341.644Z" fill="#263238"/>
<path d="M418.304 348.851C418.156 349.354 418.022 349.869 417.887 350.359L440.862 347.442L441.905 345.848L418.304 348.851Z" fill="#263238"/>
<path d="M365.34 301.295C358.535 305.991 361.895 315.86 366.137 320.581C370.379 325.301 378.483 329.163 384.662 324.43C390.338 320.115 386.231 311.079 382.406 306.469C378.409 301.589 370.71 297.543 365.34 301.295Z" fill="#6CAF3A"/>
<path opacity="0.7" d="M365.34 301.295C358.535 305.991 361.895 315.86 366.137 320.581C370.379 325.301 378.483 329.163 384.662 324.43C390.338 320.115 386.231 311.079 382.406 306.469C378.409 301.589 370.71 297.543 365.34 301.295Z" fill="white"/>
<path d="M387.445 318.459C386.967 321.806 381.842 326.146 373.199 319.465C364.555 312.783 364.359 302.778 367.203 300.326C366.546 300.564 365.92 300.881 365.34 301.27C358.535 305.966 361.895 315.835 366.137 320.556C370.379 325.276 378.47 329.138 384.662 324.405C385.57 323.711 386.296 322.808 386.781 321.773C387.265 320.738 387.493 319.601 387.445 318.459Z" fill="#6CAF3A"/>
<path opacity="0.05" d="M387.445 318.459C386.967 321.806 381.842 326.146 373.199 319.465C364.555 312.783 364.359 302.778 367.203 300.326C366.546 300.564 365.92 300.881 365.34 301.27C358.535 305.966 361.895 315.835 366.137 320.556C370.379 325.276 378.47 329.138 384.662 324.405C385.57 323.711 386.296 322.808 386.781 321.773C387.265 320.738 387.493 319.601 387.445 318.459Z" fill="black"/>
<path d="M298.901 143.615V113.553H280.511V143.615C280.583 144.423 280.87 145.197 281.342 145.856C281.814 146.516 282.454 147.038 283.196 147.367C285.209 148.389 287.436 148.921 289.694 148.921C291.952 148.921 294.178 148.389 296.192 147.367C296.938 147.041 297.583 146.521 298.059 145.861C298.536 145.201 298.827 144.426 298.901 143.615Z" fill="#455A64"/>
<path d="M280.534 137.854C280.607 138.661 280.894 139.435 281.366 140.095C281.838 140.755 282.478 141.276 283.219 141.605C285.233 142.627 287.459 143.16 289.717 143.16C291.975 143.16 294.202 142.627 296.215 141.605C296.957 141.276 297.596 140.755 298.069 140.095C298.541 139.435 298.828 138.661 298.9 137.854" stroke="#37474F" stroke-width="1.02" stroke-linecap="round" stroke-linejoin="round"/>
<path d="M280.534 132.102C280.609 132.908 280.897 133.679 281.369 134.337C281.841 134.994 282.479 135.513 283.219 135.841C285.233 136.864 287.459 137.396 289.717 137.396C291.975 137.396 294.202 136.864 296.215 135.841C296.957 135.512 297.596 134.991 298.069 134.331C298.541 133.672 298.828 132.898 298.9 132.09" stroke="#37474F" stroke-width="1.02" stroke-linecap="round" stroke-linejoin="round"/>
<path d="M280.534 126.341C280.619 127.136 280.912 127.895 281.383 128.54C281.855 129.186 282.488 129.696 283.219 130.019C285.233 131.041 287.459 131.574 289.717 131.574C291.975 131.574 294.202 131.041 296.215 130.019C296.957 129.69 297.596 129.169 298.069 128.509C298.541 127.849 298.828 127.076 298.9 126.268" stroke="#37474F" stroke-width="1.02" stroke-linecap="round" stroke-linejoin="round"/>
<path opacity="0.15" d="M284.494 113.553H280.534V143.615C280.607 144.423 280.894 145.197 281.366 145.856C281.838 146.516 282.478 147.038 283.219 147.367C283.611 147.599 284.021 147.8 284.445 147.967V128.29C289.183 129.376 294.043 129.834 298.9 129.651V113.553H284.494Z" fill="black"/>
<path d="M251.674 69.7239C251.674 46.9565 270.064 32.2441 292.893 32.2441C315.722 32.2441 334.1 46.9565 334.1 69.7239V94.6368C334.1 94.6368 325.898 107.584 292.905 107.584C259.913 107.584 251.686 95.3234 251.686 95.3234L251.674 69.7239Z" fill="#6CAF3A"/>
<path opacity="0.2" d="M299.44 40.2114C298.921 40.4274 298.449 40.7446 298.054 41.1445C297.658 41.5444 297.346 42.0191 297.135 42.5408C297.026 43.0796 297.057 43.6373 297.224 44.1609C297.392 44.6844 297.69 45.1565 298.091 45.5323C298.911 46.2642 299.858 46.8379 300.887 47.2242C306.306 49.6138 311.938 51.4897 317.708 52.8272C319.155 53.1582 321.987 54.1636 323.053 52.8272C324.279 51.2088 323.544 47.9231 321.889 45.8143C319.54 42.4766 316.051 40.1131 312.08 39.1692C307.888 37.89 303.366 38.2629 299.44 40.2114Z" fill="white"/>
<path opacity="0.2" d="M334.1 78.9434C334.1 78.9434 331.795 91.4243 315.465 97.5177C299.134 103.611 281.405 101.674 270.567 98.9399C270.567 98.9399 293.764 110.256 317.708 99.3935C338.661 89.8918 334.1 78.9434 334.1 78.9434Z" fill="black"/>
<path opacity="0.15" d="M307.139 34.3144C302.522 32.9278 297.725 32.2296 292.905 32.2424C270.137 32.2424 251.686 46.9547 251.686 69.7221V95.2357C251.686 95.2357 255.057 100.262 266.104 103.892C264.375 87.3279 262.156 66.1911 268.752 53.2565C276.28 38.4828 297.233 31.4332 307.139 34.3144Z" fill="black"/>
<path d="M291.679 86.6412C290.053 86.6412 288.494 85.9954 287.344 84.8458C286.195 83.6961 285.549 82.1369 285.549 80.5111V77.679C285.549 76.0532 286.195 74.4939 287.344 73.3443C288.494 72.1947 290.053 71.5488 291.679 71.5488C293.305 71.5488 294.864 72.1947 296.014 73.3443C297.163 74.4939 297.809 76.0532 297.809 77.679V80.5111C297.809 82.1369 297.163 83.6961 296.014 84.8458C294.864 85.9954 293.305 86.6412 291.679 86.6412Z" fill="#37474F"/>
<path d="M322.33 76.8449C319.424 77.9238 317.891 76.5752 317.34 75.0672C316.82 73.0672 316.691 70.9858 316.96 68.937C317.049 67.5509 317.5 66.2124 318.268 65.055C319.036 63.8977 320.094 62.9619 321.336 62.341C321.794 62.0591 322.311 61.8871 322.847 61.8385C323.382 61.7899 323.922 61.8659 324.423 62.0607C324.924 62.2555 325.374 62.5637 325.736 62.9611C326.098 63.3586 326.363 63.8346 326.51 64.3517C326.899 66.1595 327.002 68.0168 326.817 69.8565C326.67 72.2105 325.211 75.5944 322.33 76.8449Z" fill="#37474F"/>
<path d="M338.367 77.349C337.231 76.1744 335.723 75.4293 334.1 75.2402V78.9183C334.1 85.0485 330.079 91.1051 322.036 95.7517C308.047 103.819 286.481 104.873 270.543 98.9149V97.6888C270.4 95.0699 269.642 92.5215 268.33 90.2505C267.018 87.9796 265.188 86.0503 262.99 84.6194C258.822 82.1673 255.45 84.1535 255.45 88.9718C253.071 86.1779 251.728 82.6486 251.65 78.9796C250.24 78.9796 248.376 79.7398 248.376 85.1098C248.376 91.7916 248.045 99.2949 254.384 107.571C264.621 120.947 291.545 132.741 314.716 123.509C339.421 113.701 339.556 95.151 339.556 87.6231C339.58 82.0202 340.022 79.2494 338.367 77.349Z" fill="#6CAF3A"/>
<path opacity="0.1" d="M338.367 77.349C337.231 76.1744 335.723 75.4293 334.1 75.2402V78.9183C334.1 85.0485 330.079 91.1051 322.036 95.7517C308.047 103.819 286.481 104.873 270.543 98.9149V97.6888C270.4 95.0699 269.642 92.5215 268.33 90.2505C267.018 87.9796 265.188 86.0503 262.99 84.6194C258.822 82.1673 255.45 84.1535 255.45 88.9718C253.071 86.1779 251.728 82.6486 251.65 78.9796C250.24 78.9796 248.376 79.7398 248.376 85.1098C248.376 91.7916 248.045 99.2949 254.384 107.571C264.621 120.947 291.545 132.741 314.716 123.509C339.421 113.701 339.556 95.151 339.556 87.6231C339.58 82.0202 340.022 79.2494 338.367 77.349Z" fill="black"/>
<path opacity="0.15" d="M300.494 124.858C273.215 124.441 260.035 110.268 256.627 103.893C253.219 97.5177 253.488 90.983 255.475 91.8289V88.9355C253.095 86.1417 251.753 82.6123 251.674 78.9434C250.264 78.9434 248.4 79.7035 248.4 85.0735C248.4 91.7554 248.069 99.2587 254.408 107.534C264.645 120.91 291.569 132.705 314.741 123.473C320.447 121.338 325.652 118.049 330.029 113.812C323.752 118.544 313.637 125.054 300.494 124.858Z" fill="black"/>
<path opacity="0.2" d="M264.203 85.3789C266.79 87.3896 268.739 91.6562 268.739 100.005L270.566 98.9388V97.7128C270.437 95.3241 269.803 92.9899 268.706 90.8639C267.61 88.738 266.075 86.8686 264.203 85.3789Z" fill="black"/>
<path d="M334.1 78.9428C334.1 85.073 330.079 91.1296 322.036 95.7762C308.047 103.844 286.481 104.898 270.543 98.9394L268.716 100.006C268.716 100.006 291.03 112.266 316.212 102.311C339.715 93.0544 339.213 80.5367 338.342 77.349C337.206 76.1744 335.699 75.4293 334.075 75.2402L334.1 78.9428Z" fill="#6CAF3A"/>
<path opacity="0.6" d="M334.1 78.9428C334.1 85.073 330.079 91.1296 322.036 95.7762C308.047 103.844 286.481 104.898 270.543 98.9394L268.716 100.006C268.716 100.006 291.03 112.266 316.212 102.311C339.715 93.0544 339.213 80.5367 338.342 77.349C337.206 76.1744 335.699 75.4293 334.075 75.2402L334.1 78.9428Z" fill="white"/>
<path d="M261.935 88.7273C262.842 89.3187 263.596 90.1153 264.137 91.0526C264.678 91.9898 264.991 93.0412 265.05 94.1218C265.05 96.108 263.652 96.9171 261.935 95.9241C261.028 95.334 260.273 94.5378 259.731 93.6003C259.19 92.6627 258.878 91.6105 258.821 90.5295C258.821 88.5434 260.207 87.7342 261.935 88.7273Z" fill="#37474F"/>
<path d="M261.936 88.7253C261.478 88.4393 260.944 88.2982 260.404 88.3207C260.057 88.7962 259.884 89.376 259.913 89.9636C259.972 91.0441 260.285 92.0956 260.826 93.0328C261.367 93.97 262.121 94.7666 263.027 95.3581C263.486 95.6441 264.02 95.7851 264.56 95.7627C264.906 95.2872 265.079 94.7074 265.05 94.1198C264.991 93.0392 264.679 91.9878 264.138 91.0506C263.597 90.1133 262.842 89.3167 261.936 88.7253Z" fill="#455A64"/>
<path d="M255.474 88.9348C253.095 86.141 251.752 82.6116 251.674 78.9427C251.331 78.932 250.99 78.9893 250.671 79.1114C250.351 79.2335 250.058 79.4178 249.81 79.6538C249.476 80.6543 249.343 81.7109 249.419 82.7629C249.495 83.8149 249.778 84.8416 250.251 85.7839C251.289 88.31 253.123 90.4281 255.474 91.816C255.389 90.8575 255.389 89.8933 255.474 88.9348Z" fill="#6CAF3A"/>
<path opacity="0.5" d="M255.474 88.9348C253.095 86.141 251.752 82.6116 251.674 78.9427C251.331 78.932 250.99 78.9893 250.671 79.1114C250.351 79.2335 250.058 79.4178 249.81 79.6538C249.476 80.6543 249.343 81.7109 249.419 82.7629C249.495 83.8149 249.778 84.8416 250.251 85.7839C251.289 88.31 253.123 90.4281 255.474 91.816C255.389 90.8575 255.389 89.8933 255.474 88.9348Z" fill="white"/>
<path d="M288.209 40.3849V18.3164H282.827V40.3849C282.851 40.6226 282.938 40.8497 283.078 41.0434C283.218 41.2371 283.406 41.3906 283.624 41.4884C284.214 41.7849 284.864 41.9393 285.524 41.9393C286.184 41.9393 286.835 41.7849 287.425 41.4884C287.64 41.3879 287.825 41.2335 287.963 41.0401C288.1 40.8467 288.185 40.621 288.209 40.3849Z" fill="#455A64"/>
<path opacity="0.15" d="M282.827 22.0423C283.689 22.2836 284.58 22.4073 285.475 22.4101C286.4 22.4053 287.32 22.2733 288.209 22.0178V18.2539H282.827V22.0423Z" fill="black"/>
<path d="M285.475 19.9949C290.987 19.9949 295.455 15.5268 295.455 10.015C295.455 4.5033 290.987 0.0351562 285.475 0.0351562C279.963 0.0351562 275.495 4.5033 275.495 10.015C275.495 15.5268 279.963 19.9949 285.475 19.9949Z" fill="#6CAF3A"/>
<path opacity="0.15" d="M285.475 15.2373C278.278 14.0112 275.802 7.57456 278.977 2.4375C277.707 3.52703 276.731 4.91842 276.14 6.48369C275.548 8.04897 275.36 9.73788 275.591 11.3951C275.823 13.0523 276.468 14.6246 277.467 15.9674C278.465 17.3101 279.785 18.3803 281.306 19.0793C282.826 19.7784 284.498 20.084 286.167 19.968C287.836 19.8519 289.45 19.318 290.859 18.4153C292.268 17.5126 293.427 16.2701 294.23 14.8021C295.033 13.3341 295.454 11.6877 295.455 10.0144C295.026 13.1775 291.863 16.3652 285.475 15.2373Z" fill="black"/>
<path opacity="0.3" d="M285.083 6.6547C286.656 7.10012 288.143 7.80451 289.484 8.73895C290.33 9.31518 291.679 10.1857 292.648 9.31519C293.616 8.4447 293.359 6.86313 292.991 5.87005C292.474 4.6202 291.572 3.56786 290.416 2.86627C288.995 2.00316 287.306 1.6933 285.671 1.99579C284.642 2.17969 282.95 2.70689 282.668 3.89614C282.386 5.08539 283.979 6.33594 285.083 6.6547Z" fill="white"/>
<defs>
<filter id="filter0_d" x="0" y="130.77" width="576" height="345.408" filterUnits="userSpaceOnUse" color-interpolation-filters="sRGB">
<feFlood flood-opacity="0" result="BackgroundImageFix"/>
<feColorMatrix in="SourceAlpha" type="matrix" values="0 0 0 0 0 0 0 0 0 0 0 0 0 0 0 0 0 0 127 0"/>
<feOffset dy="15"/>
<feGaussianBlur stdDeviation="7.5"/>
<feColorMatrix type="matrix" values="0 0 0 0 0 0 0 0 0 0 0 0 0 0 0 0 0 0 0.3 0"/>
<feBlend mode="normal" in2="BackgroundImageFix" result="effect1_dropShadow"/>
<feBlend mode="normal" in="SourceGraphic" in2="effect1_dropShadow" result="shape"/>
</filter>
</defs>
</svg>
