<svg width="576" height="495" viewBox="0 0 576 495" fill="none" xmlns="http://www.w3.org/2000/svg">
<g filter="url(#filter0_d)">
<path d="M288 464.178C438.774 464.178 561 393.571 561 306.474C561 219.376 438.774 148.77 288 148.77C137.226 148.77 15 219.376 15 306.474C15 393.571 137.226 464.178 288 464.178Z" fill="#E0E0E0"/>
</g>
<path d="M213.34 322.788V318.018C213.336 317.748 213.231 317.49 213.046 317.294C212.861 317.098 212.609 316.978 212.34 316.958L204.74 316.478V305.818C204.74 305.696 204.705 305.577 204.64 305.474C204.574 305.371 204.481 305.289 204.37 305.238L196.37 300.618C196.098 300.477 195.8 300.397 195.494 300.383C195.188 300.369 194.883 300.422 194.6 300.538L186.49 304.298C185.897 304.531 185.246 304.57 184.63 304.408C182.567 303.764 180.462 303.263 178.33 302.908C178.047 302.848 177.787 302.709 177.58 302.507C177.373 302.305 177.227 302.049 177.16 301.768L176.16 296.418C176.104 296.143 175.957 295.895 175.743 295.714C175.529 295.532 175.26 295.428 174.98 295.418H163.19C162.908 295.426 162.637 295.529 162.421 295.711C162.205 295.892 162.056 296.141 162 296.418L161 301.768C160.934 302.05 160.788 302.307 160.581 302.508C160.374 302.71 160.113 302.849 159.83 302.908C157.698 303.264 155.593 303.765 153.53 304.408C152.917 304.569 152.267 304.527 151.68 304.288L143.56 300.538C143.277 300.423 142.973 300.369 142.667 300.381C142.362 300.393 142.063 300.471 141.79 300.608L133.79 305.238C133.683 305.29 133.591 305.371 133.526 305.472C133.461 305.572 133.424 305.688 133.42 305.808V316.478L125.83 316.958C125.561 316.978 125.309 317.098 125.124 317.294C124.939 317.49 124.834 317.748 124.83 318.018V324.018V328.188V334.138C124.83 334.268 124.93 334.368 124.97 334.478C124.996 334.614 125.051 334.744 125.13 334.858C125.276 334.981 125.452 335.064 125.64 335.098C125.71 335.098 125.75 335.188 125.83 335.188H125.97L133.42 335.658V341.798V346.358C133.426 346.431 133.446 346.503 133.48 346.568C133.55 346.679 133.646 346.772 133.76 346.838L141.76 351.458C141.997 351.585 142.261 351.654 142.53 351.658H142.74C142.833 351.668 142.927 351.668 143.02 351.658V351.608C143.186 351.603 143.351 351.576 143.51 351.528L151.63 347.768C152.219 347.532 152.868 347.493 153.48 347.658C155.545 348.295 157.65 348.796 159.78 349.158C160.065 349.216 160.327 349.355 160.536 349.556C160.745 349.758 160.892 350.015 160.96 350.298L161.96 355.638C162.007 355.756 162.075 355.864 162.16 355.958V356.088C162.16 356.148 162.27 356.178 162.32 356.228C162.366 356.283 162.42 356.33 162.48 356.368C162.67 356.523 162.905 356.611 163.15 356.618H174.92C175.19 356.615 175.452 356.52 175.66 356.348C175.886 356.175 176.042 355.926 176.1 355.648L177.1 350.308C177.166 350.026 177.312 349.769 177.519 349.567C177.726 349.365 177.987 349.227 178.27 349.168C180.401 348.808 182.506 348.307 184.57 347.668C185.186 347.506 185.837 347.545 186.43 347.778L194.54 351.538C194.781 351.637 195.04 351.685 195.3 351.678C195.646 351.696 195.991 351.623 196.3 351.468L204.3 346.848C204.405 346.798 204.495 346.72 204.56 346.624C204.626 346.527 204.663 346.414 204.67 346.298V335.598L212.27 335.118C212.54 335.1 212.793 334.981 212.978 334.785C213.164 334.588 213.268 334.328 213.27 334.058V322.948C213.299 322.898 213.323 322.844 213.34 322.788ZM184.16 327.788C183.659 328.15 183.138 328.483 182.6 328.788C175.13 333.098 163.02 333.098 155.55 328.788C155.008 328.486 154.483 328.152 153.98 327.788C154.46 327.448 154.98 327.118 155.55 326.788C163.02 322.478 175.13 322.478 182.6 326.788C183.16 327.108 183.67 327.438 184.16 327.778V327.788Z" fill="#37474F"/>
<path d="M213.37 322.998V334.108C213.366 334.378 213.261 334.636 213.076 334.832C212.891 335.028 212.639 335.148 212.37 335.168L204.77 335.648V346.348C204.763 346.464 204.726 346.577 204.66 346.674C204.595 346.771 204.505 346.848 204.4 346.898L196.4 351.518C196.091 351.673 195.746 351.746 195.4 351.728C195.14 351.735 194.881 351.687 194.64 351.588L186.53 347.828C186.289 347.724 186.032 347.663 185.77 347.648C185.402 347.602 185.028 347.629 184.67 347.728C182.607 348.369 180.502 348.867 178.37 349.218C178.196 349.258 178.03 349.33 177.88 349.428V349.488C177.713 349.581 177.567 349.707 177.45 349.858C177.333 350.009 177.248 350.183 177.2 350.368L176.2 355.708C176.145 355.985 175.993 356.234 175.77 356.408C175.557 356.579 175.293 356.674 175.02 356.678H163.19H162.97C162.658 356.618 162.382 356.439 162.2 356.178V356.048C162.13 355.938 162.02 355.858 162 355.728L161 350.388C160.929 350.086 160.761 349.815 160.52 349.618C160.322 349.439 160.081 349.315 159.82 349.258C157.689 348.904 155.584 348.407 153.52 347.768C153.116 347.656 152.693 347.636 152.28 347.708C152.072 347.731 151.867 347.778 151.67 347.848L143.55 351.608C143.391 351.657 143.226 351.684 143.06 351.688V351.738C142.628 351.808 142.186 351.734 141.8 351.528L133.8 346.908C133.74 346.87 133.683 346.826 133.63 346.778C133.581 346.73 133.537 346.676 133.5 346.618C133.462 346.543 133.438 346.462 133.43 346.378V335.678L132.04 335.578L125.97 335.198H125.83C125.571 335.179 125.327 335.068 125.144 334.884C124.96 334.701 124.849 334.457 124.83 334.198V323.978C124.834 324.248 124.939 324.506 125.124 324.702C125.309 324.898 125.561 325.018 125.83 325.038L136.5 325.708C136.802 325.753 137.09 325.866 137.341 326.04C137.592 326.213 137.801 326.442 137.95 326.708C138.573 327.846 139.332 328.904 140.21 329.858C140.3 329.944 140.368 330.05 140.412 330.167C140.455 330.283 140.471 330.408 140.46 330.532C140.448 330.656 140.409 330.775 140.345 330.882C140.281 330.989 140.194 331.08 140.09 331.148L133.67 335.678C133.565 335.724 133.476 335.8 133.414 335.896C133.351 335.992 133.318 336.104 133.318 336.218C133.318 336.333 133.351 336.445 133.414 336.54C133.476 336.636 133.565 336.712 133.67 336.758L141.67 341.388C141.943 341.525 142.242 341.603 142.547 341.615C142.853 341.627 143.157 341.573 143.44 341.458L151.55 337.708C152.141 337.468 152.795 337.429 153.41 337.598C155.475 338.233 157.58 338.731 159.71 339.088C159.993 339.15 160.254 339.289 160.462 339.49C160.67 339.692 160.819 339.947 160.89 340.228L161.89 345.578C161.95 345.853 162.099 346.1 162.314 346.281C162.53 346.462 162.799 346.567 163.08 346.578H174.85C175.13 346.568 175.399 346.464 175.613 346.282C175.827 346.101 175.974 345.853 176.03 345.578L177.03 340.228C177.1 339.948 177.246 339.693 177.453 339.491C177.659 339.29 177.918 339.15 178.2 339.088C180.332 338.733 182.437 338.232 184.5 337.588C185.117 337.43 185.769 337.472 186.36 337.708L194.47 341.458C194.753 341.573 195.057 341.627 195.363 341.615C195.668 341.603 195.967 341.525 196.24 341.388L204.24 336.758C204.345 336.712 204.434 336.636 204.497 336.54C204.559 336.445 204.592 336.333 204.592 336.218C204.592 336.104 204.559 335.992 204.497 335.896C204.434 335.8 204.345 335.724 204.24 335.678L197.9 331.108C197.796 331.039 197.709 330.947 197.645 330.839C197.581 330.732 197.542 330.611 197.53 330.487C197.519 330.362 197.535 330.236 197.578 330.119C197.622 330.002 197.69 329.895 197.78 329.808C198.66 328.856 199.422 327.802 200.05 326.668C200.198 326.403 200.405 326.175 200.655 326.002C200.904 325.829 201.19 325.714 201.49 325.668L212.16 324.998C212.429 324.978 212.681 324.858 212.866 324.662C213.051 324.466 213.156 324.208 213.16 323.938V322.748C213.247 322.815 213.319 322.9 213.37 322.998Z" fill="#263238"/>
<path d="M204.75 305.818V316.478L201.68 316.288C201.379 316.242 201.094 316.128 200.844 315.955C200.595 315.781 200.388 315.553 200.24 315.288C199.609 314.177 198.847 313.147 197.97 312.218C197.88 312.13 197.811 312.023 197.768 311.905C197.724 311.787 197.708 311.66 197.719 311.535C197.731 311.41 197.77 311.288 197.834 311.18C197.898 311.072 197.985 310.979 198.09 310.908L204.43 306.348C204.517 306.294 204.591 306.221 204.646 306.135C204.702 306.048 204.737 305.95 204.75 305.848V305.818Z" fill="#263238"/>
<path d="M140.17 312.219C139.288 313.166 138.529 314.221 137.91 315.359C137.761 315.625 137.553 315.854 137.301 316.027C137.05 316.2 136.762 316.314 136.46 316.359L133.4 316.549V305.799C133.409 305.905 133.442 306.007 133.498 306.097C133.553 306.188 133.63 306.264 133.72 306.319L140.06 310.879C140.169 310.95 140.26 311.044 140.327 311.156C140.393 311.267 140.433 311.392 140.444 311.522C140.455 311.651 140.436 311.781 140.388 311.902C140.341 312.023 140.266 312.131 140.17 312.219Z" fill="#263238"/>
<path d="M141.77 300.609L133.77 305.239C133.666 305.285 133.576 305.361 133.514 305.457C133.451 305.553 133.418 305.665 133.418 305.779C133.418 305.894 133.451 306.006 133.514 306.102C133.576 306.197 133.666 306.273 133.77 306.319L140.11 310.889C140.214 310.959 140.302 311.051 140.366 311.158C140.43 311.266 140.469 311.386 140.48 311.511C140.492 311.635 140.475 311.761 140.432 311.878C140.389 311.996 140.32 312.102 140.23 312.189C139.348 313.137 138.589 314.192 137.97 315.329C137.821 315.595 137.613 315.824 137.361 315.997C137.11 316.171 136.822 316.284 136.52 316.329L125.86 316.999C125.591 317.019 125.34 317.139 125.155 317.335C124.97 317.531 124.865 317.79 124.86 318.059V324.059C124.865 324.329 124.97 324.587 125.155 324.783C125.34 324.979 125.591 325.099 125.86 325.119L136.52 325.789C136.822 325.834 137.11 325.948 137.361 326.121C137.613 326.294 137.821 326.523 137.97 326.789C138.589 327.927 139.348 328.982 140.23 329.929C140.32 330.017 140.389 330.125 140.432 330.243C140.476 330.361 140.492 330.487 140.481 330.613C140.469 330.738 140.43 330.859 140.366 330.968C140.302 331.076 140.215 331.169 140.11 331.239L133.67 335.679C133.569 335.728 133.483 335.805 133.423 335.901C133.364 335.996 133.332 336.106 133.332 336.219C133.332 336.332 133.364 336.442 133.423 336.538C133.483 336.633 133.569 336.71 133.67 336.759L141.67 341.389C141.943 341.527 142.242 341.604 142.548 341.616C142.853 341.628 143.157 341.575 143.44 341.459L151.56 337.709C152.148 337.471 152.797 337.429 153.41 337.589C155.474 338.232 157.579 338.733 159.71 339.089C159.994 339.148 160.254 339.287 160.462 339.489C160.669 339.691 160.814 339.948 160.88 340.229L161.88 345.579C161.937 345.856 162.085 346.105 162.301 346.287C162.517 346.468 162.788 346.571 163.07 346.579H174.84C175.121 346.569 175.39 346.465 175.604 346.284C175.818 346.102 175.964 345.854 176.02 345.579L177.02 340.229C177.088 339.948 177.233 339.692 177.44 339.49C177.648 339.288 177.908 339.149 178.19 339.089C180.322 338.734 182.427 338.233 184.49 337.589C185.107 337.431 185.759 337.473 186.35 337.709L194.46 341.459C194.743 341.575 195.048 341.628 195.353 341.616C195.658 341.604 195.957 341.527 196.23 341.389L204.23 336.759C204.335 336.713 204.424 336.637 204.487 336.542C204.549 336.446 204.583 336.334 204.583 336.219C204.583 336.105 204.549 335.993 204.487 335.897C204.424 335.801 204.335 335.725 204.23 335.679L197.89 331.119C197.786 331.049 197.699 330.956 197.635 330.848C197.571 330.739 197.532 330.618 197.52 330.493C197.509 330.367 197.525 330.241 197.568 330.123C197.612 330.005 197.681 329.897 197.77 329.809C198.653 328.859 199.415 327.805 200.04 326.669C200.189 326.404 200.395 326.176 200.645 326.003C200.894 325.83 201.18 325.716 201.48 325.669L212.15 324.999C212.419 324.979 212.671 324.859 212.856 324.663C213.041 324.467 213.146 324.209 213.15 323.939V317.939C213.146 317.67 213.041 317.411 212.856 317.215C212.671 317.019 212.419 316.899 212.15 316.879L201.67 316.289C201.37 316.243 201.084 316.129 200.835 315.955C200.585 315.782 200.379 315.554 200.23 315.289C199.603 314.179 198.844 313.148 197.97 312.219C197.881 312.132 197.812 312.026 197.769 311.908C197.725 311.791 197.709 311.665 197.72 311.541C197.732 311.416 197.771 311.296 197.835 311.188C197.899 311.081 197.986 310.989 198.09 310.919L204.43 306.349C204.535 306.303 204.624 306.227 204.687 306.132C204.749 306.036 204.783 305.924 204.783 305.809C204.783 305.695 204.749 305.583 204.687 305.487C204.624 305.391 204.535 305.315 204.43 305.269L196.43 300.649C196.159 300.508 195.86 300.428 195.554 300.414C195.249 300.401 194.944 300.453 194.66 300.569L186.55 304.329C185.958 304.562 185.306 304.601 184.69 304.439C182.627 303.795 180.522 303.294 178.39 302.939C178.108 302.879 177.848 302.74 177.64 302.538C177.433 302.337 177.288 302.08 177.22 301.799L176.22 296.449C176.164 296.174 176.018 295.926 175.804 295.745C175.59 295.563 175.321 295.459 175.04 295.449H163.19C162.908 295.457 162.637 295.56 162.421 295.742C162.205 295.923 162.057 296.173 162 296.449L161 301.799C160.934 302.081 160.789 302.338 160.582 302.54C160.374 302.742 160.114 302.88 159.83 302.939C157.699 303.295 155.594 303.796 153.53 304.439C152.917 304.6 152.268 304.558 151.68 304.319L143.56 300.569C143.277 300.446 142.97 300.386 142.661 300.393C142.352 300.4 142.048 300.474 141.77 300.609ZM182.6 313.219C190.06 317.529 190.06 324.529 182.6 328.839C175.14 333.149 163.02 333.149 155.55 328.839C148.08 324.529 148.08 317.529 155.55 313.219C163.02 308.909 175.13 308.879 182.6 313.219Z" fill="#455A64"/>
<path d="M133.39 336.219C133.397 336.111 133.429 336.007 133.485 335.914C133.541 335.822 133.618 335.745 133.71 335.689L136.9 333.389V325.819C136.761 325.757 136.612 325.72 136.46 325.708L125.79 325.039C125.521 325.019 125.269 324.899 125.084 324.703C124.899 324.506 124.794 324.248 124.79 323.979V334.129C124.809 334.388 124.92 334.631 125.104 334.815C125.287 334.999 125.531 335.11 125.79 335.129H125.93L132 335.509L133.39 335.609V336.219Z" fill="#37474F"/>
<path d="M152.27 337.539C152.057 337.57 151.849 337.628 151.65 337.709L143.54 341.459C143.223 341.587 142.88 341.635 142.54 341.599V351.729C142.719 351.749 142.901 351.749 143.08 351.729V351.679C143.246 351.675 143.411 351.648 143.57 351.599L151.69 347.839C151.887 347.767 152.092 347.72 152.3 347.699L152.27 337.539Z" fill="#37474F"/>
<path d="M162.15 345.958C162.081 345.84 162.031 345.712 162 345.578L161 340.228C160.966 340.085 160.912 339.947 160.84 339.818V349.968C160.913 350.093 160.967 350.228 161 350.368L162 355.708C162.03 355.805 162.081 355.894 162.15 355.968V345.958Z" fill="#37474F"/>
<path opacity="0.15" d="M177.32 339.828C177.243 339.951 177.189 340.087 177.16 340.228L176.16 345.578C176.136 345.714 176.085 345.843 176.01 345.958V356.088C176.085 355.973 176.136 355.844 176.16 355.708L177.16 350.368C177.181 350.233 177.236 350.106 177.32 349.998V339.828Z" fill="black"/>
<path opacity="0.15" d="M195.67 341.589C195.331 341.632 194.987 341.587 194.67 341.459L186.56 337.709C186.365 337.628 186.16 337.57 185.95 337.539V347.679C186.16 347.703 186.366 347.756 186.56 347.839L194.67 351.599C194.911 351.698 195.17 351.746 195.43 351.739H195.67V341.589Z" fill="black"/>
<path opacity="0.15" d="M212.35 325.039L201.68 325.709C201.528 325.721 201.38 325.758 201.24 325.819V333.379L204.43 335.679C204.524 335.736 204.602 335.815 204.657 335.909C204.713 336.003 204.745 336.11 204.75 336.219V335.649L212.35 335.169C212.619 335.149 212.871 335.029 213.056 334.833C213.241 334.637 213.346 334.379 213.35 334.109V322.999C213.36 322.929 213.36 322.859 213.35 322.789V323.979C213.346 324.249 213.241 324.507 213.056 324.703C212.871 324.899 212.619 325.019 212.35 325.039Z" fill="black"/>
<path d="M52.2102 287.708C52.2102 288.168 52.2102 296.548 52.2102 296.778C52.2123 296.861 52.2403 296.941 52.2902 297.008L55.8502 302.008C56.0206 302.173 56.2293 302.295 56.4577 302.361C56.6862 302.427 56.9274 302.437 57.1602 302.388L65.3702 301.008C65.8776 300.921 66.3995 301.009 66.8502 301.258C67.4934 301.717 68.161 302.141 68.8502 302.528C68.8502 302.528 68.8502 309.198 68.8502 309.338C68.866 309.458 68.9187 309.571 69.001 309.66C69.0833 309.75 69.1913 309.812 69.3102 309.838L78.2602 311.978C78.5225 311.999 78.7861 311.96 79.0307 311.862C79.2753 311.765 79.4941 311.613 79.6702 311.418L83.3602 307.528C83.7624 307.126 84.3024 306.894 84.8702 306.878C86.7384 306.993 88.612 306.993 90.4802 306.878C90.9672 306.841 91.45 306.991 91.8302 307.298L95.9502 311.628C96.1461 311.775 96.3736 311.875 96.6147 311.921C96.8558 311.966 97.1041 311.954 97.3402 311.888L105.95 309.838C106.37 309.738 106.64 309.468 106.62 309.188V302.468C107.21 302.128 107.77 301.778 108.3 301.408C108.775 301.081 109.344 300.92 109.92 300.948L118.4 302.368C118.657 302.383 118.914 302.334 119.148 302.226C119.382 302.118 119.585 301.954 119.74 301.748L122.98 297.218C123.098 297.07 123.162 296.886 123.16 296.698C123.16 296.538 123.16 293.878 123.16 290.158C123.203 290.099 123.227 290.03 123.23 289.958C123.23 289.878 123.23 277.798 123.23 277.048C123.226 276.968 123.198 276.891 123.15 276.828L119.59 271.828C119.418 271.664 119.21 271.544 118.982 271.478C118.754 271.412 118.513 271.401 118.28 271.448L110.07 272.838C109.563 272.915 109.044 272.827 108.59 272.588C107.947 272.125 107.28 271.698 106.59 271.308C106.59 268.198 106.59 264.998 106.59 264.628C106.595 264.491 106.552 264.356 106.468 264.248C106.384 264.14 106.264 264.066 106.13 264.038L97.1802 261.898C96.9155 261.868 96.6474 261.9 96.3974 261.992C96.1474 262.084 95.9223 262.233 95.7402 262.428L92.0602 266.308C91.6584 266.711 91.1189 266.946 90.5502 266.968C88.6821 266.848 86.8083 266.848 84.9402 266.968C84.4541 266.997 83.9741 266.847 83.5902 266.548L79.4702 262.218C79.2723 262.074 79.0449 261.976 78.8045 261.931C78.5641 261.886 78.3167 261.895 78.0802 261.958L69.4702 264.018C69.0502 264.118 68.7902 264.378 68.8002 264.648V271.388C68.2202 271.728 67.6502 272.088 67.1202 272.448C66.6458 272.777 66.077 272.942 65.5002 272.918L57.0202 271.488C56.7622 271.474 56.505 271.525 56.2713 271.635C56.0375 271.745 55.8345 271.91 55.6802 272.118L52.4402 276.638C52.3312 276.782 52.2685 276.957 52.2602 277.138C52.2602 277.538 52.2602 283.878 52.2602 287.528C52.2224 287.588 52.2016 287.657 52.2002 287.728L52.2102 287.708ZM98.7902 288.828C97.2067 289.707 95.5064 290.357 93.7402 290.758C87.7402 292.198 81.0302 291.318 76.6702 288.838C76.1979 288.575 75.7436 288.281 75.3102 287.958C75.7002 287.688 76.1202 287.418 76.5702 287.158C82.7102 283.608 92.6702 283.608 98.8202 287.158C99.2802 287.428 99.7102 287.698 100.1 287.968C99.6814 288.281 99.2439 288.568 98.7902 288.828Z" fill="#37474F"/>
<path d="M104.67 270.299C105.36 270.619 106.02 270.959 106.67 271.299V264.619C106.658 264.738 106.624 264.853 106.57 264.959L104.35 269.219C104.297 269.311 104.264 269.412 104.252 269.516C104.24 269.621 104.249 269.727 104.279 269.827C104.309 269.928 104.359 270.022 104.426 270.103C104.493 270.184 104.576 270.251 104.67 270.299Z" fill="#263238"/>
<path opacity="0.15" d="M114.49 280.918C114.64 281.849 114.64 282.798 114.49 283.728C114.457 283.935 114.496 284.147 114.599 284.328C114.703 284.51 114.865 284.651 115.06 284.728L122.81 287.168C122.916 287.201 123.009 287.268 123.074 287.358C123.139 287.448 123.173 287.557 123.17 287.668C123.17 287.818 123.17 290.178 123.17 290.178C123.204 290.124 123.225 290.062 123.23 289.998C123.23 285.598 123.23 278.248 123.23 277.608V277.068C123.23 277.298 122.98 277.528 122.6 277.648L115.29 279.968C115.069 280.013 114.87 280.132 114.725 280.304C114.579 280.477 114.497 280.693 114.49 280.918Z" fill="black"/>
<path opacity="0.15" d="M109.67 291.869V300.949C109.773 300.939 109.877 300.939 109.98 300.949L118.46 302.369C118.601 302.403 118.749 302.403 118.89 302.369V293.299C118.741 293.328 118.589 293.328 118.44 293.299L109.96 291.869C109.864 291.854 109.766 291.854 109.67 291.869Z" fill="black"/>
<path d="M106.67 302.479C107.25 302.139 107.82 301.789 108.35 301.419C108.744 301.162 109.193 301.001 109.66 300.949V291.869C109.187 291.917 108.734 292.082 108.34 292.349C107.247 293.104 106.097 293.773 104.9 294.349C104.4 294.599 104.12 295.029 104.28 295.349L106.61 299.959C106.623 300.022 106.623 300.086 106.61 300.149C106.67 300.409 106.67 302.479 106.67 302.479Z" fill="#263238"/>
<path opacity="0.15" d="M91.3398 297.938V307.017C91.5334 307.072 91.7115 307.172 91.8598 307.307L95.9798 311.638C96.1889 311.819 96.4532 311.925 96.7298 311.938V302.858C96.448 302.85 96.1768 302.748 95.9598 302.568L91.8398 298.217C91.6982 298.085 91.5267 297.989 91.3398 297.938Z" fill="black"/>
<path d="M84.3604 297.889V306.969C84.5338 306.908 84.7165 306.878 84.9004 306.879C86.7686 306.994 88.6421 306.994 90.5103 306.879C90.7929 306.868 91.0749 306.912 91.3403 307.009V297.929C91.0698 297.825 90.7798 297.78 90.4903 297.799C88.6255 297.914 86.7552 297.914 84.8904 297.799C84.7097 297.797 84.5302 297.828 84.3604 297.889Z" fill="#263238"/>
<path opacity="0.15" d="M78.8799 302.819V311.899C79.1888 311.809 79.4706 311.644 79.6999 311.419L83.3899 307.529C83.6747 307.266 84.0173 307.074 84.3899 306.969V297.889C84.0143 297.992 83.6706 298.188 83.3899 298.459L79.6699 302.339C79.4476 302.558 79.1771 302.723 78.8799 302.819Z" fill="black"/>
<path d="M68.8496 300.219V302.469V306.029C68.8496 307.639 68.8496 309.209 68.8496 309.279C68.8654 309.399 68.9181 309.512 69.0004 309.602C69.0828 309.691 69.1907 309.753 69.3096 309.779L78.2596 311.909C78.4594 311.962 78.6698 311.962 78.8696 311.909V302.819C78.6629 302.872 78.4463 302.872 78.2396 302.819L69.2896 300.679C69.1776 300.657 69.0751 300.601 68.9963 300.519C68.9175 300.436 68.8662 300.332 68.8496 300.219Z" fill="#37474F"/>
<path opacity="0.15" d="M65.96 291.879V300.959C66.2766 300.979 66.5845 301.071 66.86 301.229C67.5031 301.688 68.1708 302.112 68.86 302.499C68.86 302.499 68.86 300.419 68.86 300.139C68.8623 300.01 68.893 299.884 68.95 299.769L71.1 295.509C71.1553 295.422 71.1923 295.324 71.2086 295.222C71.225 295.12 71.2204 295.016 71.1951 294.916C71.1698 294.816 71.1244 294.722 71.0616 294.64C70.9989 294.558 70.92 294.489 70.83 294.439C69.4312 293.8 68.0925 293.037 66.83 292.159C66.5697 291.991 66.2696 291.894 65.96 291.879Z" fill="black"/>
<path d="M52.21 287.719C52.21 288.169 52.21 296.539 52.21 296.779C52.2121 296.862 52.24 296.942 52.29 297.009L55.86 302.009C56.018 302.191 56.233 302.314 56.47 302.359V293.219C56.2214 293.176 55.9952 293.049 55.83 292.859L52.27 287.859C52.2393 287.817 52.2188 287.769 52.21 287.719Z" fill="#37474F"/>
<path d="M97.18 261.868L106.13 264.008C106.205 264.026 106.276 264.058 106.339 264.104C106.402 264.149 106.454 264.207 106.495 264.273C106.535 264.339 106.561 264.412 106.572 264.489C106.584 264.565 106.579 264.643 106.56 264.718C106.557 264.837 106.527 264.954 106.47 265.058L104.32 269.308C104.266 269.397 104.23 269.495 104.214 269.597C104.198 269.7 104.203 269.804 104.228 269.905C104.254 270.005 104.298 270.1 104.361 270.183C104.423 270.266 104.501 270.336 104.59 270.388C105.3 270.698 105.96 271.038 106.59 271.388C107.279 271.778 107.947 272.206 108.59 272.668C109.044 272.908 109.563 272.995 110.07 272.918L118.28 271.528C118.513 271.482 118.753 271.492 118.981 271.558C119.209 271.624 119.418 271.744 119.59 271.908L123.15 276.908C123.198 276.972 123.226 277.049 123.23 277.128C123.21 277.358 122.98 277.588 122.6 277.708L115.29 280.028C115.061 280.075 114.855 280.201 114.709 280.383C114.563 280.566 114.485 280.794 114.49 281.028C114.64 281.956 114.64 282.901 114.49 283.828C114.455 284.035 114.493 284.248 114.597 284.43C114.701 284.612 114.864 284.753 115.06 284.828L122.8 287.278C122.908 287.306 123.004 287.369 123.071 287.458C123.139 287.547 123.173 287.657 123.17 287.768C123.156 287.948 123.094 288.121 122.99 288.268L119.74 292.788C119.587 292.997 119.384 293.164 119.15 293.274C118.916 293.384 118.658 293.433 118.4 293.418L109.92 291.988C109.347 291.955 108.779 292.117 108.31 292.448C107.219 293.207 106.069 293.876 104.87 294.448C104.37 294.678 104.09 295.118 104.25 295.448L106.58 300.058C106.75 300.388 106.46 300.748 105.95 300.878L97.34 302.938C97.1052 303.001 96.8592 303.011 96.6203 302.966C96.3815 302.921 96.1558 302.822 95.96 302.678L91.83 298.338C91.4461 298.039 90.9661 297.889 90.48 297.918C88.6149 298.028 86.745 298.028 84.88 297.918C84.3104 297.926 83.7673 298.16 83.37 298.568L79.68 302.448C79.4964 302.641 79.2712 302.789 79.0216 302.881C78.7719 302.972 78.5046 303.006 78.24 302.978L69.29 300.838C69.185 300.817 69.0873 300.77 69.0061 300.7C68.925 300.63 68.8634 300.541 68.8271 300.44C68.7909 300.339 68.7813 300.231 68.7993 300.126C68.8174 300.02 68.8624 299.921 68.93 299.838L71.07 295.588C71.1255 295.5 71.1626 295.402 71.1791 295.299C71.1956 295.196 71.1911 295.091 71.1658 294.991C71.1406 294.89 71.0952 294.795 71.0323 294.712C70.9694 294.629 70.8904 294.56 70.8 294.508C69.4012 293.869 68.0625 293.106 66.8 292.228C66.3556 291.972 65.8353 291.88 65.33 291.968L57.11 293.348C56.8788 293.399 56.6386 293.391 56.4114 293.325C56.1842 293.258 55.9774 293.136 55.81 292.968L52.24 287.968C52.1931 287.905 52.1685 287.827 52.17 287.748C52.1714 287.677 52.1922 287.608 52.23 287.548C52.3651 287.357 52.5634 287.219 52.79 287.158L60.1 284.848C60.62 284.648 60.97 284.218 60.9 283.848C60.75 282.921 60.75 281.976 60.9 281.048C60.9361 280.84 60.8978 280.626 60.7918 280.443C60.6857 280.26 60.5187 280.12 60.32 280.048L52.58 277.588C52.4769 277.56 52.386 277.499 52.321 277.414C52.256 277.329 52.2205 277.225 52.22 277.118C52.2283 276.937 52.291 276.763 52.4 276.618L55.64 272.098C55.7943 271.891 55.9973 271.725 56.231 271.615C56.4648 271.505 56.722 271.455 56.98 271.468L65.46 272.898C66.0368 272.922 66.6056 272.757 67.08 272.428C67.61 272.068 68.2 271.678 68.76 271.368C69.32 271.058 70 270.688 70.51 270.458C71.02 270.228 71.3 269.778 71.13 269.458L68.8 264.828C68.7859 264.769 68.7859 264.707 68.8 264.648C68.79 264.378 69.05 264.118 69.47 264.018L78.08 261.958C78.3165 261.896 78.5638 261.887 78.8042 261.932C79.0446 261.977 79.272 262.075 79.47 262.218L83.59 266.518C83.9738 266.818 84.4539 266.967 84.94 266.938C86.8081 266.818 88.6819 266.818 90.55 266.938C91.1187 266.917 91.6582 266.681 92.06 266.278L95.74 262.398C95.9221 262.204 96.1472 262.055 96.3972 261.963C96.6472 261.871 96.9153 261.838 97.18 261.868Z" fill="#455A64"/>
<path d="M428.725 282.318C428.261 282.32 427.797 282.279 427.34 282.196L349.217 267.484C347.297 267.119 345.6 266.007 344.5 264.392C343.4 262.777 342.987 260.791 343.351 258.871C343.715 256.951 344.827 255.254 346.442 254.154C348.057 253.053 350.044 252.64 351.964 253.004L430.086 267.716C431.925 268.016 433.582 269.003 434.722 270.477C435.861 271.952 436.399 273.803 436.226 275.659C436.054 277.514 435.183 279.235 433.791 280.473C432.399 281.712 430.588 282.375 428.725 282.331V282.318Z" fill="#455A64"/>
<path d="M416.513 265.14C409.991 263.914 406.803 278.308 411.977 279.289" stroke="#37474F" stroke-width="1.2" stroke-linecap="round" stroke-linejoin="round"/>
<path d="M403.492 262.678C396.982 261.452 393.782 275.845 398.968 276.826" stroke="#37474F" stroke-width="1.2" stroke-linecap="round" stroke-linejoin="round"/>
<path d="M390.484 260.224C383.962 258.998 380.774 273.392 385.948 274.373" stroke="#37474F" stroke-width="1.2" stroke-linecap="round" stroke-linejoin="round"/>
<path d="M377.502 257.76C370.992 256.534 367.792 270.927 372.978 271.908" stroke="#37474F" stroke-width="1.2" stroke-linecap="round" stroke-linejoin="round"/>
<path d="M364.456 255.297C357.934 254.071 354.746 268.464 359.932 269.445" stroke="#37474F" stroke-width="1.2" stroke-linecap="round" stroke-linejoin="round"/>
<path opacity="0.15" d="M343.172 260.225C343.177 261.936 343.778 263.592 344.872 264.908C345.966 266.224 347.485 267.117 349.167 267.434L427.29 282.146C427.747 282.229 428.211 282.27 428.675 282.269C430.393 282.269 432.056 281.669 433.377 280.571C434.698 279.474 435.594 277.949 435.909 276.261V276.004L343.172 260.225Z" fill="black"/>
<path d="M512.879 217.977C507.044 216.432 497.861 215.954 490.124 222.121C483.822 227.147 476.54 249.817 474.1 257.675L432.795 257.577C430.524 257.858 428.404 258.864 426.751 260.446C419.836 267.312 418.524 274.987 419.113 282.294C419.48 286.806 422.546 289.92 424.74 290.3C425.402 290.435 479.74 301.432 487.452 302.793C500.288 305.061 497.493 305.037 505.082 294.15C510.072 287.002 510.072 276.434 510.072 269.445C510.072 262.457 513.21 250.895 515.859 241.835C518.507 232.775 518.715 219.521 512.879 217.977Z" fill="#6CAF3A"/>
<path opacity="0.15" d="M504.592 218.136C497.727 220.686 493.472 226.718 491.388 235.95C489.304 245.182 491.155 252.82 489.206 266.147C487.907 273.402 485.596 280.439 482.34 287.051C479.692 292.065 475.928 294.15 468.854 292.924C461.779 291.698 436.793 288.019 430.258 284.991C428.417 284.171 426.863 282.821 425.793 281.113C424.723 279.406 424.186 277.418 424.251 275.404C428.489 275.382 432.689 274.61 436.658 273.123C442.236 270.769 441.82 268.096 441.648 266.638L434.905 257.577H432.821C430.549 257.858 428.43 258.864 426.776 260.446C419.861 267.312 418.55 274.987 419.138 282.294C419.506 286.806 422.571 289.92 424.766 290.3C425.428 290.435 479.765 301.432 487.477 302.793C500.313 305.061 497.518 305.037 505.107 294.15C510.097 287.002 510.097 276.433 510.097 269.445C510.097 262.457 513.236 250.895 515.884 241.835C516.779 238.724 517.342 235.526 517.564 232.296C512.365 223.788 507.265 217.13 504.592 218.136Z" fill="black"/>
<path d="M512.88 217.976L511.74 217.694C510.479 217.418 509.201 217.222 507.915 217.105C499.1 218.871 494.944 226.669 493.681 237.384C492.418 248.1 493.57 260.102 492.786 267.569C492.001 275.035 487.354 287.05 487.661 294.983C487.614 297.985 488.539 300.923 490.297 303.357C499.848 305.036 498.082 304.178 505.009 294.198C509.999 287.05 509.999 276.482 509.999 269.494C509.999 262.505 513.138 250.944 515.786 241.884C518.434 232.823 518.716 219.521 512.88 217.976Z" fill="#455A64"/>
<path opacity="0.15" d="M474.1 257.674C472.405 264.415 471.091 271.247 470.165 278.136C469.229 271.348 469.229 264.463 470.165 257.674H474.1Z" fill="black"/>
<path d="M500.104 230.224C496.095 240.522 497.652 256.167 496.769 266.294C495.886 276.421 491.301 290.593 492 295.951C492.699 301.309 495.384 305.048 499.479 302.658C501.641 301.044 503.392 298.944 504.591 296.527C505.817 294.161 506.663 291.623 507.252 290.164C510.084 283.446 510.084 275.219 510.084 269.432C510.084 262.444 513.222 250.882 515.871 241.822C517.857 235.042 518.47 225.884 516.202 221.127C514.436 217.203 504.505 218.907 500.104 230.224Z" fill="#37474F"/>
<path d="M497.113 256.044C497.113 256.522 497.113 257 497.113 257.479L514.278 247.585C514.425 247.021 514.584 246.457 514.744 245.893L497.113 256.044Z" fill="#263238"/>
<path d="M516.558 221.984L499.553 231.793C499.381 232.344 499.222 232.908 499.062 233.497L516.938 223.174C516.828 222.769 516.693 222.364 516.558 221.984Z" fill="#263238"/>
<path d="M512.365 254.867L496.941 263.768C496.941 264.271 496.88 264.761 496.855 265.239L511.972 256.51C512.083 255.958 512.218 255.419 512.365 254.867Z" fill="#263238"/>
<path d="M493.974 282.085L510.071 272.791C510.071 272.313 510.071 271.835 510.071 271.369L494.305 280.479C494.194 281.018 494.084 281.557 493.974 282.085Z" fill="#263238"/>
<path d="M497.261 248.357V249.791L516.718 238.561C516.828 238.033 516.926 237.506 517.024 236.967L497.261 248.357Z" fill="#263238"/>
<path d="M496.01 271.909C495.911 272.436 495.826 272.964 495.728 273.491L510.44 265.019C510.501 264.516 510.575 264.001 510.648 263.486L496.01 271.909Z" fill="#263238"/>
<path d="M517.637 230.395C517.637 229.917 517.637 229.439 517.637 228.973L497.812 240.424C497.812 240.926 497.701 241.417 497.652 241.932L517.637 230.395Z" fill="#263238"/>
<path d="M507.534 289.491C507.755 288.902 507.951 288.265 508.147 287.713L492.209 296.933C492.298 297.351 492.421 297.761 492.577 298.159L507.534 289.491Z" fill="#263238"/>
<path d="M509.581 280.749C509.581 280.234 509.704 279.731 509.753 279.229L492.589 289.184C492.49 289.723 492.405 290.251 492.331 290.753L509.581 280.749Z" fill="#263238"/>
<path d="M423.968 272.276C433.506 273.183 441.255 269.713 441.623 266.636C441.623 266.636 443.928 253.787 426.91 252.414C409.893 251.041 409.427 263.51 409.427 263.51C409.378 266.452 414.417 271.381 423.968 272.276Z" fill="#6CAF3A"/>
<path opacity="0.7" d="M423.968 272.276C433.506 273.183 441.255 269.713 441.623 266.636C441.623 266.636 443.928 253.787 426.91 252.414C409.893 251.041 409.427 263.51 409.427 263.51C409.378 266.452 414.417 271.381 423.968 272.276Z" fill="white"/>
<path d="M441.622 266.636C441.857 264.886 441.7 263.106 441.161 261.424C440.622 259.742 439.716 258.202 438.508 256.914C439.157 258.14 441.879 264.393 431.912 267.262C420.804 270.437 410.615 263.461 410.051 260.715C409.723 261.615 409.516 262.555 409.438 263.51C409.438 266.453 414.416 271.381 423.967 272.276C433.518 273.171 441.254 269.714 441.622 266.636Z" fill="#6CAF3A"/>
<path opacity="0.05" d="M441.622 266.636C441.857 264.886 441.7 263.106 441.161 261.424C440.622 259.742 439.716 258.202 438.508 256.914C439.157 258.14 441.879 264.393 431.912 267.262C420.804 270.437 410.615 263.461 410.051 260.715C409.723 261.615 409.516 262.555 409.438 263.51C409.438 266.453 414.416 271.381 423.967 272.276C433.518 273.171 441.254 269.714 441.622 266.636Z" fill="black"/>
<path d="M405.284 148.938C405.039 146.278 404.058 140.748 399.411 138.566C394.765 136.384 392.251 138.566 392.913 140.601C393.575 142.636 398.369 143.286 398.565 150.274C398.565 150.274 402.734 152.077 405.284 148.938Z" fill="#455A64"/>
<path opacity="0.15" d="M401.238 147.859C400.979 146.368 400.408 144.949 399.563 143.694C398.718 142.439 397.617 141.377 396.334 140.576C394.85 139.411 394.617 138.198 396.334 137.683C393.685 137.45 392.374 139.056 392.876 140.601C393.551 142.673 398.332 143.286 398.528 150.274C399.484 150.648 400.507 150.819 401.532 150.777C401.508 149.906 401.397 148.876 401.238 147.859Z" fill="black"/>
<path d="M395.303 153.781C398.306 147.651 407.845 146.866 415.262 153.781C426.395 164.166 428.221 174.452 423.526 179.92C418.83 185.388 411.658 183.819 405.282 178.081C400.378 173.63 390.987 162.572 395.303 153.781Z" fill="#6CAF3A"/>
<path opacity="0.1" d="M423.527 179.894C424.99 178.149 425.831 175.967 425.918 173.691C425.341 176.756 423.797 178.926 421.712 179.662C419.162 180.569 414.626 181.979 407.098 174.193C399.57 166.408 395.622 153.474 400.747 149.342C399.58 149.653 398.492 150.207 397.554 150.968C396.616 151.728 395.849 152.678 395.304 153.755C390.963 162.571 400.379 173.629 405.283 178.055C411.659 183.793 418.831 185.375 423.527 179.894Z" fill="black"/>
<path d="M379.23 177.481C360.361 167.439 350.087 162.425 340.794 167.243L336.27 158.514C350.577 151.096 364.53 158.514 383.852 168.812L379.23 177.481Z" fill="#455A64"/>
<path d="M352.404 155.791C354.856 157.52 356.082 162.877 353.63 166.041" stroke="#37474F" stroke-width="1.02" stroke-linecap="round" stroke-linejoin="round"/>
<path d="M364.444 159.225C366.16 160.635 367.325 166.397 364.015 169.768" stroke="#37474F" stroke-width="1.02" stroke-linecap="round" stroke-linejoin="round"/>
<path opacity="0.15" d="M340.794 167.267C350.087 162.449 360.41 167.463 379.23 177.504L381.142 173.924C376.824 171.16 372.318 168.702 367.656 166.568C354.378 160.561 349.327 159.886 338.918 163.773L340.794 167.267Z" fill="black"/>
<path d="M335.562 179.577C343.694 176.209 347.556 166.885 344.187 158.753C340.819 150.621 331.495 146.759 323.363 150.127C315.23 153.496 311.368 162.819 314.737 170.952C318.106 179.084 327.429 182.946 335.562 179.577Z" fill="#6CAF3A"/>
<path opacity="0.25" d="M335.562 179.577C343.694 176.209 347.556 166.885 344.187 158.753C340.819 150.621 331.495 146.759 323.363 150.127C315.23 153.496 311.368 162.819 314.737 170.952C318.106 179.084 327.429 182.946 335.562 179.577Z" fill="black"/>
<path d="M313.687 291.61C335.585 291.61 353.337 273.858 353.337 251.96C353.337 230.062 335.585 212.311 313.687 212.311C291.789 212.311 274.037 230.062 274.037 251.96C274.037 273.858 291.789 291.61 313.687 291.61Z" fill="#6CAF3A"/>
<path opacity="0.35" d="M313.687 291.61C335.585 291.61 353.337 273.858 353.337 251.96C353.337 230.062 335.585 212.311 313.687 212.311C291.789 212.311 274.037 230.062 274.037 251.96C274.037 273.858 291.789 291.61 313.687 291.61Z" fill="black"/>
<path opacity="0.15" d="M316.2 283.029C306.392 281.901 301.709 275.979 301.709 275.979C301.709 275.979 336.111 276.077 352.589 244.103C351.383 238.175 348.838 232.602 345.149 227.809C341.461 223.015 336.725 219.128 331.305 216.443L284.973 224.682C281.157 228.724 278.234 233.522 276.392 238.767C274.551 244.011 273.833 249.584 274.284 255.124C274.736 260.664 276.347 266.047 279.014 270.924C281.68 275.801 285.342 280.063 289.762 283.433C294.183 286.803 299.262 289.206 304.671 290.486C310.079 291.767 315.697 291.895 321.159 290.864C326.621 289.833 331.805 287.665 336.374 284.501C340.944 281.337 344.798 277.247 347.685 272.497C339.765 281.803 326.156 284.194 316.2 283.029Z" fill="black"/>
<path d="M352.27 230.775L352.061 230.358C352 230.248 351.951 230.137 351.902 230.039C347.494 220.546 343.882 210.705 341.1 200.615C337.893 188.685 335.986 176.443 335.412 164.104H244.023C244.023 198.334 250.595 231.964 265.565 257.993C268.115 263.007 273.509 267.151 281.503 269.579C301.23 275.55 329.404 268.954 344.435 254.867C353.14 246.775 355.531 237.947 352.27 230.775Z" fill="#6CAF3A"/>
<path opacity="0.1" d="M342.253 256.841C335.853 261.549 321.337 267.397 310.474 267.299C298.042 267.176 273.117 260.286 264.204 240.829C255.291 221.372 252.446 185.375 252.446 185.375C252.446 185.375 263.002 191.432 286.898 190.844L283.771 164.141H244.048C244.048 198.371 250.619 232.001 265.589 258.03C268.139 263.044 273.534 267.188 281.528 269.616C300.335 275.305 326.793 269.579 342.253 256.841Z" fill="black"/>
<path d="M347.047 218.552C346.924 218.221 346.789 217.89 346.667 217.546C346.544 217.203 346.519 217.154 346.434 216.958V216.823C344.778 212.348 342.939 206.917 341.149 200.652C339.186 193.551 337.732 186.32 336.797 179.012V178.914C337.815 186.332 333.413 193.97 323.556 199.646C311.786 206.438 295.186 208.768 280.13 206.586C281.895 223.468 287.584 241.233 296.951 254.621C311.663 255.7 328.938 250.244 338.722 241.135C346.679 233.558 349.302 225.417 347.047 218.552Z" fill="#37474F"/>
<path d="M344.717 217.657C344.595 217.338 344.484 216.995 344.362 216.652L344.141 216.063V215.928C342.572 211.417 340.831 205.948 339.176 199.659C337.955 194.977 336.981 190.234 336.258 185.449C334.725 190.648 330.495 195.638 323.531 199.647C311.762 206.439 295.161 208.768 280.105 206.586C281.748 222.23 286.751 238.61 294.928 251.581C309.224 252.476 326.388 248.614 335.927 240.032C344.055 232.664 346.851 224.572 344.717 217.657Z" fill="#455A64"/>
<path d="M317.646 213.477L313.036 211.393C313.036 211.393 296.203 215.328 286.063 214.384C286.13 219.424 286.78 224.439 288.001 229.329C289.172 234 291.032 238.471 293.518 242.595L298.826 245.17L317.646 213.477Z" fill="#263238"/>
<path d="M289.828 218.589C289.828 225.001 295.137 240.768 298.839 245.169C298.839 245.169 317.438 244.299 325.444 236.967C325.187 234.92 317.647 213.477 317.647 213.477C312.73 217.106 298.202 218.601 289.828 218.589Z" fill="#37474F"/>
<path d="M319.621 235.974C320.643 235.974 321.472 235.145 321.472 234.123C321.472 233.1 320.643 232.271 319.621 232.271C318.598 232.271 317.77 233.1 317.77 234.123C317.77 235.145 318.598 235.974 319.621 235.974Z" fill="#6CAF3A"/>
<path d="M313.943 236.881C314.444 236.881 314.851 236.475 314.851 235.974C314.851 235.473 314.444 235.066 313.943 235.066C313.442 235.066 313.036 235.473 313.036 235.974C313.036 236.475 313.442 236.881 313.943 236.881Z" fill="#6CAF3A"/>
<path d="M318.738 223.812C318.658 223.829 318.574 223.829 318.493 223.812C318.374 223.812 318.256 223.778 318.156 223.712C318.056 223.647 317.977 223.554 317.929 223.444C317.871 223.292 317.873 223.124 317.934 222.974C317.996 222.823 318.112 222.702 318.26 222.635C319.073 222.296 319.735 221.671 320.119 220.878C320.503 220.085 320.583 219.179 320.344 218.331L316.017 203.104C316.397 202.957 316.789 202.81 317.157 202.65L321.521 218C321.857 219.142 321.758 220.367 321.244 221.44C320.73 222.513 319.838 223.357 318.738 223.812Z" fill="#6CAF3A"/>
<path d="M311.296 226.177C311.215 226.194 311.131 226.194 311.05 226.177C310.93 226.175 310.812 226.138 310.712 226.071C310.612 226.003 310.534 225.908 310.486 225.797C310.428 225.645 310.43 225.477 310.491 225.327C310.553 225.176 310.67 225.055 310.818 224.988C311.628 224.649 312.286 224.026 312.667 223.235C313.049 222.445 313.128 221.542 312.889 220.697L308.537 205.347L309.763 205.053L314.116 220.366C314.449 221.512 314.345 222.74 313.824 223.814C313.303 224.888 312.402 225.73 311.296 226.177Z" fill="#6CAF3A"/>
<path d="M303.94 228.568C303.863 228.585 303.784 228.585 303.707 228.568C303.585 228.57 303.466 228.537 303.363 228.471C303.26 228.406 303.179 228.311 303.131 228.2C303.072 228.048 303.074 227.88 303.136 227.73C303.197 227.579 303.314 227.458 303.462 227.391C304.275 227.052 304.935 226.426 305.317 225.633C305.699 224.84 305.776 223.934 305.534 223.087L300.899 206.769L302.125 206.609L306.699 222.756C307.038 223.895 306.944 225.118 306.435 226.191C305.926 227.265 305.037 228.111 303.94 228.568Z" fill="#6CAF3A"/>
<g opacity="0.3">
<path opacity="0.3" d="M318.737 223.812C318.657 223.829 318.573 223.829 318.492 223.812C318.373 223.812 318.255 223.778 318.155 223.712C318.055 223.647 317.976 223.554 317.928 223.444C317.87 223.292 317.872 223.124 317.933 222.974C317.995 222.823 318.111 222.702 318.259 222.635C319.073 222.296 319.734 221.671 320.118 220.878C320.502 220.085 320.582 219.179 320.344 218.331L316.016 203.104C316.396 202.957 316.788 202.81 317.156 202.65L321.52 218C321.856 219.142 321.757 220.367 321.243 221.44C320.729 222.513 319.837 223.357 318.737 223.812Z" fill="black"/>
<path opacity="0.3" d="M311.296 226.177C311.215 226.194 311.131 226.194 311.05 226.177C310.93 226.175 310.812 226.138 310.712 226.071C310.612 226.003 310.534 225.908 310.486 225.797C310.428 225.645 310.43 225.477 310.491 225.327C310.553 225.176 310.67 225.055 310.818 224.988C311.628 224.649 312.286 224.026 312.667 223.235C313.049 222.445 313.128 221.542 312.889 220.697L308.537 205.347L309.763 205.053L314.116 220.366C314.449 221.512 314.345 222.74 313.824 223.814C313.303 224.888 312.402 225.73 311.296 226.177Z" fill="black"/>
<path opacity="0.3" d="M303.939 228.57C303.862 228.587 303.783 228.587 303.706 228.57C303.584 228.572 303.465 228.539 303.362 228.473C303.259 228.408 303.178 228.313 303.13 228.202C303.071 228.05 303.073 227.882 303.135 227.731C303.196 227.581 303.313 227.46 303.461 227.393C304.274 227.054 304.934 226.428 305.316 225.635C305.698 224.842 305.775 223.936 305.533 223.089L300.898 206.771L302.124 206.611L306.698 222.758C307.037 223.896 306.943 225.12 306.434 226.193C305.925 227.267 305.036 228.113 303.939 228.57Z" fill="black"/>
</g>
<path d="M323.557 199.646C322.613 200.198 321.62 200.7 320.614 201.191C321.693 206.671 323.679 215.192 325.69 219.814C325.69 219.814 335.498 216.847 338.747 210.398C336.671 203.899 335.032 197.267 333.843 190.549C331.154 194.327 327.635 197.439 323.557 199.646Z" fill="#37474F"/>
<path d="M332.481 198.262C332.481 198.473 332.418 198.679 332.301 198.855C332.184 199.03 332.017 199.167 331.822 199.247C331.628 199.328 331.413 199.349 331.206 199.308C330.999 199.267 330.809 199.165 330.66 199.016C330.511 198.867 330.409 198.677 330.368 198.47C330.327 198.263 330.348 198.049 330.429 197.854C330.51 197.659 330.646 197.492 330.822 197.375C330.997 197.258 331.203 197.195 331.414 197.195C331.554 197.195 331.693 197.223 331.822 197.277C331.952 197.33 332.069 197.409 332.169 197.508C332.268 197.607 332.346 197.724 332.4 197.854C332.453 197.983 332.481 198.122 332.481 198.262Z" fill="#6CAF3A"/>
<path d="M333.99 203.104C333.99 203.315 333.927 203.522 333.809 203.698C333.691 203.873 333.524 204.01 333.328 204.09C333.133 204.171 332.918 204.191 332.71 204.149C332.503 204.107 332.313 204.004 332.165 203.854C332.016 203.703 331.915 203.512 331.875 203.304C331.836 203.097 331.859 202.882 331.941 202.687C332.024 202.492 332.162 202.327 332.339 202.211C332.516 202.095 332.724 202.035 332.935 202.037C333.075 202.037 333.213 202.065 333.342 202.119C333.47 202.172 333.587 202.251 333.685 202.35C333.783 202.45 333.861 202.567 333.913 202.697C333.965 202.826 333.991 202.964 333.99 203.104Z" fill="#6CAF3A"/>
<path d="M336.124 208.031C336.124 208.242 336.061 208.449 335.944 208.624C335.827 208.799 335.66 208.936 335.465 209.017C335.27 209.098 335.056 209.119 334.849 209.078C334.642 209.036 334.452 208.935 334.303 208.786C334.154 208.637 334.052 208.446 334.011 208.24C333.97 208.033 333.991 207.818 334.071 207.623C334.152 207.428 334.289 207.262 334.464 207.145C334.64 207.027 334.846 206.965 335.057 206.965C335.34 206.965 335.611 207.077 335.811 207.277C336.011 207.477 336.124 207.749 336.124 208.031Z" fill="#6CAF3A"/>
<path d="M327.382 215.977C327.259 215.977 327.139 215.941 327.036 215.874C326.934 215.806 326.854 215.71 326.806 215.597C325.407 211.251 324.269 206.825 323.397 202.344C323.372 202.183 323.411 202.019 323.504 201.886C323.598 201.753 323.74 201.662 323.9 201.633C324.062 201.611 324.226 201.652 324.358 201.748C324.49 201.844 324.581 201.987 324.611 202.148C325.473 206.519 326.587 210.838 327.946 215.082C328.007 215.232 328.006 215.399 327.944 215.549C327.882 215.698 327.764 215.817 327.615 215.879C327.545 215.929 327.466 215.962 327.382 215.977Z" fill="#6CAF3A"/>
<path d="M330.753 213.856C330.63 213.856 330.51 213.82 330.408 213.752C330.305 213.685 330.225 213.588 330.177 213.475C328.784 209.128 327.646 204.702 326.769 200.222C326.741 200.06 326.779 199.893 326.874 199.758C326.97 199.624 327.115 199.533 327.277 199.505C327.44 199.477 327.607 199.515 327.741 199.611C327.876 199.706 327.967 199.851 327.995 200.014C328.852 204.403 329.966 208.738 331.329 212.997C331.391 213.149 331.391 213.318 331.329 213.469C331.267 213.621 331.148 213.742 330.998 213.806C330.92 213.836 330.837 213.852 330.753 213.856Z" fill="#6CAF3A"/>
<path d="M410.273 205.667C410.273 205.667 402.317 218.283 383.951 225.001C373.613 228.703 362.625 230.239 351.669 229.513C347.389 220.189 343.859 210.538 341.113 200.653C339.145 193.553 337.691 186.321 336.761 179.013C336.761 179.013 350.934 180.852 366.112 171.35C383.423 160.525 387.384 148.914 387.384 148.914C398.124 164.056 405.7 183.133 410.273 205.667Z" fill="#6CAF3A"/>
<path opacity="0.25" d="M410.273 205.667C410.273 205.667 402.317 218.283 383.951 225.001C373.613 228.703 362.625 230.239 351.669 229.513C347.389 220.189 343.859 210.538 341.113 200.653C339.145 193.553 337.691 186.321 336.761 179.013C336.761 179.013 350.934 180.852 366.112 171.35C383.423 160.525 387.384 148.914 387.384 148.914C398.124 164.056 405.7 183.133 410.273 205.667Z" fill="black"/>
<path opacity="0.25" d="M410.273 205.667C405.651 183.133 398.123 164.056 387.383 148.914C386.84 150.299 386.166 151.629 385.372 152.886C394.543 163.577 405.614 190.231 407.441 209.284C408.469 208.146 409.415 206.938 410.273 205.667Z" fill="black"/>
<path d="M388.339 190.966C390.08 190.966 391.49 189.555 391.49 187.815C391.49 186.075 390.08 184.664 388.339 184.664C386.599 184.664 385.188 186.075 385.188 187.815C385.188 189.555 386.599 190.966 388.339 190.966Z" fill="#37474F"/>
<path d="M289.717 190.882C314.96 190.882 335.424 179.069 335.424 164.497C335.424 149.926 314.96 138.113 289.717 138.113C264.474 138.113 244.011 149.926 244.011 164.497C244.011 179.069 264.474 190.882 289.717 190.882Z" fill="#6CAF3A"/>
<path opacity="0.5" d="M289.717 190.882C314.96 190.882 335.424 179.069 335.424 164.497C335.424 149.926 314.96 138.113 289.717 138.113C264.474 138.113 244.011 149.926 244.011 164.497C244.011 179.069 264.474 190.882 289.717 190.882Z" fill="white"/>
<path opacity="0.1" d="M257.35 145.837C250.386 149.87 246.144 154.86 244.624 160.071C245.85 164.583 249.455 168.911 255.462 172.331C270.555 181.048 295.014 181.048 310.106 172.331C325.199 163.614 325.186 149.65 310.351 140.933C293.248 135.943 271.744 137.561 257.35 145.837Z" fill="black"/>
<path d="M349.707 216.308C347.933 215.152 345.818 214.638 343.712 214.849C341.254 215.082 338.936 216.101 337.103 217.755C336.895 217.939 336.699 218.135 336.515 218.343C334.111 218.972 331.982 220.377 330.458 222.34C329.651 223.369 329.089 224.568 328.816 225.847C328.027 226.797 327.518 227.947 327.344 229.169C327.151 231.093 327.709 233.017 328.901 234.539C329.875 235.808 331.103 236.858 332.507 237.623C333.912 238.387 335.461 238.849 337.054 238.978C337.68 238.364 338.28 237.751 338.832 237.126C336.494 237.283 334.176 236.61 332.285 235.226C331.304 234.6 330.496 233.737 329.934 232.718C329.373 231.698 329.077 230.554 329.073 229.39V229.513C329.523 230.59 330.19 231.562 331.034 232.368C331.878 233.174 332.88 233.796 333.977 234.196C335.016 234.656 336.162 234.818 337.288 234.664C338.414 234.511 339.475 234.047 340.352 233.326C340.872 232.851 341.289 232.275 341.578 231.634C341.962 231.658 342.347 231.658 342.731 231.634C343.781 231.7 344.83 231.478 345.763 230.992C346.697 230.506 347.48 229.774 348.027 228.875C348.476 227.966 348.723 226.97 348.75 225.956C348.778 224.942 348.586 223.935 348.187 223.002C347.584 221.499 346.503 220.236 345.109 219.41C344.65 219.125 344.166 218.883 343.663 218.687C342.242 218.132 340.725 217.865 339.2 217.902C340.64 216.852 342.332 216.201 344.104 216.014C345.051 215.905 346.007 215.926 346.948 216.075C347.831 216.214 348.687 216.487 349.486 216.884C350.001 217.142 350.038 216.504 349.707 216.308ZM331.55 223.542C332.46 222.24 333.683 221.186 335.105 220.477C334.758 221.2 334.51 221.967 334.369 222.757C333.338 222.936 332.341 223.275 331.415 223.762C331.454 223.674 331.499 223.588 331.55 223.505V223.542ZM335.73 232.847C334.82 232.671 333.954 232.314 333.184 231.798C332.413 231.282 331.753 230.618 331.243 229.844C330.592 228.838 330.311 227.638 330.446 226.447C331.47 225.383 332.797 224.659 334.247 224.375C334.252 225.323 334.45 226.26 334.829 227.129C335.209 227.997 335.761 228.779 336.454 229.427C337.42 230.27 338.558 230.893 339.788 231.254C339.355 231.9 338.732 232.396 338.006 232.674C337.279 232.953 336.485 233.001 335.73 232.811V232.847ZM338.182 228.593C337.532 228.077 337.003 227.424 336.635 226.68C336.266 225.936 336.066 225.12 336.049 224.29C336.653 224.334 337.24 224.506 337.772 224.793C338.305 225.08 338.77 225.477 339.139 225.957C339.973 226.998 340.408 228.302 340.365 229.635C339.566 229.408 338.812 229.047 338.133 228.569L338.182 228.593ZM342.265 219.9C343.468 220.226 344.56 220.87 345.428 221.764C345.808 222.143 346.123 222.582 346.36 223.064C347.09 224.432 347.274 226.027 346.875 227.526C346.646 228.209 346.217 228.808 345.645 229.245C345.072 229.682 344.382 229.937 343.663 229.978C343.15 230.04 342.631 230.04 342.118 229.978C342.243 229.028 342.159 228.061 341.873 227.146C341.579 226.101 341.021 225.149 340.252 224.382C339.483 223.615 338.53 223.06 337.484 222.769C337.052 222.675 336.613 222.618 336.172 222.598C336.385 221.518 336.837 220.5 337.496 219.619C339.066 219.314 340.686 219.398 342.216 219.864L342.265 219.9Z" fill="#6CAF3A"/>
<path opacity="0.5" d="M349.707 216.308C347.933 215.152 345.818 214.638 343.712 214.849C341.254 215.082 338.936 216.101 337.103 217.755C336.895 217.939 336.699 218.135 336.515 218.343C334.111 218.972 331.982 220.377 330.458 222.34C329.651 223.369 329.089 224.568 328.816 225.847C328.027 226.797 327.518 227.947 327.344 229.169C327.151 231.093 327.709 233.017 328.901 234.539C329.875 235.808 331.103 236.858 332.507 237.623C333.912 238.387 335.461 238.849 337.054 238.978C337.68 238.364 338.28 237.751 338.832 237.126C336.494 237.283 334.176 236.61 332.285 235.226C331.304 234.6 330.496 233.737 329.934 232.718C329.373 231.698 329.077 230.554 329.073 229.39V229.513C329.523 230.59 330.19 231.562 331.034 232.368C331.878 233.174 332.88 233.796 333.977 234.196C335.016 234.656 336.162 234.818 337.288 234.664C338.414 234.511 339.475 234.047 340.352 233.326C340.872 232.851 341.289 232.275 341.578 231.634C341.962 231.658 342.347 231.658 342.731 231.634C343.781 231.7 344.83 231.478 345.763 230.992C346.697 230.506 347.48 229.774 348.027 228.875C348.476 227.966 348.723 226.97 348.75 225.956C348.778 224.942 348.586 223.935 348.187 223.002C347.584 221.499 346.503 220.236 345.109 219.41C344.65 219.125 344.166 218.883 343.663 218.687C342.242 218.132 340.725 217.865 339.2 217.902C340.64 216.852 342.332 216.201 344.104 216.014C345.051 215.905 346.007 215.926 346.948 216.075C347.831 216.214 348.687 216.487 349.486 216.884C350.001 217.142 350.038 216.504 349.707 216.308ZM331.55 223.542C332.46 222.24 333.683 221.186 335.105 220.477C334.758 221.2 334.51 221.967 334.369 222.757C333.338 222.936 332.341 223.275 331.415 223.762C331.454 223.674 331.499 223.588 331.55 223.505V223.542ZM335.73 232.847C334.82 232.671 333.954 232.314 333.184 231.798C332.413 231.282 331.753 230.618 331.243 229.844C330.592 228.838 330.311 227.638 330.446 226.447C331.47 225.383 332.797 224.659 334.247 224.375C334.252 225.323 334.45 226.26 334.829 227.129C335.209 227.997 335.761 228.779 336.454 229.427C337.42 230.27 338.558 230.893 339.788 231.254C339.355 231.9 338.732 232.396 338.006 232.674C337.279 232.953 336.485 233.001 335.73 232.811V232.847ZM338.182 228.593C337.532 228.077 337.003 227.424 336.635 226.68C336.266 225.936 336.066 225.12 336.049 224.29C336.653 224.334 337.24 224.506 337.772 224.793C338.305 225.08 338.77 225.477 339.139 225.957C339.973 226.998 340.408 228.302 340.365 229.635C339.566 229.408 338.812 229.047 338.133 228.569L338.182 228.593ZM342.265 219.9C343.468 220.226 344.56 220.87 345.428 221.764C345.808 222.143 346.123 222.582 346.36 223.064C347.09 224.432 347.274 226.027 346.875 227.526C346.646 228.209 346.217 228.808 345.645 229.245C345.072 229.682 344.382 229.937 343.663 229.978C343.15 230.04 342.631 230.04 342.118 229.978C342.243 229.028 342.159 228.061 341.873 227.146C341.579 226.101 341.021 225.149 340.252 224.382C339.483 223.615 338.53 223.06 337.484 222.769C337.052 222.675 336.613 222.618 336.172 222.598C336.385 221.518 336.837 220.5 337.496 219.619C339.066 219.314 340.686 219.398 342.216 219.864L342.265 219.9Z" fill="white"/>
<path opacity="0.15" d="M327.381 228.972C327.773 229.999 328.476 230.878 329.392 231.486C329.14 230.804 329.031 230.078 329.073 229.352V229.475C328.733 228.28 328.633 227.03 328.779 225.797C328.041 226.714 327.559 227.809 327.381 228.972Z" fill="black"/>
<path opacity="0.15" d="M330.912 225.97C330.958 225.203 331.119 224.446 331.39 223.727C330.846 224.525 330.513 225.449 330.422 226.412C330.577 226.255 330.74 226.108 330.912 225.97Z" fill="black"/>
<path opacity="0.15" d="M333.598 221.396C334.067 221.028 334.572 220.707 335.106 220.44C335.462 219.66 335.937 218.94 336.516 218.307C336.099 218.422 335.69 218.561 335.29 218.723C334.498 219.448 333.914 220.371 333.598 221.396Z" fill="black"/>
<path opacity="0.15" d="M334.37 222.721C334.139 222.758 333.91 222.807 333.683 222.868C333.545 223.428 333.451 223.997 333.401 224.572C333.683 224.486 333.965 224.4 334.247 224.339C334.206 223.796 334.247 223.251 334.37 222.721Z" fill="black"/>
<path opacity="0.15" d="M341.603 231.597C340.992 231.501 340.386 231.374 339.788 231.217C339.595 231.526 339.355 231.803 339.077 232.038C339.609 232.394 340.211 232.633 340.843 232.737C341.139 232.387 341.394 232.005 341.603 231.597Z" fill="black"/>
<path opacity="0.15" d="M339.224 217.926C338.582 218.445 337.987 219.019 337.446 219.642C337.667 219.642 337.888 219.581 338.096 219.544C338.427 218.974 338.804 218.433 339.224 217.926Z" fill="black"/>
<path opacity="0.15" d="M336.001 224.253L336.368 224.326C336.282 223.77 336.282 223.203 336.368 222.646H336.123C336.028 223.176 335.987 223.714 336.001 224.253Z" fill="black"/>
<path opacity="0.15" d="M342.13 229.316C341.513 229.421 340.883 229.421 340.267 229.316C340.273 229.427 340.273 229.537 340.267 229.647C340.846 229.839 341.448 229.958 342.057 230.003C342.094 229.776 342.118 229.546 342.13 229.316Z" fill="black"/>
<path d="M265.528 210.963C265.528 214.395 264.376 216.848 262.5 218.086C262.024 218.341 261.532 218.566 261.029 218.76C258.612 219.704 256.001 220.044 253.422 219.75C250.844 219.456 248.377 218.536 246.235 217.072C244.093 215.608 242.34 213.642 241.13 211.347C239.92 209.052 239.289 206.495 239.291 203.901C239.287 201.448 239.852 199.028 240.941 196.83C242.03 194.633 243.614 192.718 245.568 191.236C245.579 191.209 245.595 191.185 245.617 191.166C245.638 191.147 245.663 191.133 245.691 191.125C245.887 190.991 246.059 190.856 246.255 190.733C248.278 189.507 251.085 189.728 254.2 191.518C260.489 195.061 265.528 203.778 265.528 210.963Z" fill="#6CAF3A"/>
<path opacity="0.25" d="M265.528 210.963C265.528 214.395 264.376 216.848 262.5 218.086C262.024 218.341 261.532 218.566 261.029 218.76C258.612 219.704 256.001 220.044 253.422 219.75C250.844 219.456 248.377 218.536 246.235 217.072C244.093 215.608 242.34 213.642 241.13 211.347C239.92 209.052 239.289 206.495 239.291 203.901C239.287 201.448 239.852 199.028 240.941 196.83C242.03 194.633 243.614 192.718 245.568 191.236C245.579 191.209 245.595 191.185 245.617 191.166C245.638 191.147 245.663 191.133 245.691 191.125C245.887 190.991 246.059 190.856 246.255 190.733C248.278 189.507 251.085 189.728 254.2 191.518C260.489 195.061 265.528 203.778 265.528 210.963Z" fill="black"/>
<path opacity="0.1" d="M265.527 210.962C265.527 205.421 262.523 198.972 258.294 194.656C261.444 198.604 264.424 208.67 260.574 213.807C256.724 218.944 242.527 216.026 239.731 207.591C240.258 209.808 241.254 211.887 242.652 213.687C244.05 215.487 245.818 216.966 247.836 218.025C249.855 219.083 252.076 219.697 254.352 219.824C256.628 219.95 258.904 219.588 261.028 218.76C261.527 218.57 262.014 218.348 262.487 218.098C264.375 216.847 265.527 214.395 265.527 210.962Z" fill="black"/>
<path d="M246.904 308.739C246.332 311.065 246.278 313.489 246.745 315.838C246.941 316.819 247.971 317.628 248.424 317.15L258.11 307.219L265.883 309.144L268.102 316.856L257.963 327.265C257.583 327.657 257.632 328.061 258.024 328.172L258.748 328.368C262.336 329.253 266.12 328.885 269.47 327.323C272.82 325.762 275.535 323.101 277.165 319.784C278.794 316.466 279.24 312.691 278.427 309.085C277.615 305.479 275.594 302.26 272.7 299.961L285.438 246.862C289.643 246.01 293.339 243.526 295.717 239.956C298.095 236.385 298.962 232.017 298.128 227.809C297.919 226.816 296.902 226.007 296.436 226.485L286.75 236.416L278.977 234.491L276.758 226.779L286.897 216.358C287.265 215.99 287.216 215.561 286.897 215.451L286.174 215.255C282.582 214.363 278.794 214.728 275.438 216.289C272.083 217.851 269.364 220.514 267.733 223.836C266.102 227.158 265.658 230.938 266.475 234.547C267.291 238.157 269.32 241.378 272.222 243.674L259.483 296.773C256.466 297.367 253.681 298.808 251.453 300.927C249.225 303.046 247.647 305.756 246.904 308.739Z" fill="#6CAF3A"/>
<path opacity="0.8" d="M246.904 308.739C246.332 311.065 246.278 313.489 246.745 315.838C246.941 316.819 247.971 317.628 248.424 317.15L258.11 307.219L265.883 309.144L268.102 316.856L257.963 327.265C257.583 327.657 257.632 328.061 258.024 328.172L258.748 328.368C262.336 329.253 266.12 328.885 269.47 327.323C272.82 325.762 275.535 323.101 277.165 319.784C278.794 316.466 279.24 312.691 278.427 309.085C277.615 305.479 275.594 302.26 272.7 299.961L285.438 246.862C289.643 246.01 293.339 243.526 295.717 239.956C298.095 236.385 298.962 232.017 298.128 227.809C297.919 226.816 296.902 226.007 296.436 226.485L286.75 236.416L278.977 234.491L276.758 226.779L286.897 216.358C287.265 215.99 287.216 215.561 286.897 215.451L286.174 215.255C282.582 214.363 278.794 214.728 275.438 216.289C272.083 217.851 269.364 220.514 267.733 223.836C266.102 227.158 265.658 230.938 266.475 234.547C267.291 238.157 269.32 241.378 272.222 243.674L259.483 296.773C256.466 297.367 253.681 298.808 251.453 300.927C249.225 303.046 247.647 305.756 246.904 308.739Z" fill="white"/>
<path d="M279.566 268.574C278.442 269.405 277.118 269.924 275.729 270.076C274.34 270.229 272.935 270.011 271.658 269.445C269.637 268.728 267.957 267.28 266.95 265.387L260.28 293.193C262.329 294.43 264.633 295.184 267.017 295.396C269.4 295.609 271.801 295.275 274.036 294.419L280.093 269.151C279.921 268.954 279.75 268.758 279.566 268.574Z" fill="#6CAF3A"/>
<path opacity="0.05" d="M279.566 268.574C278.442 269.405 277.118 269.924 275.729 270.076C274.34 270.229 272.935 270.011 271.658 269.445C269.637 268.728 267.957 267.28 266.95 265.387L260.28 293.193C262.329 294.43 264.633 295.184 267.017 295.396C269.4 295.609 271.801 295.275 274.036 294.419L280.093 269.151C279.921 268.954 279.75 268.758 279.566 268.574Z" fill="black"/>
<path d="M255.217 272.815C244.869 273.551 229.911 267.997 223.119 261.475C219.527 258.005 218.742 253.15 220.667 246.161C224.407 232.675 240.578 214.027 248.253 210.41C248.636 210.176 248.945 209.836 249.142 209.432C249.34 209.029 249.418 208.577 249.369 208.13C249.304 206.923 248.955 205.749 248.35 204.702C247.745 203.656 246.901 202.768 245.887 202.11C245.545 201.864 245.145 201.709 244.727 201.662C244.308 201.615 243.884 201.676 243.496 201.84C232.805 206.879 214.917 228.163 210.552 243.881C207.622 254.425 209.326 262.848 215.64 268.904C223.794 276.739 240.382 282.746 253.206 282.746C254.125 282.746 255.045 282.746 255.928 282.648L255.217 272.815Z" fill="#455A64"/>
<path d="M232.045 210.594C235.196 209.969 239.744 213.475 239.72 217.105" stroke="#37474F" stroke-width="1.2" stroke-linecap="round" stroke-linejoin="round"/>
<path d="M224.75 218.76C227.84 218.012 232.511 220.844 233.614 223.885" stroke="#37474F" stroke-width="1.2" stroke-linecap="round" stroke-linejoin="round"/>
<path d="M217.945 228.226C219.762 227.962 221.614 228.288 223.232 229.155C224.849 230.022 226.146 231.385 226.932 233.044" stroke="#37474F" stroke-width="1.2" stroke-linecap="round" stroke-linejoin="round"/>
<path d="M222.089 242.177C221.182 239.725 213.887 238.106 211.423 241.147" stroke="#37474F" stroke-width="1.2" stroke-linecap="round" stroke-linejoin="round"/>
<path d="M219.662 252.193C218.583 249.741 210.577 250.465 209.204 254.4" stroke="#37474F" stroke-width="1.2" stroke-linecap="round" stroke-linejoin="round"/>
<path d="M222.433 260.751C221.305 259.218 213.519 261.29 213.103 265.961" stroke="#37474F" stroke-width="1.2" stroke-linecap="round" stroke-linejoin="round"/>
<path d="M230.058 266.379C226.944 265.337 221.218 270.13 223.474 274.52" stroke="#37474F" stroke-width="1.2" stroke-linecap="round" stroke-linejoin="round"/>
<path d="M237.733 269.85C235.109 269.972 231.787 275.195 233.405 279.02" stroke="#37474F" stroke-width="1.2" stroke-linecap="round" stroke-linejoin="round"/>
<path d="M246.425 272.203C243.74 273.147 241.975 278.431 243.557 281.754" stroke="#37474F" stroke-width="1.2" stroke-linecap="round" stroke-linejoin="round"/>
<path opacity="0.15" d="M212.182 246.432C215.664 230.763 228.648 217.534 235.403 211.196C239.744 207.15 244.635 204.563 247.958 204.06C247.421 203.265 246.718 202.596 245.898 202.098C245.557 201.852 245.157 201.697 244.738 201.65C244.32 201.603 243.896 201.664 243.508 201.829C232.817 206.868 214.929 228.152 210.564 243.869C207.634 254.413 209.338 262.836 215.652 268.893C215.664 268.88 208.713 262.113 212.182 246.432Z" fill="black"/>
<path opacity="0.15" d="M255.217 272.817C244.869 273.552 229.912 267.998 223.12 261.476C221.401 259.837 220.257 257.687 219.858 255.346H219.662C220.459 260.348 221.097 266.257 235.404 271.983C241.746 274.54 248.573 275.671 255.401 275.293L255.217 272.817Z" fill="black"/>
<path d="M261.764 264.308C261.335 259.882 261.923 254.831 263.836 251.741C265.748 248.652 268.85 246.531 270.309 249.068C271.29 250.76 269.218 253.347 268.25 256.523C267.777 258.441 267.706 260.436 268.041 262.383L261.764 264.308Z" fill="#455A64"/>
<path opacity="0.15" d="M268.249 256.521C269.217 253.346 271.289 250.759 270.309 249.067C270.182 248.823 270.009 248.606 269.798 248.43C269.588 248.253 269.345 248.119 269.083 248.037C269.916 249.177 267.955 251.311 266.569 254.045C265.336 256.929 264.913 260.096 265.343 263.203L268.04 262.382C267.705 260.435 267.776 258.439 268.249 256.521Z" fill="black"/>
<path d="M285.059 280.528C284.421 283.348 283.02 285.937 281.01 288.014C278.999 290.09 276.456 291.573 273.659 292.301C270.861 293.029 267.918 292.973 265.15 292.139C262.382 291.306 259.897 289.728 257.967 287.576C256.036 285.425 254.735 282.785 254.205 279.943C253.675 277.102 253.936 274.169 254.961 271.467C255.986 268.764 257.735 266.396 260.016 264.621C262.297 262.846 265.023 261.732 267.894 261.402C268.054 263.45 270.346 265.914 272.933 266.846C274.212 267.411 275.617 267.627 277.006 267.472C278.395 267.317 279.719 266.796 280.841 265.963C282.713 267.84 284.082 270.158 284.819 272.705C285.556 275.251 285.639 277.942 285.059 280.528Z" fill="#6CAF3A"/>
<path d="M285.059 280.528C284.421 283.348 283.02 285.937 281.01 288.014C278.999 290.09 276.456 291.573 273.659 292.301C270.861 293.029 267.918 292.973 265.15 292.139C262.382 291.306 259.897 289.728 257.967 287.576C256.036 285.425 254.735 282.785 254.205 279.943C253.675 277.102 253.936 274.169 254.961 271.467C255.986 268.764 257.735 266.396 260.016 264.621C262.297 262.846 265.023 261.732 267.894 261.402C268.054 263.45 270.346 265.914 272.933 266.846C274.212 267.411 275.617 267.627 277.006 267.472C278.395 267.317 279.719 266.796 280.841 265.963C282.713 267.84 284.082 270.158 284.819 272.705C285.556 275.251 285.639 277.942 285.059 280.528Z" fill="#6CAF3A"/>
<path opacity="0.1" d="M285.059 280.527C285.18 280.002 285.27 279.469 285.329 278.933C283.159 283.31 277.899 289.404 267.466 287.614C256.75 285.775 254.531 272.901 255.929 269.432C255.188 270.746 254.647 272.163 254.323 273.637C253.813 275.676 253.716 277.796 254.037 279.873C254.359 281.949 255.093 283.941 256.196 285.73C257.299 287.519 258.749 289.069 260.46 290.289C262.171 291.509 264.109 292.374 266.16 292.834C268.211 293.293 270.332 293.338 272.401 292.965C274.469 292.593 276.442 291.81 278.203 290.663C279.964 289.516 281.478 288.029 282.655 286.288C283.833 284.547 284.65 282.589 285.059 280.527Z" fill="black"/>
<path d="M285.144 273.931C290.514 271.761 292.279 266.844 291.445 261.867C290.612 256.889 283.488 254.939 283.488 254.939L282.115 260.677C282.115 260.677 285.622 261.989 285.45 264.441C285.307 265.223 284.987 265.962 284.512 266.599C284.038 267.237 283.424 267.757 282.716 268.119C282.472 268.658 282.342 269.24 282.333 269.831C282.325 270.422 282.438 271.008 282.665 271.553C282.893 272.098 283.231 272.591 283.657 273C284.083 273.409 284.589 273.726 285.144 273.931Z" fill="#455A64"/>
<path opacity="0.15" d="M283.488 254.988L282.115 260.726C282.115 260.726 285.622 262.038 285.45 264.49C285.307 265.272 284.987 266.01 284.512 266.648C284.038 267.286 283.424 267.806 282.716 268.168C282.358 268.995 282.27 269.914 282.463 270.794C282.657 271.675 283.123 272.472 283.795 273.072C283.231 271.147 284.457 270.216 286.37 268.168C288.282 266.121 287.522 262.663 286.296 260.493C285.584 259.057 285.453 257.402 285.928 255.871C285.141 255.508 284.325 255.213 283.488 254.988Z" fill="black"/>
<path d="M284.433 282.625C288.614 283.851 293.665 282.147 294.34 278.738C295.014 275.33 293.886 272.51 289.938 270.156C288.756 271.868 287.085 273.184 285.145 273.932L285.402 275.771C284.542 276.668 283.986 277.812 283.812 279.042C283.638 280.272 283.856 281.525 284.433 282.625Z" fill="#455A64"/>
<path opacity="0.15" d="M289.937 270.254C288.755 271.965 287.084 273.281 285.144 274.03L285.401 275.869H290.514C290.514 275.869 289.189 275.44 289.57 274.57C289.95 273.699 292.095 274.03 293.137 275.379C293.719 276.125 294.057 277.033 294.106 277.978C294.154 278.924 293.91 279.861 293.407 280.663C293.874 280.129 294.196 279.482 294.339 278.787C295.025 275.33 293.885 272.51 289.937 270.254Z" fill="black"/>
<path d="M278.756 289.969C280.395 291.42 282.297 292.543 284.359 293.279C285.965 293.88 288.773 293.917 290.281 292.311C291.789 290.705 290.746 288.927 289.618 288.13C287.687 286.796 285.635 285.647 283.488 284.697C283.488 284.697 279.124 284.697 278.756 289.969Z" fill="#455A64"/>
<path opacity="0.15" d="M289.618 288.13C287.687 286.796 285.635 285.647 283.488 284.697C282.787 284.736 282.103 284.924 281.481 285.25C280.859 285.576 280.314 286.031 279.884 286.585C280.803 285.666 283.881 287.37 286.394 288.89C288.907 290.411 290.881 291.269 289.851 292.666C290.003 292.558 290.146 292.44 290.281 292.311C291.887 290.57 290.746 288.927 289.618 288.13Z" fill="black"/>
<path d="M405.075 163.589C405.851 163.239 406.468 162.61 406.804 161.827C407.14 161.044 407.17 160.164 406.889 159.36C405.872 156.405 402.304 155.534 402.304 155.534C402.304 155.534 395.696 153.708 390.657 156.76C385.618 159.813 385.544 166.201 385.691 168.248C385.769 168.894 386.062 169.495 386.525 169.952C386.987 170.41 387.59 170.698 388.237 170.769C388.884 170.84 389.535 170.69 390.086 170.344C390.636 169.997 391.054 169.475 391.27 168.861C392.434 166.348 392.422 162.866 396.627 161.64C400.097 160.61 403.015 164.497 405.075 163.589Z" fill="#455A64"/>
<path opacity="0.15" d="M403.052 160.916C399.545 159.482 395.794 157.606 392.815 160.916C389.835 164.227 390.448 167.463 389.21 168.824C387.972 170.185 386.488 169.952 385.826 168.824C386.023 169.39 386.39 169.88 386.878 170.227C387.366 170.574 387.949 170.76 388.548 170.76C389.147 170.76 389.73 170.574 390.218 170.227C390.706 169.88 391.073 169.39 391.27 168.824C392.434 166.311 392.422 162.829 396.627 161.603C400.097 160.598 403.015 164.484 405.075 163.577C405.851 163.226 406.468 162.597 406.804 161.815C407.14 161.032 407.17 160.151 406.889 159.347C406.926 160.843 405.798 162.032 403.052 160.916Z" fill="black"/>
<path d="M411.904 177.908C412.327 177.515 412.869 177.275 413.445 177.226C414.02 177.177 414.596 177.322 415.079 177.638C415.643 177.882 416.13 178.274 416.488 178.773C416.846 179.272 417.063 179.858 417.114 180.47C417.114 180.47 417.298 184.811 412.59 189.261C411.109 190.598 409.355 191.596 407.45 192.187C405.544 192.778 403.533 192.946 401.556 192.682C398.466 191.848 397.939 188.366 401.556 187.581C404.265 186.993 406.656 187.054 409.562 183.793C411.34 181.782 411.34 179.122 411.904 177.908Z" fill="#455A64"/>
<path opacity="0.15" d="M410.739 187.815C405.97 191.493 403.039 191.064 401.262 190.622C399.484 190.181 399.508 188.464 400.256 188.084C398.172 189.31 398.92 191.971 401.568 192.682C403.545 192.947 405.557 192.778 407.462 192.187C409.368 191.597 411.122 190.598 412.602 189.261C417.31 184.811 417.126 180.471 417.126 180.471C417.075 179.859 416.859 179.272 416.5 178.774C416.142 178.275 415.655 177.883 415.091 177.639C415.974 178.803 415.851 183.953 410.739 187.815Z" fill="black"/>
<path d="M407.27 165.552C408.167 165.513 409.058 165.721 409.845 166.153C410.632 166.585 411.285 167.225 411.733 168.004C414.087 171.571 411.316 173.067 411.316 173.067C409.489 173.288 407.184 172.135 403.445 173.619C398.798 175.458 398.284 178.989 397.192 181.772C395.966 184.861 391.246 183.182 392.018 178.364C392.791 173.545 394.777 170.431 397.928 168.396C400.716 166.595 403.952 165.61 407.27 165.552Z" fill="#455A64"/>
<path opacity="0.15" d="M408.802 170.259C405.529 170.088 400.661 170.59 398.455 174.109C396.971 176.488 396.603 179.81 395.304 180.791C395.022 181.026 394.683 181.182 394.321 181.242C393.96 181.302 393.588 181.265 393.246 181.134C392.904 181.002 392.602 180.782 392.374 180.496C392.145 180.209 391.997 179.867 391.944 179.504C392.018 183.439 396.088 184.616 397.192 181.784C398.295 178.952 398.798 175.47 403.444 173.631C407.123 172.147 409.489 173.3 411.316 173.079C411.316 173.079 413.841 171.706 412.002 168.457C412.517 169.72 412.063 170.443 408.802 170.259Z" fill="black"/>
<path d="M325.333 276.997C324.701 276.266 323.93 275.667 323.066 275.233C322.201 274.8 321.26 274.542 320.296 274.472C319.332 274.403 318.363 274.524 317.446 274.829C316.528 275.134 315.68 275.616 314.949 276.249C314.218 276.882 313.619 277.652 313.186 278.516C312.752 279.381 312.494 280.322 312.424 281.286C312.355 282.251 312.476 283.219 312.781 284.137C313.086 285.054 313.568 285.902 314.201 286.633L361.207 341.032L372.364 331.396L325.333 276.997Z" fill="#455A64"/>
<path d="M332.555 285.358C331.923 284.627 331.153 284.028 330.29 283.594C329.426 283.161 328.486 282.902 327.522 282.832C326.558 282.762 325.59 282.882 324.673 283.186C323.756 283.491 322.908 283.972 322.177 284.604C321.446 285.236 320.846 286.006 320.413 286.869C319.979 287.733 319.72 288.674 319.65 289.637C319.58 290.601 319.701 291.569 320.005 292.486C320.309 293.403 320.791 294.252 321.423 294.983" stroke="#37474F" stroke-width="1.2" stroke-linecap="round" stroke-linejoin="round"/>
<path d="M340.537 294.591C339.259 293.114 337.447 292.206 335.499 292.066C333.552 291.926 331.628 292.565 330.152 293.843C328.676 295.121 327.768 296.933 327.627 298.88C327.487 300.827 328.126 302.751 329.404 304.227" stroke="#37474F" stroke-width="1.2" stroke-linecap="round" stroke-linejoin="round"/>
<path d="M348.519 303.835C347.887 303.104 347.117 302.505 346.254 302.071C345.39 301.638 344.45 301.378 343.486 301.308C342.522 301.238 341.554 301.359 340.637 301.663C339.72 301.967 338.871 302.449 338.14 303.081C337.41 303.713 336.81 304.482 336.377 305.346C335.943 306.21 335.684 307.15 335.614 308.114C335.544 309.078 335.665 310.046 335.969 310.963C336.273 311.88 336.755 312.728 337.386 313.459" stroke="#37474F" stroke-width="1.2" stroke-linecap="round" stroke-linejoin="round"/>
<path d="M356.512 313.066C355.234 311.588 353.422 310.678 351.473 310.537C349.524 310.396 347.599 311.034 346.122 312.312C344.644 313.59 343.734 315.402 343.593 317.351C343.451 319.3 344.09 321.225 345.368 322.702" stroke="#37474F" stroke-width="1.2" stroke-linecap="round" stroke-linejoin="round"/>
<path d="M353.348 331.934C352.716 331.203 352.234 330.354 351.931 329.436C351.627 328.518 351.507 327.549 351.577 326.585C351.648 325.621 351.908 324.68 352.342 323.816C352.776 322.952 353.376 322.182 354.108 321.55C354.84 320.918 355.689 320.436 356.607 320.133C357.525 319.829 358.493 319.709 359.458 319.779C360.422 319.85 361.363 320.11 362.227 320.544C363.091 320.978 363.861 321.578 364.493 322.31" stroke="#37474F" stroke-width="1.2" stroke-linecap="round" stroke-linejoin="round"/>
<path opacity="0.15" d="M319.755 274.445C318.342 274.442 316.958 274.845 315.768 275.608C314.578 276.371 313.633 277.46 313.046 278.745C312.459 280.031 312.254 281.458 312.457 282.857C312.66 284.256 313.261 285.566 314.189 286.632L361.195 341.031L365.83 337.022C351.473 320.949 328.178 294.859 321.901 287.711C312.632 277.167 316.408 275.242 319.755 274.445Z" fill="black"/>
<path d="M447.716 338.802C447.716 338.802 433.96 326.799 422.938 334.646C416.23 339.455 410.279 345.241 405.283 351.81L375.588 325.561C373.761 323.979 370.574 323.943 367.423 325.757C361.906 328.945 357.443 336.681 357.443 343.044C357.369 344.822 357.849 346.578 358.816 348.071C358.816 348.071 391.465 393.716 397.019 400.79C402.573 407.864 409.623 411.579 419.088 407.264C428.553 402.948 431.348 390.59 432.488 382.24C433.629 373.891 444.319 362.182 447.201 354.691C450.204 346.502 449.481 341.561 447.716 338.802Z" fill="#6CAF3A"/>
<path opacity="0.15" d="M436.988 335.504C431.728 335.945 419.112 342.468 415.422 356.346C414.082 361.662 412.361 366.873 410.272 371.941C408.574 375.758 406.226 379.251 403.333 382.264C398.981 386.887 393.77 383.736 389.258 379.996C384.747 376.257 371.996 359.497 367.692 352.276C364.542 347.053 363.548 343.093 364.407 339.292C364.701 339.684 365.007 340.065 365.314 340.408C369.556 345.116 377.66 348.99 383.839 344.27C386.855 341.977 387.1 338.36 386.107 334.78L375.637 325.524C373.81 323.942 370.623 323.905 367.472 325.72C367.141 325.916 366.822 326.125 366.503 326.333L366.172 326.578L365.571 327.032L365.179 327.363L364.664 327.817L364.247 328.209L363.806 328.65L363.377 329.104L362.984 329.557C362.837 329.717 362.69 329.888 362.555 330.06L362.212 330.502C362.065 330.685 361.918 330.882 361.783 331.078C361.648 331.274 361.599 331.335 361.513 331.458C359.071 334.831 357.672 338.847 357.492 343.007C357.418 344.784 357.897 346.541 358.865 348.034C358.865 348.034 391.514 393.679 397.068 400.753C402.622 407.827 409.672 411.542 419.137 407.226C428.602 402.911 431.397 390.552 432.537 382.203C433.371 376.073 439.427 368.043 443.682 361.263L436.988 335.504Z" fill="black"/>
<path d="M447.102 354.655C450.204 346.502 449.481 341.561 447.715 338.802C445.919 337.315 443.971 336.02 441.904 334.94C434.315 333.972 424.997 342.873 421.552 348.574C418.107 354.275 416.255 361.165 413.767 370.36C411.56 378.513 406.03 383.062 402.892 390.724C400.611 396.291 400.096 400.533 401.666 405.437C406.398 409.115 412.075 410.341 419.063 407.19C428.467 402.887 431.323 390.516 432.464 382.167C433.604 373.817 444.258 362.207 447.102 354.655Z" fill="#455A64"/>
<path d="M423.746 351.772C418.842 360.514 417.861 372.615 413.717 379.689C409.573 386.763 403.296 394.597 404.019 401.389C404.485 405.828 406.042 408.157 408.923 408.856C410.495 409.108 412.097 409.108 413.668 408.856L414.306 408.733C415.927 408.414 417.504 407.899 419.001 407.201C428.405 402.897 431.262 390.527 432.402 382.178C433.542 373.828 444.233 362.12 447.114 354.629C450.216 346.476 449.493 341.535 447.727 338.776C441.72 334.926 430.22 340.247 423.746 351.772Z" fill="#37474F"/>
<path opacity="0.15" d="M403.334 350.055C396.774 356.344 395.009 365.993 395.009 365.993C398.145 361.055 401.576 356.309 405.283 351.783L403.334 350.055Z" fill="black"/>
<path d="M416.17 374.062C415.986 374.589 415.802 375.092 415.618 375.595L436.13 372.983C436.424 372.468 436.73 371.941 437.049 371.414L416.17 374.062Z" fill="#263238"/>
<path d="M412.651 381.456C412.333 381.987 412.001 382.514 411.658 383.037L432.832 380.352C432.967 379.85 433.126 379.347 433.31 378.832L412.651 381.456Z" fill="#263238"/>
<path d="M404.731 404.749L425.316 402.126C425.733 401.611 426.113 401.071 426.542 400.52L404.363 403.339C404.461 403.816 404.584 404.286 404.731 404.749Z" fill="#263238"/>
<path d="M404.584 396.364C404.436 396.862 404.314 397.365 404.216 397.872L429.472 394.659C429.668 394.157 429.84 393.642 430.011 393.127L404.584 396.364Z" fill="#263238"/>
<path d="M407.98 388.994C407.674 389.509 407.38 390.036 407.098 390.563L431.532 387.449C431.643 386.946 431.741 386.456 431.827 385.953L407.98 388.994Z" fill="#263238"/>
<path d="M429.093 344.661C428.578 345.176 428.075 345.728 427.572 346.304L449.175 343.558C449.141 343.076 449.079 342.597 448.991 342.123L429.093 344.661Z" fill="#263238"/>
<path d="M423.465 352.312C423.183 352.827 422.925 353.342 422.668 353.869L448.415 350.595C448.549 350.08 448.672 349.578 448.77 349.1L423.465 352.312Z" fill="#263238"/>
<path d="M420.413 359.644C420.253 360.146 420.082 360.649 419.935 361.164L445.559 357.903C445.853 357.363 446.123 356.848 446.368 356.346L420.413 359.644Z" fill="#263238"/>
<path d="M418.304 366.851C418.156 367.354 418.022 367.869 417.887 368.359L440.862 365.442L441.905 363.848L418.304 366.851Z" fill="#263238"/>
<path d="M365.34 319.295C358.535 323.991 361.895 333.86 366.137 338.581C370.379 343.301 378.483 347.163 384.662 342.43C390.338 338.115 386.231 329.079 382.406 324.469C378.409 319.589 370.71 315.543 365.34 319.295Z" fill="#6CAF3A"/>
<path opacity="0.7" d="M365.34 319.295C358.535 323.991 361.895 333.86 366.137 338.581C370.379 343.301 378.483 347.163 384.662 342.43C390.338 338.115 386.231 329.079 382.406 324.469C378.409 319.589 370.71 315.543 365.34 319.295Z" fill="white"/>
<path d="M387.445 336.459C386.967 339.806 381.842 344.146 373.199 337.465C364.555 330.783 364.359 320.778 367.203 318.326C366.546 318.564 365.92 318.881 365.34 319.27C358.535 323.966 361.895 333.835 366.137 338.556C370.379 343.276 378.47 347.138 384.662 342.405C385.57 341.711 386.296 340.808 386.781 339.773C387.265 338.738 387.493 337.601 387.445 336.459Z" fill="#6CAF3A"/>
<path opacity="0.05" d="M387.445 336.459C386.967 339.806 381.842 344.146 373.199 337.465C364.555 330.783 364.359 320.778 367.203 318.326C366.546 318.564 365.92 318.881 365.34 319.27C358.535 323.966 361.895 333.835 366.137 338.556C370.379 343.276 378.47 347.138 384.662 342.405C385.57 341.711 386.296 340.808 386.781 339.773C387.265 338.738 387.493 337.601 387.445 336.459Z" fill="black"/>
<path d="M298.901 161.615V131.553H280.511V161.615C280.583 162.423 280.87 163.197 281.342 163.856C281.814 164.516 282.454 165.038 283.196 165.367C285.209 166.389 287.436 166.921 289.694 166.921C291.952 166.921 294.178 166.389 296.192 165.367C296.938 165.041 297.583 164.521 298.059 163.861C298.536 163.201 298.827 162.426 298.901 161.615Z" fill="#455A64"/>
<path d="M280.534 155.854C280.607 156.661 280.894 157.435 281.366 158.095C281.838 158.755 282.478 159.276 283.219 159.605C285.233 160.627 287.459 161.16 289.717 161.16C291.975 161.16 294.202 160.627 296.215 159.605C296.957 159.276 297.596 158.755 298.069 158.095C298.541 157.435 298.828 156.661 298.9 155.854" stroke="#37474F" stroke-width="1.02" stroke-linecap="round" stroke-linejoin="round"/>
<path d="M280.534 150.102C280.609 150.908 280.897 151.679 281.369 152.337C281.841 152.994 282.479 153.513 283.219 153.841C285.233 154.864 287.459 155.396 289.717 155.396C291.975 155.396 294.202 154.864 296.215 153.841C296.957 153.512 297.596 152.991 298.069 152.331C298.541 151.672 298.828 150.898 298.9 150.09" stroke="#37474F" stroke-width="1.02" stroke-linecap="round" stroke-linejoin="round"/>
<path d="M280.534 144.341C280.619 145.136 280.912 145.895 281.383 146.54C281.855 147.186 282.488 147.696 283.219 148.019C285.233 149.041 287.459 149.574 289.717 149.574C291.975 149.574 294.202 149.041 296.215 148.019C296.957 147.69 297.596 147.169 298.069 146.509C298.541 145.849 298.828 145.076 298.9 144.268" stroke="#37474F" stroke-width="1.02" stroke-linecap="round" stroke-linejoin="round"/>
<path opacity="0.15" d="M284.494 131.553H280.534V161.615C280.607 162.423 280.894 163.197 281.366 163.856C281.838 164.516 282.478 165.038 283.219 165.367C283.611 165.599 284.021 165.8 284.445 165.967V146.29C289.183 147.376 294.043 147.834 298.9 147.651V131.553H284.494Z" fill="black"/>
<path d="M251.674 87.7239C251.674 64.9565 270.064 50.2441 292.893 50.2441C315.722 50.2441 334.1 64.9565 334.1 87.7239V112.637C334.1 112.637 325.898 125.584 292.905 125.584C259.913 125.584 251.686 113.323 251.686 113.323L251.674 87.7239Z" fill="#6CAF3A"/>
<path opacity="0.2" d="M299.44 58.2114C298.921 58.4274 298.449 58.7446 298.054 59.1445C297.658 59.5444 297.346 60.0191 297.135 60.5408C297.026 61.0796 297.057 61.6373 297.224 62.1609C297.392 62.6844 297.69 63.1565 298.091 63.5323C298.911 64.2642 299.858 64.8379 300.887 65.2242C306.306 67.6138 311.938 69.4897 317.708 70.8272C319.155 71.1582 321.987 72.1636 323.053 70.8272C324.279 69.2088 323.544 65.9231 321.889 63.8143C319.54 60.4766 316.051 58.1131 312.08 57.1692C307.888 55.89 303.366 56.2629 299.44 58.2114Z" fill="white"/>
<path opacity="0.2" d="M334.1 96.9434C334.1 96.9434 331.795 109.424 315.465 115.518C299.134 121.611 281.405 119.674 270.567 116.94C270.567 116.94 293.764 128.256 317.708 117.394C338.661 107.892 334.1 96.9434 334.1 96.9434Z" fill="black"/>
<path opacity="0.15" d="M307.139 52.3144C302.522 50.9278 297.725 50.2296 292.905 50.2424C270.137 50.2424 251.686 64.9547 251.686 87.7221V113.236C251.686 113.236 255.057 118.262 266.104 121.892C264.375 105.328 262.156 84.1911 268.752 71.2565C276.28 56.4828 297.233 49.4332 307.139 52.3144Z" fill="black"/>
<path d="M291.679 104.641C290.053 104.641 288.494 103.995 287.344 102.846C286.195 101.696 285.549 100.137 285.549 98.5111V95.679C285.549 94.0532 286.195 92.4939 287.344 91.3443C288.494 90.1947 290.053 89.5488 291.679 89.5488C293.305 89.5488 294.864 90.1947 296.014 91.3443C297.163 92.4939 297.809 94.0532 297.809 95.679V98.5111C297.809 100.137 297.163 101.696 296.014 102.846C294.864 103.995 293.305 104.641 291.679 104.641Z" fill="#37474F"/>
<path d="M322.33 94.8449C319.424 95.9238 317.891 94.5752 317.34 93.0672C316.82 91.0672 316.691 88.9858 316.96 86.937C317.049 85.5509 317.5 84.2124 318.268 83.055C319.036 81.8977 320.094 80.9619 321.336 80.341C321.794 80.0591 322.311 79.8871 322.847 79.8385C323.382 79.7899 323.922 79.8659 324.423 80.0607C324.924 80.2555 325.374 80.5637 325.736 80.9611C326.098 81.3586 326.363 81.8346 326.51 82.3517C326.899 84.1595 327.002 86.0168 326.817 87.8565C326.67 90.2105 325.211 93.5944 322.33 94.8449Z" fill="#37474F"/>
<path d="M338.367 95.349C337.231 94.1744 335.723 93.4293 334.1 93.2402V96.9183C334.1 103.048 330.079 109.105 322.036 113.752C308.047 121.819 286.481 122.873 270.543 116.915V115.689C270.4 113.07 269.642 110.521 268.33 108.251C267.018 105.98 265.188 104.05 262.99 102.619C258.822 100.167 255.45 102.153 255.45 106.972C253.071 104.178 251.728 100.649 251.65 96.9796C250.24 96.9796 248.376 97.7398 248.376 103.11C248.376 109.792 248.045 117.295 254.384 125.571C264.621 138.947 291.545 150.741 314.716 141.509C339.421 131.701 339.556 113.151 339.556 105.623C339.58 100.02 340.022 97.2494 338.367 95.349Z" fill="#6CAF3A"/>
<path opacity="0.1" d="M338.367 95.349C337.231 94.1744 335.723 93.4293 334.1 93.2402V96.9183C334.1 103.048 330.079 109.105 322.036 113.752C308.047 121.819 286.481 122.873 270.543 116.915V115.689C270.4 113.07 269.642 110.521 268.33 108.251C267.018 105.98 265.188 104.05 262.99 102.619C258.822 100.167 255.45 102.153 255.45 106.972C253.071 104.178 251.728 100.649 251.65 96.9796C250.24 96.9796 248.376 97.7398 248.376 103.11C248.376 109.792 248.045 117.295 254.384 125.571C264.621 138.947 291.545 150.741 314.716 141.509C339.421 131.701 339.556 113.151 339.556 105.623C339.58 100.02 340.022 97.2494 338.367 95.349Z" fill="black"/>
<path opacity="0.15" d="M300.494 142.858C273.215 142.441 260.035 128.268 256.627 121.893C253.219 115.518 253.488 108.983 255.475 109.829V106.935C253.095 104.142 251.753 100.612 251.674 96.9434C250.264 96.9434 248.4 97.7035 248.4 103.074C248.4 109.755 248.069 117.259 254.408 125.534C264.645 138.91 291.569 150.705 314.741 141.473C320.447 139.338 325.652 136.049 330.029 131.812C323.752 136.544 313.637 143.054 300.494 142.858Z" fill="black"/>
<path opacity="0.2" d="M264.203 103.379C266.79 105.39 268.739 109.656 268.739 118.005L270.566 116.939V115.713C270.437 113.324 269.803 110.99 268.706 108.864C267.61 106.738 266.075 104.869 264.203 103.379Z" fill="black"/>
<path d="M334.1 96.9428C334.1 103.073 330.079 109.13 322.036 113.776C308.047 121.844 286.481 122.898 270.543 116.939L268.716 118.006C268.716 118.006 291.03 130.266 316.212 120.311C339.715 111.054 339.213 98.5367 338.342 95.349C337.206 94.1744 335.699 93.4293 334.075 93.2402L334.1 96.9428Z" fill="#6CAF3A"/>
<path opacity="0.6" d="M334.1 96.9428C334.1 103.073 330.079 109.13 322.036 113.776C308.047 121.844 286.481 122.898 270.543 116.939L268.716 118.006C268.716 118.006 291.03 130.266 316.212 120.311C339.715 111.054 339.213 98.5367 338.342 95.349C337.206 94.1744 335.699 93.4293 334.075 93.2402L334.1 96.9428Z" fill="white"/>
<path d="M261.935 106.727C262.842 107.319 263.596 108.115 264.137 109.053C264.678 109.99 264.991 111.041 265.05 112.122C265.05 114.108 263.652 114.917 261.935 113.924C261.028 113.334 260.273 112.538 259.731 111.6C259.19 110.663 258.878 109.611 258.821 108.53C258.821 106.543 260.207 105.734 261.935 106.727Z" fill="#37474F"/>
<path d="M261.936 106.725C261.478 106.439 260.944 106.298 260.404 106.321C260.057 106.796 259.884 107.376 259.913 107.964C259.972 109.044 260.285 110.096 260.826 111.033C261.367 111.97 262.121 112.767 263.027 113.358C263.486 113.644 264.02 113.785 264.56 113.763C264.906 113.287 265.079 112.707 265.05 112.12C264.991 111.039 264.679 109.988 264.138 109.051C263.597 108.113 262.842 107.317 261.936 106.725Z" fill="#455A64"/>
<path d="M255.474 106.935C253.095 104.141 251.752 100.612 251.674 96.9427C251.331 96.932 250.99 96.9893 250.671 97.1114C250.351 97.2335 250.058 97.4178 249.81 97.6538C249.476 98.6543 249.343 99.7109 249.419 100.763C249.495 101.815 249.778 102.842 250.251 103.784C251.289 106.31 253.123 108.428 255.474 109.816C255.389 108.857 255.389 107.893 255.474 106.935Z" fill="#6CAF3A"/>
<path opacity="0.5" d="M255.474 106.935C253.095 104.141 251.752 100.612 251.674 96.9427C251.331 96.932 250.99 96.9893 250.671 97.1114C250.351 97.2335 250.058 97.4178 249.81 97.6538C249.476 98.6543 249.343 99.7109 249.419 100.763C249.495 101.815 249.778 102.842 250.251 103.784C251.289 106.31 253.123 108.428 255.474 109.816C255.389 108.857 255.389 107.893 255.474 106.935Z" fill="white"/>
<path d="M288.209 58.383V36.3145H282.827V58.383C282.851 58.6207 282.938 58.8478 283.078 59.0415C283.218 59.2352 283.406 59.3886 283.624 59.4864C284.214 59.7829 284.864 59.9373 285.524 59.9373C286.184 59.9373 286.835 59.7829 287.425 59.4864C287.64 59.386 287.825 59.2315 287.963 59.0381C288.1 58.8447 288.185 58.619 288.209 58.383Z" fill="#455A64"/>
<path opacity="0.15" d="M282.827 40.0423C283.689 40.2836 284.58 40.4073 285.475 40.4101C286.4 40.4053 287.32 40.2733 288.209 40.0178V36.2539H282.827V40.0423Z" fill="black"/>
<path d="M285.475 37.9949C290.987 37.9949 295.455 33.5268 295.455 28.015C295.455 22.5033 290.987 18.0352 285.475 18.0352C279.963 18.0352 275.495 22.5033 275.495 28.015C275.495 33.5268 279.963 37.9949 285.475 37.9949Z" fill="#6CAF3A"/>
<path opacity="0.15" d="M285.475 33.2373C278.278 32.0112 275.802 25.5746 278.977 20.4375C277.707 21.527 276.731 22.9184 276.14 24.4837C275.548 26.049 275.36 27.7379 275.591 29.3951C275.823 31.0523 276.468 32.6246 277.467 33.9674C278.465 35.3101 279.785 36.3803 281.306 37.0793C282.826 37.7784 284.498 38.084 286.167 37.968C287.836 37.8519 289.45 37.318 290.859 36.4153C292.268 35.5126 293.427 34.2701 294.23 32.8021C295.033 31.3341 295.454 29.6877 295.455 28.0144C295.026 31.1775 291.863 34.3652 285.475 33.2373Z" fill="black"/>
<path opacity="0.3" d="M285.083 24.6547C286.656 25.1001 288.143 25.8045 289.484 26.7389C290.33 27.3152 291.679 28.1857 292.648 27.3152C293.616 26.4447 293.359 24.8631 292.991 23.87C292.474 22.6202 291.572 21.5679 290.416 20.8663C288.995 20.0032 287.306 19.6933 285.671 19.9958C284.642 20.1797 282.95 20.7069 282.668 21.8961C282.386 23.0854 283.979 24.3359 285.083 24.6547Z" fill="white"/>
<path d="M285.548 11.0343C285.223 11.0343 284.911 10.9051 284.681 10.6752C284.451 10.4452 284.322 10.1334 284.322 9.80824V1.22603C284.322 0.900866 284.451 0.58902 284.681 0.359095C284.911 0.12917 285.223 0 285.548 0C285.873 0 286.185 0.12917 286.415 0.359095C286.645 0.58902 286.774 0.900866 286.774 1.22603V9.80824C286.774 10.1334 286.645 10.4452 286.415 10.6752C286.185 10.9051 285.873 11.0343 285.548 11.0343Z" fill="#E0E0E0"/>
<path d="M294.609 13.4979C294.395 13.4994 294.183 13.4444 293.996 13.3385C293.857 13.2574 293.735 13.1496 293.637 13.0212C293.539 12.8928 293.468 12.7464 293.427 12.5903C293.386 12.4343 293.376 12.2717 293.398 12.1118C293.42 11.952 293.473 11.7981 293.555 11.6589L297.809 4.20461C297.886 4.0581 297.991 3.9286 298.119 3.82391C298.247 3.71922 298.395 3.6415 298.554 3.59543C298.713 3.54935 298.879 3.53588 299.043 3.55582C299.208 3.57576 299.366 3.6287 299.509 3.71145C299.652 3.7942 299.777 3.90505 299.877 4.03734C299.976 4.16963 300.047 4.32062 300.086 4.48123C300.126 4.64183 300.132 4.80873 300.105 4.97189C300.079 5.13505 300.019 5.2911 299.93 5.43064L295.627 12.8849C295.523 13.0649 295.375 13.2157 295.197 13.3229C295.019 13.4301 294.817 13.4904 294.609 13.4979Z" fill="#E0E0E0"/>
<path d="M301.255 20.1439C300.984 20.1458 300.719 20.0576 300.503 19.893C300.287 19.7284 300.132 19.4969 300.062 19.2346C299.992 18.9723 300.011 18.6942 300.116 18.4439C300.221 18.1935 300.406 17.9851 300.642 17.8512L308.109 13.5479C308.389 13.4013 308.715 13.3686 309.019 13.4568C309.322 13.5449 309.58 13.7469 309.738 14.0207C309.897 14.2944 309.943 14.6188 309.868 14.9259C309.793 15.2331 309.602 15.4993 309.335 15.6689L301.868 19.9845C301.681 20.0904 301.47 20.1454 301.255 20.1439Z" fill="#E0E0E0"/>
<path d="M312.289 29.2899H303.706C303.381 29.2899 303.07 29.1608 302.84 28.9309C302.61 28.7009 302.48 28.3891 302.48 28.0639C302.48 27.7388 302.61 27.4269 302.84 27.197C303.07 26.9671 303.381 26.8379 303.706 26.8379H312.289C312.614 26.8379 312.926 26.9671 313.156 27.197C313.386 27.4269 313.515 27.7388 313.515 28.0639C313.515 28.3891 313.386 28.7009 313.156 28.9309C312.926 29.1608 312.614 29.2899 312.289 29.2899Z" fill="#E0E0E0"/>
<path d="M308.672 42.6897C308.456 42.6875 308.244 42.6283 308.059 42.5181L300.592 38.2147C300.446 38.1381 300.316 38.0326 300.212 37.9046C300.107 37.7766 300.029 37.6288 299.983 37.47C299.937 37.3112 299.924 37.1447 299.944 36.9805C299.963 36.8164 300.016 36.658 300.099 36.5148C300.182 36.3717 300.293 36.2467 300.425 36.1475C300.557 36.0483 300.708 35.9769 300.869 35.9375C301.03 35.8982 301.196 35.8918 301.36 35.9186C301.523 35.9454 301.679 36.005 301.818 36.0937L309.273 40.3971C309.413 40.4772 309.536 40.5843 309.635 40.7122C309.734 40.8401 309.807 40.9864 309.849 41.1425C309.891 41.2986 309.902 41.4615 309.881 41.6219C309.86 41.7822 309.807 41.9368 309.726 42.0767C309.619 42.262 309.466 42.4161 309.281 42.5237C309.096 42.6312 308.886 42.6885 308.672 42.6897Z" fill="#E0E0E0"/>
<path d="M262.254 42.6034C261.983 42.6053 261.718 42.517 261.502 42.3525C261.286 42.1879 261.131 41.9563 261.061 41.6941C260.991 41.4318 261.01 41.1537 261.115 40.9034C261.22 40.653 261.405 40.4446 261.641 40.3107L269.095 36.0074C269.378 35.8448 269.714 35.8012 270.029 35.8863C270.344 35.9714 270.612 36.1781 270.775 36.461C270.938 36.7439 270.981 37.0798 270.896 37.3948C270.811 37.7098 270.604 37.9781 270.321 38.1407L262.867 42.444C262.68 42.5499 262.469 42.6049 262.254 42.6034Z" fill="#E0E0E0"/>
<path d="M267.268 29.1903H258.686C258.361 29.1903 258.049 29.0612 257.819 28.8312C257.589 28.6013 257.46 28.2895 257.46 27.9643C257.46 27.6391 257.589 27.3273 257.819 27.0974C258.049 26.8675 258.361 26.7383 258.686 26.7383H267.268C267.593 26.7383 267.905 26.8675 268.135 27.0974C268.365 27.3273 268.494 27.6391 268.494 27.9643C268.494 28.2895 268.365 28.6013 268.135 28.8312C267.905 29.0612 267.593 29.1903 267.268 29.1903Z" fill="#E0E0E0"/>
<path d="M269.733 20.1444C269.519 20.1459 269.307 20.0909 269.12 19.985L261.666 15.6817C261.526 15.6012 261.403 15.4939 261.305 15.3659C261.206 15.2379 261.134 15.0918 261.091 14.9358C261.049 14.7798 261.038 14.6171 261.059 14.4569C261.08 14.2966 261.132 14.1421 261.212 14.002C261.293 13.8619 261.4 13.7391 261.528 13.6405C261.656 13.5419 261.802 13.4694 261.958 13.4273C262.114 13.3852 262.277 13.3742 262.437 13.395C262.597 13.4157 262.752 13.4679 262.892 13.5484L270.346 17.8517C270.487 17.9318 270.61 18.0389 270.709 18.1669C270.808 18.2948 270.881 18.441 270.923 18.5972C270.965 18.7533 270.976 18.9162 270.955 19.0765C270.934 19.2369 270.881 19.3915 270.8 19.5314C270.692 19.7185 270.536 19.8737 270.349 19.9814C270.162 20.089 269.949 20.1453 269.733 20.1444Z" fill="#E0E0E0"/>
<path d="M276.416 13.4489C276.2 13.4497 275.987 13.3935 275.8 13.2858C275.613 13.1782 275.457 13.023 275.349 12.8359L271.046 5.43064C270.957 5.2911 270.898 5.13505 270.871 4.97189C270.844 4.80873 270.85 4.64183 270.89 4.48123C270.929 4.32062 271 4.16963 271.1 4.03734C271.199 3.90505 271.324 3.7942 271.467 3.71145C271.61 3.6287 271.769 3.57576 271.933 3.55582C272.097 3.53588 272.263 3.54935 272.422 3.59543C272.581 3.6415 272.729 3.71922 272.857 3.82391C272.985 3.9286 273.09 4.0581 273.167 4.20461L277.483 11.6589C277.59 11.8456 277.647 12.0575 277.647 12.2731C277.647 12.4887 277.589 12.7005 277.481 12.887C277.373 13.0735 277.218 13.2282 277.031 13.3355C276.844 13.4427 276.631 13.4988 276.416 13.4979V13.4489Z" fill="#E0E0E0"/>
<defs>
<filter id="filter0_d" x="0" y="148.77" width="576" height="345.408" filterUnits="userSpaceOnUse" color-interpolation-filters="sRGB">
<feFlood flood-opacity="0" result="BackgroundImageFix"/>
<feColorMatrix in="SourceAlpha" type="matrix" values="0 0 0 0 0 0 0 0 0 0 0 0 0 0 0 0 0 0 127 0"/>
<feOffset dy="15"/>
<feGaussianBlur stdDeviation="7.5"/>
<feColorMatrix type="matrix" values="0 0 0 0 0 0 0 0 0 0 0 0 0 0 0 0 0 0 0.3 0"/>
<feBlend mode="normal" in2="BackgroundImageFix" result="effect1_dropShadow"/>
<feBlend mode="normal" in="SourceGraphic" in2="effect1_dropShadow" result="shape"/>
</filter>
</defs>
</svg>
