<svg width="150" height="150" viewBox="0 0 150 150" fill="none" xmlns="http://www.w3.org/2000/svg">
<path d="M75.041 150H74.9971C73.9278 150 72.8456 149.977 71.7804 149.932L72.2824 137.98C73.1807 138.017 74.0942 138.038 74.9971 138.038L75.041 150ZM81.5719 149.715L80.537 137.796C81.4516 137.718 82.3708 137.617 83.2695 137.498L84.8241 149.361C83.7522 149.5 82.6598 149.62 81.5719 149.715ZM65.2647 149.372C64.1889 149.233 63.1014 149.07 62.0306 148.883L64.0845 137.097C64.9863 137.254 65.8994 137.393 66.8034 137.509L65.2647 149.372ZM91.2681 148.228L88.6823 136.547C89.5735 136.351 90.4711 136.13 91.3517 135.896L94.4488 147.452C93.3976 147.733 92.3294 147.994 91.2681 148.228ZM55.6404 147.475C54.5908 147.197 53.5328 146.887 52.4948 146.562L56.0811 135.15C56.9514 135.425 57.8396 135.682 58.7175 135.917L55.6404 147.475ZM100.686 145.482L96.5935 134.244C97.4431 133.931 98.2998 133.599 99.1433 133.25L103.731 144.295C102.726 144.712 101.702 145.113 100.686 145.482ZM46.3422 144.329C45.3379 143.915 44.3287 143.47 43.3377 143.01L48.3939 132.167C49.2238 132.554 50.0718 132.928 50.9134 133.273L46.3422 144.329ZM109.659 141.527L104.12 130.922C104.933 130.498 105.742 130.053 106.526 129.599L112.519 139.952C111.585 140.491 110.621 141.021 109.659 141.527ZM37.5312 139.985C36.5931 139.443 35.6516 138.87 34.7344 138.286L41.1624 128.196C41.9356 128.688 42.7288 129.171 43.5185 129.629L37.5312 139.985ZM118.032 136.433L111.16 126.642C111.909 126.117 112.654 125.566 113.373 125.013L120.667 134.498C119.807 135.157 118.923 135.809 118.032 136.433ZM29.3737 134.532C28.5076 133.866 27.6489 133.179 26.8232 132.483L34.5131 123.32C35.2079 123.904 35.9296 124.484 36.6597 125.044L29.3737 134.532ZM125.669 130.293L117.588 121.474C118.259 120.86 118.925 120.219 119.573 119.57L128.032 128.03C127.263 128.8 126.467 129.561 125.669 130.293ZM22.0012 128.068C21.2311 127.3 20.4689 126.503 19.7382 125.706L28.5503 117.619C29.1657 118.287 29.8072 118.956 30.4522 119.604L22.0012 128.068ZM132.45 123.212L123.293 115.515C123.876 114.819 124.457 114.096 125.017 113.37L134.499 120.66C133.836 121.525 133.147 122.383 132.45 123.212ZM15.5282 120.704C14.8677 119.846 14.2187 118.96 13.5946 118.074L23.3785 111.196C23.9038 111.942 24.4527 112.689 25.0098 113.408L15.5282 120.704ZM138.258 115.305L128.172 108.867C128.668 108.097 129.148 107.304 129.604 106.515L139.958 112.505C139.415 113.442 138.844 114.385 138.258 115.305ZM10.0681 112.562C9.52193 111.619 8.99198 110.656 8.49271 109.698L19.0936 104.161C19.5142 104.961 19.9602 105.769 20.4183 106.564L10.0681 112.562ZM142.985 106.703L132.146 101.639C132.531 100.813 132.904 99.9647 133.256 99.1167L144.307 103.703C143.888 104.71 143.443 105.718 142.985 106.703ZM5.71671 103.777C5.30328 102.776 4.90231 101.755 4.53163 100.735L15.7665 96.6297C16.0812 97.4842 16.4156 98.3428 16.7628 99.1802L5.71671 103.777ZM146.544 97.5455L135.136 93.9513C135.41 93.0866 135.669 92.1966 135.903 91.3145L147.461 94.4025C147.179 95.4548 146.871 96.5128 146.544 97.5455ZM2.55865 94.4937C2.27644 93.4452 2.01508 92.3758 1.77941 91.3145L13.4576 88.7223C13.6539 89.6146 13.8752 90.5107 14.1135 91.3924L2.55865 94.4937ZM148.869 88.0131L137.088 85.9467C137.244 85.0525 137.384 84.1409 137.501 83.2319L149.364 84.7756C149.222 85.8581 149.058 86.9464 148.869 88.0131ZM0.642442 84.8705C0.501686 83.791 0.381381 82.6986 0.28726 81.6187L12.2033 80.5793C12.2827 81.4874 12.3834 82.4028 12.5029 83.3099L0.642442 84.8705ZM149.926 78.2651L137.976 77.7529C138.014 76.8452 138.033 75.9169 138.033 74.9989V74.8253H149.996V74.9493C149.996 76.0879 149.972 77.1875 149.926 78.2651ZM11.962 75.0859H0.000183105V74.9989C0.000183105 73.9447 0.0190717 72.8777 0.0637054 71.828L12.0153 72.3246C11.9787 73.212 11.962 74.1112 11.962 74.9989V75.0859H11.962ZM137.782 69.3421C137.703 68.432 137.6 67.5129 137.48 66.6066L149.34 65.0354C149.481 66.1107 149.602 67.2023 149.697 68.2845L137.782 69.3421ZM12.4825 66.8457L0.618969 65.3133C0.758176 64.235 0.922327 63.1456 1.10956 62.0778L12.8944 64.1279C12.7382 65.0255 12.599 65.9397 12.4825 66.8457ZM136.521 61.1972C136.324 60.3102 136.102 59.4137 135.862 58.5301L147.41 55.4134C147.695 56.4653 147.96 57.5357 148.194 58.5944L136.521 61.1972ZM14.0704 58.759L2.50907 55.6868C2.78748 54.6398 3.09464 53.5807 3.41954 52.5428L14.8337 56.1214C14.5606 56.9933 14.303 57.8803 14.0704 58.759ZM134.201 53.2959C133.885 52.4373 133.548 51.579 133.198 50.7427L144.24 46.137C144.654 47.1315 145.055 48.1532 145.429 49.1733L134.201 53.2959ZM16.7083 50.9526L5.65203 46.3867C6.06547 45.384 6.50795 44.3744 6.96942 43.3853L17.8151 48.4296C17.4274 49.2629 17.0544 50.111 16.7083 50.9526ZM130.864 45.7691C130.443 44.9663 129.997 44.1573 129.537 43.3682L139.88 37.3571C140.427 38.297 140.957 39.2586 141.46 40.2174L130.864 45.7691ZM20.3506 43.5551L9.98983 37.5753C10.5295 36.6391 11.0996 35.6969 11.6859 34.7762L21.7784 41.1982C21.2844 41.9732 20.8048 42.7661 20.3506 43.5551ZM126.567 38.7377C126.045 37.9952 125.497 37.2515 124.939 36.529L134.408 29.2201C135.073 30.081 135.726 30.9668 136.35 31.8527L126.567 38.7377ZM24.9316 36.6936L15.4374 29.413C16.1008 28.5472 16.7904 27.6889 17.4849 26.8606L26.6511 34.5447C26.0686 35.2407 25.4899 35.9631 24.9316 36.6936ZM121.393 32.3225C120.775 31.6511 120.134 30.9846 119.486 30.3404L127.926 21.8645C128.695 22.6309 129.459 23.4237 130.195 24.2222L121.393 32.3225ZM30.3637 30.483L21.8972 22.0352C22.6647 21.2654 23.4579 20.5024 24.2552 19.7713L32.3487 28.5789C31.6815 29.1944 31.0128 29.8351 30.3637 30.483ZM115.422 26.6283C114.724 26.0435 114.002 25.4652 113.273 24.9091L120.545 15.4104C121.409 16.072 122.268 16.76 123.099 17.456L115.422 26.6283ZM36.5568 25.0347L29.2569 15.5595C30.1125 14.8983 30.9984 14.2462 31.888 13.6209L38.7719 23.404C38.0225 23.9299 37.28 24.4787 36.5568 25.0347ZM108.764 21.7586C107.995 21.2684 107.201 20.7892 106.41 20.333L112.379 9.96735C113.322 10.5098 114.266 11.0809 115.183 11.6649L108.764 21.7586ZM43.4002 20.4405L37.3957 10.0945C38.327 9.55244 39.2896 9.0221 40.2523 8.51718L45.8062 19.1124C44.9933 19.5383 44.1847 19.9847 43.4002 20.4405ZM101.529 17.7999C100.703 17.4156 99.8559 17.0441 99.0079 16.695L103.567 5.6352C104.576 6.05205 105.587 6.495 106.573 6.95267L101.529 17.7999ZM50.7783 16.7816L46.1772 5.73846C47.1736 5.32433 48.1948 4.92337 49.2146 4.55044L53.3312 15.7823C52.4729 16.0969 51.6143 16.4328 50.7783 16.7816ZM93.841 14.8249C92.9687 14.5526 92.0771 14.2957 91.1966 14.0624L94.2653 2.49991C95.3138 2.77716 96.3685 3.08199 97.4078 3.40774L93.841 14.8249ZM58.5673 14.1233L55.4569 2.5725C56.5089 2.28959 57.5786 2.02636 58.6369 1.79071L61.2347 13.4685C60.3477 13.6656 59.4479 13.8861 58.5673 14.1233ZM85.8322 12.8886C84.933 12.7335 84.0165 12.5955 83.1137 12.4793L84.6354 0.615082C85.7115 0.751965 86.7986 0.91689 87.8721 1.10188L85.8322 12.8886ZM66.6461 12.5103L65.0774 0.651413C66.1532 0.509185 67.2482 0.388493 68.3293 0.293132L69.3801 12.2093C68.4708 12.2891 67.5501 12.3905 66.6461 12.5103ZM77.6336 12.0164C76.7621 11.9808 75.8739 11.9626 74.9971 11.9626L74.8682 11.9634V0H74.9635C74.9653 0 74.9684 0 74.9695 0C76.0415 0 77.0911 0.0216131 78.1222 0.0639871L77.6336 12.0164Z" fill="#1AFD31"/>
</svg>
