<svg width="79" height="150" viewBox="0 0 79 150" fill="none" xmlns="http://www.w3.org/2000/svg">
<path d="M78.9999 74.9553V74.9991C78.9999 76.0685 78.9765 77.1507 78.9322 78.2158L66.9795 77.7139C67.0173 76.8156 67.038 75.9021 67.038 74.9991L78.9999 74.9553ZM78.7151 68.4243L66.7959 69.4593C66.7181 68.5446 66.6167 67.6255 66.4983 66.7267L78.361 65.1721C78.5002 66.2441 78.6201 67.3365 78.7151 68.4243ZM78.3716 84.7316C78.2324 85.8074 78.0698 86.8948 77.8826 87.9657L66.0973 85.9118C66.2535 85.01 66.3931 84.0969 66.5088 83.1929L78.3716 84.7316ZM77.2282 58.7282L65.5473 61.3139C65.351 60.4228 65.1298 59.5252 64.8956 58.6446L76.4516 55.5475C76.7327 56.5987 76.9941 57.6668 77.2282 58.7282ZM76.4751 94.3558C76.1967 95.4055 75.8873 96.4635 75.5623 97.5014L64.1501 93.9152C64.4251 93.0449 64.6823 92.1567 64.9165 91.2788L76.4751 94.3558ZM74.482 49.3105L63.2438 53.4028C62.9314 52.5532 62.5985 51.6965 62.2497 50.853L73.2947 46.2655C73.7124 47.2698 74.1129 48.2945 74.482 49.3105ZM73.3287 103.654C72.915 104.658 72.4698 105.668 72.0094 106.659L61.1668 101.602C61.5537 100.773 61.9275 99.9245 62.2732 99.0829L73.3287 103.654ZM70.5267 40.3376L59.9216 45.8767C59.4976 45.0635 59.0527 44.2547 58.5988 43.4702L68.9517 37.4776C69.491 38.4115 70.0205 39.3753 70.5267 40.3376ZM68.9853 112.465C68.4429 113.403 67.8694 114.345 67.2854 115.262L57.1963 108.834C57.688 108.061 58.1707 107.268 58.6287 106.478L68.9853 112.465ZM65.4328 31.9646L55.642 38.8367C55.1167 38.0877 54.5663 37.3422 54.0133 36.6231L63.4984 29.3296C64.1569 30.1894 64.8086 31.0738 65.4328 31.9646ZM63.5324 120.623C62.8663 121.489 62.1786 122.347 61.4827 123.173L52.3198 115.483C52.9038 114.788 53.4841 114.067 54.0435 113.337L63.5324 120.623ZM59.2933 24.3268L50.474 32.4086C49.86 31.7372 49.2185 31.0711 48.5695 30.4235L57.0299 21.9643C57.7999 22.7333 58.561 23.5295 59.2933 24.3268ZM57.0676 127.995C56.3002 128.765 55.5028 129.527 54.7055 130.258L46.6189 121.446C47.2872 120.831 47.9555 120.189 48.6035 119.544L57.0676 127.995ZM52.2121 17.5459L44.5153 26.7034C43.8194 26.1202 43.0962 25.5388 42.3703 24.9797L49.6599 15.4973C50.525 16.1604 51.3833 16.8488 52.2121 17.5459ZM49.7039 134.468C48.8456 135.129 47.9597 135.778 47.0739 136.402L40.1957 126.618C40.9424 126.092 41.6887 125.544 42.4081 124.986L49.7039 134.468ZM44.3046 11.7382L37.8668 21.8244C37.097 21.3281 36.3034 20.8485 35.5152 20.3923L41.5052 10.038C42.4421 10.5815 43.3851 11.1527 44.3046 11.7382ZM41.5623 139.928C40.6193 140.474 39.6556 141.004 38.6982 141.504L33.161 130.903C33.961 130.482 34.7689 130.036 35.5637 129.578L41.5623 139.928ZM35.7028 7.01122L30.6387 17.8504C29.8126 17.465 28.9646 17.092 28.1166 16.7407L32.7033 5.68918C33.7098 6.10834 34.7182 6.55315 35.7028 7.01122ZM32.777 144.28C31.7754 144.693 30.7545 145.094 29.7347 145.465L25.6295 134.23C26.4841 133.915 27.3427 133.581 28.1801 133.234L32.777 144.28ZM26.5453 3.45226L22.9511 14.8599C22.0865 14.5865 21.1964 14.3277 20.3143 14.0936L23.4024 2.53537C24.4547 2.8175 25.5126 3.12542 26.5453 3.45226ZM23.4936 147.438C22.4451 147.72 21.3757 147.981 20.3143 148.217L17.7222 136.539C18.6145 136.342 19.5106 136.121 20.3923 135.883L23.4936 147.438ZM17.013 1.1275L14.9466 12.9086C14.0524 12.7527 13.1407 12.612 12.2318 12.4951L13.7755 0.631927C14.858 0.773784 15.9463 0.938696 17.013 1.1275ZM13.8704 149.354C12.7909 149.495 11.6985 149.615 10.6186 149.709L9.57915 137.793C10.4873 137.714 11.4027 137.613 12.3098 137.493L13.8704 149.354ZM7.26501 0.0702362L6.7528 12.0204C5.84505 11.9826 4.91677 11.9629 3.9988 11.9629H3.8252L3.8252 -0.000106812H3.94922C5.08774 -0.000106812 6.18738 0.0241485 7.26501 0.0702362ZM4.08579 138.034L4.08579 149.996H3.9988C2.94456 149.996 1.87754 149.977 0.827881 149.933L1.32451 137.981C2.21188 138.018 3.11104 138.034 3.9988 138.034L4.08579 138.034Z" fill="#1AFD31"/>
</svg>
