<svg width="192" height="195" viewBox="0 0 192 195" fill="none" xmlns="http://www.w3.org/2000/svg">
<path d="M143.142 136.837L143.114 136.871C142.427 137.69 141.713 138.504 140.994 139.292L132.161 131.224C132.767 130.56 133.37 129.874 133.951 129.182L143.142 136.837ZM147.122 131.651L137.326 124.783C137.854 124.032 138.368 123.263 138.855 122.498L148.941 128.932C148.359 129.843 147.749 130.757 147.122 131.651ZM136.377 143.923C135.579 144.657 134.755 145.386 133.923 146.086L126.216 136.937C126.915 136.347 127.609 135.737 128.278 135.119L136.377 143.923ZM152.216 123.268L141.605 117.74C142.028 116.931 142.435 116.102 142.822 115.277L153.665 120.332C153.205 121.318 152.718 122.304 152.216 123.268ZM128.738 150.076C127.85 150.701 126.933 151.313 126.016 151.899L119.579 141.816C120.349 141.326 121.117 140.811 121.861 140.289L128.738 150.076ZM156.165 114.288L144.926 110.199C145.233 109.348 145.528 108.477 145.804 107.607L157.213 111.193C156.888 112.23 156.536 113.273 156.165 114.288ZM120.351 155.177C119.388 155.68 118.398 156.167 117.409 156.63L112.353 145.787C113.183 145.4 114.014 144.991 114.82 144.568L120.351 155.177ZM158.903 104.872L147.219 102.299C147.417 101.403 147.596 100.498 147.752 99.6048L159.535 101.669C159.348 102.731 159.134 103.81 158.903 104.872ZM111.36 159.134C110.341 159.504 109.297 159.857 108.26 160.184L104.663 148.775C105.537 148.499 106.416 148.201 107.275 147.891L111.36 159.134ZM160.383 95.1838L148.466 94.1547C148.545 93.2433 148.602 92.3184 148.641 91.4122L160.595 91.9219C160.547 93.0038 160.478 94.1002 160.383 95.1838ZM101.939 161.878C100.872 162.114 99.7934 162.329 98.7294 162.515L96.6532 150.734C97.5473 150.577 98.4557 150.397 99.3535 150.198L101.939 161.878ZM160.589 85.3866L148.639 85.9086C148.6 84.9996 148.537 84.0771 148.456 83.1637L160.374 82.1218C160.47 83.2059 160.541 84.3051 160.589 85.3866ZM92.2478 163.37C91.1649 163.467 90.0641 163.538 88.9836 163.586L88.4532 151.637C89.3608 151.595 90.2851 151.533 91.1961 151.456L92.2478 163.37ZM159.524 75.6403L147.741 77.708C147.583 76.8139 147.403 75.9037 147.206 75.0088L158.885 72.4305C159.122 73.4945 159.337 74.5736 159.524 75.6403ZM82.446 163.596C81.364 163.55 80.2682 163.478 79.1885 163.386L80.2084 151.47C81.1181 151.548 82.0426 151.607 82.9518 151.643L82.446 163.596ZM157.199 66.1086L145.784 69.6969C145.514 68.8219 145.214 67.9444 144.903 67.0882L156.148 63.0067C156.516 64.0253 156.871 65.069 157.199 66.1086ZM72.6996 162.545C71.6261 162.357 70.5472 162.144 69.4929 161.911L72.0652 150.231C72.9485 150.423 73.8541 150.601 74.7573 150.761L72.6996 162.545ZM153.648 56.9583L142.802 62.0065C142.417 61.1803 142.007 60.3495 141.583 59.5352L152.2 54.0175C152.702 54.9856 153.188 55.9745 153.648 56.9583ZM63.1726 160.231C62.1396 159.904 61.0998 159.555 60.0803 159.184L64.1572 147.938C65.0141 148.247 65.8868 148.542 66.7515 148.815L63.1726 160.231ZM148.921 48.3457L138.835 54.7742C138.348 54.0089 137.833 53.2386 137.308 52.4923L147.103 45.6231C147.727 46.5156 148.34 47.4315 148.921 48.3457ZM54.0311 156.683C53.0465 156.225 52.0594 155.738 51.0948 155.237L56.6157 144.624C57.4254 145.048 58.2541 145.454 59.0827 145.838L54.0311 156.683ZM143.113 40.4376L133.957 48.1341C133.373 47.4399 132.765 46.7462 132.144 46.0724L140.952 37.9769C141.69 38.7814 142.417 39.6073 143.113 40.4376ZM45.4276 151.966C44.5102 151.379 43.5961 150.769 42.7083 150.147L49.5716 140.351C50.3183 140.874 51.0842 141.385 51.8559 141.877L45.4276 151.966ZM136.325 33.3618L128.251 42.1869C127.58 41.5744 126.882 40.9627 126.179 40.3726L126.046 40.261L133.735 31.0968L133.83 31.1765C134.703 31.9084 135.529 32.6338 136.325 33.3618ZM45.2083 137.005L37.5194 146.168L37.4527 146.112C36.6451 145.435 35.8399 144.734 35.0645 144.025L43.1273 135.189C43.7835 135.787 44.4616 136.378 45.1417 136.949L45.2083 137.005ZM121.684 36.9289C120.936 36.4044 120.166 35.8925 119.394 35.4018L125.814 25.307C126.728 25.8898 127.643 26.4988 128.533 27.1217L121.684 36.9289ZM39.2304 131.309L30.4309 139.412C29.6943 138.613 28.9653 137.787 28.2677 136.957L37.4133 129.247C38.0005 129.944 38.6113 130.638 39.2304 131.309ZM114.634 32.6598C113.828 32.24 112.998 31.8344 112.167 31.4499L117.203 20.6002C118.192 21.0581 119.182 21.5433 120.143 22.0446L114.634 32.6598ZM34.0563 124.895L24.2715 131.777C23.6484 130.89 23.0345 129.974 22.4482 129.058L32.5265 122.615C33.0189 123.384 33.5327 124.152 34.0563 124.895ZM107.09 29.3578C106.229 29.0481 105.355 28.7545 104.489 28.485L108.059 17.0656C109.087 17.3878 110.127 17.7377 111.149 18.1066L107.09 29.3578ZM29.772 117.856L19.1674 123.391C18.665 122.43 18.1761 121.442 17.715 120.453L28.5507 115.387C28.9398 116.219 29.3497 117.05 29.772 117.856ZM99.1787 27.0764C98.2937 26.8823 97.3873 26.7039 96.4869 26.5494L98.5306 14.762C99.6018 14.9478 100.679 15.1593 101.737 15.3908L99.1787 27.0764ZM26.4463 110.311L15.2058 114.404C14.8355 113.389 14.4802 112.347 14.1518 111.306L25.5587 107.702C25.8348 108.579 26.1339 109.456 26.4463 110.311ZM91.0306 25.8481C90.1265 25.7704 89.204 25.7128 88.292 25.6758L88.7799 13.7236C89.8665 13.7679 90.9651 13.8369 92.0449 13.9282L91.0306 25.8481ZM24.1347 102.391L12.4547 104.985C12.2179 103.92 12.0037 102.84 11.8156 101.775L23.5939 99.6929C23.7526 100.587 23.9341 101.494 24.1347 102.391Z" fill="#1AFD31"/>
</svg>
