<svg width="26" height="25" viewBox="0 0 26 25" fill="none" xmlns="http://www.w3.org/2000/svg">
<path d="M22.1669 0H4.23242C3.30064 0 2.40703 0.370724 1.74817 1.03062C1.08931 1.69051 0.719162 2.58552 0.719162 3.51875V21.4813C0.719162 22.4145 1.08931 23.3095 1.74817 23.9694C2.40703 24.6293 3.30064 25 4.23242 25H12.3947V15.875H9.30886V12.3156H12.3947V9.69375C12.3947 8.20781 12.805 7.05312 13.6255 6.23281C14.4461 5.41094 15.5585 4.99844 16.9641 4.99844C18.3712 4.99844 19.2823 5.05313 19.6989 5.15625V8.325H17.8237C17.1466 8.325 16.6848 8.46875 16.4368 8.75625C16.1903 9.04219 16.067 9.47344 16.067 10.0469V12.3156H19.5819L19.1138 15.875H16.067V25H22.1669C23.0986 25 23.9923 24.6293 24.6511 23.9694C25.31 23.3095 25.6801 22.4145 25.6801 21.4813V3.51875C25.6801 2.58552 25.31 1.69051 24.6511 1.03062C23.9923 0.370724 23.0986 0 22.1669 0Z" fill="white"/>
</svg>
