<svg width="140" height="131" viewBox="0 0 140 131" fill="none" xmlns="http://www.w3.org/2000/svg">
<path d="M69.452 109.905C42.1839 109.905 20.0001 87.721 20.0001 60.4519C20.0001 33.1838 42.1839 11 69.452 11C96.7212 11 118.905 33.1838 118.905 60.4519C118.905 87.721 96.7212 109.905 69.452 109.905ZM69.452 11.6187C42.5251 11.6187 20.6192 33.525 20.6192 60.4519C20.6192 87.3798 42.5251 109.287 69.452 109.287C96.379 109.287 118.286 87.3798 118.286 60.4519C118.286 33.525 96.379 11.6187 69.452 11.6187Z" fill="#B752E3"/>
<path d="M82.632 77.3652C82.4975 77.3303 82.36 77.3087 82.2213 77.3007C81.2965 77.2288 80.3721 77.1491 79.4461 77.1004C79.3576 77.105 79.2703 77.0783 79.1995 77.0249C79.1286 76.9716 79.0788 76.8951 79.0588 76.8087C78.6903 75.8643 78.3121 74.9236 77.9356 73.9823C77.8875 73.8363 77.7936 73.7098 77.6678 73.6216C77.542 73.5333 77.3911 73.488 77.2375 73.4924C77.0843 73.4869 76.933 73.5279 76.8034 73.6099C76.6739 73.692 76.5722 73.8112 76.5117 73.9521C76.4727 74.0292 76.4439 74.1115 76.411 74.1916C76.0515 75.0654 75.6905 75.9387 75.3344 76.8139C75.2821 76.9423 75.2323 77.0311 75.0652 77.0407C74.0089 77.1021 72.9534 77.1765 71.8976 77.2456C71.7145 77.2577 71.5422 77.3365 71.4133 77.467C71.2844 77.5976 71.2079 77.7709 71.1981 77.9541C71.1984 78.1238 71.2427 78.2906 71.3265 78.4382C71.4103 78.5858 71.531 78.7093 71.6766 78.7965C72.3953 79.3997 73.1103 80.0072 73.8294 80.61C73.882 80.6462 73.921 80.6991 73.9399 80.7602C73.9589 80.8212 73.9567 80.8869 73.9338 80.9465C73.6683 81.9591 73.4157 82.9751 73.1608 83.9904C73.1333 84.0869 73.1256 84.1879 73.1381 84.2874C73.1505 84.3869 73.1829 84.4828 73.2333 84.5695C73.2837 84.6562 73.3511 84.7319 73.4314 84.7919C73.5117 84.852 73.6033 84.8952 73.7007 84.9191C73.8287 84.9447 73.9606 84.9436 74.0882 84.9159C74.2158 84.8881 74.3363 84.8343 74.4421 84.7577C75.2515 84.251 76.0685 83.7561 76.8738 83.2428C76.9417 83.1861 77.0272 83.1547 77.1157 83.1539C77.2041 83.1531 77.2901 83.183 77.359 83.2385C78.1968 83.7816 79.0449 84.3087 79.8906 84.8396C80.0227 84.9408 80.1839 84.997 80.3503 84.9998C80.5167 85.0027 80.6797 84.952 80.8152 84.8554C80.9507 84.7587 81.0516 84.6211 81.1031 84.4628C81.1546 84.3045 81.1539 84.1339 81.1012 83.976C80.8707 83.0436 80.6519 82.1082 80.4083 81.1792C80.3682 81.0767 80.3649 80.9636 80.3988 80.8589C80.4326 80.7543 80.5017 80.6646 80.5942 80.605C81.36 79.991 82.1092 79.3562 82.8662 78.731C82.9624 78.6675 83.041 78.5808 83.0948 78.4789C83.1486 78.377 83.1758 78.2631 83.174 78.1479C83.1864 77.9752 83.1394 77.8034 83.0409 77.6611C82.9423 77.5187 82.798 77.4143 82.632 77.3652Z" fill="url(#paint0_linear)"/>
<path d="M67.0331 77.3652C66.8986 77.3303 66.761 77.3087 66.6223 77.3007C65.6977 77.2288 64.7732 77.1491 63.8472 77.1004C63.7587 77.105 63.6714 77.0783 63.6006 77.0249C63.5297 76.9716 63.4799 76.8951 63.4599 76.8087C63.0915 75.8643 62.7133 74.9236 62.3367 73.9823C62.2886 73.8364 62.1947 73.7099 62.0689 73.6216C61.9431 73.5333 61.7922 73.488 61.6386 73.4924C61.4854 73.4869 61.3341 73.5279 61.2045 73.6099C61.075 73.6919 60.9733 73.8112 60.9128 73.9521C60.8738 74.0292 60.845 74.1115 60.8121 74.1916C60.4526 75.0654 60.0916 75.9387 59.7355 76.8139C59.6832 76.9423 59.6334 77.0311 59.4662 77.0407C58.41 77.1021 57.3545 77.1765 56.2987 77.2456C56.1156 77.2577 55.9433 77.3365 55.8144 77.467C55.6855 77.5976 55.609 77.7709 55.5992 77.9541C55.5995 78.1238 55.6438 78.2906 55.7276 78.4382C55.8115 78.5859 55.9321 78.7093 56.0777 78.7965C56.7964 79.3997 57.5115 80.0072 58.2305 80.61C58.2832 80.6462 58.3221 80.6991 58.3411 80.7602C58.36 80.8212 58.3578 80.8869 58.3349 80.9465C58.0694 81.9591 57.8169 82.9751 57.5619 83.9904C57.5344 84.0869 57.5267 84.1879 57.5392 84.2874C57.5516 84.3869 57.584 84.4828 57.6344 84.5695C57.6848 84.6562 57.7522 84.7318 57.8325 84.7919C57.9128 84.852 58.0043 84.8952 58.1017 84.9191C58.2298 84.9448 58.3617 84.9437 58.4893 84.9159C58.6169 84.8881 58.7374 84.8343 58.8432 84.7577C59.6527 84.251 60.4696 83.7561 61.275 83.2428C61.3428 83.1861 61.4283 83.1547 61.5167 83.1539C61.6052 83.1531 61.6912 83.183 61.7601 83.2385C62.5979 83.7816 63.446 84.3087 64.2917 84.8396C64.4239 84.9408 64.585 84.997 64.7514 84.9998C64.9179 85.0027 65.0808 84.952 65.2163 84.8554C65.3518 84.7587 65.4527 84.6211 65.5042 84.4628C65.5557 84.3045 65.555 84.1339 65.5023 83.976C65.2719 83.0436 65.053 82.1082 64.8093 81.1792C64.7693 81.0767 64.766 80.9636 64.7998 80.8589C64.8337 80.7543 64.9028 80.6646 64.9953 80.605C65.7611 79.991 66.5104 79.3562 67.2673 78.7311C67.3635 78.6675 67.4421 78.5808 67.4959 78.4789C67.5497 78.377 67.5769 78.2631 67.5751 78.1479C67.5875 77.9752 67.5405 77.8034 67.442 77.6611C67.3434 77.5187 67.1991 77.4143 67.0331 77.3652Z" fill="url(#paint1_linear)"/>
<path d="M51.434 77.3652C51.2995 77.3303 51.162 77.3087 51.0233 77.3007C50.0986 77.2288 49.1741 77.1491 48.2482 77.1004C48.1596 77.105 48.0723 77.0783 48.0015 77.0249C47.9306 76.9716 47.8808 76.8951 47.8607 76.8087C47.4924 75.8643 47.1142 74.9236 46.7377 73.9823C46.6895 73.8363 46.5956 73.7098 46.4698 73.6216C46.344 73.5333 46.1931 73.488 46.0395 73.4924C45.8862 73.4869 45.7349 73.5279 45.6054 73.6099C45.4759 73.692 45.3741 73.8112 45.3136 73.9521C45.2746 74.0292 45.246 74.1115 45.213 74.1916C44.8535 75.0654 44.4925 75.9387 44.1364 76.8139C44.0841 76.9423 44.0343 77.0311 43.8671 77.0407C42.8109 77.1021 41.7554 77.1765 40.6996 77.2456C40.5165 77.2577 40.3442 77.3365 40.2153 77.467C40.0864 77.5976 40.0099 77.7709 40.0001 77.9541C40.0004 78.1238 40.0447 78.2906 40.1285 78.4382C40.2124 78.5859 40.333 78.7093 40.4787 78.7965C41.1973 79.3997 41.9124 80.0072 42.6314 80.61C42.6841 80.6462 42.723 80.6991 42.742 80.7602C42.7609 80.8212 42.7588 80.8869 42.7358 80.9465C42.4704 81.9591 42.2177 82.9751 41.9628 83.9904C41.9354 84.0869 41.9276 84.1879 41.9401 84.2874C41.9526 84.3869 41.985 84.4828 42.0354 84.5695C42.0858 84.6562 42.1531 84.7318 42.2334 84.7919C42.3137 84.852 42.4053 84.8952 42.5027 84.9191C42.6307 84.9447 42.7627 84.9436 42.8902 84.9159C43.0178 84.8881 43.1383 84.8343 43.2441 84.7577C44.0536 84.251 44.8706 83.7561 45.6759 83.2428C45.7438 83.1861 45.8292 83.1547 45.9177 83.1539C46.0061 83.1531 46.0921 83.183 46.161 83.2385C46.9988 83.7816 47.847 84.3087 48.6926 84.8396C48.8247 84.9408 48.9859 84.997 49.1523 84.9998C49.3187 85.0027 49.4817 84.9521 49.6172 84.8554C49.7527 84.7587 49.8537 84.6211 49.9051 84.4628C49.9566 84.3045 49.956 84.1339 49.9033 83.976C49.6728 83.0436 49.454 82.1082 49.2103 81.1792C49.1702 81.0767 49.1669 80.9636 49.2008 80.8589C49.2347 80.7543 49.3037 80.6646 49.3962 80.605C50.1621 79.991 50.9113 79.3562 51.6682 78.731C51.7644 78.6676 51.843 78.5808 51.8968 78.4789C51.9506 78.377 51.9778 78.2631 51.976 78.1479C51.9884 77.9752 51.9414 77.8034 51.8429 77.6611C51.7443 77.5187 51.6 77.4143 51.434 77.3652Z" fill="url(#paint2_linear)"/>
<path d="M98.2307 77.3652C98.0963 77.3303 97.9587 77.3087 97.82 77.3007C96.8953 77.2288 95.9709 77.1491 95.0449 77.1004C94.9564 77.105 94.869 77.0783 94.7982 77.0249C94.7274 76.9716 94.6776 76.8951 94.6575 76.8087C94.2891 75.8643 93.9109 74.9236 93.5344 73.9823C93.4863 73.8363 93.3924 73.7098 93.2666 73.6216C93.1408 73.5333 92.9899 73.488 92.8363 73.4924C92.683 73.4869 92.5317 73.5279 92.4022 73.6099C92.2727 73.692 92.1709 73.8112 92.1104 73.9521C92.0714 74.0292 92.0428 74.1115 92.0097 74.1916C91.6502 75.0654 91.2893 75.9387 90.9331 76.8139C90.8808 76.9423 90.831 77.0311 90.6639 77.0407C89.6077 77.1021 88.5522 77.1765 87.4963 77.2456C87.3133 77.2577 87.141 77.3365 87.0121 77.467C86.8832 77.5976 86.8066 77.7709 86.7969 77.9541C86.7972 78.1238 86.8414 78.2906 86.9253 78.4382C87.0091 78.5858 87.1297 78.7093 87.2754 78.7965C87.9941 79.3997 88.7092 80.0072 89.4281 80.61C89.4808 80.6462 89.5198 80.6991 89.5387 80.7602C89.5577 80.8212 89.5555 80.8869 89.5325 80.9465C89.2671 81.9591 89.0145 82.9751 88.7595 83.9904C88.7321 84.0869 88.7244 84.1879 88.7368 84.2874C88.7493 84.3869 88.7817 84.4828 88.8321 84.5695C88.8825 84.6562 88.9499 84.7318 89.0302 84.7919C89.1104 84.852 89.202 84.8952 89.2994 84.9191C89.4275 84.9448 89.5594 84.9437 89.687 84.9159C89.8146 84.8881 89.9351 84.8343 90.0409 84.7577C90.8503 84.251 91.6673 83.7561 92.4726 83.2428C92.5405 83.1861 92.626 83.1547 92.7144 83.1539C92.8029 83.1531 92.8889 83.183 92.9578 83.2385C93.7956 83.7816 94.6437 84.3087 95.4894 84.8396C95.6215 84.9408 95.7826 84.997 95.9491 84.9998C96.1155 85.0027 96.2784 84.952 96.4139 84.8554C96.5495 84.7587 96.6504 84.6211 96.7019 84.4628C96.7534 84.3045 96.7527 84.1339 96.7 83.976C96.4695 83.0436 96.2507 82.1082 96.007 81.1792C95.967 81.0767 95.9637 80.9636 95.9975 80.8589C96.0314 80.7543 96.1005 80.6646 96.1929 80.605C96.9588 79.991 97.708 79.3562 98.465 78.731C98.5612 78.6675 98.6398 78.5808 98.6936 78.4789C98.7474 78.377 98.7746 78.2631 98.7728 78.1479C98.7852 77.9752 98.7382 77.8034 98.6396 77.6611C98.541 77.5187 98.3968 77.4143 98.2307 77.3652Z" fill="url(#paint3_linear)"/>
<path d="M52.6746 51.4296H57.3877C57.6193 51.4296 57.8415 51.5216 58.0052 51.6854C58.169 51.8491 58.261 52.0713 58.261 52.3029V67.17C58.261 67.2846 58.2384 67.3982 58.1945 67.5042C58.1507 67.6101 58.0863 67.7064 58.0052 67.7875C57.9241 67.8686 57.8278 67.933 57.7219 67.9768C57.6159 68.0207 57.5023 68.0433 57.3876 68.0433H52.6747C52.4431 68.0433 52.2209 67.9513 52.0571 67.7875C51.8933 67.6237 51.8013 67.4015 51.8013 67.1699V52.3029C51.8013 52.0713 51.8933 51.8492 52.0571 51.6854C52.2209 51.5216 52.443 51.4296 52.6746 51.4296Z" fill="url(#paint4_linear)"/>
<path d="M83.9548 46.5558H75.2124L75.2337 46.4854L75.5989 45.3111L75.9543 44.1696L77.0173 40.7516L77.5348 39.0843C77.5623 38.9982 77.5852 38.9108 77.6035 38.8223V38.819C77.6531 38.5992 77.6778 38.3745 77.6772 38.1492C77.6774 37.9652 77.6609 37.7816 77.6281 37.6005C77.5141 36.9552 77.2016 36.3615 76.7341 35.9022C76.2666 35.443 75.6674 35.1411 75.0201 35.0387C74.3728 34.9363 73.7097 35.0384 73.1232 35.3309C72.5367 35.6234 72.0562 36.0916 71.7486 36.6702L63.242 50.0344C62.529 51.2092 61.5409 52.1929 60.3628 52.9005L60.3579 52.9021C60.1798 53.0022 60.0315 53.1477 59.9279 53.3238C59.8244 53.4998 59.7693 53.7002 59.7683 53.9044V66.887C59.768 67.1286 59.8442 67.3641 59.9861 67.5597C60.128 67.7552 60.3283 67.9008 60.5581 67.9754C60.5841 67.9838 60.6106 67.9913 60.6374 67.9979C60.716 68.0171 64.6861 68.7509 64.6861 68.7509L67.0971 69.0249C67.9404 69.1207 68.7886 69.1687 69.6374 69.1687H80.1914C80.9766 69.1687 81.7378 68.8981 82.3468 68.4024C82.9557 67.9067 83.3752 67.2163 83.5346 66.4474L86.9716 49.8641C86.9777 49.0341 86.6704 48.2324 86.1111 47.6191C85.5519 47.0058 84.7818 46.6261 83.9548 46.5558Z" fill="url(#paint5_linear)"/>
<path d="M54.7836 119.296C53.6184 118.999 52.4564 118.667 51.3105 118.301L52.7895 113.903C53.8013 114.224 54.8276 114.518 55.8568 114.78L54.7836 119.296ZM44.4827 115.656C43.3898 115.154 42.3065 114.617 41.246 114.052L43.4939 109.991C44.4327 110.49 45.3899 110.964 46.355 111.408L44.4827 115.656ZM35.0079 110.22C34.0249 109.531 33.0568 108.807 32.1135 108.061L35.0532 104.469C35.8883 105.129 36.7453 105.768 37.6134 106.379L35.0079 110.22ZM115.423 92.8586C116.037 91.9905 116.629 91.1007 117.194 90.2001L121.168 92.5961C120.532 93.6153 119.863 94.6217 119.166 95.6014L115.423 92.8586ZM120.485 84.1332C120.933 83.1693 121.356 82.1874 121.748 81.2029L126.09 82.8415C125.648 83.9595 125.168 85.07 124.66 86.1619L120.485 84.1332ZM123.888 74.6453C124.154 73.6175 124.392 72.5774 124.599 71.534L129.167 72.3619C128.934 73.5418 128.664 74.7209 128.362 75.8833L123.888 74.6453ZM125.522 64.6963C125.599 63.638 125.646 62.5707 125.663 61.5053H130.306C130.287 62.708 130.234 63.914 130.146 65.1091L125.522 64.6963ZM125.525 56.496C125.448 55.4351 125.342 54.3726 125.205 53.3203L129.798 52.6475C129.953 53.8383 130.073 55.0401 130.159 56.2391L125.525 56.496ZM9.60364 53.1782C9.74962 51.9845 9.93124 50.7897 10.1473 49.6087L14.6986 50.5145C14.5093 51.5575 14.3495 52.6129 14.2195 53.6686L9.60364 53.1782ZM123.897 46.5471C123.632 45.5186 123.335 44.4931 123.012 43.4821L127.408 41.9916C127.775 43.1346 128.11 44.2962 128.41 45.4612L123.897 46.5471ZM11.8998 42.501C12.2588 41.3517 12.6531 40.2102 13.0792 39.0866L17.3927 40.8001C17.0169 41.7932 16.6687 42.8023 16.3509 43.8155L11.8998 42.501ZM120.502 37.058C120.055 36.0948 119.579 35.1397 119.077 34.2041L123.13 31.9438C123.7 33.0026 124.24 34.0836 124.744 35.1729L120.502 37.058ZM16.0889 32.4111C16.6498 31.3476 17.2439 30.2945 17.8659 29.2656L21.7997 31.7294C21.2508 32.6386 20.7256 33.5694 20.2294 34.5084L16.0889 32.4111ZM115.449 28.3333C114.837 27.4663 114.195 26.6112 113.532 25.7793L117.116 22.8299C117.866 23.77 118.59 24.7362 119.283 25.7177L115.449 28.3333ZM22.0257 23.2427C22.7652 22.2992 23.538 21.3703 24.3355 20.4686L27.7665 23.594C27.0628 24.3924 26.3783 25.2143 25.7224 26.0492L22.0257 23.2427ZM108.912 20.6513C108.153 19.9077 107.37 19.1809 106.57 18.4802L109.57 14.9387C110.476 15.73 111.361 16.5508 112.218 17.3928L108.912 20.6513ZM29.5033 15.2866C30.4031 14.4875 31.3293 13.7122 32.2724 12.969L35.089 16.6586C34.2542 17.3164 33.4349 18.0025 32.6406 18.7074L29.5033 15.2866ZM101.109 14.2607C100.228 13.6626 99.3277 13.0879 98.4158 12.5424L100.733 8.52162C101.765 9.1373 102.785 9.78692 103.778 10.4638L101.109 14.2607ZM38.2836 8.79347C39.309 8.16847 40.3601 7.5722 41.4225 7.00983L43.5304 11.1436C42.5939 11.6414 41.6662 12.1702 40.7571 12.7214L38.2836 8.79347ZM48.0865 3.98293C49.2097 3.55222 50.3508 3.15467 51.4962 2.79297L52.8236 7.24066C51.812 7.56063 50.8041 7.91305 49.8115 8.29044L48.0865 3.98293Z" fill="#B752E3"/>
<path d="M70.9148 129.244C88.6949 129.008 105.374 121.973 117.971 109.375C130.568 96.7773 137.604 80.0984 137.841 62.3209H139.078C138.841 80.4295 131.678 97.4179 118.846 110.251C106.014 123.083 89.0241 130.246 70.9148 130.481V129.244Z" fill="#B752E3"/>
<path d="M0.00012207 59.3153C0.122432 49.8418 2.12999 40.6868 5.97137 32.0882C9.67608 23.7924 14.9002 16.414 21.5039 10.142L22.3443 11.0511C15.864 17.2083 10.7385 24.451 7.10054 32.5928C3.3308 41.0314 1.36013 50.0171 1.23762 59.3153H0.00012207Z" fill="#B752E3"/>
<path d="M72.7964 118.698C73.9399 118.64 75.0717 118.548 76.1809 118.426L76.478 120.783C75.2874 120.916 74.0822 121.014 72.8822 121.075L72.7964 118.698Z" fill="#B752E3"/>
<path d="M65.5663 121.015C64.3647 120.932 63.1624 120.814 61.9747 120.663L62.3122 118.31C63.4391 118.453 64.5704 118.567 65.6908 118.644L65.5663 121.015Z" fill="#B752E3"/>
<path d="M83.1785 117.207C84.2802 116.946 85.3784 116.651 86.4575 116.328L87.1798 118.605C86.0288 118.95 84.8607 119.263 83.6912 119.539L83.1785 117.207Z" fill="#B752E3"/>
<path d="M93.1193 113.869C94.1422 113.415 95.1667 112.925 96.1809 112.405L97.3099 114.529C96.2415 115.076 95.1503 115.595 94.0491 116.077L93.1193 113.869Z" fill="#B752E3"/>
<path d="M102.286 108.778C103.222 108.142 104.142 107.476 105.035 106.791L106.54 108.695C105.586 109.426 104.605 110.132 103.611 110.805L102.286 108.778Z" fill="#B752E3"/>
<path d="M110.391 102.131C111.188 101.346 111.973 100.527 112.737 99.682L114.578 101.305C113.769 102.194 112.931 103.065 112.073 103.904L110.391 102.131Z" fill="#B752E3"/>
<path d="M26.6644 103.176C25.8203 102.321 24.9959 101.437 24.2026 100.534L26.0582 98.9545C26.8025 99.8043 27.5743 100.637 28.3644 101.441L26.6644 103.176Z" fill="#B752E3"/>
<path d="M19.7122 94.7545C19.0329 93.7641 18.38 92.746 17.7618 91.7172L19.893 90.4821C20.4671 91.4419 21.0772 92.3974 21.7164 93.3386L19.7122 94.7545Z" fill="#B752E3"/>
<path d="M14.3811 85.2261C13.892 84.1275 13.4331 83.0099 13.0099 81.8848L15.3631 81.0424C15.7573 82.0996 16.1833 83.1474 16.6374 84.1763L14.3811 85.2261Z" fill="#B752E3"/>
<path d="M10.8566 74.8881C10.5736 73.7198 10.3245 72.538 10.1121 71.3536L12.6136 70.9457C12.8107 72.0607 13.0397 73.1697 13.297 74.2564L10.8566 74.8881Z" fill="#B752E3"/>
<path d="M9.25639 64.0868C9.18926 62.9184 9.1557 61.7426 9.1557 60.5769C9.1557 60.5452 9.1557 60.5131 9.1557 60.4814L11.7236 60.5232C11.7236 60.6108 11.7226 60.6981 11.7226 60.7854C11.7226 61.8015 11.7517 62.8457 11.8088 63.9026L9.25639 64.0868Z" fill="#B752E3"/>
<path d="M93.0654 7.68191C92.0442 7.23444 91.0032 6.81042 89.9507 6.41963L90.8832 3.79395C92.0097 4.21422 93.1296 4.67028 94.2298 5.15582L93.0654 7.68191Z" fill="#B752E3"/>
<path d="M83.1895 4.36217C82.1096 4.1056 81.0095 3.87812 79.8999 3.68272L80.3444 0.925415C81.5271 1.13571 82.7113 1.38185 83.8787 1.66042L83.1895 4.36217Z" fill="#B752E3"/>
<path d="M58.5991 1.02178C59.7803 0.802513 60.9742 0.616813 62.1656 0.468384L62.4688 3.24059C61.3544 3.38008 60.2433 3.55085 59.1493 3.75113L58.5991 1.02178Z" fill="#B752E3"/>
<path d="M72.8801 2.87592C71.8097 2.81734 70.7508 2.78828 69.7203 2.78828C69.6554 2.78828 69.5881 2.78828 69.5232 2.78828L69.4702 0.000381925C69.5506 6.33477e-08 69.6317 0 69.7134 0C70.8356 0 71.962 0.0302053 73.0748 0.0898902L72.8801 2.87592Z" fill="#B752E3"/>
<defs>
<linearGradient id="paint0_linear" x1="63.5292" y1="70.1268" x2="85.0424" y2="103.972" gradientUnits="userSpaceOnUse">
<stop stop-color="#D275F9"/>
<stop offset="1" stop-color="#8D1EC2"/>
</linearGradient>
<linearGradient id="paint1_linear" x1="47.9303" y1="70.1267" x2="69.4436" y2="103.972" gradientUnits="userSpaceOnUse">
<stop stop-color="#D275F9"/>
<stop offset="1" stop-color="#8D1EC2"/>
</linearGradient>
<linearGradient id="paint2_linear" x1="32.3312" y1="70.1267" x2="53.8445" y2="103.972" gradientUnits="userSpaceOnUse">
<stop stop-color="#D275F9"/>
<stop offset="1" stop-color="#8D1EC2"/>
</linearGradient>
<linearGradient id="paint3_linear" x1="79.128" y1="70.1267" x2="100.641" y2="103.972" gradientUnits="userSpaceOnUse">
<stop stop-color="#D275F9"/>
<stop offset="1" stop-color="#8D1EC2"/>
</linearGradient>
<linearGradient id="paint4_linear" x1="47.6654" y1="46.5713" x2="77.633" y2="64.1835" gradientUnits="userSpaceOnUse">
<stop stop-color="#D275F9"/>
<stop offset="1" stop-color="#8D1EC2"/>
</linearGradient>
<linearGradient id="paint5_linear" x1="42.3511" y1="25.0083" x2="111.705" y2="108.468" gradientUnits="userSpaceOnUse">
<stop stop-color="#D275F9"/>
<stop offset="1" stop-color="#8D1EC2"/>
</linearGradient>
</defs>
</svg>
