<svg width="1280" height="169" viewBox="0 0 1280 169" fill="none" xmlns="http://www.w3.org/2000/svg">
<g opacity="0.6">
<path opacity="0.6" d="M586.239 0.496582L582.991 0.496582L582.991 167.999H586.239L586.239 0.496582Z" fill="#C9AFD6"/>
<path opacity="0.6" d="M596.513 95.7827H593.269V167.756H596.513V95.7827Z" fill="#C9AFD6"/>
<path opacity="0.6" d="M606.789 44.6294H603.542L603.542 168.496H606.789L606.789 44.6294Z" fill="#C9AFD6"/>
<path opacity="0.6" d="M617.063 73.7163H613.82V167.929H617.063V73.7163Z" fill="#C9AFD6"/>
<path opacity="0.6" d="M627.339 0.496582L624.095 0.496582L624.095 167.999H627.339L627.339 0.496582Z" fill="#C9AFD6"/>
<path opacity="0.6" d="M637.617 44.6294H634.37L634.37 168.496H637.617L637.617 44.6294Z" fill="#C9AFD6"/>
<path opacity="0.6" d="M647.89 95.7827H644.646V167.756H647.89V95.7827Z" fill="#C9AFD6"/>
<path opacity="0.6" d="M658.167 20.5571H654.923L654.923 168.21H658.167L658.167 20.5571Z" fill="#C9AFD6"/>
<path opacity="0.6" d="M668.444 119.854H665.197V168.35H668.444V119.854Z" fill="#C9AFD6"/>
<path opacity="0.6" d="M678.717 95.7827H675.475V167.756H678.717V95.7827Z" fill="#C9AFD6"/>
<path opacity="0.6" d="M688.994 138.912H685.748V168.469H688.994V138.912Z" fill="#C9AFD6"/>
<path opacity="0.6" d="M699.269 30.5869H696.025L696.025 167.736H699.269L699.269 30.5869Z" fill="#C9AFD6"/>
<path opacity="0.6" d="M709.545 65.6924H706.301V168.04H709.545V65.6924Z" fill="#C9AFD6"/>
<path opacity="0.6" d="M719.823 0.496582L716.575 0.496582L716.575 167.999H719.823L719.823 0.496582Z" fill="#C9AFD6"/>
<path opacity="0.6" d="M730.096 20.5571H726.853L726.853 168.21H730.096L730.096 20.5571Z" fill="#C9AFD6"/>
<path opacity="0.6" d="M740.373 0.496582L737.125 0.496582L737.125 167.999H740.373L740.373 0.496582Z" fill="#C9AFD6"/>
<path opacity="0.6" d="M750.647 37.6079H747.403L747.403 168.271H750.647L750.647 37.6079Z" fill="#C9AFD6"/>
<path opacity="0.6" d="M760.922 12.5327H757.679L757.679 168.217H760.922L760.922 12.5327Z" fill="#C9AFD6"/>
<path opacity="0.6" d="M771.2 12.5327H767.953L767.953 168.217H771.2L771.2 12.5327Z" fill="#C9AFD6"/>
<path opacity="0.6" d="M781.474 65.6924H778.231V168.04H781.474V65.6924Z" fill="#C9AFD6"/>
<path opacity="0.6" d="M791.751 140.917H788.507V168.389H791.751V140.917Z" fill="#C9AFD6"/>
<path opacity="0.6" d="M802.028 37.6079H798.781L798.781 168.271H802.028L802.028 37.6079Z" fill="#C9AFD6"/>
<path opacity="0.6" d="M812.301 119.854H809.057V168.35H812.301V119.854Z" fill="#C9AFD6"/>
<path opacity="0.6" d="M822.578 65.6924H819.332V168.04H822.578V65.6924Z" fill="#C9AFD6"/>
<path opacity="0.6" d="M832.855 73.7163H829.608V167.929H832.855V73.7163Z" fill="#C9AFD6"/>
<path opacity="0.6" d="M843.128 30.5869H839.884L839.884 167.736H843.128L843.128 30.5869Z" fill="#C9AFD6"/>
<path opacity="0.6" d="M853.406 37.6079H850.158L850.158 168.271H853.406L853.406 37.6079Z" fill="#C9AFD6"/>
<path opacity="0.6" d="M551.874 167.999H555.121V0.496292H551.874V167.999Z" fill="#C9AFD6"/>
<path opacity="0.6" d="M541.6 167.999H544.844V96.0262H541.6V167.999Z" fill="#C9AFD6"/>
<path opacity="0.6" d="M531.325 167.999H534.572V44.1323H531.325V167.999Z" fill="#C9AFD6"/>
<path opacity="0.6" d="M521.051 167.999H524.294V73.7863H521.051V167.999Z" fill="#C9AFD6"/>
<path opacity="0.6" d="M510.774 167.999H514.018V0.496292H510.774L510.774 167.999Z" fill="#C9AFD6"/>
<path opacity="0.6" d="M500.497 167.999H503.744V44.1323H500.497V167.999Z" fill="#C9AFD6"/>
<path opacity="0.6" d="M490.222 167.999H493.466V96.0262H490.222V167.999Z" fill="#C9AFD6"/>
<path opacity="0.6" d="M479.947 167.999H483.19V20.3465H479.947V167.999Z" fill="#C9AFD6"/>
<path opacity="0.6" d="M469.669 167.999H472.916V119.503H469.669V167.999Z" fill="#C9AFD6"/>
<path opacity="0.6" d="M459.396 167.999H462.638V96.0262H459.396V167.999Z" fill="#C9AFD6"/>
<path opacity="0.6" d="M449.118 167.999H452.365V138.442H449.118V167.999Z" fill="#C9AFD6"/>
<path opacity="0.6" d="M438.844 167.999H442.089V30.85H438.844V167.999Z" fill="#C9AFD6"/>
<path opacity="0.6" d="M428.569 167.999H431.813V65.6514H428.569V167.999Z" fill="#C9AFD6"/>
<path opacity="0.6" d="M418.291 167.999H421.538L421.538 0.496277H418.291L418.291 167.999Z" fill="#C9AFD6"/>
<path opacity="0.6" d="M408.019 167.999H411.261V20.3465H408.019V167.999Z" fill="#C9AFD6"/>
<path opacity="0.6" d="M397.741 167.999H400.988L400.988 0.496277H397.741L397.741 167.999Z" fill="#C9AFD6"/>
<path opacity="0.6" d="M387.467 167.999H390.71V37.3362H387.467V167.999Z" fill="#C9AFD6"/>
<path opacity="0.6" d="M377.19 167.999H380.434L380.434 12.315H377.19V167.999Z" fill="#C9AFD6"/>
<path opacity="0.6" d="M366.913 167.999H370.16L370.16 12.315H366.913V167.999Z" fill="#C9AFD6"/>
<path opacity="0.6" d="M356.638 167.999H359.882V65.6514H356.638V167.999Z" fill="#C9AFD6"/>
<path opacity="0.6" d="M346.362 167.999H349.606V140.527H346.362V167.999Z" fill="#C9AFD6"/>
<path opacity="0.6" d="M336.085 167.999H339.333V37.3362H336.085V167.999Z" fill="#C9AFD6"/>
<path opacity="0.6" d="M325.813 167.999H329.057V119.503H325.813V167.999Z" fill="#C9AFD6"/>
<path opacity="0.6" d="M315.535 167.999H318.782V65.6514H315.535V167.999Z" fill="#C9AFD6"/>
<path opacity="0.6" d="M305.259 167.999H308.505V73.7863H305.259V167.999Z" fill="#C9AFD6"/>
<path opacity="0.6" d="M294.985 167.999H298.229V30.85H294.985V167.999Z" fill="#C9AFD6"/>
<path opacity="0.6" d="M284.707 167.999H287.954V37.3362H284.707V167.999Z" fill="#C9AFD6"/>
<path opacity="0.6" d="M3.24705 0.496094L0 0.496094L0 167.999H3.24705L3.24705 0.496094Z" fill="#C9AFD6"/>
<path opacity="0.6" d="M13.5209 95.7822H10.2779L10.2779 167.755H13.5209L13.5209 95.7822Z" fill="#C9AFD6"/>
<path opacity="0.6" d="M23.797 44.6289H20.5508L20.5508 168.496H23.797L23.797 44.6289Z" fill="#C9AFD6"/>
<path opacity="0.6" d="M34.0718 73.7163H30.8277L30.8277 167.93H34.0718L34.0718 73.7163Z" fill="#C9AFD6"/>
<path opacity="0.6" d="M44.3477 0.496582L41.1036 0.496582L41.1036 167.999H44.3477L44.3477 0.496582Z" fill="#C9AFD6"/>
<path opacity="0.6" d="M54.6256 44.6289H51.3775L51.3775 168.496H54.6256L54.6256 44.6289Z" fill="#C9AFD6"/>
<path opacity="0.6" d="M64.8995 95.7822H61.6554L61.6554 167.755H64.8995L64.8995 95.7822Z" fill="#C9AFD6"/>
<path opacity="0.6" d="M75.1753 20.5566H71.9313L71.9313 168.209H75.1753L75.1753 20.5566Z" fill="#C9AFD6"/>
<path opacity="0.6" d="M85.4522 119.854H82.2062L82.2062 168.351H85.4522L85.4522 119.854Z" fill="#C9AFD6"/>
<path opacity="0.6" d="M95.7252 95.7822H92.4831L92.4831 167.755H95.7252L95.7252 95.7822Z" fill="#C9AFD6"/>
<path opacity="0.6" d="M106.003 138.912H102.756L102.756 168.468H106.003L106.003 138.912Z" fill="#C9AFD6"/>
<path opacity="0.6" d="M116.277 30.5869H113.034L113.034 167.736H116.277L116.277 30.5869Z" fill="#C9AFD6"/>
<path opacity="0.6" d="M126.553 65.6919H123.31L123.31 168.04H126.553L126.553 65.6919Z" fill="#C9AFD6"/>
<path opacity="0.6" d="M136.831 0.496582L133.584 0.496582L133.584 167.999H136.831L136.831 0.496582Z" fill="#C9AFD6"/>
<path opacity="0.6" d="M147.104 20.5566H143.861L143.861 168.209H147.104L147.104 20.5566Z" fill="#C9AFD6"/>
<path opacity="0.6" d="M157.381 0.496582L154.134 0.496582L154.134 167.999H157.381L157.381 0.496582Z" fill="#C9AFD6"/>
<path opacity="0.6" d="M167.655 37.6079H164.411L164.411 168.271H167.655L167.655 37.6079Z" fill="#C9AFD6"/>
<path opacity="0.6" d="M177.931 12.5327H174.687L174.687 168.217H177.931L177.931 12.5327Z" fill="#C9AFD6"/>
<path opacity="0.6" d="M188.209 12.5327H184.961L184.961 168.217H188.209L188.209 12.5327Z" fill="#C9AFD6"/>
<path opacity="0.6" d="M198.483 65.6919H195.239L195.239 168.04H198.483L198.483 65.6919Z" fill="#C9AFD6"/>
<path opacity="0.6" d="M208.759 140.917H205.515V168.389H208.759V140.917Z" fill="#C9AFD6"/>
<path opacity="0.6" d="M219.036 37.6079H215.79L215.79 168.271H219.036L219.036 37.6079Z" fill="#C9AFD6"/>
<path opacity="0.6" d="M229.309 119.854H226.066L226.066 168.35H229.309L229.309 119.854Z" fill="#C9AFD6"/>
<path opacity="0.6" d="M239.587 65.6919H236.34L236.34 168.04H239.587L239.587 65.6919Z" fill="#C9AFD6"/>
<path opacity="0.6" d="M249.863 73.7163H246.618L246.618 167.929H249.863L249.863 73.7163Z" fill="#C9AFD6"/>
<path opacity="0.6" d="M260.138 30.5869H256.893L256.893 167.736H260.138L260.138 30.5869Z" fill="#C9AFD6"/>
<path opacity="0.6" d="M270.414 37.6079H267.167L267.167 168.271H270.414L270.414 37.6079Z" fill="#C9AFD6"/>
<path opacity="0.6" d="M1276.76 167.999H1280V20.3465H1276.76V167.999Z" fill="#C9AFD6"/>
<path opacity="0.6" d="M1266.48 167.999H1269.73V0.496277H1266.48V167.999Z" fill="#C9AFD6"/>
<path opacity="0.6" d="M1256.21 167.999H1259.45V37.3362H1256.21V167.999Z" fill="#C9AFD6"/>
<path opacity="0.6" d="M1245.93 167.999H1249.17V12.315H1245.93V167.999Z" fill="#C9AFD6"/>
<path opacity="0.6" d="M1235.65 167.999H1238.9V12.315H1235.65V167.999Z" fill="#C9AFD6"/>
<path opacity="0.6" d="M1225.38 167.999H1228.62V65.6514H1225.38V167.999Z" fill="#C9AFD6"/>
<path opacity="0.6" d="M1215.1 167.999H1218.35V140.527H1215.1V167.999Z" fill="#C9AFD6"/>
<path opacity="0.6" d="M1204.82 167.999H1208.07V37.3362H1204.82V167.999Z" fill="#C9AFD6"/>
<path opacity="0.6" d="M1194.55 167.999H1197.8V119.503H1194.55V167.999Z" fill="#C9AFD6"/>
<path opacity="0.6" d="M1184.27 167.999H1187.52V65.6514H1184.27V167.999Z" fill="#C9AFD6"/>
<path opacity="0.6" d="M1174 167.999H1177.24V73.7863H1174V167.999Z" fill="#C9AFD6"/>
<path opacity="0.6" d="M1163.72 167.999H1166.97V30.85H1163.72V167.999Z" fill="#C9AFD6"/>
<path opacity="0.6" d="M1153.45 167.999H1156.69V37.3362H1153.45V167.999Z" fill="#C9AFD6"/>
<path opacity="0.6" d="M871.986 0.496582L868.739 0.496582L868.739 167.999H871.986L871.986 0.496582Z" fill="#C9AFD6"/>
<path opacity="0.6" d="M882.26 95.7822H879.017V167.755H882.26V95.7822Z" fill="#C9AFD6"/>
<path opacity="0.6" d="M892.536 44.6289H889.29L889.29 168.496H892.536L892.536 44.6289Z" fill="#C9AFD6"/>
<path opacity="0.6" d="M902.811 73.7163H899.567V167.93H902.811V73.7163Z" fill="#C9AFD6"/>
<path opacity="0.6" d="M913.087 0.496582L909.843 0.496582L909.843 167.999H913.087L913.087 0.496582Z" fill="#C9AFD6"/>
<path opacity="0.6" d="M923.365 44.6289H920.117L920.117 168.496H923.365L923.365 44.6289Z" fill="#C9AFD6"/>
<path opacity="0.6" d="M933.639 95.7822H930.395V167.755H933.639V95.7822Z" fill="#C9AFD6"/>
<path opacity="0.6" d="M943.914 20.5566H940.67L940.67 168.209H943.914L943.914 20.5566Z" fill="#C9AFD6"/>
<path opacity="0.6" d="M954.191 119.854H950.945V168.351H954.191V119.854Z" fill="#C9AFD6"/>
<path opacity="0.6" d="M964.464 95.7822H961.222V167.755H964.464V95.7822Z" fill="#C9AFD6"/>
<path opacity="0.6" d="M974.742 138.912H971.495V168.468H974.742V138.912Z" fill="#C9AFD6"/>
<path opacity="0.6" d="M985.016 30.5869H981.773L981.773 167.736H985.016L985.016 30.5869Z" fill="#C9AFD6"/>
<path opacity="0.6" d="M995.292 65.6919H992.049V168.04H995.292V65.6919Z" fill="#C9AFD6"/>
<path opacity="0.6" d="M1005.57 0.496582L1002.32 0.496582L1002.32 167.999H1005.57L1005.57 0.496582Z" fill="#C9AFD6"/>
<path opacity="0.6" d="M1015.84 20.5566H1012.6L1012.6 168.209H1015.84L1015.84 20.5566Z" fill="#C9AFD6"/>
<path opacity="0.6" d="M1026.12 0.496582L1022.87 0.496582L1022.87 167.999H1026.12V0.496582Z" fill="#C9AFD6"/>
<path opacity="0.6" d="M1036.39 37.6079H1033.15V168.271H1036.39V37.6079Z" fill="#C9AFD6"/>
<path opacity="0.6" d="M1046.67 12.5327H1043.43V168.217H1046.67V12.5327Z" fill="#C9AFD6"/>
<path opacity="0.6" d="M1056.95 12.5327H1053.7V168.217H1056.95V12.5327Z" fill="#C9AFD6"/>
<path opacity="0.6" d="M1067.22 65.6919H1063.98V168.04H1067.22V65.6919Z" fill="#C9AFD6"/>
<path opacity="0.6" d="M1077.5 140.917H1074.25V168.389H1077.5V140.917Z" fill="#C9AFD6"/>
<path opacity="0.6" d="M1087.77 37.6079H1084.53V168.271H1087.77V37.6079Z" fill="#C9AFD6"/>
<path opacity="0.6" d="M1098.05 119.854H1094.8V168.35H1098.05V119.854Z" fill="#C9AFD6"/>
<path opacity="0.6" d="M1108.33 65.6919H1105.08V168.04H1108.33V65.6919Z" fill="#C9AFD6"/>
<path opacity="0.6" d="M1118.6 73.7163H1115.36V167.929H1118.6V73.7163Z" fill="#C9AFD6"/>
<path opacity="0.6" d="M1128.88 30.5869H1125.63V167.736H1128.88V30.5869Z" fill="#C9AFD6"/>
<path opacity="0.6" d="M1139.15 37.6079H1135.91V168.271H1139.15V37.6079Z" fill="#C9AFD6"/>
</g>
</svg>
