<svg width="106" height="30" viewBox="0 0 106 30" fill="none" xmlns="http://www.w3.org/2000/svg">
<path d="M47.6206 13.2616C47.5876 13.2616 47.5711 13.2616 47.538 13.2616V13.245H38.469V8.46026H45.8861V10.6126H49.3551V6.73841C49.3551 5.77814 48.5787 5 47.6206 5C47.6041 5 47.5711 5 47.5545 5H36.7015C35.7599 5.01655 35 5.77814 35 6.73841C35 6.75497 35 6.77152 35 6.77152V14.9834C35 15.9271 35.7599 16.7053 36.7015 16.7219H45.8861V21.5232H38.469V19.255H35V23.2616C35 24.2053 35.7599 24.9834 36.7015 25H47.538C47.5711 25 47.5876 25 47.6206 25C48.5457 25 49.3056 24.255 49.3551 23.3444V14.8344H49.3386C49.256 13.957 48.5292 13.2616 47.6206 13.2616Z" fill="white"/>
<path d="M85.4661 5H72.8125V8.47682H72.829V21.5232V24.9338V24.9834V25H76.298V24.9834H85.2844C85.3505 24.9834 85.4001 25 85.4661 25C86.4243 25 87.2007 24.2219 87.2007 23.2616V16.7219C87.2007 16.7053 87.2007 16.6887 87.2007 16.6722C87.2007 16.6556 87.2007 16.6391 87.2007 16.6225C87.2007 15.8113 86.639 15.1325 85.8956 14.9503C86.639 14.7517 87.2007 14.0728 87.2007 13.2781V6.73841C87.2007 5.77814 86.4243 5 85.4661 5ZM76.298 16.7384H83.7316V21.4735H76.298V16.7384ZM83.7316 8.47682V13.2616H76.298V8.47682H83.7316Z" fill="white"/>
<path d="M64.8501 13.2616H61.0837V16.7384H64.8501V21.5397H57.433V8.47682H64.8501V10.6291H68.3191V6.73841C68.3191 5.77814 67.5427 5 66.5846 5C66.568 5 66.535 5 66.5185 5H55.6819C54.7403 5.01655 53.9805 5.77814 53.9805 6.73841C53.9805 6.75497 53.9805 6.77152 53.9805 6.77152V23.2616C53.9805 24.2053 54.7403 24.9834 55.6819 25H66.5185C66.5515 25 66.568 25 66.6011 25C67.5261 25 68.286 24.255 68.3356 23.3444V13.2616H68.3191H64.8501Z" fill="white"/>
<path d="M106 13.2616V6.73841C106 5.77814 105.224 5 104.265 5H91.6118V8.47682H91.6284V21.5232V24.9338V24.9834V25H95.0974V24.9834H104.084C104.15 24.9834 104.199 25 104.265 25C105.224 25 106 24.2219 106 23.2616V16.7219C106 16.7053 106 16.6887 106 16.6722C106 16.6556 106 16.6391 106 16.6225C106 15.8113 105.438 15.1325 104.695 14.9503C105.455 14.7517 106 14.0728 106 13.2616ZM95.0974 16.7384H102.531V21.4735H95.0974V16.7384ZM102.531 8.47682V13.2616H95.0974V8.47682H102.531Z" fill="white"/>
<path d="M23.8958 14.6082L12.9827 8.22424L9.26101 10.3992L11.1219 11.491L22.6349 18.2184V20.0323L13.0262 25.6501L3.36536 19.9971V18.6939L0.0262265 16.7479V20.904V21.6173V22.3393L0.00883484 22.3833L13.0262 29.9912V30V29.9912L26.0001 22.4097L25.9827 22.3921H26.0001V15.8409L23.8958 14.6082Z" fill="url(#paint0_linear)"/>
<path d="M13.0261 21.7405L13.0435 21.7229L16.7391 19.5568L3.96522 12.0898V12.0986L3.36522 11.7464V9.96771L12.9391 4.36748L22.6348 10.0382V11.3414L25.9739 13.2962V9.14001V8.41796V7.69592L26 7.65189L13.0087 0.0616378L12.9739 0L0.00869552 7.58145L0.0173917 7.60787H0V14.1503H0.0434783L13.0261 21.7405Z" fill="url(#paint1_linear)"/>
<defs>
<linearGradient id="paint0_linear" x1="-5.96916" y1="3.86908" x2="34.7894" y2="9.14801" gradientUnits="userSpaceOnUse">
<stop stop-color="#825199"/>
<stop offset="1" stop-color="#652285"/>
</linearGradient>
<linearGradient id="paint1_linear" x1="-5.98" y1="-4.34811" x2="34.7896" y2="0.942573" gradientUnits="userSpaceOnUse">
<stop stop-color="#825199"/>
<stop offset="1" stop-color="#652285"/>
</linearGradient>
</defs>
</svg>
