<svg width="140" height="131" viewBox="0 0 140 131" fill="none" xmlns="http://www.w3.org/2000/svg">
<path d="M69.452 109.905C42.184 109.905 20.0002 87.721 20.0002 60.4519C20.0002 33.1838 42.184 11 69.452 11C96.7212 11 118.905 33.1838 118.905 60.4519C118.905 87.721 96.7212 109.905 69.452 109.905ZM69.452 11.6187C42.5252 11.6187 20.6192 33.525 20.6192 60.4519C20.6192 87.3798 42.5252 109.287 69.452 109.287C96.379 109.287 118.286 87.3798 118.286 60.4519C118.286 33.525 96.379 11.6187 69.452 11.6187Z" fill="#B752E3"/>
<path d="M97.4278 55.8H76.8077C76.1741 55.8 75.6601 56.3798 75.6601 57.097V82.9947C75.6601 83.7119 76.1741 84.2916 76.8077 84.2916H97.4278C98.0613 84.2916 98.5753 83.7119 98.5753 82.9947V57.097C98.5753 56.3798 98.0613 55.8 97.4278 55.8ZM82.4737 80.8789C82.4737 81.3929 82.0852 81.8113 81.6071 81.8113H79.0072C78.529 81.8113 78.1405 81.3929 78.1405 80.8789V79.0201C78.1405 78.5061 78.529 78.0877 79.0072 78.0877H81.6071C82.0852 78.0877 82.4737 78.5061 82.4737 79.0201V80.8789ZM82.4737 75.3025C82.4737 75.8105 82.0852 76.2289 81.6071 76.2289H79.0072C78.529 76.2289 78.1405 75.8165 78.1405 75.3025V73.4497C78.1405 72.9416 78.529 72.5232 79.0072 72.5232H81.6071C82.0852 72.5232 82.4737 72.9356 82.4737 73.4497V75.3025ZM82.4737 69.738C82.4737 70.252 82.0852 70.6704 81.6071 70.6704H79.0072C78.529 70.6704 78.1405 70.252 78.1405 69.738V67.8792C78.1405 67.3652 78.529 66.9469 79.0072 66.9469H81.6071C82.0852 66.9469 82.4737 67.3652 82.4737 67.8792V69.738ZM89.2873 80.8789C89.2873 81.3929 88.8988 81.8113 88.4207 81.8113H85.8208C85.3426 81.8113 84.9541 81.3929 84.9541 80.8789V79.0201C84.9541 78.5061 85.3426 78.0877 85.8208 78.0877H88.4207C88.8988 78.0877 89.2873 78.5061 89.2873 79.0201V80.8789ZM89.2873 75.3025C89.2873 75.8105 88.8988 76.2289 88.4207 76.2289H85.8208C85.3426 76.2289 84.9541 75.8165 84.9541 75.3025V73.4497C84.9541 72.9416 85.3426 72.5232 85.8208 72.5232H88.4207C88.8988 72.5232 89.2873 72.9356 89.2873 73.4497V75.3025ZM89.2873 69.738C89.2873 70.252 88.8988 70.6704 88.4207 70.6704H85.8208C85.3426 70.6704 84.9541 70.252 84.9541 69.738V67.8792C84.9541 67.3652 85.3426 66.9469 85.8208 66.9469H88.4207C88.8988 66.9469 89.2873 67.3652 89.2873 67.8792V69.738ZM96.1009 80.8789C96.1009 81.3929 95.7124 81.8113 95.2343 81.8113H92.6343C92.1562 81.8113 91.7677 81.3929 91.7677 80.8789V79.0201C91.7677 78.5061 92.1562 78.0877 92.6343 78.0877H95.2343C95.7124 78.0877 96.1009 78.5061 96.1009 79.0201V80.8789ZM96.1009 75.3025C96.1009 75.8105 95.7124 76.2289 95.2343 76.2289H92.6343C92.1562 76.2289 91.7677 75.8165 91.7677 75.3025V73.4497C91.7677 72.9416 92.1562 72.5232 92.6343 72.5232H95.2343C95.7124 72.5232 96.1009 72.9356 96.1009 73.4497V75.3025ZM96.1009 69.738C96.1009 70.252 95.7124 70.6704 95.2343 70.6704H92.6343C92.1562 70.6704 91.7677 70.252 91.7677 69.738V67.8792C91.7677 67.3652 92.1562 66.9469 92.6343 66.9469H95.2343C95.7124 66.9469 96.1009 67.3652 96.1009 67.8792V69.738ZM96.1009 63.8509C96.1009 64.5322 95.5451 65.0881 94.8637 65.0881H79.3837C78.7023 65.0881 78.1465 64.5322 78.1465 63.8509V58.8961C78.1465 58.2147 78.7023 57.6588 79.3837 57.6588H94.8637C95.5451 57.6588 96.1009 58.2147 96.1009 58.8961V63.8509Z" fill="url(#paint0_linear)"/>
<path d="M58.124 35.1083C56.827 35.1382 54.2092 35.3175 53.48 35.5805C52.7568 35.8494 51.5316 36.728 52.6791 38.5211C53.8267 40.3141 57.4546 45.514 57.4546 45.514H70.7889C70.7889 45.514 75.415 38.9036 75.7198 38.2163C76.0246 37.5289 76.5207 35.963 74.7217 35.6163C72.9286 35.2697 71.7393 34.8573 70.7471 35.0485C69.7549 35.2338 68.2667 36.4053 64.4415 36.5667C60.7 36.728 60.1083 35.0605 58.124 35.1083Z" fill="url(#paint1_linear)"/>
<path d="M73.8731 51.7717C72.0501 50.1639 70.8368 49.3391 70.8368 49.3391H57.1439C57.1439 49.3391 46.4274 56.4456 40.6358 71.0052C39.2851 74.394 40.2294 78.9185 42.1301 81.2614C45.5129 85.4452 49.8402 84.985 50.2705 84.985H73.879L73.8731 51.7717ZM65.2664 77.0537V79.9405H62.8458V77.0657C59.684 76.7429 57.7236 74.9021 56.9646 71.549L60.7061 70.5748C61.0527 72.6847 62.2003 73.7366 64.1487 73.7366C65.0572 73.7366 65.7326 73.5095 66.1629 73.0612C66.5933 72.6069 66.8084 72.069 66.8084 71.4295C66.8084 70.7661 66.5933 70.264 66.1629 69.9293C65.7326 69.5886 64.7763 69.1583 63.3 68.6324C61.9672 68.1721 60.9272 67.7179 60.1801 67.2577C59.433 66.8094 58.8234 66.1818 58.3572 65.369C57.885 64.5561 57.6519 63.6058 57.6519 62.53C57.6519 61.1135 58.0703 59.8404 58.9011 58.7108C59.7378 57.5812 61.0468 56.8879 62.8398 56.6368V54.4015H65.2604V56.6368C67.962 56.9596 69.7191 58.4897 70.5141 61.227L67.173 62.5957C66.5215 60.719 65.5234 59.7807 64.1607 59.7807C63.4793 59.7807 62.9295 59.9898 62.5171 60.4082C62.0987 60.8266 61.8955 61.3346 61.8955 61.9323C61.8955 62.542 62.0927 63.0081 62.4931 63.3309C62.8936 63.6536 63.7423 64.0601 65.0572 64.5382C66.4917 65.0642 67.6213 65.5603 68.4401 66.0264C69.2589 66.4926 69.9104 67.1381 70.4005 67.957C70.8846 68.7818 71.1297 69.7381 71.1297 70.8438C71.1297 72.5293 70.6276 73.9398 69.6175 75.0634C68.6194 76.1871 67.167 76.8565 65.2664 77.0537Z" fill="url(#paint2_linear)"/>
<path d="M54.7836 119.296C53.6185 118.999 52.4565 118.667 51.3105 118.301L52.7895 113.903C53.8014 114.224 54.8276 114.518 55.8569 114.78L54.7836 119.296ZM44.4827 115.656C43.3898 115.154 42.3065 114.617 41.246 114.052L43.4939 109.991C44.4327 110.49 45.39 110.964 46.3551 111.408L44.4827 115.656ZM35.0079 110.22C34.0249 109.531 33.0569 108.807 32.1136 108.061L35.0532 104.469C35.8884 105.129 36.7453 105.768 37.6135 106.379L35.0079 110.22ZM115.423 92.8586C116.037 91.9905 116.629 91.1007 117.194 90.2001L121.168 92.5961C120.532 93.6153 119.863 94.6217 119.166 95.6014L115.423 92.8586ZM120.485 84.1332C120.933 83.1693 121.356 82.1874 121.748 81.2029L126.09 82.8415C125.648 83.9595 125.169 85.07 124.66 86.1619L120.485 84.1332ZM123.888 74.6453C124.154 73.6175 124.392 72.5774 124.599 71.534L129.167 72.3619C128.934 73.5418 128.664 74.7209 128.362 75.8833L123.888 74.6453ZM125.522 64.6963C125.599 63.638 125.646 62.5707 125.664 61.5053H130.306C130.287 62.708 130.234 63.914 130.146 65.1091L125.522 64.6963ZM125.525 56.496C125.448 55.4351 125.342 54.3726 125.205 53.3203L129.798 52.6475C129.953 53.8383 130.073 55.0401 130.159 56.2391L125.525 56.496ZM9.60367 53.1782C9.74965 51.9845 9.93127 50.7897 10.1474 49.6087L14.6986 50.5145C14.5093 51.5575 14.3495 52.6129 14.2196 53.6686L9.60367 53.1782ZM123.897 46.5471C123.632 45.5186 123.335 44.4931 123.012 43.4821L127.408 41.9916C127.775 43.1346 128.11 44.2962 128.41 45.4612L123.897 46.5471ZM11.8999 42.501C12.2588 41.3517 12.6531 40.2102 13.0792 39.0866L17.3927 40.8001C17.017 41.7932 16.6687 42.8023 16.3509 43.8155L11.8999 42.501ZM120.502 37.058C120.055 36.0948 119.579 35.1397 119.077 34.2041L123.131 31.9438C123.7 33.0026 124.24 34.0836 124.744 35.1729L120.502 37.058ZM16.089 32.4111C16.6498 31.3476 17.2439 30.2945 17.8659 29.2656L21.7998 31.7294C21.2508 32.6386 20.7256 33.5694 20.2294 34.5084L16.089 32.4111ZM115.449 28.3333C114.837 27.4663 114.195 26.6112 113.532 25.7793L117.116 22.8299C117.866 23.77 118.59 24.7362 119.283 25.7177L115.449 28.3333ZM22.0257 23.2427C22.7652 22.2992 23.5381 21.3703 24.3356 20.4686L27.7665 23.594C27.0628 24.3924 26.3784 25.2143 25.7224 26.0492L22.0257 23.2427ZM108.912 20.6513C108.153 19.9077 107.37 19.1809 106.57 18.4802L109.57 14.9387C110.476 15.73 111.361 16.5508 112.218 17.3928L108.912 20.6513ZM29.5034 15.2866C30.4032 14.4875 31.3293 13.7122 32.2724 12.969L35.089 16.6586C34.2543 17.3164 33.435 18.0025 32.6407 18.7074L29.5034 15.2866ZM101.109 14.2607C100.228 13.6626 99.3277 13.0879 98.4158 12.5424L100.733 8.52162C101.765 9.1373 102.785 9.78692 103.778 10.4638L101.109 14.2607ZM38.2836 8.79347C39.3091 8.16847 40.3602 7.5722 41.4226 7.00983L43.5304 11.1436C42.5939 11.6414 41.6663 12.1702 40.7571 12.7214L38.2836 8.79347ZM48.0865 3.98293C49.2097 3.55222 50.3508 3.15467 51.4962 2.79297L52.8236 7.24066C51.8121 7.56063 50.8041 7.91305 49.8116 8.29044L48.0865 3.98293Z" fill="#B752E3"/>
<path d="M70.9149 129.245C88.6949 129.008 105.374 121.974 117.971 109.375C130.568 96.7774 137.605 80.0985 137.841 62.321H139.078C138.841 80.4297 131.678 97.418 118.846 110.251C106.014 123.083 89.0242 130.246 70.9149 130.482V129.245Z" fill="#B752E3"/>
<path d="M0.000152588 59.3151C0.122463 49.8417 2.13002 40.6867 5.9714 32.0881C9.67611 23.7923 14.9002 16.4138 21.5039 10.1418L22.3443 11.051C15.864 17.2082 10.7385 24.4509 7.10057 32.5926C3.33083 41.0313 1.36016 50.017 1.23765 59.3151H0.000152588Z" fill="#B752E3"/>
<path d="M72.7964 118.698C73.9399 118.64 75.0717 118.548 76.1809 118.426L76.478 120.783C75.2874 120.916 74.0822 121.014 72.8822 121.075L72.7964 118.698Z" fill="#B752E3"/>
<path d="M65.5663 121.015C64.3648 120.933 63.1625 120.814 61.9748 120.663L62.3123 118.31C63.4392 118.454 64.5704 118.567 65.6908 118.644L65.5663 121.015Z" fill="#B752E3"/>
<path d="M83.1785 117.207C84.2803 116.947 85.3785 116.651 86.4575 116.328L87.1799 118.605C86.0289 118.95 84.8608 119.263 83.6913 119.539L83.1785 117.207Z" fill="#B752E3"/>
<path d="M93.1193 113.869C94.1422 113.415 95.1667 112.925 96.1809 112.405L97.3099 114.529C96.2415 115.076 95.1503 115.595 94.0491 116.077L93.1193 113.869Z" fill="#B752E3"/>
<path d="M102.286 108.778C103.222 108.142 104.142 107.476 105.035 106.791L106.541 108.695C105.586 109.426 104.605 110.132 103.611 110.805L102.286 108.778Z" fill="#B752E3"/>
<path d="M110.391 102.131C111.188 101.346 111.973 100.527 112.737 99.6819L114.578 101.305C113.769 102.194 112.931 103.065 112.073 103.904L110.391 102.131Z" fill="#B752E3"/>
<path d="M26.6644 103.176C25.8203 102.321 24.996 101.437 24.2026 100.534L26.0583 98.9543C26.8026 99.8042 27.5743 100.637 28.3645 101.441L26.6644 103.176Z" fill="#B752E3"/>
<path d="M19.7122 94.7546C19.033 93.7642 18.38 92.7461 17.7619 91.7173L19.8931 90.4822C20.4672 91.4421 21.0773 92.3975 21.7164 93.3387L19.7122 94.7546Z" fill="#B752E3"/>
<path d="M14.3811 85.226C13.8921 84.1273 13.4332 83.0097 13.0099 81.8847L15.3632 81.0422C15.7573 82.0995 16.1834 83.1473 16.6374 84.1762L14.3811 85.226Z" fill="#B752E3"/>
<path d="M10.8566 74.888C10.5736 73.7196 10.3245 72.5379 10.1121 71.3535L12.6136 70.9456C12.8107 72.0606 13.0397 73.1696 13.297 74.2563L10.8566 74.888Z" fill="#B752E3"/>
<path d="M9.25645 64.0868C9.18932 62.9184 9.15576 61.7426 9.15576 60.5769C9.15576 60.5452 9.15576 60.5131 9.15576 60.4814L11.7237 60.5232C11.7237 60.6108 11.7227 60.6981 11.7227 60.7854C11.7227 61.8015 11.7518 62.8457 11.8089 63.9026L9.25645 64.0868Z" fill="#B752E3"/>
<path d="M93.0654 7.68191C92.0442 7.23444 91.0032 6.81042 89.9507 6.41963L90.8832 3.79395C92.0097 4.21422 93.1296 4.67028 94.2298 5.15582L93.0654 7.68191Z" fill="#B752E3"/>
<path d="M83.1895 4.36229C82.1096 4.10572 81.0095 3.87825 79.8999 3.68285L80.3444 0.925537C81.5271 1.13583 82.7113 1.38198 83.8787 1.66054L83.1895 4.36229Z" fill="#B752E3"/>
<path d="M58.5991 1.0219C59.7803 0.802635 60.9742 0.616936 62.1656 0.468506L62.4688 3.24071C61.3544 3.3802 60.2433 3.55097 59.1493 3.75126L58.5991 1.0219Z" fill="#B752E3"/>
<path d="M72.8801 2.87592C71.8097 2.81734 70.7508 2.78828 69.7203 2.78828C69.6554 2.78828 69.5881 2.78828 69.5232 2.78828L69.4702 0.000381925C69.5506 6.33477e-08 69.6317 0 69.7134 0C70.8356 0 71.962 0.0302053 73.0748 0.0898902L72.8801 2.87592Z" fill="#B752E3"/>
<defs>
<linearGradient id="paint0_linear" x1="60.9885" y1="47.4685" x2="118.709" y2="117.638" gradientUnits="userSpaceOnUse">
<stop stop-color="#D275F9"/>
<stop offset="1" stop-color="#8D1EC2"/>
</linearGradient>
<linearGradient id="paint1_linear" x1="36.9631" y1="31.9255" x2="48.6483" y2="71.9273" gradientUnits="userSpaceOnUse">
<stop stop-color="#D275F9"/>
<stop offset="1" stop-color="#8D1EC2"/>
</linearGradient>
<linearGradient id="paint2_linear" x1="18.3089" y1="38.9111" x2="87.3652" y2="138.075" gradientUnits="userSpaceOnUse">
<stop stop-color="#D275F9"/>
<stop offset="1" stop-color="#8D1EC2"/>
</linearGradient>
</defs>
</svg>
