<svg width="140" height="131" viewBox="0 0 140 131" fill="none" xmlns="http://www.w3.org/2000/svg">
<path d="M69.452 109.905C42.184 109.905 20.0002 87.721 20.0002 60.4519C20.0002 33.1838 42.184 11 69.452 11C96.7212 11 118.905 33.1838 118.905 60.4519C118.905 87.721 96.7212 109.905 69.452 109.905ZM69.452 11.6187C42.5252 11.6187 20.6192 33.525 20.6192 60.4519C20.6192 87.3798 42.5252 109.287 69.452 109.287C96.379 109.287 118.286 87.3798 118.286 60.4519C118.286 33.525 96.379 11.6187 69.452 11.6187Z" fill="#B752E3"/>
<path d="M89.038 35.1345C88.7446 35.2125 88.3053 35.3886 88.0608 35.535C87.797 35.6815 84.6404 38.7504 80.0468 43.3338L72.4726 50.8789L71.8863 50.7911C71.0065 50.6543 69.6578 50.7717 68.6612 51.0549C66.3741 51.7193 64.5371 53.2833 63.54 55.4041C63.0318 56.4986 62.8557 57.2023 62.7776 58.4046C62.5429 62.1965 64.83 65.4899 68.5143 66.7018C69.2863 66.956 69.4624 66.9753 70.9086 66.9753C72.3547 66.9753 72.5308 66.956 73.3028 66.7018C76.1079 65.7833 78.0429 63.7406 78.8343 60.8769C79.1078 59.8997 79.0885 57.8473 78.7955 56.8308L78.571 56.0588L85.9401 48.6703C93.9735 40.6175 93.7194 40.9104 93.9541 39.5423C94.4231 36.7766 91.7747 34.4017 89.038 35.1345Z" fill="url(#paint0_linear)"/>
<path d="M68.6806 37.8221C64.6346 38.2227 60.4905 39.9526 57.3829 42.5525C53.4736 45.8163 50.9619 50.1654 50.0725 55.2086C49.75 57.0262 49.7107 59.9874 49.9847 61.7076C50.444 64.581 51.4115 67.2881 52.8189 69.6237L53.171 70.21L48.9295 74.4612C44.3262 79.0839 44.2777 79.1426 44.0527 80.452C43.6128 83.0519 46.0071 85.4166 48.5876 84.9379C49.8679 84.7032 49.946 84.6445 54.4906 80.1198L58.6928 75.9467L59.3281 76.3865C60.364 77.0902 62.7685 78.2338 64.2049 78.7027C66.492 79.4452 68.3484 79.7386 70.831 79.7386C81.6496 79.7488 90.6214 71.5296 91.6864 60.6523C91.8135 59.323 91.7548 56.743 91.569 55.8929C90.9337 52.8827 87.2786 51.7004 85.0501 53.7818C84.0336 54.7396 83.6918 55.8342 83.8382 57.6815C84.1607 61.5811 82.8023 65.2653 80.056 68.0214C78.1796 69.8977 75.9706 71.0709 73.2635 71.6373C71.9638 71.9108 69.7451 71.9404 68.4648 71.6863C63.2558 70.6698 59.3562 67.0345 58.0371 61.9526C57.6462 60.4768 57.5482 58.2581 57.8023 56.6752C57.9978 55.4632 58.4764 53.9681 59.0434 52.8541C60.2747 50.3915 62.4051 48.2605 64.8387 47.0292C66.3241 46.2765 68.65 45.6315 69.8717 45.6315C70.7611 45.6315 71.8261 45.1626 72.5103 44.4686C74.0157 42.9735 74.0448 40.5103 72.5884 39.0055C71.6031 37.9788 70.4886 37.6461 68.6806 37.8221Z" fill="url(#paint1_linear)"/>
<path d="M54.7836 119.296C53.6185 118.999 52.4565 118.667 51.3105 118.301L52.7895 113.903C53.8014 114.224 54.8276 114.518 55.8569 114.78L54.7836 119.296ZM44.4827 115.656C43.3898 115.154 42.3065 114.617 41.246 114.052L43.4939 109.991C44.4327 110.49 45.39 110.964 46.3551 111.408L44.4827 115.656ZM35.0079 110.22C34.0249 109.531 33.0569 108.807 32.1136 108.061L35.0532 104.469C35.8884 105.129 36.7453 105.768 37.6135 106.379L35.0079 110.22ZM115.423 92.8586C116.037 91.9905 116.629 91.1007 117.194 90.2001L121.168 92.5961C120.532 93.6153 119.863 94.6217 119.166 95.6014L115.423 92.8586ZM120.485 84.1332C120.933 83.1693 121.356 82.1874 121.748 81.2029L126.09 82.8415C125.648 83.9595 125.169 85.07 124.66 86.1619L120.485 84.1332ZM123.888 74.6453C124.154 73.6175 124.392 72.5774 124.599 71.534L129.167 72.3619C128.934 73.5418 128.664 74.7209 128.362 75.8833L123.888 74.6453ZM125.522 64.6963C125.599 63.638 125.646 62.5707 125.664 61.5053H130.306C130.287 62.708 130.234 63.914 130.146 65.1091L125.522 64.6963ZM125.525 56.496C125.448 55.4351 125.342 54.3726 125.205 53.3203L129.798 52.6475C129.953 53.8383 130.073 55.0401 130.159 56.2391L125.525 56.496ZM9.60367 53.1782C9.74965 51.9845 9.93127 50.7897 10.1474 49.6087L14.6986 50.5145C14.5093 51.5575 14.3495 52.6129 14.2196 53.6686L9.60367 53.1782ZM123.897 46.5471C123.632 45.5186 123.335 44.4931 123.012 43.4821L127.408 41.9916C127.775 43.1346 128.11 44.2962 128.41 45.4612L123.897 46.5471ZM11.8999 42.501C12.2588 41.3517 12.6531 40.2102 13.0792 39.0866L17.3927 40.8001C17.017 41.7932 16.6687 42.8023 16.3509 43.8155L11.8999 42.501ZM120.502 37.058C120.055 36.0948 119.579 35.1397 119.077 34.2041L123.131 31.9438C123.7 33.0026 124.24 34.0836 124.744 35.1729L120.502 37.058ZM16.089 32.4111C16.6498 31.3476 17.2439 30.2945 17.8659 29.2656L21.7998 31.7294C21.2508 32.6386 20.7256 33.5694 20.2294 34.5084L16.089 32.4111ZM115.449 28.3333C114.837 27.4663 114.195 26.6112 113.532 25.7793L117.116 22.8299C117.866 23.77 118.59 24.7362 119.283 25.7177L115.449 28.3333ZM22.0257 23.2427C22.7652 22.2992 23.5381 21.3703 24.3356 20.4686L27.7665 23.594C27.0628 24.3924 26.3784 25.2143 25.7224 26.0492L22.0257 23.2427ZM108.912 20.6513C108.153 19.9077 107.37 19.1809 106.57 18.4802L109.57 14.9387C110.476 15.73 111.361 16.5508 112.218 17.3928L108.912 20.6513ZM29.5034 15.2866C30.4032 14.4875 31.3293 13.7122 32.2724 12.969L35.089 16.6586C34.2543 17.3164 33.435 18.0025 32.6407 18.7074L29.5034 15.2866ZM101.109 14.2607C100.228 13.6626 99.3277 13.0879 98.4158 12.5424L100.733 8.52162C101.765 9.1373 102.785 9.78692 103.778 10.4638L101.109 14.2607ZM38.2836 8.79347C39.3091 8.16847 40.3602 7.5722 41.4226 7.00983L43.5304 11.1436C42.5939 11.6414 41.6663 12.1702 40.7571 12.7214L38.2836 8.79347ZM48.0865 3.98293C49.2097 3.55222 50.3508 3.15467 51.4962 2.79297L52.8236 7.24066C51.8121 7.56063 50.8041 7.91305 49.8116 8.29044L48.0865 3.98293Z" fill="#B752E3"/>
<path d="M70.9149 129.245C88.6949 129.008 105.374 121.974 117.971 109.375C130.568 96.7774 137.605 80.0985 137.841 62.321H139.078C138.841 80.4297 131.678 97.418 118.846 110.251C106.014 123.083 89.0242 130.246 70.9149 130.482V129.245Z" fill="#B752E3"/>
<path d="M0.000152588 59.3151C0.122463 49.8417 2.13002 40.6867 5.9714 32.0881C9.67611 23.7923 14.9002 16.4138 21.5039 10.1418L22.3443 11.051C15.864 17.2082 10.7385 24.4509 7.10057 32.5926C3.33083 41.0313 1.36016 50.017 1.23765 59.3151H0.000152588Z" fill="#B752E3"/>
<path d="M72.7964 118.698C73.9399 118.64 75.0717 118.548 76.1809 118.426L76.478 120.783C75.2874 120.916 74.0822 121.014 72.8822 121.075L72.7964 118.698Z" fill="#B752E3"/>
<path d="M65.5663 121.015C64.3648 120.933 63.1625 120.814 61.9748 120.663L62.3123 118.31C63.4392 118.454 64.5704 118.567 65.6908 118.644L65.5663 121.015Z" fill="#B752E3"/>
<path d="M83.1785 117.207C84.2803 116.947 85.3785 116.651 86.4576 116.328L87.1799 118.605C86.0289 118.95 84.8608 119.263 83.6913 119.539L83.1785 117.207Z" fill="#B752E3"/>
<path d="M93.1193 113.869C94.1422 113.415 95.1668 112.925 96.1809 112.405L97.3099 114.529C96.2415 115.076 95.1504 115.595 94.0492 116.077L93.1193 113.869Z" fill="#B752E3"/>
<path d="M102.286 108.778C103.222 108.142 104.142 107.476 105.035 106.791L106.541 108.695C105.586 109.426 104.605 110.132 103.611 110.805L102.286 108.778Z" fill="#B752E3"/>
<path d="M110.391 102.131C111.188 101.346 111.973 100.527 112.737 99.6819L114.578 101.305C113.769 102.194 112.931 103.065 112.073 103.904L110.391 102.131Z" fill="#B752E3"/>
<path d="M26.6644 103.176C25.8203 102.321 24.996 101.437 24.2026 100.534L26.0582 98.9543C26.8026 99.8042 27.5743 100.637 28.3645 101.441L26.6644 103.176Z" fill="#B752E3"/>
<path d="M19.7122 94.7546C19.033 93.7642 18.38 92.7461 17.7619 91.7173L19.8931 90.4822C20.4672 91.4421 21.0773 92.3975 21.7164 93.3387L19.7122 94.7546Z" fill="#B752E3"/>
<path d="M14.3811 85.226C13.8921 84.1273 13.4332 83.0097 13.0099 81.8847L15.3632 81.0422C15.7573 82.0995 16.1834 83.1473 16.6374 84.1762L14.3811 85.226Z" fill="#B752E3"/>
<path d="M10.8567 74.888C10.5736 73.7196 10.3245 72.5379 10.1121 71.3535L12.6136 70.9456C12.8107 72.0606 13.0397 73.1696 13.297 74.2563L10.8567 74.888Z" fill="#B752E3"/>
<path d="M9.25644 64.0868C9.18931 62.9184 9.15575 61.7426 9.15575 60.5769C9.15575 60.5452 9.15575 60.5131 9.15575 60.4814L11.7236 60.5232C11.7236 60.6108 11.7227 60.6981 11.7227 60.7854C11.7227 61.8015 11.7518 62.8457 11.8088 63.9026L9.25644 64.0868Z" fill="#B752E3"/>
<path d="M93.0654 7.68191C92.0442 7.23444 91.0032 6.81042 89.9507 6.41963L90.8832 3.79395C92.0097 4.21422 93.1296 4.67028 94.2298 5.15582L93.0654 7.68191Z" fill="#B752E3"/>
<path d="M83.1895 4.36229C82.1096 4.10572 81.0095 3.87825 79.8999 3.68285L80.3444 0.925537C81.5271 1.13583 82.7113 1.38198 83.8787 1.66054L83.1895 4.36229Z" fill="#B752E3"/>
<path d="M58.5991 1.0219C59.7803 0.802635 60.9742 0.616936 62.1656 0.468506L62.4688 3.24071C61.3543 3.3802 60.2433 3.55097 59.1493 3.75126L58.5991 1.0219Z" fill="#B752E3"/>
<path d="M72.8801 2.87592C71.8097 2.81734 70.7508 2.78828 69.7203 2.78828C69.6554 2.78828 69.5881 2.78828 69.5232 2.78828L69.4702 0.000381925C69.5506 6.33477e-08 69.6317 0 69.7134 0C70.8356 0 71.962 0.0302053 73.0748 0.0898902L72.8801 2.87592Z" fill="#B752E3"/>
<defs>
<linearGradient id="paint0_linear" x1="42.7548" y1="76.3256" x2="104.05" y2="-14.2129" gradientUnits="userSpaceOnUse">
<stop stop-color="#D275F9"/>
<stop offset="1" stop-color="#8D1EC2"/>
</linearGradient>
<linearGradient id="paint1_linear" x1="13.4252" y1="98.809" x2="102.76" y2="-37.7416" gradientUnits="userSpaceOnUse">
<stop stop-color="#D275F9"/>
<stop offset="1" stop-color="#8D1EC2"/>
</linearGradient>
</defs>
</svg>
