<svg width="609" height="26" viewBox="0 0 609 26" fill="none" xmlns="http://www.w3.org/2000/svg">
<g opacity="0.5">
<path d="M9.51897 11.3613L9.00439 13.7085C9.57614 13.8532 11.42 14.5445 11.7202 13.2262C12.0204 11.9079 10.105 11.5221 9.51897 11.3613Z" fill="url(#paint0_linear)"/>
<path d="M8.73333 14.8486L8.16162 17.5654C8.87626 17.7744 11.063 18.5621 11.3918 17.0831C11.7205 15.6042 9.44797 15.0898 8.73333 14.8486Z" fill="url(#paint1_linear)"/>
<path d="M9.57632 4.01393C4.29537 4.00508 0.00792446 8.81306 1.08497e-05 14.7529C-0.00785918 20.6927 4.26679 25.5151 9.54774 25.524C14.8287 25.5328 19.1161 20.7249 19.1241 14.785C19.1328 11.9309 18.1306 9.19043 16.339 7.16925C14.5473 5.14807 12.1138 4.01265 9.57632 4.01393ZM13.7927 13.2417C13.7439 14.0949 13.1937 14.8058 12.4492 14.978C13.3942 15.4156 13.8476 16.6294 13.464 17.6948C13.4497 17.7431 13.4211 17.7913 13.4068 17.8395C12.8351 19.6561 11.4916 19.8169 9.71925 19.4311L9.29046 21.3924L8.23277 21.0869L8.64727 19.1578L7.81828 18.9166L7.38949 20.8619L6.36039 20.5564L6.78918 18.5951L6.03165 18.3861L4.64523 18.0003L5.15978 16.6499L5.9459 16.8589C6.14269 16.9161 6.34454 16.7884 6.40327 16.5695L7.08934 13.4989L7.60388 11.2804C7.6298 10.9417 7.41689 10.6389 7.11792 10.5891L6.36039 10.3801L6.63196 9.1262L8.07555 9.52811L8.74732 9.7371L9.16182 7.79187L10.2195 8.09732L9.805 9.96216L10.6483 10.1712L11.0628 8.29023L12.1062 8.59568L11.6774 10.5409C12.9923 11.0393 13.9786 11.7949 13.7927 13.2417Z" fill="url(#paint2_linear)"/>
<path d="M27.1566 11.6828C27.8041 11.6762 28.4445 11.8356 29.029 12.1491C29.5476 12.4325 30.0058 12.8382 30.3725 13.3387C30.7278 13.8673 30.9898 14.4676 31.1443 15.1071C31.3158 15.8144 31.4024 16.5443 31.4016 17.2774C31.4314 19.5802 30.6264 21.7974 29.1719 23.4185C28.4841 24.2093 27.6629 24.8379 26.7564 25.2673C25.8163 25.7359 24.7975 25.9717 23.7692 25.9586H23.1403C22.7386 25.945 22.3379 25.9075 21.9397 25.846C21.4671 25.766 20.9993 25.6533 20.539 25.5084C20.0497 25.368 19.5753 25.1686 19.124 24.9136L23.0974 6.13653L26.7135 5.52563L25.2414 12.1491C25.5407 11.9949 25.8516 11.8712 26.1704 11.7793C26.4929 11.689 26.8243 11.6458 27.1566 11.6507V11.6828ZM24.0979 22.7433C24.6728 22.7726 25.2431 22.6164 25.7416 22.2932C26.2069 22.0019 26.6152 21.6083 26.9422 21.1357C27.2756 20.6296 27.5317 20.0646 27.6998 19.4638C27.9121 18.8589 28.0282 18.2168 28.0428 17.5668C28.059 16.9391 27.9414 16.3162 27.6998 15.7501C27.4032 15.2524 26.886 14.9801 26.3562 15.0428C26.0726 15.0608 25.7906 15.1038 25.5129 15.1714C25.168 15.2649 24.8489 15.4526 24.5839 15.718L23.0117 22.6469H24.0837V22.7433H24.0979Z" fill="url(#paint3_linear)"/>
<path d="M35.1034 25.4919H31.7017L34.5745 11.9396H37.9905L35.1034 25.4919ZM36.7613 10.2677C36.2978 10.2654 35.847 10.0964 35.475 9.78544C35.0987 9.42268 34.9017 8.87765 34.9461 8.32251C34.9429 7.97383 35.0062 7.62844 35.132 7.30971C35.2725 7.02423 35.4563 6.76854 35.6751 6.55413C35.8922 6.31989 36.1436 6.12954 36.4183 5.99146C36.7042 5.85913 37.0096 5.78824 37.3188 5.78247C37.7632 5.7953 38.1929 5.96391 38.548 6.26476C38.9462 6.61233 39.1612 7.16269 39.1197 7.72769C39.1202 8.10018 39.047 8.46812 38.9053 8.80479C38.7772 9.10549 38.6084 9.38207 38.405 9.62468C38.1842 9.8537 37.9336 10.0434 37.6618 10.1873C37.3763 10.3212 37.0706 10.3922 36.7613 10.3963V10.2677Z" fill="url(#paint4_linear)"/>
<path d="M40.9636 8.59673L44.5797 7.98584L43.6936 12.0531H47.4955L46.7665 15.1397H42.9789L41.9784 19.9304C41.8936 20.294 41.8362 20.6651 41.8069 21.0396C41.7875 21.3454 41.8265 21.6524 41.9212 21.9399C42.0174 22.1928 42.1966 22.3944 42.4215 22.5025C42.7458 22.6597 43.0979 22.7312 43.4506 22.7115C43.8295 22.7227 44.2084 22.6849 44.5797 22.599C44.9265 22.5074 45.2659 22.3837 45.5945 22.2292L45.7803 25.1872C45.2934 25.3797 44.7971 25.5407 44.2939 25.6695C43.6729 25.8106 43.0407 25.8807 42.4072 25.8785C41.5748 25.9153 40.7467 25.7279 39.9917 25.3319C39.4616 25.0102 39.0399 24.502 38.7911 23.8851C38.5327 23.223 38.4199 22.5006 38.4623 21.7791C38.4996 20.9332 38.6097 20.0933 38.7911 19.2712L40.9636 8.59673Z" fill="url(#paint5_linear)"/>
<path d="M47.3236 20.1227C47.3108 18.9938 47.4803 17.8717 47.8239 16.811C48.1436 15.8085 48.634 14.8857 49.2675 14.0942C49.9082 13.307 50.6868 12.6775 51.5544 12.2454C52.5036 11.7945 53.5257 11.57 54.556 11.5863C55.1757 11.5754 55.7945 11.6455 56.3998 11.7953C56.9107 11.927 57.4086 12.1155 57.8863 12.358L56.6857 15.3642C56.3712 15.2195 56.0568 15.107 55.728 14.9944C55.338 14.8689 54.9327 14.8146 54.5274 14.8337C53.4852 14.7683 52.4772 15.2635 51.8117 16.168C51.1078 17.1768 50.7569 18.4407 50.8255 19.7208C50.8097 20.447 50.9836 21.1624 51.3257 21.7785C51.7903 22.3842 52.4917 22.6913 53.1981 22.5984C53.6302 22.5989 54.0611 22.5504 54.4845 22.4537C54.8643 22.3569 55.2369 22.2279 55.5994 22.0679L55.8567 25.1223C55.3965 25.3271 54.9235 25.4937 54.4416 25.6207C53.8278 25.7784 53.1987 25.8486 52.5692 25.8297C51.7513 25.8889 50.9309 25.7687 50.1537 25.476C49.5292 25.2017 48.9675 24.7732 48.51 24.2221C48.0815 23.6915 47.7641 23.0598 47.5809 22.3733C47.3816 21.6607 47.2803 20.918 47.2808 20.1709L47.3236 20.1227Z" fill="url(#paint6_linear)"/>
<path d="M62.4173 25.9096C61.7186 25.9173 61.025 25.7754 60.3734 25.4916C59.8027 25.2451 59.2929 24.8482 58.8869 24.3341C58.4769 23.7966 58.1747 23.166 58.0007 22.4854C57.7944 21.7525 57.693 20.9873 57.7006 20.2186C57.7036 19.1647 57.8531 18.1178 58.1437 17.1159C58.4339 16.1062 58.8843 15.1639 59.4729 14.3347C60.0617 13.5132 60.7846 12.8257 61.6026 12.3091C62.4872 11.7655 63.4819 11.4886 64.4898 11.5053C65.2067 11.4856 65.9201 11.622 66.5909 11.9072C67.1561 12.1653 67.6636 12.5605 68.0774 13.0647C68.4874 13.6022 68.7896 14.2328 68.9636 14.9135C69.1777 15.6443 69.2792 16.4109 69.2637 17.1802C69.2537 18.2177 69.1043 19.2474 68.8206 20.2347C68.5367 21.2378 68.1016 22.1786 67.5342 23.0159C66.9381 23.8649 66.1877 24.561 65.3331 25.0576C64.428 25.6016 63.4149 25.8782 62.3887 25.8614L62.4173 25.9096ZM64.061 14.7848C63.5778 14.7716 63.1046 14.9415 62.7175 15.2671C62.3284 15.6107 62.0031 16.0367 61.7598 16.5211C61.5011 17.0287 61.3086 17.5755 61.1881 18.1448C61.0622 18.6962 60.9998 19.2635 61.0023 19.8328C60.9697 20.5309 61.0925 21.2271 61.3596 21.8584C61.6376 22.3387 62.123 22.6147 62.6317 22.5818C63.115 22.5951 63.5882 22.4252 63.9753 22.0995C64.408 21.779 64.7738 21.3567 65.0472 20.8617C65.306 20.354 65.4985 19.8072 65.619 19.238C65.7238 18.6887 65.7717 18.1277 65.7619 17.566C65.7945 16.8679 65.6717 16.1717 65.4046 15.5404C65.1185 15.0277 64.5955 14.7461 64.061 14.817V14.7848Z" fill="url(#paint7_linear)"/>
<path d="M72.9229 25.4927H69.5068L72.3798 11.9404H75.7958L72.9229 25.4927ZM74.5666 10.2684C74.102 10.2737 73.6491 10.1039 73.2802 9.78614C72.882 9.43856 72.6669 8.8882 72.7085 8.3232C72.7052 7.97452 72.7686 7.62912 72.8943 7.31039C73.0119 6.99823 73.1817 6.71441 73.3946 6.47442C73.6117 6.24019 73.8631 6.04984 74.1378 5.91175C74.4216 5.77189 74.7284 5.70069 75.0383 5.70268C75.5019 5.70505 75.9526 5.87405 76.3247 6.18505C76.7229 6.53263 76.938 7.08299 76.8964 7.64799C76.8927 7.99586 76.8296 8.33969 76.7106 8.6608C76.5825 8.9615 76.4137 9.23808 76.2103 9.48069C75.9895 9.70971 75.7389 9.89945 75.4671 10.0434C75.1812 10.1757 74.8757 10.2466 74.5666 10.2523V10.2684Z" fill="url(#paint8_linear)"/>
<path d="M78.3115 12.5026L79.1119 12.1489C79.4585 12.0226 79.8117 11.9206 80.1695 11.8435C80.5978 11.7306 81.0324 11.65 81.4702 11.6023C82.0172 11.5595 82.5659 11.5487 83.1139 11.5702C84.5422 11.3892 85.951 12.0596 86.8301 13.3386C87.5442 14.8133 87.6739 16.5578 87.1874 18.1454L85.6152 25.5727H82.1992L83.7142 18.3866C83.8133 17.9425 83.8849 17.4913 83.9286 17.0362C83.9857 16.6692 83.9857 16.2938 83.9286 15.9269C83.857 15.6023 83.6847 15.3172 83.4426 15.1231C83.1338 14.9123 82.7736 14.8167 82.4136 14.8498C81.9626 14.8493 81.5127 14.8978 81.07 14.9944L78.8975 25.4602H75.4814L78.3115 12.5026Z" fill="url(#paint9_linear)"/>
<path d="M154.603 12.5171V18.8085H153.586V11.1858H154.952L156.805 15.9527L158.641 11.1858H159.987V18.8085H158.971V12.5171L157.098 17.4128H156.495L154.603 12.5171Z" fill="url(#paint10_linear)"/>
<path d="M162.092 14.2993C162.592 13.815 163.241 13.5612 163.906 13.5907C164.54 13.567 165.159 13.8043 165.643 14.2564C166.131 14.789 166.398 15.5187 166.384 16.2748C166.412 16.9853 166.172 17.677 165.721 18.1859C164.651 19.1596 163.104 19.1596 162.034 18.1859C161.592 17.6791 161.353 16.9985 161.37 16.2963C161.341 15.5478 161.604 14.8212 162.092 14.2993ZM162.794 14.8791C162.485 15.2634 162.318 15.7615 162.326 16.2748C162.318 16.7817 162.486 17.2729 162.794 17.6491C163.069 17.9788 163.461 18.1593 163.867 18.143C164.275 18.1679 164.67 17.9859 164.94 17.6491C165.564 16.8535 165.564 15.6747 164.94 14.8791C164.666 14.5494 164.274 14.3689 163.867 14.3852C163.46 14.3603 163.065 14.5423 162.794 14.8791Z" fill="url(#paint11_linear)"/>
<path d="M168.471 13.7194V14.3206C168.657 14.124 168.867 13.9576 169.095 13.8268C169.39 13.6573 169.719 13.5759 170.051 13.5906C170.344 13.5906 170.871 13.6335 171.241 14.02C171.612 14.4065 171.651 14.9863 171.651 15.5231V18.8085H170.773V15.5446C170.79 15.2526 170.729 14.9615 170.598 14.7071C170.44 14.4836 170.191 14.3625 169.934 14.3851C169.618 14.3899 169.312 14.5025 169.056 14.7071C168.823 14.8825 168.618 15.1003 168.452 15.3513V18.787H167.574V13.7194H168.471Z" fill="url(#paint12_linear)"/>
<path d="M177.231 18.1205C176.841 18.5714 176.295 18.9365 175.319 18.9365C174.734 18.9365 174.129 18.8506 173.583 18.2708C173.125 17.7459 172.873 17.0443 172.881 16.3168C172.881 15.0285 173.602 13.6113 175.163 13.6113C176.899 13.6113 177.368 15.2862 177.368 16.4457H173.836C173.856 17.5193 174.539 18.142 175.28 18.142C175.783 18.1543 176.272 17.9546 176.646 17.5837L177.231 18.1205ZM176.334 15.6512C176.302 14.9412 175.77 14.3835 175.124 14.3843C174.468 14.3853 173.92 14.933 173.856 15.6512H176.334Z" fill="url(#paint13_linear)"/>
<path d="M181.444 13.7197H182.381L180.625 19.0448C180.254 20.1398 180.001 20.4834 179.864 20.6122C179.535 20.9079 179.119 21.0607 178.694 21.0417C178.517 21.0439 178.34 21.0223 178.167 20.9772L178.089 20.1613C178.235 20.204 178.386 20.2256 178.538 20.2257C178.801 20.2309 179.057 20.1318 179.26 19.9466C179.477 19.6847 179.631 19.3674 179.708 19.0233L179.825 18.6153L177.835 13.7412H178.85L180.313 17.3485L181.444 13.7197Z" fill="url(#paint14_linear)"/>
<path d="M185.795 4.01392H146.485V25.9585H185.775L191.901 14.9862L185.795 4.01392ZM184.449 23.9616H148.631V6.01083H184.449L189.462 14.9647L184.449 23.9616Z" fill="url(#paint15_linear)"/>
<path d="M125.279 12.9253C124.616 12.9253 123.914 13.4406 123.914 13.4406V13.1185C123.914 13.0541 123.894 13.0112 123.816 13.0112H122.958C122.88 13.0112 122.841 13.0541 122.841 13.1185V20.097C122.841 20.1614 122.86 20.2044 122.938 20.2044H123.797C123.823 20.2063 123.849 20.1956 123.868 20.1751C123.886 20.1545 123.896 20.126 123.894 20.097V14.1063C124.171 13.945 124.478 13.8568 124.792 13.8486C125.26 13.8486 125.631 14.0848 125.631 14.5787V20.097C125.631 20.1614 125.67 20.2044 125.748 20.2044H126.606C126.632 20.2063 126.658 20.1956 126.677 20.1751C126.696 20.1545 126.705 20.126 126.704 20.097V14.278C126.704 13.3977 126.196 12.9253 125.279 12.9253Z" fill="url(#paint16_linear)"/>
<path d="M131.893 9.42432H131.035C130.957 9.42432 130.918 9.46726 130.918 9.53168V13.0531C130.643 12.9373 130.353 12.872 130.059 12.8599C128.674 12.8599 127.738 14.2341 127.738 16.8966C127.738 19.1727 128.655 20.3966 129.864 20.3966C130.323 20.3662 130.757 20.1613 131.093 19.8168L131.288 20.1389C131.327 20.2033 131.347 20.2248 131.405 20.2248H131.893C131.919 20.2267 131.945 20.216 131.964 20.1955C131.983 20.1749 131.992 20.1465 131.991 20.1175V9.53168C131.991 9.44579 131.971 9.42432 131.893 9.42432ZM128.869 16.6604C128.869 15.2003 129.279 13.7402 130.118 13.7402C130.416 13.7464 130.703 13.8595 130.937 14.0623V19.2156C130.706 19.3641 130.444 19.4454 130.176 19.4518C129.279 19.4518 128.869 18.3138 128.869 16.6604Z" fill="url(#paint17_linear)"/>
<path d="M135.151 12.8599C133.727 12.8599 133.044 14.7923 133.044 16.918C133.044 19.1296 134.039 20.3749 135.326 20.3749C135.846 20.3576 136.355 20.203 136.809 19.924C136.851 19.8982 136.874 19.8472 136.868 19.7952L136.751 19.3228C136.731 19.2584 136.712 19.2369 136.634 19.2369C136.327 19.3228 136.013 19.3731 135.697 19.3872C134.644 19.3872 134.175 18.421 134.175 17.1112V16.7892C134.453 16.8349 134.733 16.8636 135.014 16.875H136.985V16.2524C136.985 14.0408 136.243 12.8599 135.151 12.8599ZM135.092 15.9518C134.799 15.9641 134.506 15.9928 134.214 16.0377C134.216 15.8793 134.229 15.7214 134.253 15.5653C134.371 14.3629 134.644 13.7402 135.131 13.7402C135.541 13.7402 135.834 14.3629 135.892 15.4579C135.912 15.6941 135.912 15.9518 135.912 15.9518H135.092Z" fill="url(#paint18_linear)"/>
<path d="M121.261 13.7622C120.949 13.118 120.383 12.8389 119.739 12.8389C119.23 12.8699 118.729 12.9933 118.257 13.2039C118.179 13.2468 118.12 13.2683 118.12 13.3542C118.124 13.3998 118.137 13.4439 118.159 13.483L118.452 14.1272C118.474 14.1769 118.519 14.2096 118.569 14.2131C118.61 14.2087 118.65 14.194 118.686 14.1702C119.096 13.891 119.408 13.7407 119.661 13.7407C119.972 13.7515 120.245 13.9742 120.344 14.299C120.472 14.6988 120.531 15.1209 120.52 15.5444V15.6947C120.222 15.5336 119.896 15.4456 119.564 15.4371C118.335 15.4371 117.671 16.661 117.671 17.9709C117.671 19.3881 118.452 20.4187 119.369 20.4187C119.88 20.3968 120.358 20.1301 120.676 19.6887C120.676 19.6887 120.851 20.0967 120.871 20.1611C120.89 20.2255 120.91 20.2255 120.988 20.2255H121.476C121.502 20.2274 121.528 20.2167 121.546 20.1962C121.565 20.1756 121.575 20.1471 121.573 20.1181V16.0383C121.554 15.0506 121.515 14.2775 121.261 13.7622ZM120.5 19.066C120.285 19.2976 120.001 19.435 119.7 19.4525C119.45 19.4529 119.216 19.316 119.076 19.0874C118.865 18.7231 118.762 18.2951 118.783 17.8635C118.783 17.0905 119.056 16.296 119.642 16.296C119.952 16.2977 120.253 16.4108 120.5 16.6181V19.066Z" fill="url(#paint19_linear)"/>
<path d="M141.471 13.0115H140.711C140.643 13.0054 140.579 13.0491 140.555 13.1189C140.516 13.2477 140.184 14.1281 140.047 14.4931C139.95 14.7507 139.696 15.5023 139.696 15.5023H139.657C139.657 15.5023 139.462 14.9655 139.365 14.6863C139.287 14.4716 138.857 13.2906 138.799 13.1618C138.788 13.0672 138.709 13.0001 138.623 13.0115H137.843C137.805 13.012 137.769 13.032 137.746 13.0656C137.723 13.0993 137.716 13.1428 137.726 13.1833C137.765 13.2477 139.072 16.4041 139.072 16.4041C139.072 16.4041 137.648 19.9469 137.609 20.0114C137.592 20.0544 137.595 20.1042 137.619 20.1434C137.643 20.1826 137.683 20.2057 137.726 20.2046H138.448C138.547 20.2103 138.637 20.1387 138.662 20.0328C138.76 19.7322 138.916 19.3028 139.15 18.6372C139.287 18.2077 139.521 17.4347 139.521 17.4347H139.54C139.54 17.4347 139.794 18.2077 139.891 18.4654C140.125 19.1095 140.438 19.9469 140.457 20.0543C140.477 20.1617 140.535 20.2046 140.613 20.2046H141.432C141.468 20.2018 141.5 20.1784 141.516 20.1432C141.532 20.1079 141.53 20.066 141.51 20.0328C141.413 19.8396 140.633 17.8427 140.086 16.5329C140.086 16.5329 141.491 13.2692 141.53 13.1833C141.569 13.0974 141.588 13.0115 141.471 13.0115Z" fill="url(#paint20_linear)"/>
<path d="M118.53 8.37288H117.574C117.506 8.3668 117.443 8.41044 117.418 8.48024C117.398 8.54466 115.994 13.0754 115.877 13.4619C115.799 13.7195 115.564 14.6858 115.506 14.9005L115.018 13.4833C114.901 13.0968 113.75 9.72565 113.711 9.59681C113.694 9.50284 113.622 9.43275 113.536 9.42503H112.599C112.561 9.42548 112.525 9.44547 112.502 9.47914C112.479 9.5128 112.472 9.5563 112.482 9.59681C112.502 9.63976 114.199 14.3423 114.862 16.1459V20.0969C114.862 20.1613 114.882 20.2043 114.96 20.2043H115.838C115.864 20.2062 115.89 20.1955 115.908 20.1749C115.927 20.1544 115.937 20.1259 115.935 20.0969V16.1674C116.501 14.514 118.569 8.5876 118.588 8.52319C118.647 8.45877 118.647 8.37288 118.53 8.37288Z" fill="url(#paint21_linear)"/>
<path d="M216.901 5.05255C217.066 5.05255 217.066 5.05255 217.231 5.23435C218.764 5.61468 220.257 6.16279 221.691 6.87048C222.377 7.19865 222.872 7.87921 223.012 8.68841L226.976 25.5952C226.976 25.9587 227.141 25.9587 227.471 25.9587H232.096C232.426 25.9587 232.426 25.777 232.592 25.5952C235.069 19.0506 237.547 12.6879 240.024 6.14331C240.177 5.62492 240.4 5.13469 240.685 4.68897H235.73C235.399 4.68897 235.234 4.87076 235.234 5.05255L230.279 18.687C230.279 18.8688 230.114 18.8688 230.114 19.0506C230.114 18.8688 230.114 18.687 229.949 18.687C229.288 14.8694 228.628 10.8699 227.967 7.05228C227.828 5.59762 226.646 4.54071 225.324 4.68897H217.562C216.901 4.50717 217.066 4.32538 216.901 5.05255Z" fill="url(#paint22_linear)"/>
<path d="M262.157 5.05227C261.992 5.05227 261.992 5.05227 261.992 4.87047C259.924 4.08221 257.719 3.83328 255.55 4.1433C253.691 4.37616 251.951 5.26966 250.595 6.68841C249.265 8.02185 248.643 10.0082 248.943 11.9604C249.219 13.2351 249.855 14.3807 250.76 15.2327C251.636 15.9442 252.577 16.5535 253.568 17.0506C254.21 17.4091 254.818 17.8353 255.385 18.3232C255.715 18.6605 255.889 19.1445 255.857 19.6393C255.825 20.1341 255.59 20.5861 255.22 20.8683C254.867 21.1254 254.476 21.3102 254.063 21.4136C252.52 21.7468 250.924 21.6213 249.439 21.0501C248.778 20.8683 248.283 20.5047 247.622 20.3229C247.292 21.959 246.961 23.4134 246.796 24.8677C246.961 24.8677 247.126 25.0495 247.292 25.0495C249.531 25.8321 251.896 26.08 254.229 25.7767C255.997 25.6342 257.676 24.8693 259.018 23.5952C260.363 22.3878 261.1 20.545 261.002 18.6386C260.904 16.7322 259.982 14.9928 258.523 13.9601C257.697 13.233 256.706 12.8694 255.715 12.1422C255.246 11.8231 254.804 11.458 254.394 11.0514C254.158 10.8203 254.024 10.4897 254.024 10.1425C254.024 9.79529 254.158 9.46461 254.394 9.23351C254.741 8.92413 255.131 8.67857 255.55 8.50634C256.698 8.20269 257.902 8.26576 259.018 8.68813C259.702 8.84795 260.367 9.09188 261.001 9.4153C261.537 8.01468 261.925 6.55068 262.157 5.05227Z" fill="url(#paint23_linear)"/>
<path d="M238.538 25.7767H242.998C243.493 25.7767 243.493 25.7767 243.658 25.2313C244.814 19.0503 246.136 12.8693 247.292 6.6883C247.457 5.96112 247.622 5.23394 247.787 4.32497H243.328C243.192 4.3072 243.057 4.35892 242.96 4.4653C242.863 4.57168 242.816 4.72097 242.832 4.87036C241.676 11.0514 240.52 17.2324 239.199 23.4134C238.882 24.1643 238.659 24.9595 238.538 25.7767Z" fill="url(#paint24_linear)"/>
<path d="M279.003 25.7763H274.709C274.544 25.7763 274.379 25.7763 274.379 25.4127C274.213 24.5038 274.048 23.5948 273.883 22.504H267.772C267.442 22.504 267.442 22.504 267.276 22.8676C266.946 23.7766 266.781 24.5038 266.451 25.4127C266.451 25.5945 266.285 25.5945 266.12 25.5945H261C261 25.4127 261.165 25.4127 261.165 25.2309C263.643 18.8682 265.955 12.5054 268.433 6.14263C268.758 4.96338 269.796 4.202 270.91 4.3247H274.709C275.039 4.3247 275.039 4.3247 275.204 4.68829C276.361 10.6875 277.517 16.8684 278.673 22.8676C278.691 23.8472 278.802 24.822 279.003 25.7763ZM271.406 10.3239C270.415 12.869 269.589 15.5959 268.763 18.141H272.892C272.397 15.5959 271.901 13.0508 271.406 10.3239Z" fill="url(#paint25_linear)"/>
<path d="M216.901 5.05215C217.066 4.32498 216.901 4.50677 217.562 4.50677H225.324C226.646 4.35852 227.828 5.41542 227.967 6.87007C228.628 10.6877 229.288 14.6871 229.949 18.5048C229.949 18.6866 229.949 18.6866 230.114 18.8683C230.132 18.7305 230.19 18.6028 230.279 18.5048L235.234 4.87036C235.399 4.50677 235.399 4.50677 235.73 4.50677H240.685C240.567 5.04023 240.341 5.53744 240.024 5.96111C237.547 12.5056 235.069 18.8683 232.592 25.4129C232.426 25.5947 232.426 25.7764 232.096 25.7764H227.471C227.141 25.7764 227.141 25.5947 226.976 25.4129L223.012 8.5062C222.872 7.69699 222.377 7.01644 221.691 6.68828C220.257 5.98058 218.764 5.43248 217.231 5.05215H216.901Z" fill="url(#paint26_linear)"/>
<path d="M262.157 5.05166C261.803 6.48654 261.527 7.94349 261.331 9.41467C260.67 9.23287 260.01 8.86929 259.349 8.6875C258.218 8.35703 257.035 8.29506 255.88 8.50571C255.445 8.63625 255.047 8.88648 254.724 9.23287C254.489 9.46397 254.354 9.79465 254.354 10.1418C254.354 10.489 254.489 10.8197 254.724 11.0508C255.134 11.4574 255.576 11.8225 256.046 12.1415C257.036 12.6387 257.977 13.2479 258.853 13.9595C260.313 14.9922 261.234 16.7316 261.332 18.638C261.43 20.5443 260.693 22.3871 259.349 23.5944C258.006 24.8686 256.327 25.6334 254.559 25.7759C252.226 26.0856 249.86 25.8375 247.622 25.0488C247.457 25.0488 247.292 24.867 247.127 24.867C247.457 23.2309 247.787 21.7765 247.952 20.3222C248.613 20.504 249.109 20.8676 249.769 21.0494C251.253 21.6267 252.851 21.7523 254.394 21.4129C254.724 21.2311 255.22 21.0494 255.55 20.8676C255.921 20.5854 256.155 20.1334 256.187 19.6386C256.219 19.1439 256.046 18.6598 255.715 18.3225C255.175 17.7951 254.561 17.3656 253.898 17.0499C252.908 16.5528 251.967 15.9436 251.091 15.232C250.1 14.465 249.442 13.2802 249.274 11.9598C248.973 10.0076 249.596 8.02122 250.925 6.68779C252.285 5.27454 254.023 4.38195 255.88 4.1427C258.05 3.84187 260.253 4.09059 262.322 4.86987C261.992 4.86987 262.157 5.05166 262.157 5.05166Z" fill="url(#paint27_linear)"/>
<path d="M238.538 25.7767C238.703 24.8677 238.868 24.1405 239.034 23.4134C240.19 17.2324 241.346 11.0514 242.667 4.87036C242.651 4.72097 242.698 4.57168 242.795 4.4653C242.891 4.35892 243.027 4.3072 243.163 4.32497H247.622C247.457 5.05215 247.292 5.96112 247.127 6.6883C245.971 12.8693 244.649 19.0503 243.493 25.2313C243.328 25.7767 243.328 25.7767 242.832 25.7767H238.538Z" fill="url(#paint28_linear)"/>
<path d="M353.404 15.6678V11.0961C353.404 9.3589 352.407 8.20074 350.801 8.20074C349.865 8.13059 348.971 8.63465 348.475 9.51129C348.016 8.66974 347.179 8.1681 346.287 8.20074C345.51 8.15838 344.77 8.57681 344.349 9.29794V8.38361H342.909V15.6983H344.377V11.6143C344.377 10.3342 345.014 9.66368 346.011 9.66368C347.007 9.66368 347.45 10.3342 347.45 11.5838V15.6374H348.89V11.6143C348.89 10.3342 349.555 9.66368 350.524 9.66368C351.493 9.66368 351.992 10.3342 351.992 11.5838V15.6374L353.404 15.6678ZM374.947 8.38361H372.594V6.15872H371.126V8.38361H369.769V9.84655H371.126V13.1686C371.126 14.8754 371.708 15.8812 373.424 15.8812C374.059 15.8874 374.683 15.6974 375.224 15.3326L374.809 13.9611C374.422 14.2117 373.984 14.3482 373.535 14.3573C372.815 14.3573 372.566 13.8696 372.566 13.1382V9.81607H374.92L374.947 8.38361ZM387.242 8.20074C386.526 8.17421 385.855 8.58442 385.498 9.26747V8.38361H384.058V15.6678H385.498V11.5838C385.498 10.3647 385.968 9.69416 386.91 9.69416C387.222 9.69562 387.531 9.75752 387.824 9.87703L388.267 8.38361C387.937 8.25858 387.591 8.19673 387.242 8.20074ZM368.662 8.96269C367.845 8.42044 366.901 8.1554 365.948 8.20074C364.259 8.20074 363.179 9.0846 363.179 10.5475C363.179 11.7362 363.982 12.4677 365.477 12.7115L366.169 12.8029C366.972 12.9248 367.332 13.1686 367.332 13.5649C367.332 14.1135 366.806 14.4487 365.809 14.4487C365.014 14.478 364.233 14.2094 363.594 13.6868L362.93 14.9059C363.774 15.5499 364.783 15.8809 365.809 15.8507C367.72 15.8507 368.828 14.8449 368.828 13.4734C368.828 12.1933 367.942 11.5228 366.502 11.279L365.809 11.1876C365.2 11.0961 364.674 10.9438 364.674 10.4866C364.674 9.93798 365.145 9.6332 365.948 9.6332C366.676 9.63666 367.391 9.84659 368.025 10.2428L368.662 8.96269ZM407.29 8.20074C406.574 8.17421 405.903 8.58442 405.546 9.26747V8.38361H404.106V15.6678H405.546V11.5838C405.546 10.3647 406.016 9.69416 406.958 9.69416C407.27 9.69562 407.579 9.75752 407.872 9.87703L408.315 8.38361C407.985 8.26128 407.638 8.19953 407.29 8.20074ZM388.71 12.0105C388.71 14.2354 390.122 15.8507 392.254 15.8507C393.121 15.9 393.973 15.584 394.635 14.9668L393.943 13.6868C393.44 14.1051 392.83 14.3396 392.199 14.3573C391.036 14.3573 390.205 13.4125 390.205 12.0105C390.205 10.6085 391.063 9.69416 392.199 9.66368C392.832 9.66699 393.446 9.90298 393.943 10.3342L394.635 9.05412C393.966 8.44975 393.119 8.13541 392.254 8.17026C390.122 8.20074 388.71 9.81607 388.71 12.0105ZM402.223 12.0105V8.35313H400.783V9.23699C400.277 8.53056 399.495 8.13385 398.678 8.17026C396.823 8.17026 395.355 9.78559 395.355 12.0105C395.355 14.2354 396.823 15.8507 398.678 15.8507C399.493 15.8807 400.274 15.4852 400.783 14.784V15.6678H402.223V12.0105ZM396.851 12.0105C396.851 10.7304 397.626 9.66368 398.872 9.66368C400.063 9.66368 400.866 10.6695 400.866 12.0105C400.866 13.3515 400.063 14.3573 398.872 14.3573C397.626 14.3573 396.851 13.2906 396.851 12.0105ZM379.461 8.20074C377.523 8.20074 376.166 9.75511 376.166 12.041C376.166 14.3268 377.578 15.8812 379.572 15.8812C380.562 15.9165 381.528 15.5473 382.285 14.8449L381.593 13.6563C381.043 14.1434 380.36 14.4119 379.655 14.4182C378.713 14.4182 377.883 13.9611 377.661 12.62H382.59C382.59 12.4067 382.618 12.2238 382.618 12.0105C382.59 9.75511 381.289 8.20074 379.461 8.20074ZM379.433 9.60272C380.375 9.60272 380.956 10.2428 381.122 11.3704H377.661C377.8 10.3342 378.381 9.60272 379.433 9.60272ZM415.597 12.0105V5.42725H414.157V9.23699C413.652 8.53056 412.869 8.13385 412.053 8.17026C410.198 8.17026 408.73 9.78559 408.73 12.0105C408.73 14.2354 410.198 15.8507 412.053 15.8507C412.868 15.8807 413.648 15.4852 414.157 14.784V15.6678H415.597V12.0105ZM417.286 14.9973C417.343 14.9925 417.4 15.003 417.453 15.0278C417.508 15.0583 417.536 15.0888 417.591 15.1192C417.634 15.1577 417.664 15.2116 417.674 15.2716C417.73 15.3858 417.73 15.5231 417.674 15.6374C417.646 15.6983 417.619 15.7288 417.591 15.7897C417.556 15.8372 417.507 15.8696 417.453 15.8812C417.4 15.906 417.343 15.9165 417.286 15.9117C417.12 15.9093 416.97 15.8029 416.899 15.6374C416.844 15.523 416.844 15.386 416.899 15.2716C416.942 15.1625 417.021 15.0754 417.12 15.0278C417.173 15.003 417.23 14.9925 417.286 14.9973ZM417.286 15.8202C417.334 15.825 417.382 15.8144 417.425 15.7897C417.453 15.7593 417.508 15.7593 417.536 15.7288C417.602 15.6624 417.64 15.5683 417.64 15.4697C417.64 15.3711 417.602 15.2771 417.536 15.2107C417.509 15.173 417.468 15.1506 417.425 15.1497C417.383 15.1221 417.334 15.1113 417.286 15.1192C417.239 15.1145 417.191 15.1251 417.148 15.1497C417.067 15.1896 417.004 15.2636 416.972 15.3553C416.941 15.4469 416.945 15.5485 416.982 15.6374C417.01 15.6678 417.01 15.7288 417.037 15.7593C417.064 15.7969 417.105 15.8193 417.148 15.8202H417.286ZM417.314 15.2411C417.353 15.2366 417.392 15.2474 417.425 15.2716C417.453 15.3021 417.48 15.3326 417.453 15.3631C417.457 15.3967 417.447 15.4309 417.425 15.455C417.404 15.4791 417.372 15.4902 417.342 15.485L417.48 15.6374H417.37L417.259 15.485H417.231V15.6374H417.148V15.2107L417.314 15.2411ZM417.203 15.3326V15.4545H417.37L417.397 15.424C417.397 15.3935 417.397 15.3935 417.37 15.3935H417.314L417.203 15.3326ZM410.225 12.0105C410.225 10.7304 411.001 9.66368 412.247 9.66368C413.437 9.66368 414.241 10.6695 414.241 12.0105C414.241 13.3515 413.437 14.3573 412.247 14.3573C411.001 14.3573 410.225 13.2906 410.225 12.0105ZM361.517 12.0105V8.35313H360.077V9.23699C359.579 8.53704 358.808 8.14072 358.001 8.17026C356.145 8.17026 354.678 9.78559 354.678 12.0105C354.678 14.2354 356.145 15.8507 358.001 15.8507C358.816 15.8807 359.596 15.4852 360.105 14.784V15.6678H361.545L361.517 12.0105ZM356.173 12.0105C356.173 10.7304 356.948 9.66368 358.194 9.66368C359.385 9.66368 360.188 10.6695 360.188 12.0105C360.188 13.3515 359.385 14.3573 358.194 14.3573C356.921 14.3573 356.173 13.2906 356.173 12.0105Z" fill="url(#paint29_linear)"/>
<path d="M324.495 3.35522H315.772V20.6058H324.495V3.35522Z" fill="url(#paint30_linear)"/>
<path d="M316.326 11.9808C316.329 8.61256 317.738 5.43264 320.147 3.35554C316.066 -0.189233 310.195 0.313427 306.661 4.5102C303.127 8.70698 303.116 15.1885 306.637 19.399C310.158 23.6095 316.027 24.135 320.12 20.6061C317.708 18.5341 316.307 15.3479 316.326 11.9808Z" fill="url(#paint31_linear)"/>
<path d="M336.263 11.9807C336.259 16.176 334.082 20.0014 330.654 21.8359C327.226 23.6705 323.148 23.1931 320.147 20.606C324.462 16.8611 325.217 9.98264 321.837 5.21454C321.345 4.52096 320.778 3.89655 320.147 3.35537C323.144 0.750285 327.231 0.262752 330.665 2.1007C334.099 3.93865 336.274 7.77775 336.263 11.9807Z" fill="url(#paint32_linear)"/>
<path d="M335.295 18.7766V18.4108H335.433V18.3499H335.101V18.4108H335.239V18.7766H335.295ZM335.933 18.7766V18.3499H335.849L335.738 18.6547L335.627 18.3499H335.517V18.7766H335.572V18.4413L335.683 18.7156H335.766L335.877 18.4413V18.7766H335.933Z" fill="url(#paint33_linear)"/>
<path d="M442.716 12.1738L448.837 16.1542V0.996582L442.716 12.1738Z" fill="url(#paint34_linear)"/>
<path d="M448.837 0.996582V16.1542L454.955 12.1738L448.837 0.996582Z" fill="url(#paint35_linear)"/>
<path d="M442.716 13.45L448.837 22.9409V17.4303L442.716 13.45Z" fill="url(#paint36_linear)"/>
<path d="M448.837 17.4303V22.9409L454.96 13.45L448.837 17.4303Z" fill="url(#paint37_linear)"/>
<path d="M448.837 9.10962L448.837 12.3937V16.1535L454.955 12.1732L448.837 9.10962Z" fill="url(#paint38_linear)"/>
<path d="M448.834 9.09692L448.834 12.3811V16.141L442.716 12.1606L448.834 9.09692Z" fill="url(#paint39_linear)"/>
<path d="M467.822 17.8158H462.807V8.08301H467.696V8.80841H463.502V12.5206H467.317V13.2435H463.502V17.095H467.82L467.822 17.8158Z" fill="url(#paint40_linear)"/>
<path d="M472.382 8.80829H469.11V8.08496H476.349V8.80829H473.077V17.8188H472.382V8.80829Z" fill="url(#paint41_linear)"/>
<path d="M485.101 17.8158H484.406V13.2137H478.886V17.8158H478.191V8.08301H478.886V12.4908H484.406V8.08301H485.101V17.8158Z" fill="url(#paint42_linear)"/>
<path d="M493.238 17.8158H488.223V8.08301H493.111V8.80841H488.917V12.5206H492.732V13.2435H488.917V17.095H493.236L493.238 17.8158Z" fill="url(#paint43_linear)"/>
<path d="M496.497 13.7269V17.8147H495.804V8.08287C496.182 8.08287 496.566 8.07832 496.953 8.06923C497.341 8.06014 497.665 8.05545 497.926 8.05518C499.989 8.05518 501.02 8.99137 501.02 10.8638C501.027 11.5127 500.815 12.1414 500.427 12.6295C500.031 13.1208 499.53 13.4359 498.925 13.5748L502.02 17.8156H501.16L498.215 13.7269H496.497ZM497.886 8.77727C497.701 8.77727 497.238 8.78663 496.497 8.80537V13.0048H498.025C498.623 13.0048 499.145 12.8056 499.592 12.4071C500.055 12.0087 500.286 11.4942 500.286 10.8638C500.286 9.47331 499.486 8.77809 497.886 8.77809V8.77727Z" fill="url(#paint44_linear)"/>
<path d="M509.103 17.8158H504.088V8.08301H508.977V8.80841H504.783V12.5206H508.598V13.2435H504.783V17.095H509.102L509.103 17.8158Z" fill="url(#paint45_linear)"/>
<path d="M517.782 8.08301H518.476V13.742C518.476 15.1415 518.16 16.1887 517.529 16.8833C516.897 17.578 516.097 17.9256 515.129 17.9262C514.059 17.9262 513.192 17.5601 512.526 16.828C511.87 16.0955 511.541 15.0346 511.541 13.6453V8.08301H512.236V13.5056C512.236 14.6646 512.495 15.5706 513.013 16.2237C513.531 16.8767 514.236 17.2035 515.129 17.2041C515.955 17.2041 516.603 16.8935 517.074 16.2724C517.545 15.6513 517.781 14.7522 517.782 13.575V8.08301Z" fill="url(#paint46_linear)"/>
<path d="M522.165 17.8158H521.471V8.08301H522.178L525.74 13.4221L529.164 8.08301H529.833V17.8158H529.138V9.27879L525.74 14.5344H525.628L522.165 9.32053V17.8158Z" fill="url(#paint47_linear)"/>
<path d="M590.598 5.61509V15.8723C590.603 15.9461 590.579 16.0189 590.532 16.0713C590.484 16.1236 590.418 16.1502 590.351 16.144H588.438C588.371 16.1502 588.304 16.1236 588.257 16.0713C588.209 16.0189 588.185 15.9461 588.191 15.8723V5.61509C588.185 5.54128 588.209 5.46846 588.257 5.41609C588.304 5.36371 588.371 5.3371 588.438 5.34337H590.351C590.474 5.30941 590.598 5.44527 590.598 5.61509Z" fill="url(#paint48_linear)"/>
<path d="M605.44 5.34374C605.535 5.35232 605.624 5.40099 605.687 5.4796C605.741 5.54399 605.754 5.63878 605.718 5.71735L602.57 16.0085C602.531 16.1189 602.431 16.188 602.324 16.1783H600.626C600.519 16.188 600.419 16.1189 600.379 16.0085L598.559 9.99684L596.738 16.0085C596.699 16.1189 596.599 16.188 596.491 16.1783H594.794C594.687 16.188 594.586 16.1189 594.547 16.0085L591.4 5.71735C591.364 5.63878 591.376 5.54399 591.431 5.4796C591.477 5.39676 591.558 5.34555 591.647 5.34374H593.776C593.893 5.33413 593.998 5.42119 594.023 5.54753L595.689 11.6271L597.54 5.54753C597.58 5.43712 597.68 5.36808 597.787 5.37771H599.269C599.376 5.36808 599.476 5.43712 599.515 5.54753L601.367 11.6271L603.033 5.54753C603.068 5.42913 603.167 5.34763 603.28 5.34374H605.44Z" fill="url(#paint49_linear)"/>
<path d="M608.649 5.34392C608.782 5.35378 608.887 5.46985 608.896 5.61564V15.8728C608.902 15.9467 608.878 16.0195 608.83 16.0719C608.782 16.1242 608.716 16.1508 608.649 16.1446H606.736C606.669 16.1508 606.603 16.1242 606.555 16.0719C606.508 16.0195 606.483 15.9467 606.489 15.8728V5.61564C606.483 5.54183 606.508 5.46901 606.555 5.41663C606.603 5.36426 606.669 5.33765 606.736 5.34392H608.649Z" fill="url(#paint50_linear)"/>
<path d="M570.17 14.8201C570.51 14.9559 570.634 15.4994 570.665 15.7711C570.727 16.2126 570.603 16.3824 570.479 16.3824C570.356 16.3824 570.17 16.2126 569.985 15.873C569.799 15.5333 569.707 15.1597 569.83 14.9559C569.861 14.7861 569.985 14.7182 570.17 14.8201Z" fill="url(#paint51_linear)"/>
<path d="M568.195 16.416C568.437 16.4279 568.668 16.5365 568.843 16.7216C569.244 17.0952 569.367 17.5028 569.151 17.8424C569.024 18.0171 568.83 18.1173 568.627 18.1141C568.403 18.1078 568.188 18.0247 568.01 17.8763C567.661 17.5944 567.555 17.0718 567.763 16.6537C567.86 16.4981 568.023 16.4083 568.195 16.416Z" fill="url(#paint52_linear)"/>
<path d="M563.689 20.492C558.798 20.492 554.833 16.1278 554.833 10.7443C554.833 5.36078 558.798 0.996582 563.689 0.996582C568.58 0.996582 572.546 5.36078 572.546 10.7443C572.544 12.4996 572.118 14.2227 571.311 15.737C571.28 15.771 571.219 15.771 571.219 15.7031C570.91 13.2916 569.583 12.001 567.639 11.5934C567.485 11.5594 567.454 11.4575 567.67 11.4236C568.297 11.3657 568.927 11.3771 569.552 11.4575C569.578 11.2095 569.588 10.9599 569.583 10.7103C569.583 7.14633 566.958 4.25714 563.72 4.25714C560.482 4.25714 557.857 7.14633 557.857 10.7103C557.857 14.2743 560.482 17.1635 563.72 17.1635H563.998C563.911 16.5912 563.869 16.0116 563.874 15.4313C563.874 15.0238 563.967 14.9898 564.121 15.2955C564.978 17.105 566.532 18.391 568.349 18.7938C570.2 19.2353 572.052 19.7788 574.058 22.5638C574.243 22.8016 573.965 23.0733 573.749 22.8695C571.712 20.8996 569.861 20.2203 568.164 20.2203C566.281 20.2203 564.985 20.492 563.689 20.492Z" fill="url(#paint53_linear)"/>
<path d="M587.08 15.8045L585.537 13.8007C586.069 12.8897 586.348 11.8271 586.339 10.7439C586.339 8.44981 585.083 6.38161 583.158 5.5037C581.232 4.62578 579.016 5.11105 577.542 6.73322C576.068 8.3554 575.627 10.795 576.425 12.9145C577.222 15.0339 579.101 16.4159 581.186 16.4159C582.173 16.4143 583.138 16.0956 583.963 15.4989L584.364 16.0423C584.428 16.1201 584.516 16.1685 584.611 16.1781H586.925C586.999 16.1643 587.061 16.1112 587.092 16.0363C587.123 15.9615 587.118 15.8747 587.08 15.8045ZM583.716 11.7968H581.587C581.511 11.8073 581.446 11.8601 581.415 11.9362C581.384 12.0123 581.39 12.101 581.433 12.1704L582.451 13.5289C582.067 13.772 581.628 13.8899 581.186 13.8686C580.449 13.8508 579.749 13.5115 579.24 12.9255C578.73 12.3394 578.454 11.5547 578.47 10.7439C578.47 9.04572 579.612 7.58527 581.186 7.58527C582.759 7.58527 583.901 9.04572 583.901 10.7439C583.902 11.1048 583.84 11.4625 583.716 11.7968Z" fill="url(#paint54_linear)"/>
</g>
<defs>
<linearGradient id="paint0_linear" x1="7.24529" y1="10.5843" x2="12.2269" y2="18.3696" gradientUnits="userSpaceOnUse">
<stop stop-color="#D275F9"/>
<stop offset="1" stop-color="#8D1EC2"/>
</linearGradient>
<linearGradient id="paint1_linear" x1="6.07281" y1="13.9382" x2="11.8767" y2="23.1304" gradientUnits="userSpaceOnUse">
<stop stop-color="#D275F9"/>
<stop offset="1" stop-color="#8D1EC2"/>
</linearGradient>
<linearGradient id="paint2_linear" x1="-12.2444" y1="-2.27611" x2="30.2947" y2="54.8907" gradientUnits="userSpaceOnUse">
<stop stop-color="#D275F9"/>
<stop offset="1" stop-color="#8D1EC2"/>
</linearGradient>
<linearGradient id="paint3_linear" x1="11.2627" y1="-0.449565" x2="53.2559" y2="37.6914" gradientUnits="userSpaceOnUse">
<stop stop-color="#D275F9"/>
<stop offset="1" stop-color="#8D1EC2"/>
</linearGradient>
<linearGradient id="paint4_linear" x1="26.949" y1="0.0190041" x2="61.9402" y2="19.9388" gradientUnits="userSpaceOnUse">
<stop stop-color="#D275F9"/>
<stop offset="1" stop-color="#8D1EC2"/>
</linearGradient>
<linearGradient id="paint5_linear" x1="32.6645" y1="2.7523" x2="68.3118" y2="29.9739" gradientUnits="userSpaceOnUse">
<stop stop-color="#D275F9"/>
<stop offset="1" stop-color="#8D1EC2"/>
</linearGradient>
<linearGradient id="paint6_linear" x1="40.4905" y1="7.41551" x2="69.7298" y2="40.287" gradientUnits="userSpaceOnUse">
<stop stop-color="#D275F9"/>
<stop offset="1" stop-color="#8D1EC2"/>
</linearGradient>
<linearGradient id="paint7_linear" x1="50.2956" y1="7.29064" x2="79.4919" y2="42.7174" gradientUnits="userSpaceOnUse">
<stop stop-color="#D275F9"/>
<stop offset="1" stop-color="#8D1EC2"/>
</linearGradient>
<linearGradient id="paint8_linear" x1="64.7723" y1="-0.0844083" x2="99.7641" y2="19.6785" gradientUnits="userSpaceOnUse">
<stop stop-color="#D275F9"/>
<stop offset="1" stop-color="#8D1EC2"/>
</linearGradient>
<linearGradient id="paint9_linear" x1="67.8009" y1="7.43783" x2="95.8447" y2="43.6769" gradientUnits="userSpaceOnUse">
<stop stop-color="#D275F9"/>
<stop offset="1" stop-color="#8D1EC2"/>
</linearGradient>
<linearGradient id="paint10_linear" x1="149.488" y1="8.95673" x2="164.79" y2="28.3774" gradientUnits="userSpaceOnUse">
<stop stop-color="#D275F9"/>
<stop offset="1" stop-color="#8D1EC2"/>
</linearGradient>
<linearGradient id="paint11_linear" x1="158.155" y1="12.0304" x2="168.503" y2="26.7619" gradientUnits="userSpaceOnUse">
<stop stop-color="#D275F9"/>
<stop offset="1" stop-color="#8D1EC2"/>
</linearGradient>
<linearGradient id="paint12_linear" x1="164.963" y1="12.0625" x2="175.593" y2="24.6132" gradientUnits="userSpaceOnUse">
<stop stop-color="#D275F9"/>
<stop offset="1" stop-color="#8D1EC2"/>
</linearGradient>
<linearGradient id="paint13_linear" x1="170.007" y1="12.0541" x2="180.688" y2="25.6575" gradientUnits="userSpaceOnUse">
<stop stop-color="#D275F9"/>
<stop offset="1" stop-color="#8D1EC2"/>
</linearGradient>
<linearGradient id="paint14_linear" x1="174.925" y1="11.5782" x2="190.015" y2="25.7343" gradientUnits="userSpaceOnUse">
<stop stop-color="#D275F9"/>
<stop offset="1" stop-color="#8D1EC2"/>
</linearGradient>
<linearGradient id="paint15_linear" x1="117.408" y1="-2.40316" x2="143.689" y2="79.8106" gradientUnits="userSpaceOnUse">
<stop stop-color="#D275F9"/>
<stop offset="1" stop-color="#8D1EC2"/>
</linearGradient>
<linearGradient id="paint16_linear" x1="120.368" y1="10.7967" x2="135.039" y2="22.5648" gradientUnits="userSpaceOnUse">
<stop stop-color="#D275F9"/>
<stop offset="1" stop-color="#8D1EC2"/>
</linearGradient>
<linearGradient id="paint17_linear" x1="125.015" y1="6.21578" x2="144.777" y2="17.794" gradientUnits="userSpaceOnUse">
<stop stop-color="#D275F9"/>
<stop offset="1" stop-color="#8D1EC2"/>
</linearGradient>
<linearGradient id="paint18_linear" x1="130.521" y1="10.6623" x2="145.627" y2="22.6354" gradientUnits="userSpaceOnUse">
<stop stop-color="#D275F9"/>
<stop offset="1" stop-color="#8D1EC2"/>
</linearGradient>
<linearGradient id="paint19_linear" x1="115.173" y1="10.6223" x2="130.343" y2="22.4257" gradientUnits="userSpaceOnUse">
<stop stop-color="#D275F9"/>
<stop offset="1" stop-color="#8D1EC2"/>
</linearGradient>
<linearGradient id="paint20_linear" x1="135.061" y1="10.9064" x2="149.669" y2="23.0656" gradientUnits="userSpaceOnUse">
<stop stop-color="#D275F9"/>
<stop offset="1" stop-color="#8D1EC2"/>
</linearGradient>
<linearGradient id="paint21_linear" x1="108.54" y1="4.91232" x2="132.275" y2="23.5565" gradientUnits="userSpaceOnUse">
<stop stop-color="#D275F9"/>
<stop offset="1" stop-color="#8D1EC2"/>
</linearGradient>
<linearGradient id="paint22_linear" x1="201.673" y1="-1.74094" x2="240.599" y2="63.5525" gradientUnits="userSpaceOnUse">
<stop stop-color="#D275F9"/>
<stop offset="1" stop-color="#8D1EC2"/>
</linearGradient>
<linearGradient id="paint23_linear" x1="236.961" y1="-2.38672" x2="282.074" y2="45.4665" gradientUnits="userSpaceOnUse">
<stop stop-color="#D275F9"/>
<stop offset="1" stop-color="#8D1EC2"/>
</linearGradient>
<linearGradient id="paint24_linear" x1="232.616" y1="-1.95243" x2="273.139" y2="24.4534" gradientUnits="userSpaceOnUse">
<stop stop-color="#D275F9"/>
<stop offset="1" stop-color="#8D1EC2"/>
</linearGradient>
<linearGradient id="paint25_linear" x1="249.473" y1="-1.96494" x2="292.571" y2="52.6734" gradientUnits="userSpaceOnUse">
<stop stop-color="#D275F9"/>
<stop offset="1" stop-color="#8D1EC2"/>
</linearGradient>
<linearGradient id="paint26_linear" x1="201.673" y1="-1.73906" x2="240.217" y2="63.3464" gradientUnits="userSpaceOnUse">
<stop stop-color="#D275F9"/>
<stop offset="1" stop-color="#8D1EC2"/>
</linearGradient>
<linearGradient id="paint27_linear" x1="237.398" y1="-2.38128" x2="282.533" y2="44.9846" gradientUnits="userSpaceOnUse">
<stop stop-color="#D275F9"/>
<stop offset="1" stop-color="#8D1EC2"/>
</linearGradient>
<linearGradient id="paint28_linear" x1="232.722" y1="-1.95243" x2="272.946" y2="23.7904" gradientUnits="userSpaceOnUse">
<stop stop-color="#D275F9"/>
<stop offset="1" stop-color="#8D1EC2"/>
</linearGradient>
<linearGradient id="paint29_linear" x1="295.014" y1="2.36104" x2="298.994" y2="45.2897" gradientUnits="userSpaceOnUse">
<stop stop-color="#D275F9"/>
<stop offset="1" stop-color="#8D1EC2"/>
</linearGradient>
<linearGradient id="paint30_linear" x1="310.187" y1="-1.68922" x2="344.554" y2="24.577" gradientUnits="userSpaceOnUse">
<stop stop-color="#D275F9"/>
<stop offset="1" stop-color="#8D1EC2"/>
</linearGradient>
<linearGradient id="paint31_linear" x1="293.667" y1="-5.4205" x2="338.721" y2="44.6782" gradientUnits="userSpaceOnUse">
<stop stop-color="#D275F9"/>
<stop offset="1" stop-color="#8D1EC2"/>
</linearGradient>
<linearGradient id="paint32_linear" x1="309.829" y1="-5.41848" x2="354.886" y2="44.6023" gradientUnits="userSpaceOnUse">
<stop stop-color="#D275F9"/>
<stop offset="1" stop-color="#8D1EC2"/>
</linearGradient>
<linearGradient id="paint33_linear" x1="334.568" y1="18.2251" x2="335.104" y2="19.8052" gradientUnits="userSpaceOnUse">
<stop stop-color="#D275F9"/>
<stop offset="1" stop-color="#8D1EC2"/>
</linearGradient>
<linearGradient id="paint34_linear" x1="438.797" y1="-3.43584" x2="466.631" y2="13.5543" gradientUnits="userSpaceOnUse">
<stop stop-color="#D275F9"/>
<stop offset="1" stop-color="#8D1EC2"/>
</linearGradient>
<linearGradient id="paint35_linear" x1="444.92" y1="-3.43584" x2="472.748" y2="13.5422" gradientUnits="userSpaceOnUse">
<stop stop-color="#D275F9"/>
<stop offset="1" stop-color="#8D1EC2"/>
</linearGradient>
<linearGradient id="paint36_linear" x1="438.797" y1="10.6746" x2="458.386" y2="29.7709" gradientUnits="userSpaceOnUse">
<stop stop-color="#D275F9"/>
<stop offset="1" stop-color="#8D1EC2"/>
</linearGradient>
<linearGradient id="paint37_linear" x1="444.917" y1="10.6746" x2="464.506" y2="29.7774" gradientUnits="userSpaceOnUse">
<stop stop-color="#D275F9"/>
<stop offset="1" stop-color="#8D1EC2"/>
</linearGradient>
<linearGradient id="paint38_linear" x1="444.92" y1="7.04984" x2="458.94" y2="25.4573" gradientUnits="userSpaceOnUse">
<stop stop-color="#D275F9"/>
<stop offset="1" stop-color="#8D1EC2"/>
</linearGradient>
<linearGradient id="paint39_linear" x1="452.752" y1="7.03707" x2="438.731" y2="25.4448" gradientUnits="userSpaceOnUse">
<stop stop-color="#D275F9"/>
<stop offset="1" stop-color="#8D1EC2"/>
</linearGradient>
<linearGradient id="paint40_linear" x1="459.596" y1="5.23692" x2="479.079" y2="20.4103" gradientUnits="userSpaceOnUse">
<stop stop-color="#D275F9"/>
<stop offset="1" stop-color="#8D1EC2"/>
</linearGradient>
<linearGradient id="paint41_linear" x1="464.476" y1="5.23856" x2="484.436" y2="27.6741" gradientUnits="userSpaceOnUse">
<stop stop-color="#D275F9"/>
<stop offset="1" stop-color="#8D1EC2"/>
</linearGradient>
<linearGradient id="paint42_linear" x1="473.767" y1="5.23692" x2="493.812" y2="26.747" gradientUnits="userSpaceOnUse">
<stop stop-color="#D275F9"/>
<stop offset="1" stop-color="#8D1EC2"/>
</linearGradient>
<linearGradient id="paint43_linear" x1="485.012" y1="5.23692" x2="504.495" y2="20.4105" gradientUnits="userSpaceOnUse">
<stop stop-color="#D275F9"/>
<stop offset="1" stop-color="#8D1EC2"/>
</linearGradient>
<linearGradient id="paint44_linear" x1="491.824" y1="5.20102" x2="511.961" y2="24.5853" gradientUnits="userSpaceOnUse">
<stop stop-color="#D275F9"/>
<stop offset="1" stop-color="#8D1EC2"/>
</linearGradient>
<linearGradient id="paint45_linear" x1="500.878" y1="5.23692" x2="520.36" y2="20.4103" gradientUnits="userSpaceOnUse">
<stop stop-color="#D275F9"/>
<stop offset="1" stop-color="#8D1EC2"/>
</linearGradient>
<linearGradient id="paint46_linear" x1="507.101" y1="5.20464" x2="527.383" y2="26.8049" gradientUnits="userSpaceOnUse">
<stop stop-color="#D275F9"/>
<stop offset="1" stop-color="#8D1EC2"/>
</linearGradient>
<linearGradient id="paint47_linear" x1="516.117" y1="5.23692" x2="535.544" y2="30.4672" gradientUnits="userSpaceOnUse">
<stop stop-color="#D275F9"/>
<stop offset="1" stop-color="#8D1EC2"/>
</linearGradient>
<linearGradient id="paint48_linear" x1="586.648" y1="2.178" x2="600.148" y2="6.72598" gradientUnits="userSpaceOnUse">
<stop stop-color="#D275F9"/>
<stop offset="1" stop-color="#8D1EC2"/>
</linearGradient>
<linearGradient id="paint49_linear" x1="582.186" y1="2.17427" x2="600.069" y2="37.9915" gradientUnits="userSpaceOnUse">
<stop stop-color="#D275F9"/>
<stop offset="1" stop-color="#8D1EC2"/>
</linearGradient>
<linearGradient id="paint50_linear" x1="604.946" y1="2.18414" x2="618.446" y2="6.73397" gradientUnits="userSpaceOnUse">
<stop stop-color="#D275F9"/>
<stop offset="1" stop-color="#8D1EC2"/>
</linearGradient>
<linearGradient id="paint51_linear" x1="569.193" y1="14.3014" x2="572.475" y2="17.0964" gradientUnits="userSpaceOnUse">
<stop stop-color="#D275F9"/>
<stop offset="1" stop-color="#8D1EC2"/>
</linearGradient>
<linearGradient id="paint52_linear" x1="566.632" y1="15.9188" x2="569.932" y2="20.6153" gradientUnits="userSpaceOnUse">
<stop stop-color="#D275F9"/>
<stop offset="1" stop-color="#8D1EC2"/>
</linearGradient>
<linearGradient id="paint53_linear" x1="542.485" y1="-5.4205" x2="586.026" y2="52.4167" gradientUnits="userSpaceOnUse">
<stop stop-color="#D275F9"/>
<stop offset="1" stop-color="#8D1EC2"/>
</linearGradient>
<linearGradient id="paint54_linear" x1="568.938" y1="1.75451" x2="590.688" y2="33.8655" gradientUnits="userSpaceOnUse">
<stop stop-color="#D275F9"/>
<stop offset="1" stop-color="#8D1EC2"/>
</linearGradient>
</defs>
</svg>
