<svg width="26" height="25" viewBox="0 0 26 25" fill="none" xmlns="http://www.w3.org/2000/svg">
<path d="M10.9638 12.7405L17.2346 9.37507L12.5282 13.9049L12.3067 15.9772L13.5885 14.7349L17.7751 18.146L19.8836 6.84717L8.15445 11.7351L10.9638 12.7405Z" fill="white"/>
<path d="M23.4751 0H2.67445C1.53062 0 0.594269 0.937812 0.594269 2.08344V22.9166C0.594269 24.0622 1.53062 25 2.67445 25H23.4751C24.6189 25 25.5552 24.0622 25.5552 22.9166V2.08344C25.5552 0.937812 24.6189 0 23.4751 0ZM19.4757 20.3775C19.4757 20.3775 19.0613 21.4781 17.9219 20.9503L13.7084 17.5181L11.0067 20.1366C11.0067 20.1366 10.7955 20.3066 10.564 20.1997C10.564 20.1997 10.3649 20.1794 10.1153 19.3453C9.86727 18.5081 8.60393 14.1084 8.60393 14.1084L4.42141 12.6122C4.42141 12.6122 3.77929 12.37 3.71845 11.8419C3.65573 11.3141 4.44356 11.0272 4.44356 11.0272L21.0679 4.09781C21.0679 4.09781 22.4351 3.46 22.4351 4.51594L19.4757 20.3775Z" fill="white"/>
</svg>
