<svg width="110" height="111" viewBox="0 0 110 111" fill="none" xmlns="http://www.w3.org/2000/svg">
<rect x="84.384" y="5.42163" width="87.1231" height="79.3861" rx="20" transform="rotate(89.5935 84.384 5.42163)" fill="url(#paint0_linear)"/>
<rect width="90.585" height="86.001" rx="20" transform="matrix(-0.999985 -0.00538884 -0.00538884 0.999985 104.272 19.8087)" fill="url(#paint1_linear)"/>
<g filter="url(#filter0_d)">
<rect x="9.19312" y="8.89539" width="92.5276" height="92.5276" rx="20" transform="rotate(0.710348 9.19312 8.89539)" fill="white"/>
</g>
<path d="M51.2549 31.4216H34.3535V18.3347H37.6318V28.9519H41.165V18.3347H44.4434V28.9519H47.9766V18.3347H51.2549V31.4216ZM52.5645 31.4216L56.9854 18.3347H60.5713L64.9922 31.4216H61.6084L60.791 28.7498H56.6777L55.8604 31.4216H52.5645ZM60.0703 26.3767L58.7344 22.0613L57.3984 26.3767H60.0703ZM75.1172 20.8308H69.5801V31.4216H66.293V18.3347H75.1172V20.8308Z" fill="#44464B" fill-opacity="0.24"/>
<g filter="url(#filter1_d)">
<path d="M70.3906 71.2087C70.3906 73.3376 69.9902 75.281 69.1895 77.0388C68.4082 78.7966 67.2559 80.2908 65.7324 81.5212C64.1895 82.7517 62.373 83.699 60.2832 84.363C58.2129 85.0076 55.6836 85.3298 52.6953 85.3298C49.2969 85.3298 46.377 85.0466 43.9355 84.4802C41.5137 83.9138 39.541 83.2791 38.0176 82.5759V73.113H39.0723C40.6738 74.1287 42.5488 75.0076 44.6973 75.7498C46.8652 76.4919 48.8379 76.863 50.6152 76.863C51.6699 76.863 52.8125 76.7751 54.043 76.5994C55.293 76.4041 56.3379 75.9939 57.1777 75.3689C57.8418 74.8806 58.3691 74.2849 58.7598 73.5818C59.1699 72.8591 59.375 71.8435 59.375 70.5349C59.375 69.2458 59.0918 68.2595 58.5254 67.5759C57.959 66.8728 57.207 66.365 56.2695 66.0525C55.332 65.7205 54.209 65.5349 52.9004 65.4958C51.5918 65.4568 50.4395 65.4373 49.4434 65.4373H47.5684V57.7615H49.2969C50.625 57.7615 51.8457 57.7029 52.959 57.5857C54.0723 57.4685 55.0195 57.2341 55.8008 56.8826C56.582 56.5115 57.1875 55.9939 57.6172 55.3298C58.0664 54.6658 58.291 53.7673 58.291 52.6345C58.291 51.7556 58.0859 51.0427 57.6758 50.4958C57.2656 49.9294 56.7578 49.49 56.1523 49.1775C55.4492 48.8259 54.6289 48.5916 53.6914 48.4744C52.7539 48.3572 51.9531 48.2986 51.2891 48.2986C50.2148 48.2986 49.1211 48.4255 48.0078 48.6794C46.8945 48.9333 45.8105 49.2556 44.7559 49.6462C43.9355 49.9587 43.0762 50.3689 42.1777 50.8767C41.2793 51.365 40.6152 51.7361 40.1855 51.99H39.2773V42.6443C40.7812 41.9998 42.8027 41.3845 45.3418 40.7986C47.9004 40.1931 50.5078 39.8904 53.1641 39.8904C55.7617 39.8904 58.0078 40.115 59.9023 40.5642C61.8164 41.0134 63.4473 41.6677 64.7949 42.5271C66.2793 43.4451 67.3926 44.6169 68.1348 46.0427C68.877 47.449 69.248 49.0408 69.248 50.8181C69.248 53.2986 68.5254 55.4763 67.0801 57.3513C65.6543 59.2068 63.7695 60.408 61.4258 60.9548V61.365C62.4609 61.5212 63.4668 61.7849 64.4434 62.156C65.4395 62.5271 66.4062 63.1326 67.3438 63.9724C68.2227 64.7341 68.9453 65.7205 69.5117 66.9314C70.0977 68.1228 70.3906 69.5486 70.3906 71.2087Z" fill="#44464B"/>
</g>
<defs>
<filter id="filter0_d" x="0.0458984" y="0.895386" width="109.668" height="109.668" filterUnits="userSpaceOnUse" color-interpolation-filters="sRGB">
<feFlood flood-opacity="0" result="BackgroundImageFix"/>
<feColorMatrix in="SourceAlpha" type="matrix" values="0 0 0 0 0 0 0 0 0 0 0 0 0 0 0 0 0 0 127 0"/>
<feOffset/>
<feGaussianBlur stdDeviation="4"/>
<feColorMatrix type="matrix" values="0 0 0 0 0 0 0 0 0 0 0 0 0 0 0 0 0 0 0.3 0"/>
<feBlend mode="normal" in2="BackgroundImageFix" result="effect1_dropShadow"/>
<feBlend mode="normal" in="SourceGraphic" in2="effect1_dropShadow" result="shape"/>
</filter>
<filter id="filter1_d" x="34.0176" y="39.8904" width="40.373" height="53.4395" filterUnits="userSpaceOnUse" color-interpolation-filters="sRGB">
<feFlood flood-opacity="0" result="BackgroundImageFix"/>
<feColorMatrix in="SourceAlpha" type="matrix" values="0 0 0 0 0 0 0 0 0 0 0 0 0 0 0 0 0 0 127 0"/>
<feOffset dy="4"/>
<feGaussianBlur stdDeviation="2"/>
<feColorMatrix type="matrix" values="0 0 0 0 0 0 0 0 0 0 0 0 0 0 0 0 0 0 0.25 0"/>
<feBlend mode="normal" in2="BackgroundImageFix" result="effect1_dropShadow"/>
<feBlend mode="normal" in="SourceGraphic" in2="effect1_dropShadow" result="shape"/>
</filter>
<linearGradient id="paint0_linear" x1="55.1356" y1="75.5179" x2="107.576" y2="11.7287" gradientUnits="userSpaceOnUse">
<stop stop-color="#58A54B"/>
<stop offset="0.771314" stop-color="#76A040" stop-opacity="0"/>
</linearGradient>
<linearGradient id="paint1_linear" x1="-30.4107" y1="75.937" x2="26.8057" y2="9.1387" gradientUnits="userSpaceOnUse">
<stop stop-color="#58A54B"/>
<stop offset="0.771314" stop-color="#76A040" stop-opacity="0"/>
</linearGradient>
</defs>
</svg>
