<svg width="10" height="15" viewBox="0 0 10 15" fill="none" xmlns="http://www.w3.org/2000/svg">
<path d="M0.970434 6.91799L0.970563 6.91787L7.79654 0.921621L7.7966 0.921563C8.13364 0.625665 8.66552 0.62612 9.00203 0.923086L9.0021 0.92315C9.36085 1.23994 9.35964 1.77043 9.00038 2.08604L9.00037 2.08605L2.83728 7.50002L9.0006 12.914L9.00063 12.914C9.35983 13.2296 9.36104 13.7599 9.00236 14.0767L9.00226 14.0768C8.82997 14.2288 8.61054 14.3 8.39858 14.3C8.18721 14.3 7.96863 14.2293 7.79663 14.0783L7.79657 14.0783L0.970823 8.08238C0.970771 8.08233 0.970718 8.08228 0.970666 8.08224C0.802984 7.93521 0.700395 7.72659 0.700395 7.50002C0.700395 7.27303 0.803485 7.06481 0.970434 6.91799Z" fill="#454545" stroke="#454545" stroke-width="0.6"/>
</svg>
