<svg width="15" height="10" viewBox="0 0 15 10" fill="none" xmlns="http://www.w3.org/2000/svg">
<path d="M8.08201 9.00027L8.08213 9.00014L14.0784 2.17417L14.0784 2.1741C14.3743 1.83706 14.3739 1.30519 14.0769 0.968671L14.0769 0.968598C13.7601 0.609856 13.2296 0.611063 12.914 0.970328L12.914 0.970334L7.49998 7.13343L2.08603 0.970108L2.086 0.970068C1.77036 0.610871 1.24012 0.609663 0.923307 0.968339L0.923218 0.96844C0.771174 1.14073 0.700002 1.36016 0.700002 1.57212C0.700002 1.78349 0.770697 2.00208 0.921694 2.17407L0.921749 2.17413L6.91762 8.99988C6.91767 8.99993 6.91772 8.99998 6.91776 9.00004C7.06479 9.16772 7.27341 9.27031 7.49998 9.27031C7.72697 9.27031 7.93519 9.16722 8.08201 9.00027Z" fill="#454545" stroke="#454545" stroke-width="0.6"/>
</svg>
