<svg width="21" height="21" viewBox="0 0 21 21" fill="none" xmlns="http://www.w3.org/2000/svg">
<path d="M10.1042 0C4.54601 0 0.024353 4.64441 0.024353 10.3528C0.024353 16.0615 4.54601 20.7059 10.1042 20.7059C15.6621 20.7059 20.184 16.0615 20.184 10.3528C20.184 4.64441 15.6621 0 10.1042 0ZM10.1042 18.268C5.85471 18.268 2.39766 14.7173 2.39766 10.3528C2.39766 5.98823 5.85471 2.43757 10.1042 2.43757C14.3534 2.43757 17.8104 5.98823 17.8104 10.3528C17.8104 14.7173 14.3534 18.268 10.1042 18.268Z" fill="#389629"/>
<path d="M13.0011 7.13852L8.31927 11.9471L7.04853 10.642C6.58504 10.1659 5.83364 10.1659 5.37015 10.642C4.90697 11.118 4.90697 11.8897 5.37015 12.3655L7.48024 14.5327C7.71198 14.7707 8.01563 14.8896 8.31927 14.8896C8.62292 14.8896 8.92656 14.7707 9.15831 14.5327L14.6795 8.86203C15.1426 8.38599 15.1426 7.61424 14.6795 7.13852C14.216 6.66216 13.4646 6.66216 13.0011 7.13852Z" fill="#389629"/>
</svg>
