<svg width="41" height="41" viewBox="0 0 41 41" fill="none" xmlns="http://www.w3.org/2000/svg">
<path d="M20.5 41C15.0243 41 9.87628 38.8676 6.00426 34.9957C2.1324 31.1237 0 25.9757 0 20.5C0 15.0243 2.1324 9.87628 6.00426 6.00426C9.87628 2.1324 15.0243 0 20.5 0C25.9757 0 31.1237 2.1324 34.9957 6.00426C38.8676 9.87628 41 15.0243 41 20.5C41 25.9757 38.8676 31.1237 34.9957 34.9957C31.1237 38.8676 25.9757 41 20.5 41ZM20.5 2.40234C15.6659 2.40234 11.1213 4.28482 7.70304 7.70304C4.28482 11.1213 2.40234 15.6659 2.40234 20.5C2.40234 25.3341 4.28482 29.8787 7.70304 33.297C11.1213 36.7152 15.6659 38.5977 20.5 38.5977C25.3341 38.5977 29.8787 36.7152 33.297 33.297C36.7152 29.8787 38.5977 25.3341 38.5977 20.5C38.5977 15.6659 36.7152 11.1213 33.297 7.70304C29.8787 4.28482 25.3341 2.40234 20.5 2.40234Z" fill="white"/>
<path d="M19.2988 4.80762H21.7012V8.01331H19.2988V4.80762Z" fill="white"/>
<path d="M28.4761 10.8232L30.7425 8.55682L32.441 10.2553L30.1745 12.5217L28.4761 10.8232Z" fill="white"/>
<path d="M32.9868 19.2988H36.1925V21.7012H32.9868V19.2988Z" fill="white"/>
<path d="M28.4736 30.1787L30.1721 28.4803L32.4385 30.7467L30.7401 32.4451L28.4736 30.1787Z" fill="white"/>
<path d="M19.2988 32.9863H21.7012V36.192H19.2988V32.9863Z" fill="white"/>
<path d="M8.55078 30.7451L10.8172 28.4787L12.5157 30.1772L10.2492 32.4436L8.55078 30.7451Z" fill="white"/>
<path d="M4.80762 19.2988H8.01331V21.7012H4.80762V19.2988Z" fill="white"/>
<path d="M8.55225 10.2529L10.2507 8.55447L12.5171 10.8209L10.8187 12.5194L8.55225 10.2529Z" fill="white"/>
<path d="M28.9796 21.7013H19.2988V12.0205H21.7012V19.299H28.9796V21.7013Z" fill="white"/>
</svg>
