<svg width="25" height="23" viewBox="0 0 25 23" fill="none" xmlns="http://www.w3.org/2000/svg">
<path d="M2.19727 9.30273H22.8027C24.0144 9.30273 25 10.2884 25 11.5V15.8945C25 17.1062 24.0144 18.0918 22.8027 18.0918H19.8242V17.3594C19.8242 16.1478 18.8386 15.1621 17.627 15.1621H7.37305C6.16143 15.1621 5.17578 16.1478 5.17578 17.3594V18.0918H2.19727C0.985645 18.0918 0 17.1062 0 15.8945V11.5C0 10.2884 0.985645 9.30273 2.19727 9.30273ZM9.57031 12.9648C9.9748 12.9648 10.3027 12.6369 10.3027 12.2324C10.3027 11.8278 9.9748 11.5 9.57031 11.5C9.16582 11.5 8.83789 11.8278 8.83789 12.2324C8.83789 12.6369 9.16582 12.9648 9.57031 12.9648ZM6.64062 12.9648C7.04512 12.9648 7.37305 12.6369 7.37305 12.2324C7.37305 11.8278 7.04512 11.5 6.64062 11.5C6.23613 11.5 5.9082 11.8278 5.9082 12.2324C5.9082 12.6369 6.23613 12.9648 6.64062 12.9648Z" fill="#454545"/>
<path d="M8.83789 0.587891V3.44346H5.98233C6.27432 2.0107 7.40513 0.879883 8.83789 0.587891Z" fill="#454545"/>
<path d="M18.3594 0.513672C18.7642 0.513672 19.0918 0.84126 19.0918 1.24609V7.83789H5.9082V4.9082H9.57031C9.97515 4.9082 10.3027 4.58062 10.3027 4.17578V0.513672H18.3594Z" fill="#454545"/>
<path d="M7.37305 22.4863C6.96821 22.4863 6.64062 22.1587 6.64062 21.7539V17.3594C6.64062 16.9545 6.96821 16.627 7.37305 16.627H17.627C18.0318 16.627 18.3594 16.9545 18.3594 17.3594V21.7539C18.3594 22.1587 18.0318 22.4863 17.627 22.4863H7.37305ZM15.4297 18.8242H9.57031C9.16548 18.8242 8.83789 19.1518 8.83789 19.5566C8.83789 19.9615 9.16548 20.2891 9.57031 20.2891H15.4297C15.8345 20.2891 16.1621 19.9615 16.1621 19.5566C16.1621 19.1518 15.8345 18.8242 15.4297 18.8242Z" fill="#454545"/>
</svg>
