<svg width="1435" height="81" viewBox="0 0 1435 81" fill="none" xmlns="http://www.w3.org/2000/svg">
<path d="M102.62 34V21.148H112.79V34H110.072V23.416H105.338V34H102.62ZM124.744 29.068C124.744 30.7 124.312 31.96 123.448 32.848C122.596 33.736 121.432 34.18 119.956 34.18C119.044 34.18 118.228 33.982 117.508 33.586C116.8 33.19 116.242 32.614 115.834 31.858C115.426 31.09 115.222 30.16 115.222 29.068C115.222 27.436 115.648 26.182 116.5 25.306C117.352 24.43 118.522 23.992 120.01 23.992C120.934 23.992 121.75 24.19 122.458 24.586C123.166 24.982 123.724 25.558 124.132 26.314C124.54 27.058 124.744 27.976 124.744 29.068ZM117.958 29.068C117.958 30.04 118.114 30.778 118.426 31.282C118.75 31.774 119.272 32.02 119.992 32.02C120.7 32.02 121.21 31.774 121.522 31.282C121.846 30.778 122.008 30.04 122.008 29.068C122.008 28.096 121.846 27.37 121.522 26.89C121.21 26.398 120.694 26.152 119.974 26.152C119.266 26.152 118.75 26.398 118.426 26.89C118.114 27.37 117.958 28.096 117.958 29.068ZM130.957 34.18C129.493 34.18 128.359 33.778 127.555 32.974C126.763 32.158 126.367 30.88 126.367 29.14C126.367 27.94 126.571 26.962 126.979 26.206C127.387 25.45 127.951 24.892 128.671 24.532C129.403 24.172 130.243 23.992 131.191 23.992C131.863 23.992 132.445 24.058 132.937 24.19C133.441 24.322 133.879 24.478 134.251 24.658L133.459 26.728C133.039 26.56 132.643 26.422 132.271 26.314C131.911 26.206 131.551 26.152 131.191 26.152C129.799 26.152 129.103 27.142 129.103 29.122C129.103 30.106 129.283 30.832 129.643 31.3C130.015 31.768 130.531 32.002 131.191 32.002C131.755 32.002 132.253 31.93 132.685 31.786C133.117 31.63 133.537 31.42 133.945 31.156V33.442C133.537 33.706 133.105 33.892 132.649 34C132.205 34.12 131.641 34.18 130.957 34.18ZM144.343 26.188H141.121V34H138.439V26.188H135.217V24.172H144.343V26.188ZM150.188 23.974C151.508 23.974 152.516 24.262 153.212 24.838C153.92 25.402 154.274 26.272 154.274 27.448V34H152.402L151.88 32.668H151.808C151.388 33.196 150.944 33.58 150.476 33.82C150.008 34.06 149.366 34.18 148.55 34.18C147.674 34.18 146.948 33.928 146.372 33.424C145.796 32.908 145.508 32.122 145.508 31.066C145.508 30.022 145.874 29.254 146.606 28.762C147.338 28.258 148.436 27.982 149.9 27.934L151.61 27.88V27.448C151.61 26.932 151.472 26.554 151.196 26.314C150.932 26.074 150.56 25.954 150.08 25.954C149.6 25.954 149.132 26.026 148.676 26.17C148.22 26.302 147.764 26.47 147.308 26.674L146.426 24.856C146.954 24.58 147.536 24.364 148.172 24.208C148.82 24.052 149.492 23.974 150.188 23.974ZM151.61 29.446L150.566 29.482C149.702 29.506 149.102 29.662 148.766 29.95C148.43 30.238 148.262 30.616 148.262 31.084C148.262 31.492 148.382 31.786 148.622 31.966C148.862 32.134 149.174 32.218 149.558 32.218C150.134 32.218 150.62 32.05 151.016 31.714C151.412 31.366 151.61 30.88 151.61 30.256V29.446ZM165.731 26.746C165.731 27.274 165.563 27.724 165.227 28.096C164.903 28.468 164.417 28.708 163.769 28.816V28.888C164.453 28.972 164.999 29.206 165.407 29.59C165.827 29.974 166.037 30.466 166.037 31.066C166.037 31.63 165.887 32.134 165.587 32.578C165.299 33.022 164.837 33.37 164.201 33.622C163.565 33.874 162.731 34 161.699 34H157.019V24.172H161.699C162.467 24.172 163.151 24.256 163.751 24.424C164.363 24.58 164.843 24.844 165.191 25.216C165.551 25.588 165.731 26.098 165.731 26.746ZM163.013 26.962C163.013 26.362 162.539 26.062 161.591 26.062H159.701V28.006H161.285C161.849 28.006 162.275 27.928 162.563 27.772C162.863 27.604 163.013 27.334 163.013 26.962ZM163.265 30.922C163.265 30.538 163.115 30.262 162.815 30.094C162.515 29.914 162.065 29.824 161.465 29.824H159.701V32.146H161.519C162.023 32.146 162.437 32.056 162.761 31.876C163.097 31.684 163.265 31.366 163.265 30.922ZM182.974 24.172V32.038H184.414V37.528H182.002V34H168.34V24.172H171.022V31.984H174.316V24.172H176.998V31.984H180.292V24.172H182.974ZM188.668 24.172V28.06C188.668 28.264 188.656 28.516 188.632 28.816C188.62 29.116 188.602 29.422 188.578 29.734C188.566 30.046 188.548 30.322 188.524 30.562C188.5 30.802 188.482 30.97 188.47 31.066L193.006 24.172H196.228V34H193.636V30.076C193.636 29.752 193.648 29.398 193.672 29.014C193.696 28.618 193.72 28.252 193.744 27.916C193.78 27.568 193.804 27.304 193.816 27.124L189.298 34H186.076V24.172H188.668ZM205.475 24.172H208.427L204.539 28.888L208.769 34H205.727L201.713 29.014V34H199.031V24.172H201.713V28.942L205.475 24.172ZM212.767 24.172V28.06C212.767 28.264 212.755 28.516 212.731 28.816C212.719 29.116 212.701 29.422 212.677 29.734C212.665 30.046 212.647 30.322 212.623 30.562C212.599 30.802 212.581 30.97 212.569 31.066L217.105 24.172H220.327V34H217.735V30.076C217.735 29.752 217.747 29.398 217.771 29.014C217.795 28.618 217.819 28.252 217.843 27.916C217.879 27.568 217.903 27.304 217.915 27.124L213.397 34H210.175V24.172H212.767ZM229.434 24.172V27.952H233.178V24.172H235.86V34H233.178V29.95H229.434V34H226.752V24.172H229.434ZM242.702 23.974C244.022 23.974 245.03 24.262 245.726 24.838C246.434 25.402 246.788 26.272 246.788 27.448V34H244.916L244.394 32.668H244.322C243.902 33.196 243.458 33.58 242.99 33.82C242.522 34.06 241.88 34.18 241.064 34.18C240.188 34.18 239.462 33.928 238.886 33.424C238.31 32.908 238.022 32.122 238.022 31.066C238.022 30.022 238.388 29.254 239.12 28.762C239.852 28.258 240.95 27.982 242.414 27.934L244.124 27.88V27.448C244.124 26.932 243.986 26.554 243.71 26.314C243.446 26.074 243.074 25.954 242.594 25.954C242.114 25.954 241.646 26.026 241.19 26.17C240.734 26.302 240.278 26.47 239.822 26.674L238.94 24.856C239.468 24.58 240.05 24.364 240.686 24.208C241.334 24.052 242.006 23.974 242.702 23.974ZM244.124 29.446L243.08 29.482C242.216 29.506 241.616 29.662 241.28 29.95C240.944 30.238 240.776 30.616 240.776 31.084C240.776 31.492 240.896 31.786 241.136 31.966C241.376 32.134 241.688 32.218 242.072 32.218C242.648 32.218 243.134 32.05 243.53 31.714C243.926 31.366 244.124 30.88 244.124 30.256V29.446ZM261.866 26.746C261.866 27.274 261.698 27.724 261.362 28.096C261.038 28.468 260.552 28.708 259.904 28.816V28.888C260.588 28.972 261.134 29.206 261.542 29.59C261.962 29.974 262.172 30.466 262.172 31.066C262.172 31.63 262.022 32.134 261.722 32.578C261.434 33.022 260.972 33.37 260.336 33.622C259.7 33.874 258.866 34 257.834 34H253.154V24.172H257.834C258.602 24.172 259.286 24.256 259.886 24.424C260.498 24.58 260.978 24.844 261.326 25.216C261.686 25.588 261.866 26.098 261.866 26.746ZM259.148 26.962C259.148 26.362 258.674 26.062 257.726 26.062H255.836V28.006H257.42C257.984 28.006 258.41 27.928 258.698 27.772C258.998 27.604 259.148 27.334 259.148 26.962ZM259.4 30.922C259.4 30.538 259.25 30.262 258.95 30.094C258.65 29.914 258.2 29.824 257.6 29.824H255.836V32.146H257.654C258.158 32.146 258.572 32.056 258.896 31.876C259.232 31.684 259.4 31.366 259.4 30.922ZM268.47 34.18C267.006 34.18 265.872 33.778 265.068 32.974C264.276 32.158 263.88 30.88 263.88 29.14C263.88 27.94 264.084 26.962 264.492 26.206C264.9 25.45 265.464 24.892 266.184 24.532C266.916 24.172 267.756 23.992 268.704 23.992C269.376 23.992 269.958 24.058 270.45 24.19C270.954 24.322 271.392 24.478 271.764 24.658L270.972 26.728C270.552 26.56 270.156 26.422 269.784 26.314C269.424 26.206 269.064 26.152 268.704 26.152C267.312 26.152 266.616 27.142 266.616 29.122C266.616 30.106 266.796 30.832 267.156 31.3C267.528 31.768 268.044 32.002 268.704 32.002C269.268 32.002 269.766 31.93 270.198 31.786C270.63 31.63 271.05 31.42 271.458 31.156V33.442C271.05 33.706 270.618 33.892 270.162 34C269.718 34.12 269.154 34.18 268.47 34.18ZM277.77 23.992C279.126 23.992 280.2 24.382 280.992 25.162C281.784 25.93 282.18 27.028 282.18 28.456V29.752H275.844C275.868 30.508 276.09 31.102 276.51 31.534C276.942 31.966 277.536 32.182 278.292 32.182C278.928 32.182 279.504 32.122 280.02 32.002C280.536 31.87 281.07 31.672 281.622 31.408V33.478C281.142 33.718 280.632 33.892 280.092 34C279.564 34.12 278.922 34.18 278.166 34.18C277.182 34.18 276.312 34 275.556 33.64C274.8 33.268 274.206 32.71 273.774 31.966C273.342 31.222 273.126 30.286 273.126 29.158C273.126 28.006 273.318 27.052 273.702 26.296C274.098 25.528 274.644 24.952 275.34 24.568C276.036 24.184 276.846 23.992 277.77 23.992ZM277.788 25.9C277.272 25.9 276.84 26.068 276.492 26.404C276.156 26.74 275.958 27.262 275.898 27.97H279.66C279.648 27.37 279.492 26.878 279.192 26.494C278.892 26.098 278.424 25.9 277.788 25.9ZM108.848 48.172H111.8L107.912 52.888L112.142 58H109.1L105.086 53.014V58H102.404V48.172H105.086V52.942L108.848 48.172ZM119.021 47.992C120.125 47.992 121.019 48.424 121.703 49.288C122.387 50.14 122.729 51.4 122.729 53.068C122.729 54.736 122.375 56.008 121.667 56.884C120.959 57.748 120.053 58.18 118.949 58.18C118.241 58.18 117.677 58.054 117.257 57.802C116.837 57.538 116.495 57.244 116.231 56.92H116.087C116.183 57.424 116.231 57.904 116.231 58.36V62.32H113.549V48.172H115.727L116.105 49.45H116.231C116.495 49.054 116.849 48.712 117.293 48.424C117.737 48.136 118.313 47.992 119.021 47.992ZM118.157 50.134C117.461 50.134 116.969 50.35 116.681 50.782C116.405 51.214 116.255 51.874 116.231 52.762V53.05C116.231 53.998 116.369 54.73 116.645 55.246C116.933 55.75 117.449 56.002 118.193 56.002C118.805 56.002 119.255 55.75 119.543 55.246C119.843 54.73 119.993 53.992 119.993 53.032C119.993 51.1 119.381 50.134 118.157 50.134ZM123.359 48.172H126.293L128.147 53.698C128.243 53.962 128.315 54.238 128.363 54.526C128.411 54.802 128.447 55.096 128.471 55.408H128.525C128.561 55.096 128.609 54.802 128.669 54.526C128.741 54.238 128.819 53.962 128.903 53.698L130.721 48.172H133.601L129.443 59.26C129.071 60.28 128.525 61.042 127.805 61.546C127.097 62.062 126.275 62.32 125.339 62.32C125.039 62.32 124.775 62.302 124.547 62.266C124.331 62.242 124.139 62.212 123.971 62.176V60.052C124.103 60.076 124.259 60.1 124.439 60.124C124.631 60.148 124.829 60.16 125.033 60.16C125.597 60.16 126.041 59.986 126.365 59.638C126.701 59.302 126.947 58.894 127.103 58.414L127.265 57.928L123.359 48.172ZM143.939 48.172V58H141.257V50.188H137.693V58H135.011V48.172H143.939ZM149.436 48.172V51.952H153.18V48.172H155.862V58H153.18V53.95H149.436V58H146.754V48.172H149.436ZM158.672 58V48.172H161.354V51.97H162.65C164.15 51.97 165.26 52.21 165.98 52.69C166.7 53.17 167.06 53.896 167.06 54.868C167.06 55.816 166.724 56.578 166.052 57.154C165.38 57.718 164.276 58 162.74 58H158.672ZM168.482 58V48.172H171.164V58H168.482ZM161.354 56.146H162.596C163.124 56.146 163.55 56.05 163.874 55.858C164.21 55.666 164.378 55.348 164.378 54.904C164.378 54.184 163.772 53.824 162.56 53.824H161.354V56.146ZM178.015 47.992C179.371 47.992 180.445 48.382 181.237 49.162C182.029 49.93 182.425 51.028 182.425 52.456V53.752H176.089C176.113 54.508 176.335 55.102 176.755 55.534C177.187 55.966 177.781 56.182 178.537 56.182C179.173 56.182 179.749 56.122 180.265 56.002C180.781 55.87 181.315 55.672 181.867 55.408V57.478C181.387 57.718 180.877 57.892 180.337 58C179.809 58.12 179.167 58.18 178.411 58.18C177.427 58.18 176.557 58 175.801 57.64C175.045 57.268 174.451 56.71 174.019 55.966C173.587 55.222 173.371 54.286 173.371 53.158C173.371 52.006 173.563 51.052 173.947 50.296C174.343 49.528 174.889 48.952 175.585 48.568C176.281 48.184 177.091 47.992 178.015 47.992ZM178.033 49.9C177.517 49.9 177.085 50.068 176.737 50.404C176.401 50.74 176.203 51.262 176.143 51.97H179.905C179.893 51.37 179.737 50.878 179.437 50.494C179.137 50.098 178.669 49.9 178.033 49.9ZM197.148 48.172V58H194.466V50.188H190.902V58H188.22V48.172H197.148ZM205.435 47.992C206.539 47.992 207.433 48.424 208.117 49.288C208.801 50.14 209.143 51.4 209.143 53.068C209.143 54.736 208.789 56.008 208.081 56.884C207.373 57.748 206.467 58.18 205.363 58.18C204.655 58.18 204.091 58.054 203.671 57.802C203.251 57.538 202.909 57.244 202.645 56.92H202.501C202.597 57.424 202.645 57.904 202.645 58.36V62.32H199.963V48.172H202.141L202.519 49.45H202.645C202.909 49.054 203.263 48.712 203.707 48.424C204.151 48.136 204.727 47.992 205.435 47.992ZM204.571 50.134C203.875 50.134 203.383 50.35 203.095 50.782C202.819 51.214 202.669 51.874 202.645 52.762V53.05C202.645 53.998 202.783 54.73 203.059 55.246C203.347 55.75 203.863 56.002 204.607 56.002C205.219 56.002 205.669 55.75 205.957 55.246C206.257 54.73 206.407 53.992 206.407 53.032C206.407 51.1 205.795 50.134 204.571 50.134ZM215.403 47.992C216.759 47.992 217.833 48.382 218.625 49.162C219.417 49.93 219.813 51.028 219.813 52.456V53.752H213.477C213.501 54.508 213.723 55.102 214.143 55.534C214.575 55.966 215.169 56.182 215.925 56.182C216.561 56.182 217.137 56.122 217.653 56.002C218.169 55.87 218.703 55.672 219.255 55.408V57.478C218.775 57.718 218.265 57.892 217.725 58C217.197 58.12 216.555 58.18 215.799 58.18C214.815 58.18 213.945 58 213.189 57.64C212.433 57.268 211.839 56.71 211.407 55.966C210.975 55.222 210.759 54.286 210.759 53.158C210.759 52.006 210.951 51.052 211.335 50.296C211.731 49.528 212.277 48.952 212.973 48.568C213.669 48.184 214.479 47.992 215.403 47.992ZM215.421 49.9C214.905 49.9 214.473 50.068 214.125 50.404C213.789 50.74 213.591 51.262 213.531 51.97H217.293C217.281 51.37 217.125 50.878 216.825 50.494C216.525 50.098 216.057 49.9 215.421 49.9ZM230.826 48.172V56.038H232.266V61.528H229.854V58H223.248V61.528H220.836V56.038H221.664C222.096 55.378 222.462 54.628 222.762 53.788C223.062 52.936 223.302 52.03 223.482 51.07C223.662 50.11 223.794 49.144 223.878 48.172H230.826ZM228.144 50.188H226.128C225.984 51.28 225.786 52.318 225.534 53.302C225.282 54.274 224.928 55.186 224.472 56.038H228.144V50.188ZM242.869 48.172V58H240.187V50.188H236.623V58H233.941V48.172H242.869ZM251.155 47.992C252.259 47.992 253.153 48.424 253.837 49.288C254.521 50.14 254.863 51.4 254.863 53.068C254.863 54.736 254.509 56.008 253.801 56.884C253.093 57.748 252.187 58.18 251.083 58.18C250.375 58.18 249.811 58.054 249.391 57.802C248.971 57.538 248.629 57.244 248.365 56.92H248.221C248.317 57.424 248.365 57.904 248.365 58.36V62.32H245.683V48.172H247.861L248.239 49.45H248.365C248.629 49.054 248.983 48.712 249.427 48.424C249.871 48.136 250.447 47.992 251.155 47.992ZM250.291 50.134C249.595 50.134 249.103 50.35 248.815 50.782C248.539 51.214 248.389 51.874 248.365 52.762V53.05C248.365 53.998 248.503 54.73 248.779 55.246C249.067 55.75 249.583 56.002 250.327 56.002C250.939 56.002 251.389 55.75 251.677 55.246C251.977 54.73 252.127 53.992 252.127 53.032C252.127 51.1 251.515 50.134 250.291 50.134ZM259.666 48.172V52.06C259.666 52.264 259.654 52.516 259.63 52.816C259.618 53.116 259.6 53.422 259.576 53.734C259.564 54.046 259.546 54.322 259.522 54.562C259.498 54.802 259.48 54.97 259.468 55.066L264.004 48.172H267.226V58H264.634V54.076C264.634 53.752 264.646 53.398 264.67 53.014C264.694 52.618 264.718 52.252 264.742 51.916C264.778 51.568 264.802 51.304 264.814 51.124L260.296 58H257.074V48.172H259.666ZM271.523 58H268.625L271.271 54.112C270.767 53.908 270.317 53.578 269.921 53.122C269.537 52.654 269.345 52.018 269.345 51.214C269.345 50.23 269.717 49.48 270.461 48.964C271.205 48.436 272.159 48.172 273.323 48.172H277.895V58H275.213V54.346H273.737L271.523 58ZM271.973 51.232C271.973 51.64 272.135 51.964 272.459 52.204C272.783 52.432 273.203 52.546 273.719 52.546H275.213V50.062H273.377C272.897 50.062 272.543 50.182 272.315 50.422C272.087 50.65 271.973 50.92 271.973 51.232ZM288.835 50.188H285.613V58H282.931V50.188H279.709V48.172H288.835V50.188ZM293.24 48.172V52.06C293.24 52.264 293.228 52.516 293.204 52.816C293.192 53.116 293.174 53.422 293.15 53.734C293.138 54.046 293.12 54.322 293.096 54.562C293.072 54.802 293.054 54.97 293.042 55.066L297.578 48.172H300.8V58H298.208V54.076C298.208 53.752 298.22 53.398 298.244 53.014C298.268 52.618 298.292 52.252 298.316 51.916C298.352 51.568 298.376 51.304 298.388 51.124L293.87 58H290.648V48.172H293.24ZM305.097 58H302.199L304.845 54.112C304.341 53.908 303.891 53.578 303.495 53.122C303.111 52.654 302.919 52.018 302.919 51.214C302.919 50.23 303.291 49.48 304.035 48.964C304.779 48.436 305.733 48.172 306.897 48.172H311.469V58H308.787V54.346H307.311L305.097 58ZM305.547 51.232C305.547 51.64 305.709 51.964 306.033 52.204C306.357 52.432 306.777 52.546 307.293 52.546H308.787V50.062H306.951C306.471 50.062 306.117 50.182 305.889 50.422C305.661 50.65 305.547 50.92 305.547 51.232ZM322.214 45.148C323.87 45.148 325.076 45.508 325.832 46.228C326.6 46.936 326.984 47.914 326.984 49.162C326.984 49.906 326.828 50.608 326.516 51.268C326.204 51.916 325.682 52.438 324.95 52.834C324.23 53.23 323.246 53.428 321.998 53.428H320.828V58H318.11V45.148H322.214ZM322.07 47.38H320.828V51.196H321.728C322.496 51.196 323.102 51.046 323.546 50.746C324.002 50.434 324.23 49.936 324.23 49.252C324.23 48.004 323.51 47.38 322.07 47.38ZM329.413 58V45.148H337.531V47.398H332.131V50.08H333.211C334.423 50.08 335.413 50.248 336.181 50.584C336.961 50.92 337.537 51.382 337.909 51.97C338.281 52.558 338.467 53.23 338.467 53.986C338.467 55.258 338.041 56.248 337.189 56.956C336.349 57.652 335.005 58 333.157 58H329.413ZM332.131 55.768H333.049C333.877 55.768 334.525 55.636 334.993 55.372C335.473 55.108 335.713 54.646 335.713 53.986C335.713 53.302 335.455 52.852 334.939 52.636C334.423 52.42 333.721 52.312 332.833 52.312H332.131V55.768Z" fill="#454545"/>
<rect width="75.9294" height="76.4717" rx="20" transform="matrix(1 0 0 -1 0 76.4717)" fill="url(#paint0_linear)"/>
<rect x="4.88086" y="4.33887" width="75.9294" height="75.9294" rx="20" fill="url(#paint1_linear)"/>
<g clip-path="url(#clip0)">
<path d="M68.4256 45.1744V44.2984H70.1776V46.0505H69.3017C68.8187 46.0505 68.4256 45.6574 68.4256 45.1744ZM68.2308 38.7653L66.8463 33.2273C67.2299 33.1012 67.5071 32.7404 67.5071 32.3144V31.3959C67.5071 29.3462 65.8397 27.679 63.7902 27.679H57.4028V25.8843C57.4028 24.8476 56.5596 24.0045 55.523 24.0045H22.454C21.4174 24.0045 20.5743 24.8476 20.5743 25.8843V41.5002C20.5743 42.031 21.0046 42.4614 21.5355 42.4614C22.0662 42.4614 22.4967 42.0311 22.4967 41.5002V25.9269H55.4802V41.5004C55.4802 42.0312 55.9105 42.4616 56.4414 42.4616C56.9722 42.4616 57.4026 42.0313 57.4026 41.5004V40.6241H67.457C67.459 40.6243 67.4612 40.6244 67.4637 40.6244C67.4655 40.6244 67.4672 40.6243 67.4685 40.6243C68.624 40.6261 69.6125 41.3543 70.0011 42.3762H67.4643C66.9335 42.3762 66.5031 42.8065 66.5031 43.3374V45.1745C66.5031 46.7177 67.7583 47.9729 69.3015 47.9729H70.1775V51.562H68.0964C67.3242 49.4223 65.2746 47.8876 62.8714 47.8876C60.4682 47.8876 58.4184 49.4222 57.6464 51.562H57.4024V45.1744C57.4024 44.6437 56.9721 44.2132 56.4412 44.2132C55.9104 44.2132 55.48 44.6435 55.48 45.1744V51.5618H37.7835C37.0113 49.422 34.9616 47.8874 32.5584 47.8874C30.1553 47.8874 28.1055 49.422 27.3334 51.5618H22.4967V49.8098H26.1284C26.6592 49.8098 27.0896 49.3795 27.0896 48.8486C27.0896 48.3177 26.6593 47.8874 26.1284 47.8874H17.8612C17.3304 47.8874 16.9 48.3177 16.9 48.8486C16.9 49.3795 17.3303 49.8098 17.8612 49.8098H20.5744V51.6044C20.5744 52.641 21.4175 53.4842 22.4541 53.4842H27.0046C27.0276 56.5272 29.5102 58.9955 32.5584 58.9955C35.6067 58.9955 38.0893 56.5272 38.1123 53.4842H57.3175C57.3405 56.5272 59.8231 58.9955 62.8714 58.9955C65.9197 58.9955 68.4023 56.5272 68.4253 53.4842H71.1387C71.6695 53.4842 72.0999 53.0538 72.0999 52.5229V43.3372C72.1 41.042 70.4235 39.1316 68.2308 38.7653ZM57.4028 29.6013H63.7902C64.7654 29.6013 65.5615 30.3834 65.5843 31.3532H57.4028V29.6013ZM57.4028 38.7018V33.2755H64.8769L66.2335 38.7018H57.4028ZM32.5584 57.0735C30.556 57.0735 28.9267 55.4443 28.9267 53.4417C28.9267 51.4392 30.556 49.81 32.5584 49.81C34.5609 49.81 36.1902 51.4392 36.1902 53.4417C36.1902 55.4443 34.5609 57.0735 32.5584 57.0735ZM62.8716 57.0735C60.8692 57.0735 59.2399 55.4443 59.2399 53.4417C59.2399 51.4392 60.8692 49.81 62.8716 49.81C64.8741 49.81 66.5033 51.4392 66.5033 53.4417C66.5033 55.4443 64.8741 57.0735 62.8716 57.0735Z" fill="white" stroke="white" stroke-width="0.2"/>
<path d="M32.5586 51.5621C31.5219 51.5621 30.6788 52.4052 30.6788 53.4419C30.6788 54.4785 31.5219 55.3216 32.5586 55.3216C33.5952 55.3216 34.4383 54.4785 34.4383 53.4419C34.4383 52.4052 33.5952 51.5621 32.5586 51.5621Z" fill="white" stroke="white" stroke-width="0.2"/>
<path d="M62.8716 51.5621C61.8349 51.5621 60.9918 52.4052 60.9918 53.4419C60.9918 54.4785 61.8349 55.3216 62.8716 55.3216C63.9082 55.3216 64.7513 54.4785 64.7513 53.4419C64.7513 52.4052 63.9082 51.5621 62.8716 51.5621Z" fill="white" stroke="white" stroke-width="0.2"/>
<path d="M52.7672 47.8873H39.9071C39.3763 47.8873 38.9459 48.3176 38.9459 48.8485C38.9459 49.3794 39.3762 49.8097 39.9071 49.8097H52.7672C53.298 49.8097 53.7284 49.3794 53.7284 48.8485C53.7284 48.3176 53.2981 47.8873 52.7672 47.8873Z" fill="white" stroke="white" stroke-width="0.2"/>
<path d="M30.7216 44.2135H19.6986C19.1678 44.2135 18.7374 44.6438 18.7374 45.1747C18.7374 45.7056 19.1677 46.1359 19.6986 46.1359H30.7216C31.2524 46.1359 31.6828 45.7056 31.6828 45.1747C31.6828 44.6438 31.2524 44.2135 30.7216 44.2135Z" fill="white" stroke="white" stroke-width="0.2"/>
<path d="M46.9459 32.6233C46.6097 32.287 46.0643 32.287 45.7281 32.6234L38.0698 40.2816L34.0858 36.2976C33.7495 35.9613 33.2042 35.9613 32.868 36.2976C32.5316 36.634 32.5316 37.1791 32.868 37.5155L37.4609 42.1084C37.629 42.2766 37.8495 42.3606 38.0698 42.3606C38.2901 42.3606 38.5106 42.2766 38.6786 42.1084L46.9458 33.8412C47.2822 33.5048 47.2822 32.9596 46.9459 32.6233Z" fill="white"/>
</g>
<path d="M516.284 39.556C516.284 40.888 516.062 42.052 515.618 43.048C515.186 44.032 514.52 44.8 513.62 45.352C512.72 45.904 511.568 46.18 510.164 46.18C508.772 46.18 507.62 45.904 506.708 45.352C505.808 44.8 505.136 44.026 504.692 43.03C504.26 42.034 504.044 40.87 504.044 39.538C504.044 38.206 504.26 37.048 504.692 36.064C505.136 35.08 505.808 34.318 506.708 33.778C507.62 33.226 508.778 32.95 510.182 32.95C511.574 32.95 512.72 33.226 513.62 33.778C514.52 34.318 515.186 35.086 515.618 36.082C516.062 37.066 516.284 38.224 516.284 39.556ZM506.906 39.556C506.906 40.9 507.164 41.962 507.68 42.742C508.196 43.51 509.024 43.894 510.164 43.894C511.328 43.894 512.162 43.51 512.666 42.742C513.17 41.962 513.422 40.9 513.422 39.556C513.422 38.2 513.17 37.138 512.666 36.37C512.162 35.602 511.334 35.218 510.182 35.218C509.03 35.218 508.196 35.602 507.68 36.37C507.164 37.138 506.906 38.2 506.906 39.556ZM525.912 32.32V36.118C527.616 36.262 528.918 36.784 529.818 37.684C530.718 38.572 531.168 39.706 531.168 41.086C531.168 42.466 530.73 43.606 529.854 44.506C528.978 45.406 527.664 45.928 525.912 46.072V50.32H523.428V46.072C521.736 45.916 520.428 45.388 519.504 44.488C518.592 43.588 518.136 42.454 518.136 41.086C518.136 39.682 518.562 38.536 519.414 37.648C520.278 36.748 521.616 36.238 523.428 36.118V32.32H525.912ZM523.428 38.134C522.648 38.242 522.03 38.566 521.574 39.106C521.118 39.646 520.89 40.306 520.89 41.086C520.89 41.89 521.112 42.562 521.556 43.102C522 43.63 522.624 43.942 523.428 44.038V38.134ZM525.912 38.17V44.038C526.716 43.942 527.334 43.63 527.766 43.102C528.198 42.562 528.414 41.89 528.414 41.086C528.414 40.306 528.192 39.652 527.748 39.124C527.304 38.584 526.692 38.266 525.912 38.17ZM535.982 36.172V40.06C535.982 40.264 535.97 40.516 535.946 40.816C535.934 41.116 535.916 41.422 535.892 41.734C535.88 42.046 535.862 42.322 535.838 42.562C535.814 42.802 535.796 42.97 535.784 43.066L540.32 36.172H543.542V46H540.95V42.076C540.95 41.752 540.962 41.398 540.986 41.014C541.01 40.618 541.034 40.252 541.058 39.916C541.094 39.568 541.118 39.304 541.13 39.124L536.612 46H533.39V36.172H535.982ZM557.073 49.528H554.661V46H546.345V36.172H549.027V43.984H552.951V36.172H555.633V44.038H557.073V49.528ZM561.33 36.172V40.06C561.33 40.264 561.318 40.516 561.294 40.816C561.282 41.116 561.264 41.422 561.24 41.734C561.228 42.046 561.21 42.322 561.186 42.562C561.162 42.802 561.144 42.97 561.132 43.066L565.668 36.172H568.89V46H566.298V42.076C566.298 41.752 566.31 41.398 566.334 41.014C566.358 40.618 566.382 40.252 566.406 39.916C566.442 39.568 566.466 39.304 566.478 39.124L561.96 46H558.738V36.172H561.33ZM575.725 35.974C577.045 35.974 578.053 36.262 578.749 36.838C579.457 37.402 579.811 38.272 579.811 39.448V46H577.939L577.417 44.668H577.345C576.925 45.196 576.481 45.58 576.013 45.82C575.545 46.06 574.903 46.18 574.087 46.18C573.211 46.18 572.485 45.928 571.909 45.424C571.333 44.908 571.045 44.122 571.045 43.066C571.045 42.022 571.411 41.254 572.143 40.762C572.875 40.258 573.973 39.982 575.437 39.934L577.147 39.88V39.448C577.147 38.932 577.009 38.554 576.733 38.314C576.469 38.074 576.097 37.954 575.617 37.954C575.137 37.954 574.669 38.026 574.213 38.17C573.757 38.302 573.301 38.47 572.845 38.674L571.963 36.856C572.491 36.58 573.073 36.364 573.709 36.208C574.357 36.052 575.029 35.974 575.725 35.974ZM577.147 41.446L576.103 41.482C575.239 41.506 574.639 41.662 574.303 41.95C573.967 42.238 573.799 42.616 573.799 43.084C573.799 43.492 573.919 43.786 574.159 43.966C574.399 44.134 574.711 44.218 575.095 44.218C575.671 44.218 576.157 44.05 576.553 43.714C576.949 43.366 577.147 42.88 577.147 42.256V41.446ZM591.358 46H588.676V38.188H586.21C586.054 40.108 585.844 41.656 585.58 42.832C585.328 43.996 584.974 44.848 584.518 45.388C584.062 45.916 583.45 46.18 582.682 46.18C582.058 46.18 581.548 46.084 581.152 45.892V43.75C581.428 43.87 581.716 43.93 582.016 43.93C582.232 43.93 582.43 43.822 582.61 43.606C582.79 43.39 582.958 43 583.114 42.436C583.282 41.872 583.432 41.086 583.564 40.078C583.696 39.058 583.816 37.756 583.924 36.172H591.358V46ZM596.84 39.97H598.73C600.242 39.97 601.358 40.21 602.078 40.69C602.81 41.17 603.176 41.896 603.176 42.868C603.176 43.816 602.84 44.578 602.168 45.154C601.496 45.718 600.386 46 598.838 46H594.158V36.172H596.84V39.97ZM600.494 42.904C600.494 42.184 599.888 41.824 598.676 41.824H596.84V44.146H598.712C599.24 44.146 599.666 44.05 599.99 43.858C600.326 43.666 600.494 43.348 600.494 42.904ZM607.897 36.172V39.952H611.641V36.172H614.323V46H611.641V41.95H607.897V46H605.215V36.172H607.897ZM621.165 35.974C622.485 35.974 623.493 36.262 624.189 36.838C624.897 37.402 625.251 38.272 625.251 39.448V46H623.379L622.857 44.668H622.785C622.365 45.196 621.921 45.58 621.453 45.82C620.985 46.06 620.343 46.18 619.527 46.18C618.651 46.18 617.925 45.928 617.349 45.424C616.773 44.908 616.485 44.122 616.485 43.066C616.485 42.022 616.851 41.254 617.583 40.762C618.315 40.258 619.413 39.982 620.877 39.934L622.587 39.88V39.448C622.587 38.932 622.449 38.554 622.173 38.314C621.909 38.074 621.537 37.954 621.057 37.954C620.577 37.954 620.109 38.026 619.653 38.17C619.197 38.302 618.741 38.47 618.285 38.674L617.403 36.856C617.931 36.58 618.513 36.364 619.149 36.208C619.797 36.052 620.469 35.974 621.165 35.974ZM622.587 41.446L621.543 41.482C620.679 41.506 620.079 41.662 619.743 41.95C619.407 42.238 619.239 42.616 619.239 43.084C619.239 43.492 619.359 43.786 619.599 43.966C619.839 44.134 620.151 44.218 620.535 44.218C621.111 44.218 621.597 44.05 621.993 43.714C622.389 43.366 622.587 42.88 622.587 42.256V41.446ZM629.49 46H626.592L629.238 42.112C628.734 41.908 628.284 41.578 627.888 41.122C627.504 40.654 627.312 40.018 627.312 39.214C627.312 38.23 627.684 37.48 628.428 36.964C629.172 36.436 630.126 36.172 631.29 36.172H635.862V46H633.18V42.346H631.704L629.49 46ZM629.94 39.232C629.94 39.64 630.102 39.964 630.426 40.204C630.75 40.432 631.17 40.546 631.686 40.546H633.18V38.062H631.344C630.864 38.062 630.51 38.182 630.282 38.422C630.054 38.65 629.94 38.92 629.94 39.232ZM649.073 36.172V38.188H644.969V46H642.287V36.172H649.073ZM654.915 35.974C656.235 35.974 657.243 36.262 657.939 36.838C658.647 37.402 659.001 38.272 659.001 39.448V46H657.129L656.607 44.668H656.535C656.115 45.196 655.671 45.58 655.203 45.82C654.735 46.06 654.093 46.18 653.277 46.18C652.401 46.18 651.675 45.928 651.099 45.424C650.523 44.908 650.235 44.122 650.235 43.066C650.235 42.022 650.601 41.254 651.333 40.762C652.065 40.258 653.163 39.982 654.627 39.934L656.337 39.88V39.448C656.337 38.932 656.199 38.554 655.923 38.314C655.659 38.074 655.287 37.954 654.807 37.954C654.327 37.954 653.859 38.026 653.403 38.17C652.947 38.302 652.491 38.47 652.035 38.674L651.153 36.856C651.681 36.58 652.263 36.364 652.899 36.208C653.547 36.052 654.219 35.974 654.915 35.974ZM656.337 41.446L655.293 41.482C654.429 41.506 653.829 41.662 653.493 41.95C653.157 42.238 652.989 42.616 652.989 43.084C652.989 43.492 653.109 43.786 653.349 43.966C653.589 44.134 653.901 44.218 654.285 44.218C654.861 44.218 655.347 44.05 655.743 43.714C656.139 43.366 656.337 42.88 656.337 42.256V41.446ZM667.218 35.992C668.322 35.992 669.216 36.424 669.9 37.288C670.584 38.14 670.926 39.4 670.926 41.068C670.926 42.736 670.572 44.008 669.864 44.884C669.156 45.748 668.25 46.18 667.146 46.18C666.438 46.18 665.874 46.054 665.454 45.802C665.034 45.538 664.692 45.244 664.428 44.92H664.284C664.38 45.424 664.428 45.904 664.428 46.36V50.32H661.746V36.172H663.924L664.302 37.45H664.428C664.692 37.054 665.046 36.712 665.49 36.424C665.934 36.136 666.51 35.992 667.218 35.992ZM666.354 38.134C665.658 38.134 665.166 38.35 664.878 38.782C664.602 39.214 664.452 39.874 664.428 40.762V41.05C664.428 41.998 664.566 42.73 664.842 43.246C665.13 43.75 665.646 44.002 666.39 44.002C667.002 44.002 667.452 43.75 667.74 43.246C668.04 42.73 668.19 41.992 668.19 41.032C668.19 39.1 667.578 38.134 666.354 38.134ZM677.168 35.974C678.488 35.974 679.496 36.262 680.192 36.838C680.9 37.402 681.254 38.272 681.254 39.448V46H679.382L678.86 44.668H678.788C678.368 45.196 677.924 45.58 677.456 45.82C676.988 46.06 676.346 46.18 675.53 46.18C674.654 46.18 673.928 45.928 673.352 45.424C672.776 44.908 672.488 44.122 672.488 43.066C672.488 42.022 672.854 41.254 673.586 40.762C674.318 40.258 675.416 39.982 676.88 39.934L678.59 39.88V39.448C678.59 38.932 678.452 38.554 678.176 38.314C677.912 38.074 677.54 37.954 677.06 37.954C676.58 37.954 676.112 38.026 675.656 38.17C675.2 38.302 674.744 38.47 674.288 38.674L673.406 36.856C673.934 36.58 674.516 36.364 675.152 36.208C675.8 36.052 676.472 35.974 677.168 35.974ZM678.59 41.446L677.546 41.482C676.682 41.506 676.082 41.662 675.746 41.95C675.41 42.238 675.242 42.616 675.242 43.084C675.242 43.492 675.362 43.786 675.602 43.966C675.842 44.134 676.154 44.218 676.538 44.218C677.114 44.218 677.6 44.05 677.996 43.714C678.392 43.366 678.59 42.88 678.59 42.256V41.446ZM686.682 36.172V39.952H690.426V36.172H693.108V46H690.426V41.95H686.682V46H684V36.172H686.682ZM704.054 38.188H700.832V46H698.15V38.188H694.928V36.172H704.054V38.188ZM708.459 36.172V40.06C708.459 40.264 708.447 40.516 708.423 40.816C708.411 41.116 708.393 41.422 708.369 41.734C708.357 42.046 708.339 42.322 708.315 42.562C708.291 42.802 708.273 42.97 708.261 43.066L712.797 36.172H716.019V46H713.427V42.076C713.427 41.752 713.439 41.398 713.463 41.014C713.487 40.618 713.511 40.252 713.535 39.916C713.571 39.568 713.595 39.304 713.607 39.124L709.089 46H705.867V36.172H708.459ZM720.316 46H717.418L720.064 42.112C719.56 41.908 719.11 41.578 718.714 41.122C718.33 40.654 718.138 40.018 718.138 39.214C718.138 38.23 718.51 37.48 719.254 36.964C719.998 36.436 720.952 36.172 722.116 36.172H726.688V46H724.006V42.346H722.53L720.316 46ZM720.766 39.232C720.766 39.64 720.928 39.964 721.252 40.204C721.576 40.432 721.996 40.546 722.512 40.546H724.006V38.062H722.17C721.69 38.062 721.336 38.182 721.108 38.422C720.88 38.65 720.766 38.92 720.766 39.232Z" fill="#454545"/>
<rect width="75.9294" height="76.4717" rx="20" transform="matrix(1 0 0 -1 402 76.4717)" fill="url(#paint2_linear)"/>
<rect x="406.881" y="4.33887" width="75.9294" height="75.9294" rx="20" fill="url(#paint3_linear)"/>
<g clip-path="url(#clip1)">
<path d="M462.84 31.9922L462.839 31.9587C462.821 31.5457 462.809 31.1087 462.801 30.6225C462.767 28.2516 460.926 26.2904 458.61 26.1579C453.781 25.882 450.045 24.2699 446.853 21.0847L446.826 21.0582C445.785 20.0809 444.215 20.0809 443.173 21.0582L443.146 21.0847C439.954 24.2699 436.219 25.882 431.39 26.1582C429.074 26.2904 427.233 28.2516 427.198 30.6228C427.191 31.1058 427.179 31.5427 427.161 31.9587L427.159 32.0365C427.065 37.0778 426.948 43.352 428.998 49.0469C430.126 52.1786 431.833 54.9008 434.072 57.1385C436.623 59.6869 439.964 61.7101 444.002 63.1516C444.133 63.1985 444.27 63.2366 444.409 63.2651C444.605 63.3051 444.802 63.3252 445 63.3252C445.197 63.3252 445.395 63.3051 445.591 63.2651C445.73 63.2366 445.867 63.1982 445.999 63.151C450.032 61.7068 453.37 59.6827 455.918 57.1346C458.157 54.8962 459.864 52.1733 460.992 49.041C463.05 43.3291 462.934 37.043 462.84 31.9922ZM458.68 48.168C456.518 54.1702 452.104 58.2923 445.186 60.7692C445.161 60.7777 445.135 60.7853 445.108 60.7909C445.036 60.8053 444.964 60.8053 444.891 60.7905C444.864 60.785 444.838 60.7777 444.814 60.7692C437.888 58.2969 433.472 54.1771 431.311 48.1746C429.421 42.9252 429.528 37.1657 429.623 32.0847L429.623 32.0565C429.643 31.6198 429.655 31.1625 429.663 30.6599C429.678 29.6072 430.497 28.7362 431.527 28.6774C434.26 28.5213 436.66 27.9806 438.866 27.0247C441.069 26.07 443.026 24.7243 444.847 22.9107C444.94 22.8307 445.06 22.8304 445.152 22.9107C446.974 24.7243 448.931 26.07 451.133 27.0247C453.339 27.9806 455.74 28.5213 458.473 28.6774C459.503 28.7362 460.322 29.6072 460.337 30.6602C460.344 31.1655 460.357 31.6228 460.376 32.0565C460.471 37.1434 460.575 42.9075 458.68 48.168Z" fill="white"/>
<path d="M444.999 31.1094C439.228 31.1094 434.532 35.9168 434.532 41.8256C434.532 47.7347 439.228 52.5421 444.999 52.5421C450.771 52.5421 455.466 47.7347 455.466 41.8256C455.466 35.9168 450.771 31.1094 444.999 31.1094ZM444.999 50.0187C440.587 50.0187 436.997 46.3434 436.997 41.8256C436.997 37.3078 440.587 33.6325 444.999 33.6325C449.412 33.6325 453.001 37.3078 453.001 41.8256C453.001 46.3434 449.412 50.0187 444.999 50.0187Z" fill="white"/>
<path d="M448.007 38.4987L443.146 43.4761L441.826 42.1251C441.345 41.6324 440.565 41.6324 440.083 42.1251C439.602 42.6179 439.602 43.4167 440.083 43.9091L442.275 46.1524C442.515 46.3988 442.83 46.5218 443.146 46.5218C443.461 46.5218 443.776 46.3988 444.017 46.1524L449.75 40.2827C450.231 39.79 450.231 38.9911 449.75 38.4987C449.269 38.0056 448.489 38.0056 448.007 38.4987Z" fill="white"/>
</g>
<path d="M901.79 34H899.072V23.416H895.922C895.85 23.968 895.772 24.568 895.688 25.216C895.616 25.864 895.532 26.524 895.436 27.196C895.352 27.856 895.262 28.486 895.166 29.086C895.07 29.674 894.974 30.196 894.878 30.652C894.722 31.396 894.512 32.032 894.248 32.56C893.996 33.088 893.642 33.49 893.186 33.766C892.742 34.042 892.16 34.18 891.44 34.18C890.972 34.18 890.54 34.114 890.144 33.982V31.75C890.3 31.798 890.45 31.84 890.594 31.876C890.75 31.912 890.918 31.93 891.098 31.93C891.446 31.93 891.71 31.75 891.89 31.39C892.082 31.018 892.274 30.328 892.466 29.32C892.538 28.936 892.64 28.336 892.772 27.52C892.904 26.704 893.048 25.75 893.204 24.658C893.372 23.554 893.528 22.384 893.672 21.148H901.79V34ZM903.412 24.172H906.346L908.2 29.698C908.296 29.962 908.368 30.238 908.416 30.526C908.464 30.802 908.5 31.096 908.524 31.408H908.578C908.614 31.096 908.662 30.802 908.722 30.526C908.794 30.238 908.872 29.962 908.956 29.698L910.774 24.172H913.654L909.496 35.26C909.124 36.28 908.578 37.042 907.858 37.546C907.15 38.062 906.328 38.32 905.392 38.32C905.092 38.32 904.828 38.302 904.6 38.266C904.384 38.242 904.192 38.212 904.024 38.176V36.052C904.156 36.076 904.312 36.1 904.492 36.124C904.684 36.148 904.882 36.16 905.086 36.16C905.65 36.16 906.094 35.986 906.418 35.638C906.754 35.302 907 34.894 907.156 34.414L907.318 33.928L903.412 24.172ZM917.422 24.172V27.772C917.422 28.624 917.818 29.05 918.61 29.05C919.126 29.05 919.606 28.996 920.05 28.888C920.494 28.768 920.938 28.612 921.382 28.42V24.172H924.064V34H921.382V30.094C920.962 30.322 920.482 30.532 919.942 30.724C919.402 30.904 918.79 30.994 918.106 30.994C917.086 30.994 916.27 30.73 915.658 30.202C915.046 29.674 914.74 28.882 914.74 27.826V24.172H917.422ZM941.511 24.172V34H926.877V24.172H929.559V31.984H932.853V24.172H935.535V31.984H938.829V24.172H941.511ZM948.364 23.992C949.72 23.992 950.794 24.382 951.586 25.162C952.378 25.93 952.774 27.028 952.774 28.456V29.752H946.438C946.462 30.508 946.684 31.102 947.104 31.534C947.536 31.966 948.13 32.182 948.886 32.182C949.522 32.182 950.098 32.122 950.614 32.002C951.13 31.87 951.664 31.672 952.216 31.408V33.478C951.736 33.718 951.226 33.892 950.686 34C950.158 34.12 949.516 34.18 948.76 34.18C947.776 34.18 946.906 34 946.15 33.64C945.394 33.268 944.8 32.71 944.368 31.966C943.936 31.222 943.72 30.286 943.72 29.158C943.72 28.006 943.912 27.052 944.296 26.296C944.692 25.528 945.238 24.952 945.934 24.568C946.63 24.184 947.44 23.992 948.364 23.992ZM948.382 25.9C947.866 25.9 947.434 26.068 947.086 26.404C946.75 26.74 946.552 27.262 946.492 27.97H950.254C950.242 27.37 950.086 26.878 949.786 26.494C949.486 26.098 949.018 25.9 948.382 25.9ZM958.999 23.992C960.355 23.992 961.429 24.382 962.221 25.162C963.013 25.93 963.409 27.028 963.409 28.456V29.752H957.073C957.097 30.508 957.319 31.102 957.739 31.534C958.171 31.966 958.765 32.182 959.521 32.182C960.157 32.182 960.733 32.122 961.249 32.002C961.765 31.87 962.299 31.672 962.851 31.408V33.478C962.371 33.718 961.861 33.892 961.321 34C960.793 34.12 960.151 34.18 959.395 34.18C958.411 34.18 957.541 34 956.785 33.64C956.029 33.268 955.435 32.71 955.003 31.966C954.571 31.222 954.355 30.286 954.355 29.158C954.355 28.006 954.547 27.052 954.931 26.296C955.327 25.528 955.873 24.952 956.569 24.568C957.265 24.184 958.075 23.992 958.999 23.992ZM959.017 25.9C958.501 25.9 958.069 26.068 957.721 26.404C957.385 26.74 957.187 27.262 957.127 27.97H960.889C960.877 27.37 960.721 26.878 960.421 26.494C960.121 26.098 959.653 25.9 959.017 25.9ZM973.201 34.18C971.737 34.18 970.603 33.778 969.799 32.974C969.007 32.158 968.611 30.88 968.611 29.14C968.611 27.94 968.815 26.962 969.223 26.206C969.631 25.45 970.195 24.892 970.915 24.532C971.647 24.172 972.487 23.992 973.435 23.992C974.107 23.992 974.689 24.058 975.181 24.19C975.685 24.322 976.123 24.478 976.495 24.658L975.703 26.728C975.283 26.56 974.887 26.422 974.515 26.314C974.155 26.206 973.795 26.152 973.435 26.152C972.043 26.152 971.347 27.142 971.347 29.122C971.347 30.106 971.527 30.832 971.887 31.3C972.259 31.768 972.775 32.002 973.435 32.002C973.999 32.002 974.497 31.93 974.929 31.786C975.361 31.63 975.781 31.42 976.189 31.156V33.442C975.781 33.706 975.349 33.892 974.893 34C974.449 34.12 973.885 34.18 973.201 34.18ZM987.379 29.068C987.379 30.7 986.947 31.96 986.083 32.848C985.231 33.736 984.067 34.18 982.591 34.18C981.679 34.18 980.863 33.982 980.143 33.586C979.435 33.19 978.877 32.614 978.469 31.858C978.061 31.09 977.857 30.16 977.857 29.068C977.857 27.436 978.283 26.182 979.135 25.306C979.987 24.43 981.157 23.992 982.645 23.992C983.569 23.992 984.385 24.19 985.093 24.586C985.801 24.982 986.359 25.558 986.767 26.314C987.175 27.058 987.379 27.976 987.379 29.068ZM980.593 29.068C980.593 30.04 980.749 30.778 981.061 31.282C981.385 31.774 981.907 32.02 982.627 32.02C983.335 32.02 983.845 31.774 984.157 31.282C984.481 30.778 984.643 30.04 984.643 29.068C984.643 28.096 984.481 27.37 984.157 26.89C983.845 26.398 983.329 26.152 982.609 26.152C981.901 26.152 981.385 26.398 981.061 26.89C980.749 27.37 980.593 28.096 980.593 29.068ZM998.523 29.068C998.523 30.7 998.091 31.96 997.227 32.848C996.375 33.736 995.211 34.18 993.735 34.18C992.823 34.18 992.007 33.982 991.287 33.586C990.579 33.19 990.021 32.614 989.613 31.858C989.205 31.09 989.001 30.16 989.001 29.068C989.001 27.436 989.427 26.182 990.279 25.306C991.131 24.43 992.301 23.992 993.789 23.992C994.713 23.992 995.529 24.19 996.237 24.586C996.945 24.982 997.503 25.558 997.911 26.314C998.319 27.058 998.523 27.976 998.523 29.068ZM991.737 29.068C991.737 30.04 991.893 30.778 992.205 31.282C992.529 31.774 993.051 32.02 993.771 32.02C994.479 32.02 994.989 31.774 995.301 31.282C995.625 30.778 995.787 30.04 995.787 29.068C995.787 28.096 995.625 27.37 995.301 26.89C994.989 26.398 994.473 26.152 993.753 26.152C993.045 26.152 992.529 26.398 992.205 26.89C991.893 27.37 991.737 28.096 991.737 29.068ZM1008.7 26.188H1005.48V34H1002.8V26.188H999.574V24.172H1008.7V26.188ZM1013.2 24.172V27.952H1016.94V24.172H1019.62V34H1016.94V29.95H1013.2V34H1010.51V24.172H1013.2ZM1031.36 29.068C1031.36 30.7 1030.93 31.96 1030.06 32.848C1029.21 33.736 1028.05 34.18 1026.57 34.18C1025.66 34.18 1024.84 33.982 1024.12 33.586C1023.42 33.19 1022.86 32.614 1022.45 31.858C1022.04 31.09 1021.84 30.16 1021.84 29.068C1021.84 27.436 1022.26 26.182 1023.12 25.306C1023.97 24.43 1025.14 23.992 1026.63 23.992C1027.55 23.992 1028.37 24.19 1029.07 24.586C1029.78 24.982 1030.34 25.558 1030.75 26.314C1031.16 27.058 1031.36 27.976 1031.36 29.068ZM1024.57 29.068C1024.57 30.04 1024.73 30.778 1025.04 31.282C1025.37 31.774 1025.89 32.02 1026.61 32.02C1027.32 32.02 1027.83 31.774 1028.14 31.282C1028.46 30.778 1028.62 30.04 1028.62 29.068C1028.62 28.096 1028.46 27.37 1028.14 26.89C1027.83 26.398 1027.31 26.152 1026.59 26.152C1025.88 26.152 1025.37 26.398 1025.04 26.89C1024.73 27.37 1024.57 28.096 1024.57 29.068ZM1048.21 24.172V34H1033.58V24.172H1036.26V31.984H1039.55V24.172H1042.23V31.984H1045.53V24.172H1048.21ZM1055.06 23.992C1056.42 23.992 1057.49 24.382 1058.29 25.162C1059.08 25.93 1059.47 27.028 1059.47 28.456V29.752H1053.14C1053.16 30.508 1053.38 31.102 1053.8 31.534C1054.24 31.966 1054.83 32.182 1055.59 32.182C1056.22 32.182 1056.8 32.122 1057.31 32.002C1057.83 31.87 1058.36 31.672 1058.92 31.408V33.478C1058.44 33.718 1057.93 33.892 1057.39 34C1056.86 34.12 1056.22 34.18 1055.46 34.18C1054.48 34.18 1053.61 34 1052.85 33.64C1052.09 33.268 1051.5 32.71 1051.07 31.966C1050.64 31.222 1050.42 30.286 1050.42 29.158C1050.42 28.006 1050.61 27.052 1051 26.296C1051.39 25.528 1051.94 24.952 1052.63 24.568C1053.33 24.184 1054.14 23.992 1055.06 23.992ZM1055.08 25.9C1054.57 25.9 1054.13 26.068 1053.79 26.404C1053.45 26.74 1053.25 27.262 1053.19 27.97H1056.95C1056.94 27.37 1056.79 26.878 1056.49 26.494C1056.19 26.098 1055.72 25.9 1055.08 25.9ZM1064.33 24.172V27.952H1068.07V24.172H1070.76V34H1068.07V29.95H1064.33V34H1061.65V24.172H1064.33ZM1076.16 24.172V28.06C1076.16 28.264 1076.15 28.516 1076.12 28.816C1076.11 29.116 1076.09 29.422 1076.07 29.734C1076.06 30.046 1076.04 30.322 1076.01 30.562C1075.99 30.802 1075.97 30.97 1075.96 31.066L1080.5 24.172H1083.72V34H1081.13V30.076C1081.13 29.752 1081.14 29.398 1081.16 29.014C1081.19 28.618 1081.21 28.252 1081.23 27.916C1081.27 27.568 1081.29 27.304 1081.31 27.124L1076.79 34H1073.57V24.172H1076.16ZM1090.57 23.992C1091.93 23.992 1093 24.382 1093.79 25.162C1094.59 25.93 1094.98 27.028 1094.98 28.456V29.752H1088.65C1088.67 30.508 1088.89 31.102 1089.31 31.534C1089.74 31.966 1090.34 32.182 1091.09 32.182C1091.73 32.182 1092.31 32.122 1092.82 32.002C1093.34 31.87 1093.87 31.672 1094.42 31.408V33.478C1093.94 33.718 1093.43 33.892 1092.89 34C1092.37 34.12 1091.72 34.18 1090.97 34.18C1089.98 34.18 1089.11 34 1088.36 33.64C1087.6 33.268 1087.01 32.71 1086.58 31.966C1086.14 31.222 1085.93 30.286 1085.93 29.158C1085.93 28.006 1086.12 27.052 1086.5 26.296C1086.9 25.528 1087.45 24.952 1088.14 24.568C1088.84 24.184 1089.65 23.992 1090.57 23.992ZM1090.59 25.9C1090.07 25.9 1089.64 26.068 1089.29 26.404C1088.96 26.74 1088.76 27.262 1088.7 27.97H1092.46C1092.45 27.37 1092.29 26.878 1091.99 26.494C1091.69 26.098 1091.23 25.9 1090.59 25.9ZM902.132 61.528H899.72V58H891.404V48.172H894.086V55.984H898.01V48.172H900.692V56.038H902.132V61.528ZM907.847 47.992C909.203 47.992 910.277 48.382 911.069 49.162C911.861 49.93 912.257 51.028 912.257 52.456V53.752H905.921C905.945 54.508 906.167 55.102 906.587 55.534C907.019 55.966 907.613 56.182 908.369 56.182C909.005 56.182 909.581 56.122 910.097 56.002C910.613 55.87 911.147 55.672 911.699 55.408V57.478C911.219 57.718 910.709 57.892 910.169 58C909.641 58.12 908.999 58.18 908.243 58.18C907.259 58.18 906.389 58 905.633 57.64C904.877 57.268 904.283 56.71 903.851 55.966C903.419 55.222 903.203 54.286 903.203 53.158C903.203 52.006 903.395 51.052 903.779 50.296C904.175 49.528 904.721 48.952 905.417 48.568C906.113 48.184 906.923 47.992 907.847 47.992ZM907.865 49.9C907.349 49.9 906.917 50.068 906.569 50.404C906.233 50.74 906.035 51.262 905.975 51.97H909.737C909.725 51.37 909.569 50.878 909.269 50.494C908.969 50.098 908.501 49.9 907.865 49.9ZM917.113 48.172V51.952H920.857V48.172H923.539V58H920.857V53.95H917.113V58H914.431V48.172H917.113ZM926.349 58V48.172H929.031V51.97H930.327C931.827 51.97 932.937 52.21 933.657 52.69C934.377 53.17 934.737 53.896 934.737 54.868C934.737 55.816 934.401 56.578 933.729 57.154C933.057 57.718 931.953 58 930.417 58H926.349ZM936.159 58V48.172H938.841V58H936.159ZM929.031 56.146H930.273C930.801 56.146 931.227 56.05 931.551 55.858C931.887 55.666 932.055 55.348 932.055 54.904C932.055 54.184 931.449 53.824 930.237 53.824H929.031V56.146ZM947.855 48.172V52.06C947.855 52.264 947.843 52.516 947.819 52.816C947.807 53.116 947.789 53.422 947.765 53.734C947.753 54.046 947.735 54.322 947.711 54.562C947.687 54.802 947.669 54.97 947.657 55.066L952.193 48.172H955.415V58H952.823V54.076C952.823 53.752 952.835 53.398 952.859 53.014C952.883 52.618 952.907 52.252 952.931 51.916C952.967 51.568 952.991 51.304 953.003 51.124L948.485 58H945.263V48.172H947.855ZM968.284 48.172H971.236L967.348 52.888L971.578 58H968.536L964.522 53.014V58H961.84V48.172H964.522V52.942L968.284 48.172ZM977.016 47.974C978.336 47.974 979.344 48.262 980.04 48.838C980.748 49.402 981.102 50.272 981.102 51.448V58H979.23L978.708 56.668H978.636C978.216 57.196 977.772 57.58 977.304 57.82C976.836 58.06 976.194 58.18 975.378 58.18C974.502 58.18 973.776 57.928 973.2 57.424C972.624 56.908 972.336 56.122 972.336 55.066C972.336 54.022 972.702 53.254 973.434 52.762C974.166 52.258 975.264 51.982 976.728 51.934L978.438 51.88V51.448C978.438 50.932 978.3 50.554 978.024 50.314C977.76 50.074 977.388 49.954 976.908 49.954C976.428 49.954 975.96 50.026 975.504 50.17C975.048 50.302 974.592 50.47 974.136 50.674L973.254 48.856C973.782 48.58 974.364 48.364 975 48.208C975.648 48.052 976.32 47.974 977.016 47.974ZM978.438 53.446L977.394 53.482C976.53 53.506 975.93 53.662 975.594 53.95C975.258 54.238 975.09 54.616 975.09 55.084C975.09 55.492 975.21 55.786 975.45 55.966C975.69 56.134 976.002 56.218 976.386 56.218C976.962 56.218 977.448 56.05 977.844 55.714C978.24 55.366 978.438 54.88 978.438 54.256V53.446ZM986.205 48.172V51.772C986.205 52.624 986.601 53.05 987.393 53.05C987.909 53.05 988.389 52.996 988.833 52.888C989.277 52.768 989.721 52.612 990.165 52.42V48.172H992.847V58H990.165V54.094C989.745 54.322 989.265 54.532 988.725 54.724C988.185 54.904 987.573 54.994 986.889 54.994C985.869 54.994 985.053 54.73 984.441 54.202C983.829 53.674 983.523 52.882 983.523 51.826V48.172H986.205ZM999.71 47.992C1001.07 47.992 1002.14 48.382 1002.93 49.162C1003.72 49.93 1004.12 51.028 1004.12 52.456V53.752H997.784C997.808 54.508 998.03 55.102 998.45 55.534C998.882 55.966 999.476 56.182 1000.23 56.182C1000.87 56.182 1001.44 56.122 1001.96 56.002C1002.48 55.87 1003.01 55.672 1003.56 55.408V57.478C1003.08 57.718 1002.57 57.892 1002.03 58C1001.5 58.12 1000.86 58.18 1000.11 58.18C999.122 58.18 998.252 58 997.496 57.64C996.74 57.268 996.146 56.71 995.714 55.966C995.282 55.222 995.066 54.286 995.066 53.158C995.066 52.006 995.258 51.052 995.642 50.296C996.038 49.528 996.584 48.952 997.28 48.568C997.976 48.184 998.786 47.992 999.71 47.992ZM999.728 49.9C999.212 49.9 998.78 50.068 998.432 50.404C998.096 50.74 997.898 51.262 997.838 51.97H1001.6C1001.59 51.37 1001.43 50.878 1001.13 50.494C1000.83 50.098 1000.36 49.9 999.728 49.9ZM1010.29 58.18C1008.83 58.18 1007.69 57.778 1006.89 56.974C1006.1 56.158 1005.7 54.88 1005.7 53.14C1005.7 51.94 1005.9 50.962 1006.31 50.206C1006.72 49.45 1007.28 48.892 1008 48.532C1008.74 48.172 1009.58 47.992 1010.52 47.992C1011.2 47.992 1011.78 48.058 1012.27 48.19C1012.77 48.322 1013.21 48.478 1013.58 48.658L1012.79 50.728C1012.37 50.56 1011.98 50.422 1011.6 50.314C1011.24 50.206 1010.88 50.152 1010.52 50.152C1009.13 50.152 1008.44 51.142 1008.44 53.122C1008.44 54.106 1008.62 54.832 1008.98 55.3C1009.35 55.768 1009.86 56.002 1010.52 56.002C1011.09 56.002 1011.59 55.93 1012.02 55.786C1012.45 55.63 1012.87 55.42 1013.28 55.156V57.442C1012.87 57.706 1012.44 57.892 1011.98 58C1011.54 58.12 1010.97 58.18 1010.29 58.18ZM1023.68 50.188H1020.45V58H1017.77V50.188H1014.55V48.172H1023.68V50.188ZM1034.2 50.746C1034.2 51.274 1034.03 51.724 1033.7 52.096C1033.37 52.468 1032.89 52.708 1032.24 52.816V52.888C1032.92 52.972 1033.47 53.206 1033.88 53.59C1034.3 53.974 1034.51 54.466 1034.51 55.066C1034.51 55.63 1034.36 56.134 1034.06 56.578C1033.77 57.022 1033.31 57.37 1032.67 57.622C1032.04 57.874 1031.2 58 1030.17 58H1025.49V48.172H1030.17C1030.94 48.172 1031.62 48.256 1032.22 48.424C1032.83 48.58 1033.31 48.844 1033.66 49.216C1034.02 49.588 1034.2 50.098 1034.2 50.746ZM1031.48 50.962C1031.48 50.362 1031.01 50.062 1030.06 50.062H1028.17V52.006H1029.76C1030.32 52.006 1030.75 51.928 1031.03 51.772C1031.33 51.604 1031.48 51.334 1031.48 50.962ZM1031.74 54.922C1031.74 54.538 1031.59 54.262 1031.29 54.094C1030.99 53.914 1030.54 53.824 1029.94 53.824H1028.17V56.146H1029.99C1030.49 56.146 1030.91 56.056 1031.23 55.876C1031.57 55.684 1031.74 55.366 1031.74 54.922ZM1040.84 47.974C1042.16 47.974 1043.17 48.262 1043.87 48.838C1044.57 49.402 1044.93 50.272 1044.93 51.448V58H1043.06L1042.53 56.668H1042.46C1042.04 57.196 1041.6 57.58 1041.13 57.82C1040.66 58.06 1040.02 58.18 1039.2 58.18C1038.33 58.18 1037.6 57.928 1037.03 57.424C1036.45 56.908 1036.16 56.122 1036.16 55.066C1036.16 54.022 1036.53 53.254 1037.26 52.762C1037.99 52.258 1039.09 51.982 1040.55 51.934L1042.26 51.88V51.448C1042.26 50.932 1042.13 50.554 1041.85 50.314C1041.59 50.074 1041.21 49.954 1040.73 49.954C1040.25 49.954 1039.79 50.026 1039.33 50.17C1038.87 50.302 1038.42 50.47 1037.96 50.674L1037.08 48.856C1037.61 48.58 1038.19 48.364 1038.83 48.208C1039.47 48.052 1040.15 47.974 1040.84 47.974ZM1042.26 53.446L1041.22 53.482C1040.36 53.506 1039.76 53.662 1039.42 53.95C1039.08 54.238 1038.92 54.616 1038.92 55.084C1038.92 55.492 1039.04 55.786 1039.28 55.966C1039.52 56.134 1039.83 56.218 1040.21 56.218C1040.79 56.218 1041.27 56.05 1041.67 55.714C1042.07 55.366 1042.26 54.88 1042.26 54.256V53.446Z" fill="#454545"/>
<rect width="75.9294" height="76.4717" rx="20" transform="matrix(1 0 0 -1 789 76.4717)" fill="url(#paint4_linear)"/>
<rect x="793.881" y="4.33887" width="75.9294" height="75.9294" rx="20" fill="url(#paint5_linear)"/>
<g clip-path="url(#clip2)">
<path d="M825.964 28.88C825.964 34.3278 830.405 38.7604 835.864 38.7604C841.322 38.7604 845.763 34.3278 845.763 28.88C845.763 23.4322 841.322 19 835.864 19C830.405 19 825.964 23.4322 825.964 28.88ZM843.963 28.88C843.963 33.3375 840.33 36.9638 835.864 36.9638C831.398 36.9638 827.764 33.3375 827.764 28.88C827.764 24.4229 831.398 20.7965 835.864 20.7965C840.33 20.7965 843.963 24.4229 843.963 28.88Z" fill="white"/>
<path d="M819.411 64.734C819.76 65.0849 820.328 65.0888 820.681 64.7414L825.044 60.4513C825.785 59.7115 826.011 58.6162 825.685 57.664L826.623 56.7607C827.129 56.2736 827.794 56.0051 828.497 56.0051H840.461C842.583 56.0051 844.59 55.1916 846.11 53.7144C846.173 53.6537 845.635 54.2858 854.272 43.9832C855.553 42.4706 855.362 40.1993 853.845 38.9193C852.337 37.6513 850.079 37.8335 848.794 39.3201L843.484 44.7676C842.813 43.9439 841.791 43.4305 840.686 43.4305H830.651C829.223 42.8342 827.707 42.5324 826.144 42.5324C821.81 42.5324 818.026 44.53 815.996 48.2754C815.14 48.1136 814.238 48.3719 813.589 49.0197L809.308 53.3052C808.958 53.6551 808.957 54.2212 809.306 54.5722L819.411 64.734ZM826.144 44.3286C827.522 44.3286 828.855 44.6055 830.106 45.1515C830.219 45.2014 830.342 45.227 830.466 45.227H840.686C841.662 45.227 842.486 46.0212 842.486 47.0232C842.486 48.0139 841.679 48.8197 840.686 48.8197H833.343C832.847 48.8197 832.444 49.2219 832.444 49.7178C832.444 50.214 832.847 50.6159 833.343 50.6159H840.686C842.671 50.6159 844.286 49.0043 844.286 47.0232C844.286 46.8652 844.274 46.7087 844.254 46.5536C849.391 41.2833 850.116 40.5428 850.147 40.506C850.788 39.7504 851.927 39.6546 852.684 40.2919C853.442 40.9317 853.538 42.0674 852.895 42.8272L844.823 52.458C843.644 53.5874 842.097 54.2089 840.461 54.2089H828.497C827.325 54.2089 826.215 54.6564 825.373 55.4681L824.608 56.2048L817.558 49.1685C819.206 46.0833 822.298 44.3286 826.144 44.3286ZM814.862 50.2891C815.159 49.9929 815.615 49.9396 815.977 50.1628C816.132 50.2575 815.685 49.8511 823.771 57.9104C824.131 58.2694 824.112 58.8415 823.776 59.1763L820.057 62.8336L811.214 53.9408L814.862 50.2891Z" fill="white"/>
<path d="M834.784 23.4912V24.5437C833.736 24.9143 832.984 25.9128 832.984 27.0839C832.984 28.5695 834.195 29.7785 835.684 29.7785C836.18 29.7785 836.584 30.1814 836.584 30.6766C836.584 31.1718 836.18 31.5747 835.684 31.5747C835.299 31.5747 834.884 31.3336 834.515 30.8953C834.195 30.5155 833.628 30.4667 833.247 30.7858C832.867 31.1051 832.817 31.6716 833.137 32.0513C833.619 32.6223 834.184 33.0203 834.784 33.221V34.2693C834.784 34.7656 835.187 35.1674 835.684 35.1674C836.181 35.1674 836.584 34.7656 836.584 34.2693V33.2168C837.631 32.8458 838.384 31.8474 838.384 30.6766C838.384 29.1907 837.173 27.982 835.684 27.982C835.188 27.982 834.784 27.5791 834.784 27.0839C834.784 26.5887 835.188 26.1855 835.684 26.1855C836.003 26.1855 836.339 26.348 836.657 26.655C837.014 27 837.584 26.9906 837.93 26.6343C838.275 26.2778 838.266 25.7092 837.909 25.3642C837.452 24.9231 836.995 24.6736 836.584 24.5374V23.4912C836.584 22.995 836.181 22.5928 835.684 22.5928C835.187 22.5928 834.784 22.995 834.784 23.4912Z" fill="white"/>
</g>
<path d="M1297.31 33.4V46H1294.84V35.902L1292.38 36.91V34.768L1295.74 33.4H1297.31ZM1298.96 46V44.272L1303.93 39.826C1304.49 39.31 1304.89 38.86 1305.13 38.476C1305.37 38.08 1305.49 37.672 1305.49 37.252C1305.49 36.7 1305.28 36.244 1304.85 35.884C1304.41 35.524 1303.87 35.344 1303.23 35.344C1302.63 35.344 1302.06 35.464 1301.53 35.704C1301.02 35.944 1300.45 36.34 1299.84 36.892L1298.46 35.236C1299.19 34.576 1299.96 34.078 1300.78 33.742C1301.59 33.406 1302.43 33.238 1303.3 33.238C1303.97 33.238 1304.59 33.334 1305.15 33.526C1305.73 33.706 1306.21 33.964 1306.61 34.3C1307.02 34.636 1307.33 35.044 1307.55 35.524C1307.77 36.004 1307.89 36.526 1307.89 37.09C1307.89 37.81 1307.71 38.476 1307.35 39.088C1306.99 39.7 1306.36 40.402 1305.48 41.194L1302.4 43.93H1308.05V46H1298.96ZM1322.42 46H1319.74V38.188H1317.27C1317.12 40.108 1316.91 41.656 1316.64 42.832C1316.39 43.996 1316.04 44.848 1315.58 45.388C1315.12 45.916 1314.51 46.18 1313.74 46.18C1313.12 46.18 1312.61 46.084 1312.21 45.892V43.75C1312.49 43.87 1312.78 43.93 1313.08 43.93C1313.29 43.93 1313.49 43.822 1313.67 43.606C1313.85 43.39 1314.02 43 1314.18 42.436C1314.34 41.872 1314.49 41.086 1314.63 40.078C1314.76 39.058 1314.88 37.756 1314.99 36.172H1322.42V46ZM1329.27 35.992C1330.63 35.992 1331.7 36.382 1332.49 37.162C1333.28 37.93 1333.68 39.028 1333.68 40.456V41.752H1327.34C1327.37 42.508 1327.59 43.102 1328.01 43.534C1328.44 43.966 1329.04 44.182 1329.79 44.182C1330.43 44.182 1331 44.122 1331.52 44.002C1332.04 43.87 1332.57 43.672 1333.12 43.408V45.478C1332.64 45.718 1332.13 45.892 1331.59 46C1331.06 46.12 1330.42 46.18 1329.67 46.18C1328.68 46.18 1327.81 46 1327.06 45.64C1326.3 45.268 1325.71 44.71 1325.27 43.966C1324.84 43.222 1324.63 42.286 1324.63 41.158C1324.63 40.006 1324.82 39.052 1325.2 38.296C1325.6 37.528 1326.14 36.952 1326.84 36.568C1327.54 36.184 1328.35 35.992 1329.27 35.992ZM1329.29 37.9C1328.77 37.9 1328.34 38.068 1327.99 38.404C1327.66 38.74 1327.46 39.262 1327.4 39.97H1331.16C1331.15 39.37 1330.99 38.878 1330.69 38.494C1330.39 38.098 1329.92 37.9 1329.29 37.9ZM1343.99 38.188H1340.77V46H1338.09V38.188H1334.87V36.172H1343.99V38.188ZM1352.11 36.172V39.952H1355.85V36.172H1358.53V46H1355.85V41.95H1352.11V46H1349.43V36.172H1352.11ZM1365.38 35.974C1366.7 35.974 1367.7 36.262 1368.4 36.838C1369.11 37.402 1369.46 38.272 1369.46 39.448V46H1367.59L1367.07 44.668H1367C1366.58 45.196 1366.13 45.58 1365.66 45.82C1365.2 46.06 1364.55 46.18 1363.74 46.18C1362.86 46.18 1362.14 45.928 1361.56 45.424C1360.98 44.908 1360.7 44.122 1360.7 43.066C1360.7 42.022 1361.06 41.254 1361.79 40.762C1362.53 40.258 1363.62 39.982 1365.09 39.934L1366.8 39.88V39.448C1366.8 38.932 1366.66 38.554 1366.38 38.314C1366.12 38.074 1365.75 37.954 1365.27 37.954C1364.79 37.954 1364.32 38.026 1363.86 38.17C1363.41 38.302 1362.95 38.47 1362.5 38.674L1361.61 36.856C1362.14 36.58 1362.72 36.364 1363.36 36.208C1364.01 36.052 1364.68 35.974 1365.38 35.974ZM1366.8 41.446L1365.75 41.482C1364.89 41.506 1364.29 41.662 1363.95 41.95C1363.62 42.238 1363.45 42.616 1363.45 43.084C1363.45 43.492 1363.57 43.786 1363.81 43.966C1364.05 44.134 1364.36 44.218 1364.75 44.218C1365.32 44.218 1365.81 44.05 1366.2 43.714C1366.6 43.366 1366.8 42.88 1366.8 42.256V41.446ZM1381.3 35.992C1382.4 35.992 1383.3 36.424 1383.98 37.288C1384.67 38.14 1385.01 39.4 1385.01 41.068C1385.01 42.736 1384.65 44.008 1383.95 44.884C1383.24 45.748 1382.33 46.18 1381.23 46.18C1380.52 46.18 1379.96 46.054 1379.54 45.802C1379.12 45.538 1378.77 45.244 1378.51 44.92H1378.37C1378.46 45.424 1378.51 45.904 1378.51 46.36V50.32H1375.83V36.172H1378.01L1378.38 37.45H1378.51C1378.77 37.054 1379.13 36.712 1379.57 36.424C1380.02 36.136 1380.59 35.992 1381.3 35.992ZM1380.44 38.134C1379.74 38.134 1379.25 38.35 1378.96 38.782C1378.68 39.214 1378.53 39.874 1378.51 40.762V41.05C1378.51 41.998 1378.65 42.73 1378.92 43.246C1379.21 43.75 1379.73 44.002 1380.47 44.002C1381.08 44.002 1381.53 43.75 1381.82 43.246C1382.12 42.73 1382.27 41.992 1382.27 41.032C1382.27 39.1 1381.66 38.134 1380.44 38.134ZM1387.22 46V36.172H1389.9V39.97H1391.2C1392.7 39.97 1393.81 40.21 1394.53 40.69C1395.25 41.17 1395.61 41.896 1395.61 42.868C1395.61 43.816 1395.27 44.578 1394.6 45.154C1393.93 45.718 1392.82 46 1391.29 46H1387.22ZM1397.03 46V36.172H1399.71V46H1397.03ZM1389.9 44.146H1391.14C1391.67 44.146 1392.1 44.05 1392.42 43.858C1392.76 43.666 1392.92 43.348 1392.92 42.904C1392.92 42.184 1392.32 41.824 1391.11 41.824H1389.9V44.146ZM1405.19 36.172V39.952H1408.94V36.172H1411.62V46H1408.94V41.95H1405.19V46H1402.51V36.172H1405.19ZM1420.87 36.172H1423.83L1419.94 40.888L1424.17 46H1421.13L1417.11 41.014V46H1414.43V36.172H1417.11V40.942L1420.87 36.172ZM1429.27 35.992C1430.63 35.992 1431.7 36.382 1432.49 37.162C1433.29 37.93 1433.68 39.028 1433.68 40.456V41.752H1427.35C1427.37 42.508 1427.59 43.102 1428.01 43.534C1428.44 43.966 1429.04 44.182 1429.79 44.182C1430.43 44.182 1431.01 44.122 1431.52 44.002C1432.04 43.87 1432.57 43.672 1433.12 43.408V45.478C1432.64 45.718 1432.13 45.892 1431.59 46C1431.07 46.12 1430.42 46.18 1429.67 46.18C1428.68 46.18 1427.81 46 1427.06 45.64C1426.3 45.268 1425.71 44.71 1425.28 43.966C1424.84 43.222 1424.63 42.286 1424.63 41.158C1424.63 40.006 1424.82 39.052 1425.2 38.296C1425.6 37.528 1426.15 36.952 1426.84 36.568C1427.54 36.184 1428.35 35.992 1429.27 35.992ZM1429.29 37.9C1428.77 37.9 1428.34 38.068 1427.99 38.404C1427.66 38.74 1427.46 39.262 1427.4 39.97H1431.16C1431.15 39.37 1430.99 38.878 1430.69 38.494C1430.39 38.098 1429.93 37.9 1429.29 37.9Z" fill="#454545"/>
<rect width="75.9294" height="76.4717" rx="20" transform="matrix(1 0 0 -1 1191 76.4717)" fill="url(#paint6_linear)"/>
<rect x="1195.88" y="4.33887" width="75.9294" height="75.9294" rx="20" fill="url(#paint7_linear)"/>
<path d="M1234.5 62C1229.02 62 1223.88 59.8676 1220 55.9957C1216.13 52.1237 1214 46.9757 1214 41.5C1214 36.0243 1216.13 30.8763 1220 27.0043C1223.88 23.1324 1229.02 21 1234.5 21C1239.98 21 1245.12 23.1324 1249 27.0043C1252.87 30.8763 1255 36.0243 1255 41.5C1255 46.9757 1252.87 52.1237 1249 55.9957C1245.12 59.8676 1239.98 62 1234.5 62ZM1234.5 23.4023C1229.67 23.4023 1225.12 25.2848 1221.7 28.703C1218.28 32.1213 1216.4 36.6659 1216.4 41.5C1216.4 46.3341 1218.28 50.8787 1221.7 54.297C1225.12 57.7152 1229.67 59.5977 1234.5 59.5977C1239.33 59.5977 1243.88 57.7152 1247.3 54.297C1250.72 50.8787 1252.6 46.3341 1252.6 41.5C1252.6 36.6659 1250.72 32.1213 1247.3 28.703C1243.88 25.2848 1239.33 23.4023 1234.5 23.4023Z" fill="white"/>
<path d="M1233.3 25.8076H1235.7V29.0133H1233.3V25.8076Z" fill="white"/>
<path d="M1242.48 31.8232L1244.74 29.5568L1246.44 31.2553L1244.17 33.5217L1242.48 31.8232Z" fill="white"/>
<path d="M1246.99 40.2988H1250.19V42.7012H1246.99V40.2988Z" fill="white"/>
<path d="M1242.47 51.1787L1244.17 49.4803L1246.44 51.7467L1244.74 53.4451L1242.47 51.1787Z" fill="white"/>
<path d="M1233.3 53.9863H1235.7V57.192H1233.3V53.9863Z" fill="white"/>
<path d="M1222.55 51.7451L1224.82 49.4787L1226.52 51.1772L1224.25 53.4436L1222.55 51.7451Z" fill="white"/>
<path d="M1218.81 40.2988H1222.01V42.7012H1218.81V40.2988Z" fill="white"/>
<path d="M1222.55 31.2529L1224.25 29.5545L1226.52 31.8209L1224.82 33.5194L1222.55 31.2529Z" fill="white"/>
<path d="M1242.98 42.7013H1233.3V33.0205H1235.7V40.299H1242.98V42.7013Z" fill="white"/>
<defs>
<linearGradient id="paint0_linear" x1="-25.4906" y1="67.5229" x2="25.7617" y2="11.1182" gradientUnits="userSpaceOnUse">
<stop stop-color="#58A54B"/>
<stop offset="0.846902" stop-color="#58A54B" stop-opacity="0.22"/>
</linearGradient>
<linearGradient id="paint1_linear" x1="6.50792" y1="-11.3894" x2="42.8455" y2="96.81" gradientUnits="userSpaceOnUse">
<stop stop-color="#44464B"/>
<stop offset="1" stop-color="#44464B"/>
</linearGradient>
<linearGradient id="paint2_linear" x1="-25.4906" y1="67.5229" x2="25.7617" y2="11.1182" gradientUnits="userSpaceOnUse">
<stop stop-color="#58A54B"/>
<stop offset="0.846902" stop-color="#58A54B" stop-opacity="0.22"/>
</linearGradient>
<linearGradient id="paint3_linear" x1="408.508" y1="-11.3894" x2="444.846" y2="96.81" gradientUnits="userSpaceOnUse">
<stop stop-color="#44464B"/>
<stop offset="1" stop-color="#44464B"/>
</linearGradient>
<linearGradient id="paint4_linear" x1="-25.4906" y1="67.5229" x2="25.7617" y2="11.1182" gradientUnits="userSpaceOnUse">
<stop stop-color="#58A54B"/>
<stop offset="0.846902" stop-color="#58A54B" stop-opacity="0.22"/>
</linearGradient>
<linearGradient id="paint5_linear" x1="795.508" y1="-11.3894" x2="831.846" y2="96.81" gradientUnits="userSpaceOnUse">
<stop stop-color="#44464B"/>
<stop offset="1" stop-color="#44464B"/>
</linearGradient>
<linearGradient id="paint6_linear" x1="-25.4906" y1="67.5229" x2="25.7617" y2="11.1182" gradientUnits="userSpaceOnUse">
<stop stop-color="#58A54B"/>
<stop offset="0.846902" stop-color="#58A54B" stop-opacity="0.22"/>
</linearGradient>
<linearGradient id="paint7_linear" x1="1197.51" y1="-11.3894" x2="1233.85" y2="96.81" gradientUnits="userSpaceOnUse">
<stop stop-color="#44464B"/>
<stop offset="1" stop-color="#44464B"/>
</linearGradient>
<clipPath id="clip0">
<rect width="55" height="55" fill="white" transform="translate(17 14)"/>
</clipPath>
<clipPath id="clip1">
<rect width="42" height="43" fill="white" transform="translate(424 20.3252)"/>
</clipPath>
<clipPath id="clip2">
<rect width="46" height="46" fill="white" transform="translate(809 19)"/>
</clipPath>
</defs>
</svg>
