<svg width="1280" height="612" viewBox="0 0 1280 612" fill="none" xmlns="http://www.w3.org/2000/svg">
<mask id="mask0" mask-type="alpha" maskUnits="userSpaceOnUse" x="0" y="0" width="1280" height="612">
<rect width="1280" height="612" fill="#FEFEFE"/>
</mask>
<g mask="url(#mask0)">
<path opacity="0.2" d="M1250.21 530.216L1250.21 496.436L1280 479.242V444.012L1279.61 443.785L1250.21 426.817V393.036L1280 375.844V340.612L1279.61 340.385L1250.21 323.417V289.638L1280 272.444V237.211L1279.61 236.985L1250.21 220.018V186.238L1280 169.043V133.814L1279.61 133.585L1250.21 116.617V82.8372L1280 65.647V30.4136L1279.61 30.1856L1250.21 13.2168V-20.5613L1280 -37.7534V-72.9858L1279.61 -73.2138L1250.21 -90.1789V-123.959L1280 -141.154L1280 -176.382L1279.61 -176.61L1249.48 -194L1219.75 -176.838L1190.02 -194L1160.29 -176.838L1130.57 -194L1100.83 -176.839L1071.11 -194L1041.38 -176.839L1011.65 -194L981.916 -176.839L952.189 -194L922.459 -176.839L892.729 -194L862.999 -176.839L833.274 -194L803.54 -176.839L773.813 -194L744.084 -176.839L714.355 -194L684.624 -176.839L654.897 -194L625.166 -176.839L595.436 -194L565.707 -176.839L535.979 -194L506.249 -176.839L476.52 -194L446.79 -176.839L417.061 -194L387.33 -176.839L357.603 -194L327.872 -176.839L298.143 -194L268.413 -176.839L238.685 -194L208.954 -176.839L179.228 -194L149.497 -176.839L119.767 -194L90.0363 -176.839L60.3089 -194L29.7909 -176.383L29.7909 -141.835L0.000247955 -124.641L0.000236422 -89.4089L0.39485 -89.1847L29.7913 -72.2187L29.7913 -38.4387L0.000214317 -21.241L0.000202785 13.9867L0.394816 14.2157L29.7913 31.1816L29.7913 64.9616L0.00018068 82.1556L0.000169147 117.387L0.394782 117.615L29.7913 134.581L29.7912 168.361L0.000147043 185.556L0.00013551 220.788L0.394749 221.015L29.7912 237.982L29.7912 271.761L0.000112445 288.956L0.000100912 324.187L0.394714 324.413L29.7912 341.38L29.7912 375.161L7.88073e-05 392.355L6.72746e-05 427.586L0.394681 427.813L29.7912 444.781L29.7911 478.559L4.51701e-05 495.755L3.36373e-05 530.987L0.394647 531.213L29.7911 548.179L29.7911 581.96L1.15328e-05 599.155L0 634.385L0.394613 634.611L30.518 652L60.2495 634.839L89.976 652L119.707 634.839L149.436 652L179.167 634.839L208.895 652L238.626 634.839L268.354 652L298.084 634.84L327.811 652L357.542 634.84L387.27 652L417.001 634.84L446.729 652L476.461 634.84L506.188 652L535.919 634.84L565.648 652L595.377 634.84L625.105 652L654.834 634.84L684.562 652L714.295 634.84L744.022 652L773.751 634.84L803.481 652L833.211 634.84L862.941 652L892.671 634.84L922.397 652L952.13 634.84L981.857 652L1011.59 634.84L1041.32 652L1071.05 634.84L1100.77 652L1130.51 634.84L1160.23 652L1189.96 634.84L1219.69 652L1250.21 634.385V599.836L1280 582.642V547.41L1279.61 547.184L1250.21 530.216ZM505.459 -38.6656L476.52 -21.9614L447.581 -38.6656V-72.0741L476.52 -88.7764L505.459 -72.074L505.459 -38.6656ZM1070.26 13.076L1041.32 29.7831L1012.38 13.076V-20.3287L1041.32 -37.0356L1070.26 -20.3286V13.076ZM209.745 444.923L238.686 428.218L267.627 444.923V478.33L238.686 495.036L209.745 478.33L209.745 444.923ZM1011.65 495.036L982.708 478.33L982.708 444.923L1011.65 428.218L1040.59 444.923L1040.59 478.33L1011.65 495.036ZM505.459 64.7338L476.519 81.438L447.581 64.7338V31.3253L476.519 14.6193L505.459 31.3254V64.7338ZM981.129 64.7339L952.189 81.4382L923.249 64.7339V31.3255L952.189 14.6194L981.129 31.3255V64.7339ZM921.671 64.7339L892.729 81.4382L863.791 64.7339V31.3255L892.729 14.6194L921.671 31.3255V64.7339ZM862.213 64.7339L833.273 81.4382L804.333 64.7339V31.3255L833.274 14.6194L862.213 31.3255V64.7339ZM802.754 64.7339L773.813 81.4381L744.872 64.7339V31.3254L773.813 14.6194L802.754 31.3255L802.754 64.7339ZM743.294 64.7339L714.355 81.4381L685.412 64.7338L685.412 31.3254L714.355 14.6193L743.294 31.3254L743.294 64.7339ZM683.835 64.7338L654.897 81.4381L625.956 64.7338V31.3254L654.897 14.6193L683.835 31.3254L683.835 64.7338ZM624.377 64.7338L595.436 81.4381L566.499 64.7338V31.3254L595.436 14.6193L624.377 31.3254V64.7338ZM446.002 64.7338L417.061 81.438L388.12 64.7337V31.3253L417.061 14.6192L446.002 31.3253V64.7338ZM386.542 64.7337L357.603 81.438L328.662 64.7337V31.3253L357.603 14.6192L386.542 31.3253V64.7337ZM298.871 393.267L327.811 376.563L356.752 393.267V426.674L327.811 443.38L298.871 426.674V393.267ZM358.331 393.267L387.269 376.563L416.211 393.268L416.211 426.674L387.269 443.38L358.331 426.674L358.331 393.267ZM417.788 393.268L446.728 376.563L475.667 393.268L475.671 426.675L446.728 443.38L417.788 426.674V393.268ZM536.708 393.268L565.647 376.563L594.586 393.268V426.675L565.648 443.38L536.708 426.675V393.268ZM596.164 393.268L625.105 376.563L654.046 393.268V426.675L625.105 443.38L596.164 426.675V393.268ZM655.625 393.268L684.562 376.563L713.503 393.268V426.675L684.562 443.38L655.625 426.675L655.625 393.268ZM715.081 393.268L744.022 376.563L772.963 393.268V426.675L744.022 443.38L715.081 426.675L715.081 393.268ZM774.541 393.268L803.481 376.563L832.422 393.268V426.675L803.481 443.38L774.54 426.675L774.541 393.268ZM834 393.268L862.941 376.563L891.879 393.268L891.879 426.675L862.941 443.38L834 426.675V393.268ZM893.456 393.268L922.397 376.563L951.338 393.268V426.675L922.397 443.38L893.456 426.675L893.456 393.268ZM505.459 168.13L476.519 184.837L447.581 168.13V134.726L476.519 118.02L505.459 134.726V168.13ZM862.213 168.131L833.273 184.838L804.333 168.131V134.726L833.273 118.02L862.213 134.726V168.131ZM417.788 289.868L446.728 273.163L475.667 289.868L475.671 323.274L446.728 339.979L417.788 323.274L417.788 289.868ZM743.294 271.532L714.355 288.237L685.412 271.532V238.124L714.355 221.42L743.294 238.124V271.532ZM683.834 271.532L654.896 288.237L625.956 271.532V238.124L654.896 221.42L683.834 238.124V271.532ZM624.377 271.532L595.436 288.237L566.499 271.532V238.124L595.436 221.42L624.377 238.124L624.377 271.532ZM596.164 186.468L625.105 169.764L654.046 186.468V219.875L625.105 236.579L596.164 219.875V186.468ZM655.625 186.468L684.562 169.764L713.503 186.468V219.875L684.562 236.579L655.625 219.875V186.468ZM715.081 186.468L744.022 169.764L772.963 186.468V219.875L744.022 236.579L715.081 219.875V186.468ZM535.979 288.237L507.038 271.532V238.124L535.979 221.42L564.921 238.124L564.92 271.532L535.979 288.237ZM536.708 186.468L565.647 169.764L594.586 186.468V219.875L565.647 236.579L536.708 219.875V186.468ZM802.754 271.532L773.813 288.237L744.872 271.532V238.124L773.813 221.42L802.754 238.124V271.532ZM447.581 238.124L476.519 221.42L505.459 238.124V271.532L476.519 288.237L447.58 271.532L447.581 238.124ZM477.25 186.468L506.188 169.764L535.129 186.468V219.875L506.188 236.579L477.25 219.875L477.25 186.468ZM832.422 219.875L803.481 236.579L774.541 219.875V186.468L803.481 169.764L832.422 186.468V219.875ZM832.422 323.274L803.481 339.979L774.541 323.274V289.868L803.481 273.163L832.422 289.868V323.274ZM772.963 323.274L744.022 339.979L715.081 323.274V289.868L744.022 273.163L772.963 289.868V323.274ZM713.503 323.274L684.562 339.979L655.625 323.274V289.868L684.562 273.163L713.503 289.868V323.274ZM654.046 323.274L625.105 339.979L596.164 323.274V289.868L625.105 273.163L654.046 289.868V323.274ZM594.586 323.274L565.647 339.979L536.708 323.274V289.868L565.647 273.163L594.586 289.868V323.274ZM535.129 323.274L506.188 339.979L477.25 323.274V289.868L506.188 273.163L535.129 289.868V323.274ZM417.788 186.468L446.728 169.764L475.667 186.468L475.671 219.875L446.728 236.579L417.788 219.875L417.788 186.468ZM566.499 134.726L595.436 118.02L624.377 134.726V168.131L595.436 184.837L566.499 168.13V134.726ZM625.956 134.726L654.896 118.02L683.835 134.726V168.131L654.896 184.837L625.956 168.131V134.726ZM685.412 134.726L714.355 118.02L743.294 134.726V168.131L714.355 184.837L685.412 168.131V134.726ZM744.872 134.726L773.813 118.02L802.754 134.726V168.131L773.813 184.838L744.872 168.131V134.726ZM862.213 271.532L833.273 288.237L804.333 271.532V238.124L833.273 221.42L862.213 238.124V271.532ZM388.12 238.124L417.061 221.42L446.002 238.124V271.532L417.061 288.237L388.12 271.532L388.12 238.124ZM388.12 134.726L417.061 118.02L446.002 134.726V168.13L417.061 184.837L388.12 168.13V134.726ZM507.038 134.726L535.979 118.02L564.921 134.726V168.13L535.979 184.837L507.038 168.13V134.726ZM891.879 219.875L862.941 236.579L834 219.875V186.468L862.941 169.764L891.879 186.468V219.875ZM891.879 323.274L862.941 339.979L834 323.274V289.868L862.941 273.163L891.879 289.868V323.274ZM862.213 374.932L833.273 391.636L804.333 374.932V341.524L833.273 324.819L862.213 341.524V374.932ZM802.754 374.932L773.813 391.635L744.872 374.932V341.524L773.813 324.819L802.754 341.524V374.932ZM743.294 374.932L714.355 391.635L685.412 374.932V341.524L714.355 324.819L743.294 341.524V374.932ZM683.834 374.932L654.896 391.635L625.956 374.932V341.524L654.896 324.819L683.834 341.524V374.932ZM624.377 374.932L595.436 391.635L566.499 374.932V341.524L595.436 324.819L624.377 341.524V374.932ZM564.92 374.932L535.979 391.635L507.038 374.932L507.038 341.524L535.979 324.819L564.92 341.524V374.932ZM505.459 374.932L476.519 391.635L447.58 374.932L447.58 341.524L476.519 324.819L505.459 341.524V374.932ZM446.002 374.932L417.061 391.635L388.12 374.932L388.12 341.524L417.061 324.819L446.002 341.524L446.002 374.932ZM358.33 289.868L387.269 273.163L416.211 289.868L416.211 323.274L387.269 339.979L358.331 323.274L358.33 289.868ZM358.33 186.468L387.269 169.764L416.211 186.468L416.211 219.875L387.269 236.579L358.33 219.875L358.33 186.468ZM358.33 83.0687L387.269 66.3645L416.211 83.0687V116.476L387.269 133.182L358.33 116.476L358.33 83.0687ZM417.788 83.0687L446.728 66.3645L475.667 83.0687L475.671 116.476L446.728 133.182L417.788 116.476V83.0687ZM536.708 83.0687L565.647 66.3646L594.586 83.0688L594.586 116.476L565.647 133.182L536.708 116.476L536.708 83.0687ZM596.165 83.0688L625.105 66.3646L654.046 83.0688L654.046 116.476L625.105 133.182L596.165 116.476V83.0688ZM655.625 83.0688L684.562 66.3646L713.503 83.0688V116.476L684.562 133.182L655.625 116.476V83.0688ZM715.081 83.0688L744.022 66.3646L772.963 83.0688V116.476L744.022 133.182L715.081 116.476V83.0688ZM774.541 83.0688L803.482 66.3647L832.422 83.0688V116.476L803.481 133.182L774.541 116.476V83.0688ZM834 83.0688L862.941 66.3647L891.879 83.0688V116.476L862.941 133.182L834 116.476V83.0688ZM921.671 168.131L892.729 184.838L863.791 168.131V134.726L892.729 118.02L921.671 134.726V168.131ZM921.671 271.532L892.729 288.237L863.791 271.532V238.124L892.729 221.42L921.671 238.124V271.532ZM921.671 374.932L892.729 391.636L863.791 374.932V341.524L892.729 324.819L921.671 341.524L921.671 374.932ZM328.662 341.524L357.603 324.818L386.542 341.524V374.932L357.603 391.635L328.662 374.932V341.524ZM328.662 238.124L357.603 221.42L386.542 238.124V271.532L357.603 288.237L328.662 271.532V238.124ZM328.662 134.726L357.603 118.02L386.542 134.726V168.13L357.603 184.837L328.662 168.13L328.662 134.726ZM477.25 83.0687L506.188 66.3645L535.129 83.0687V116.476L506.188 133.182L477.25 116.476L477.25 83.0687ZM951.338 116.476L922.397 133.182L893.456 116.476V83.0688L922.397 66.3647L951.338 83.0688V116.476ZM951.338 219.875L922.397 236.579L893.456 219.875V186.468L922.397 169.764L951.338 186.468V219.875ZM951.338 323.274L922.397 339.979L893.456 323.274V289.868L922.397 273.163L951.338 289.868V323.274ZM535.129 426.675L506.188 443.38L477.25 426.675V393.268L506.188 376.563L535.129 393.268V426.675ZM298.871 289.868L327.811 273.163L356.752 289.868L356.752 323.274L327.811 339.979L298.871 323.274V289.868ZM298.871 186.468L327.812 169.764L356.752 186.468L356.752 219.875L327.812 236.579L298.871 219.875V186.468ZM298.871 83.0687L327.812 66.3645L356.752 83.0687L356.752 116.476L327.812 133.182L298.871 116.476L298.871 83.0687ZM981.129 168.131L952.188 184.838L923.248 168.131L923.249 134.726L952.188 118.02L981.129 134.726V168.131ZM981.129 271.532L952.188 288.237L923.248 271.532V238.124L952.188 221.42L981.129 238.124V271.532ZM981.129 374.932L952.188 391.636L923.248 374.932L923.248 341.524L952.188 324.819L981.129 341.524V374.932ZM269.205 341.524L298.144 324.818L327.084 341.524V374.932L298.144 391.635L269.205 374.932V341.524ZM269.203 238.124L298.142 221.42L327.083 238.124V271.532L298.142 288.237L269.205 271.532L269.203 238.124ZM269.203 134.726L298.142 118.02L327.083 134.726V168.13L298.142 184.837L269.203 168.13V134.726ZM269.204 31.3253L298.142 14.6192L327.083 31.3253V64.7337L298.142 81.438L269.204 64.7337L269.204 31.3253ZM507.038 31.3254L535.979 14.6193L564.921 31.3254V64.7338L535.979 81.4381L507.038 64.7338V31.3254ZM1010.8 116.476L981.858 133.182L952.917 116.476V83.0688L981.858 66.3647L1010.8 83.0689V116.476ZM1010.8 219.875L981.857 236.579L952.917 219.875V186.468L981.858 169.764L1010.8 186.468V219.875ZM1010.8 323.274L981.857 339.979L952.917 323.274V289.868L981.857 273.163L1010.8 289.868L1010.8 323.274ZM1010.8 426.675L981.857 443.38L952.917 426.675L952.917 393.268L981.857 376.564L1010.8 393.268V426.675ZM239.413 393.267L268.354 376.563L297.293 393.267V426.674L268.354 443.38L239.413 426.674L239.413 393.267ZM239.413 289.868L268.354 273.163L297.292 289.868L297.293 323.274L268.354 339.979L239.413 323.274V289.868ZM239.412 186.468L268.353 169.764L297.292 186.468L297.292 219.875L268.353 236.579L239.413 219.875L239.412 186.468ZM239.412 83.0686L268.353 66.3645L297.292 83.0687V116.476L268.353 133.182L239.412 116.476V83.0686ZM1040.59 64.7339L1011.65 81.4382L982.708 64.7339V31.3255L1011.65 14.6194L1040.59 31.3255V64.7339ZM1040.59 168.131L1011.65 184.838L982.708 168.131V134.726L1011.65 118.02L1040.59 134.726V168.131ZM1040.59 271.532L1011.65 288.237L982.708 271.532V238.124L1011.65 221.42L1040.59 238.124V271.532ZM1040.59 374.932L1011.65 391.636L982.708 374.932V341.524L1011.65 324.819L1040.59 341.524V374.932ZM952.188 495.036L923.248 478.33V444.923L952.188 428.218L981.129 444.923V478.33L952.188 495.036ZM892.729 495.036L863.791 478.33V444.923L892.729 428.218L921.671 444.923V478.33L892.729 495.036ZM833.273 495.036L804.333 478.33L804.333 444.923L833.273 428.218L862.213 444.923V478.33L833.273 495.036ZM773.813 495.036L744.872 478.33L744.872 444.923L773.813 428.218L802.754 444.923V478.33L773.813 495.036ZM714.355 495.036L685.412 478.33V444.923L714.355 428.218L743.294 444.923V478.33L714.355 495.036ZM654.896 495.036L625.956 478.33V444.923L654.896 428.218L683.834 444.923V478.33L654.896 495.036ZM595.436 495.036L566.499 478.33V444.923L595.436 428.218L624.377 444.923V478.33L595.436 495.036ZM535.98 495.036L507.038 478.33V444.923L535.98 428.218L564.92 444.923V478.33L535.98 495.036ZM476.519 495.036L447.58 478.33V444.923L476.519 428.218L505.459 444.923L505.459 478.33L476.519 495.036ZM417.061 495.036L388.12 478.33V444.923L417.061 428.218L446.002 444.923L446.002 478.33L417.061 495.036ZM357.603 495.036L328.662 478.33V444.923L357.603 428.218L386.542 444.923V478.33L357.603 495.036ZM298.144 495.036L269.205 478.33V444.923L298.144 428.218L327.084 444.923V478.33L298.144 495.036ZM209.745 341.524L238.686 324.818L267.627 341.524L267.627 374.932L238.686 391.635L209.745 374.932V341.524ZM209.745 238.124L238.686 221.42L267.625 238.124L267.627 271.532L238.686 288.237L209.745 271.532L209.745 238.124ZM209.745 134.726L238.685 118.02L267.625 134.726L267.625 168.13L238.685 184.837L209.745 168.13L209.745 134.726ZM209.745 31.3253L238.685 14.6192L267.625 31.3253L267.625 64.7337L238.685 81.438L209.745 64.7337V31.3253ZM268.353 -37.0359L297.292 -20.3289V13.0758L268.353 29.7828L239.412 13.0757L239.412 -20.3289L268.353 -37.0359ZM327.812 -37.0358L356.752 -20.3289V13.0758L327.812 29.7828L298.871 13.0758L298.871 -20.3289L327.812 -37.0358ZM387.269 -37.0358L416.211 -20.3289V13.0758L387.269 29.7828L358.33 13.0758V-20.3289L387.269 -37.0358ZM446.728 -37.0358L475.667 -20.3289L475.671 13.0758L446.728 29.7829L417.788 13.0758V-20.3289L446.728 -37.0358ZM477.25 -20.3289L506.188 -37.0358L535.129 -20.3288V13.0759L506.188 29.7829L477.25 13.0758L477.25 -20.3289ZM565.647 -37.0358L594.586 -20.3288V13.0759L565.647 29.7829L536.708 13.0759V-20.3288L565.647 -37.0358ZM625.105 -37.0358L654.046 -20.3288V13.0759L625.105 29.7829L596.165 13.0759L596.165 -20.3288L625.105 -37.0358ZM684.562 -37.0357L713.503 -20.3288L713.503 13.0759L684.562 29.7829L655.625 13.0759V-20.3288L684.562 -37.0357ZM744.022 -37.0357L772.963 -20.3288V13.0759L744.022 29.7829L715.081 13.0759V-20.3288L744.022 -37.0357ZM803.482 -37.0357L832.422 -20.3287L832.422 13.076L803.482 29.783L774.541 13.0759V-20.3288L803.482 -37.0357ZM862.941 -37.0357L891.879 -20.3287V13.076L862.941 29.783L834 13.076V-20.3287L862.941 -37.0357ZM922.397 -37.0357L951.338 -20.3287L951.338 13.076L922.397 29.783L893.456 13.076V-20.3287L922.397 -37.0357ZM981.858 -37.0356L1010.8 -20.3287V13.076L981.858 29.783L952.917 13.076V-20.3287L981.858 -37.0356ZM1070.26 116.476L1041.32 133.182L1012.38 116.476V83.0689L1041.32 66.3647L1070.26 83.0689V116.476ZM1070.25 219.875L1041.32 236.579L1012.38 219.875V186.468L1041.32 169.764L1070.25 186.468V219.875ZM1070.25 323.274L1041.32 339.979L1012.38 323.274V289.868L1041.32 273.163L1070.25 289.868V323.274ZM1070.25 426.675L1041.32 443.38L1012.38 426.675V393.268L1041.32 376.564L1070.25 393.268V426.675ZM179.955 393.267L208.895 376.563L237.835 393.267L237.835 426.674L208.895 443.38L179.955 426.674V393.267ZM179.955 289.868L208.895 273.163L237.835 289.868L237.835 323.274L208.895 339.979L179.955 323.274L179.955 289.868ZM179.954 186.468L208.893 169.764L237.834 186.468L237.835 219.875L208.895 236.579L179.954 219.875V186.468ZM179.954 83.0686L208.893 66.3644L237.834 83.0686L237.834 116.476L208.893 133.182L179.954 116.476L179.954 83.0686ZM179.954 -20.3289L208.893 -37.0359L237.834 -20.3289V13.0757L208.893 29.7828L179.954 13.0757L179.954 -20.3289ZM1100.05 64.734L1071.11 81.4382L1042.17 64.7339V31.3255L1071.11 14.6194L1100.05 31.3255V64.734ZM1100.05 168.131L1071.11 184.838L1042.17 168.131V134.726L1071.11 118.02L1100.05 134.726V168.131ZM1100.05 271.532L1071.11 288.237L1042.17 271.532V238.124L1071.11 221.42L1100.05 238.125V271.532ZM1100.05 374.932L1071.11 391.636L1042.17 374.932V341.524L1071.11 324.819L1100.05 341.524L1100.05 374.932ZM1100.05 478.33L1071.11 495.036L1042.17 478.33V444.923L1071.11 428.218L1100.05 444.923V478.33ZM1070.25 530.075L1041.32 546.778L1012.38 530.075V496.667L1041.32 479.962L1070.25 496.667L1070.25 530.075ZM1010.8 530.075L981.857 546.778L952.917 530.075V496.667L981.857 479.962L1010.8 496.667V530.075ZM951.338 530.075L922.397 546.778L893.456 530.075V496.667L922.397 479.962L951.338 496.667L951.338 530.075ZM891.879 530.075L862.941 546.778L834 530.075L834 496.667L862.941 479.962L891.879 496.667V530.075ZM832.422 530.075L803.481 546.778L774.54 530.075V496.667L803.481 479.962L832.422 496.667L832.422 530.075ZM772.963 530.075L744.022 546.778L715.081 530.075V496.667L744.022 479.961L772.963 496.667V530.075ZM713.503 530.075L684.562 546.778L655.625 530.075V496.667L684.562 479.961L713.503 496.667V530.075ZM654.046 530.075L625.105 546.778L596.164 530.075L596.164 496.667L625.105 479.961L654.046 496.667V530.075ZM594.586 530.075L565.648 546.778L536.708 530.075V496.667L565.648 479.961L594.586 496.667V530.075ZM535.129 530.075L506.188 546.778L477.25 530.074V496.667L506.188 479.961L535.129 496.667V530.075ZM475.671 530.074L446.728 546.778L417.788 530.074V496.667L446.728 479.961L475.667 496.667L475.671 530.074ZM416.211 530.074L387.27 546.778L358.331 530.074L358.331 496.667L387.269 479.961L416.211 496.667V530.074ZM356.752 530.074L327.811 546.778L298.871 530.074V496.666L327.811 479.961L356.752 496.667V530.074ZM297.293 530.074L268.354 546.778L239.413 530.074L239.413 496.666L268.354 479.961L297.293 496.666V530.074ZM237.835 530.074L208.895 546.778L179.955 530.074L179.955 496.666L208.895 479.961L237.835 496.666V530.074ZM150.287 444.923L179.227 428.218L208.166 444.923L208.166 478.33L179.227 495.036L150.287 478.33L150.287 444.923ZM150.287 341.524L179.227 324.818L208.166 341.524L208.166 374.932L179.227 391.635L150.287 374.932L150.287 341.524ZM150.286 238.124L179.228 221.42L208.166 238.124V271.532L179.227 288.237L150.286 271.532V238.124ZM150.286 134.726L179.228 118.02L208.166 134.726L208.166 168.13L179.228 184.837L150.286 168.13L150.286 134.726ZM150.286 31.3252L179.228 14.6192L208.166 31.3253L208.166 64.7337L179.228 81.438L150.286 64.7337L150.286 31.3252ZM150.286 -72.0741L179.228 -88.7765L208.167 -72.0741L208.167 -38.6657L179.228 -21.9615L150.286 -38.6657L150.286 -72.0741ZM209.745 -72.0741L238.685 -88.7765L267.625 -72.0741V-38.6657L238.685 -21.9615L209.745 -38.6657L209.745 -72.0741ZM269.204 -72.0741L298.142 -88.7764L327.083 -72.0741V-38.6657L298.142 -21.9615L269.204 -38.6657L269.204 -72.0741ZM328.662 -72.0741L357.603 -88.7764L386.542 -72.0741L386.542 -38.6656L357.603 -21.9615L328.662 -38.6657L328.662 -72.0741ZM388.12 -72.0741L417.061 -88.7764L446.002 -72.0741V-38.6656L417.061 -21.9615L388.12 -38.6656V-72.0741ZM507.038 -72.074L535.979 -88.7764L564.921 -72.074V-38.6656L535.979 -21.9614L507.038 -38.6656V-72.074ZM566.499 -72.074L595.436 -88.7763L624.377 -72.074V-38.6656L595.436 -21.9614L566.499 -38.6656L566.499 -72.074ZM625.956 -72.074L654.897 -88.7763L683.835 -72.074V-38.6655L654.897 -21.9614L625.956 -38.6656V-72.074ZM685.412 -72.074L714.355 -88.7763L743.294 -72.0739V-38.6655L714.355 -21.9614L685.412 -38.6655V-72.074ZM744.872 -72.0739L773.813 -88.7763L802.754 -72.0739V-38.6655L773.813 -21.9613L744.872 -38.6655V-72.0739ZM804.333 -72.0739L833.274 -88.7763L862.213 -72.0739V-38.6655L833.274 -21.9613L804.333 -38.6655V-72.0739ZM863.791 -72.0739L892.729 -88.7762L921.671 -72.0739V-38.6655L892.729 -21.9613L863.791 -38.6655V-72.0739ZM923.249 -72.0739L952.189 -88.7762L981.129 -72.0739V-38.6654L952.189 -21.9613L923.249 -38.6655V-72.0739ZM982.708 -72.0739L1011.65 -88.7762L1040.59 -72.0739V-38.6654L1011.65 -21.9613L982.708 -38.6654V-72.0739ZM1042.17 -72.0739L1071.11 -88.7762L1100.05 -72.0738V-38.6654L1071.11 -21.9612L1042.17 -38.6654V-72.0739ZM1129.72 13.076L1100.77 29.7831L1071.83 13.076V-20.3286L1100.77 -37.0356L1129.72 -20.3286V13.076ZM1129.72 116.476L1100.77 133.182L1071.83 116.476V83.0689L1100.77 66.3647L1129.72 83.0689V116.476ZM1129.72 219.875L1100.77 236.579L1071.83 219.875V186.468L1100.77 169.764L1129.72 186.468V219.875ZM1129.72 323.274L1100.77 339.98L1071.83 323.274V289.868L1100.77 273.163L1129.72 289.868V323.274ZM1129.71 426.675L1100.77 443.38L1071.83 426.675V393.268L1100.77 376.564L1129.71 393.268V426.675ZM1129.71 530.075L1100.77 546.778L1071.83 530.075V496.667L1100.77 479.962L1129.71 496.667V530.075ZM120.495 496.666L149.436 479.961L178.377 496.666L178.377 530.074L149.436 546.778L120.495 530.074L120.495 496.666ZM120.495 393.267L149.436 376.563L178.377 393.267V426.674L149.436 443.38L120.495 426.674L120.495 393.267ZM120.495 289.868L149.435 273.163L178.377 289.868L178.377 323.274L149.436 339.979L120.495 323.274L120.495 289.868ZM120.495 186.468L149.435 169.764L178.376 186.468V219.875L149.435 236.579L120.495 219.875L120.495 186.468ZM120.495 83.0686L149.435 66.3644L178.376 83.0686L178.376 116.476L149.435 133.182L120.495 116.476L120.495 83.0686ZM120.495 -20.329L149.435 -37.0359L178.376 -20.3289L178.376 13.0757L149.435 29.7828L120.495 13.0757L120.495 -20.329ZM1159.51 -38.6654L1130.57 -21.9612L1101.62 -38.6654V-72.0738L1130.57 -88.7762L1159.51 -72.0738V-38.6654ZM1159.51 64.734L1130.57 81.4382L1101.62 64.734V31.3255L1130.57 14.6195L1159.51 31.3256V64.734ZM1159.51 168.131L1130.57 184.838L1101.62 168.131V134.726L1130.57 118.02L1159.51 134.726V168.131ZM1159.51 271.532L1130.57 288.237L1101.62 271.532V238.125L1130.57 221.42L1159.51 238.125V271.532ZM1159.51 374.932L1130.57 391.636L1101.62 374.932V341.524L1130.57 324.819L1159.51 341.524V374.932ZM1159.51 478.33L1130.57 495.036L1101.62 478.33V444.923L1130.57 428.218L1159.51 444.923V478.33ZM1159.51 581.73L1130.57 598.435L1101.62 581.73V548.323L1130.57 531.619L1159.51 548.323V581.73ZM1100.05 581.73L1071.11 598.435L1042.17 581.73V548.323L1071.11 531.619L1100.05 548.323V581.73ZM1040.59 581.73L1011.65 598.435L982.708 581.73V548.323L1011.65 531.619L1040.59 548.323V581.73ZM981.129 581.73L952.188 598.435L923.248 581.73V548.323L952.188 531.619L981.129 548.323L981.129 581.73ZM921.671 581.73L892.729 598.435L863.791 581.73L863.791 548.323L892.729 531.619L921.671 548.323V581.73ZM862.213 581.73L833.273 598.435L804.333 581.73V548.323L833.273 531.619L862.213 548.323L862.213 581.73ZM802.754 581.73L773.813 598.435L744.872 581.73V548.323L773.813 531.619L802.754 548.323V581.73ZM743.294 581.73L714.355 598.435L685.412 581.73L685.412 548.323L714.355 531.618L743.294 548.323L743.294 581.73ZM683.834 581.73L654.896 598.435L625.955 581.73L625.956 548.323L654.896 531.618L683.834 548.323V581.73ZM624.377 581.73L595.436 598.435L566.499 581.73V548.323L595.436 531.618L624.377 548.323V581.73ZM564.92 581.73L535.979 598.435L507.039 581.73L507.038 548.323L535.98 531.618L564.92 548.323V581.73ZM505.46 581.73L476.521 598.435L447.58 581.73V548.323L476.519 531.618L505.459 548.323L505.46 581.73ZM446.002 581.73L417.061 598.435L388.12 581.73V548.323L417.061 531.618L446.002 548.323L446.002 581.73ZM386.542 581.73L357.603 598.435L328.662 581.73V548.323L357.603 531.618L386.542 548.323V581.73ZM327.084 581.73L298.144 598.435L269.205 581.73V548.323L298.144 531.618L327.084 548.323V581.73ZM267.627 581.73L238.686 598.435L209.745 581.73L209.745 548.323L238.686 531.618L267.627 548.323V581.73ZM208.166 581.73L179.227 598.435L150.287 581.73L150.287 548.323L179.227 531.618L208.166 548.323V581.73ZM148.708 581.73L119.768 598.435L90.8282 581.729L90.8282 548.323L119.768 531.618L148.708 548.323V581.73ZM90.8282 444.923L119.768 428.218L148.708 444.923L148.708 478.33L119.768 495.036L90.8282 478.33L90.8282 444.923ZM90.8282 341.524L119.768 324.818L148.708 341.524L148.708 374.932L119.768 391.635L90.8282 374.932L90.8282 341.524ZM90.8283 238.124L119.767 221.42L148.708 238.124V271.532L119.768 288.237L90.8283 271.532L90.8283 238.124ZM90.8283 134.726L119.767 118.02L148.708 134.726V168.13L119.767 184.837L90.8283 168.13L90.8283 134.726ZM90.8283 31.3252L119.767 14.6191L148.708 31.3252L148.708 64.7337L119.767 81.4379L90.8283 64.7337L90.8283 31.3252ZM90.8284 -72.0742L119.767 -88.7765L148.708 -72.0741V-38.6657L119.767 -21.9615L90.8284 -38.6657L90.8284 -72.0742ZM120.495 -123.729L149.435 -140.433L178.376 -123.729V-90.3218L149.435 -73.6185L120.495 -90.3218L120.495 -123.729ZM179.954 -123.729L208.893 -140.433L237.834 -123.729L237.834 -90.3218L208.893 -73.6185L179.954 -90.3218L179.954 -123.729ZM239.412 -123.729L268.353 -140.433L297.292 -123.729V-90.3218L268.353 -73.6185L239.412 -90.3218L239.412 -123.729ZM298.871 -123.729L327.812 -140.433L356.752 -123.729V-90.3218L327.812 -73.6185L298.871 -90.3218V-123.729ZM358.33 -123.729L387.269 -140.433L416.211 -123.729V-90.3218L387.269 -73.6185L358.33 -90.3218V-123.729ZM417.788 -123.729L446.728 -140.433L475.667 -123.729L475.671 -90.3217L446.728 -73.6184L417.788 -90.3217V-123.729ZM477.25 -123.729L506.188 -140.432L535.129 -123.729V-90.3217L506.188 -73.6184L477.25 -90.3217V-123.729ZM536.708 -123.729L565.647 -140.432L594.586 -123.729V-90.3217L565.647 -73.6184L536.708 -90.3217L536.708 -123.729ZM596.165 -123.729L625.105 -140.432L654.046 -123.729V-90.3217L625.105 -73.6184L596.165 -90.3217V-123.729ZM655.625 -123.729L684.562 -140.432L713.503 -123.729V-90.3216L684.562 -73.6184L655.625 -90.3217V-123.729ZM715.081 -123.729L744.022 -140.432L772.963 -123.729L772.963 -90.3216L744.022 -73.6183L715.081 -90.3216L715.081 -123.729ZM774.541 -123.729L803.482 -140.432L832.422 -123.729V-90.3216L803.482 -73.6183L774.541 -90.3216V-123.729ZM834 -123.729L862.941 -140.432L891.879 -123.729L891.879 -90.3216L862.941 -73.6183L834 -90.3216V-123.729ZM893.457 -123.729L922.397 -140.432L951.338 -123.729V-90.3216L922.397 -73.6183L893.456 -90.3216L893.457 -123.729ZM952.917 -123.729L981.858 -140.432L1010.8 -123.729V-90.3216L981.858 -73.6183L952.917 -90.3216V-123.729ZM1012.38 -123.729L1041.32 -140.432L1070.26 -123.729V-90.3215L1041.32 -73.6182L1012.38 -90.3216V-123.729ZM1071.83 -123.729L1100.77 -140.432L1129.72 -123.729V-90.3215L1100.77 -73.6182L1071.83 -90.3215V-123.729ZM1131.29 -123.729L1160.23 -140.432L1189.17 -123.729V-90.3215L1160.23 -73.6182L1131.29 -90.3215V-123.729ZM1189.17 13.0761L1160.23 29.7831L1131.29 13.076V-20.3286L1160.23 -37.0356L1189.17 -20.3286V13.0761ZM1189.17 116.476L1160.23 133.182L1131.29 116.476V83.0689L1160.23 66.3648L1189.17 83.0689V116.476ZM1189.17 219.875L1160.23 236.579L1131.29 219.875V186.468L1160.23 169.764L1189.17 186.468V219.875ZM1189.17 323.274L1160.23 339.98L1131.29 323.274L1131.29 289.868L1160.23 273.163L1189.17 289.868V323.274ZM1189.17 426.675L1160.23 443.38L1131.29 426.675V393.268L1160.23 376.564L1189.17 393.268V426.675ZM1189.17 530.075L1160.23 546.778L1131.29 530.075V496.667L1160.23 479.962L1189.17 496.667V530.075ZM1218.96 581.73L1190.02 598.435L1161.08 581.73V548.323L1190.02 531.619L1218.96 548.323V581.73ZM61.0375 496.666L89.976 479.961L118.917 496.666L118.917 530.074L89.976 546.778L61.0375 530.074L61.0375 496.666ZM61.0362 393.267L89.976 376.563L118.917 393.267L118.917 426.674L89.976 443.38L61.0375 426.674L61.0362 393.267ZM61.0362 289.868L89.9761 273.163L118.917 289.868L118.917 323.274L89.9761 339.979L61.0362 323.274L61.0362 289.868ZM61.0362 186.468L89.9761 169.764L118.917 186.468L118.917 219.875L89.9761 236.579L61.0362 219.875L61.0362 186.468ZM61.0363 83.0686L89.9761 66.3644L118.917 83.0686L118.917 116.476L89.9761 133.182L61.0363 116.476L61.0363 83.0686ZM61.0363 -20.329L89.9762 -37.0359L118.917 -20.329V13.0757L89.9762 29.7827L61.0363 13.0757L61.0363 -20.329ZM61.0363 -123.729L89.9762 -140.433L118.917 -123.729L118.917 -90.3218L89.9762 -73.6186L61.0363 -90.3219L61.0363 -123.729ZM1218.96 -38.6654L1190.02 -21.9612L1161.08 -38.6654L1161.08 -72.0738L1190.02 -88.7761L1218.96 -72.0738L1218.96 -38.6654ZM1218.96 64.734L1190.02 81.4383L1161.08 64.734V31.3256L1190.02 14.6195L1218.96 31.3256V64.734ZM1218.96 168.131L1190.02 184.838L1161.08 168.131V134.726L1190.02 118.02L1218.96 134.726V168.131ZM1218.96 271.532L1190.02 288.237L1161.08 271.532V238.125L1190.02 221.42L1218.96 238.125V271.532ZM1218.96 374.932L1190.02 391.636L1161.08 374.932V341.524L1190.02 324.819L1218.96 341.524V374.932ZM1218.96 478.33L1190.02 495.036L1161.08 478.33V444.923L1190.02 428.218L1218.96 444.923V478.33ZM31.3698 548.323L60.3092 531.618L89.2495 548.323L89.2495 581.729L60.3091 598.435L31.3698 581.729L31.3698 548.323ZM31.3698 444.923L60.3092 428.218L89.2496 444.923L89.2495 478.33L60.3092 495.036L31.3698 478.33L31.3698 444.923ZM31.3698 341.523L60.3088 324.818L89.2496 341.524L89.2496 374.932L60.3087 391.635L31.3698 374.931L31.3698 341.523ZM31.3699 238.124L60.3088 221.42L89.2496 238.124L89.2496 271.532L60.3088 288.237L31.3699 271.532L31.3699 238.124ZM31.3699 134.726L60.3088 118.02L89.2497 134.726L89.2496 168.13L60.3088 184.837L31.3699 168.13L31.3699 134.726ZM31.3699 31.3252L60.3089 14.6191L89.2497 31.3252L89.2497 64.7337L60.3088 81.4379L31.3699 64.7336L31.3699 31.3252ZM31.37 -72.0742L60.3089 -88.7765L89.2497 -72.0742L89.2497 -38.6657L60.3089 -21.9616L31.37 -38.6658L31.37 -72.0742ZM1248.63 -90.3215L1219.69 -73.6182L1190.75 -90.3215V-123.729L1219.69 -140.432L1248.63 -123.729V-90.3215ZM1248.63 13.0761L1219.69 29.7831L1190.75 13.0761V-20.3286L1219.69 -37.0356L1248.63 -20.3286V13.0761ZM1248.63 116.476L1219.69 133.182L1190.75 116.476V83.0689L1219.69 66.3648L1248.63 83.0689V116.476ZM1248.63 219.875L1219.69 236.579L1190.75 219.875V186.468L1219.69 169.764L1248.63 186.468V219.875ZM1248.63 323.274L1219.69 339.98L1190.75 323.274V289.868L1219.69 273.163L1248.63 289.868L1248.63 323.274ZM1248.63 426.675L1219.69 443.38L1190.75 426.675V393.268L1219.69 376.564L1248.63 393.268V426.675ZM1248.63 530.075L1219.69 546.778L1190.75 530.075V496.667L1219.69 479.962L1248.63 496.667V530.075ZM1278.42 581.73L1249.48 598.435L1220.55 581.73V548.323L1249.48 531.619L1278.42 548.323V581.73ZM1219.69 650.179L1190.75 633.473V600.067L1219.69 583.362L1248.63 600.067V633.473L1219.69 650.179ZM1160.23 650.179L1131.29 633.473V600.067L1160.23 583.362L1189.17 600.067V633.473L1160.23 650.179ZM1100.77 650.179L1071.83 633.473V600.067L1100.77 583.362L1129.71 600.067V633.473L1100.77 650.179ZM1041.32 650.179L1012.38 633.473V600.067L1041.32 583.362L1070.25 600.067V633.473L1041.32 650.179ZM981.857 650.179L952.917 633.473V600.067L981.857 583.362L1010.8 600.067V633.473L981.857 650.179ZM922.397 650.179L893.456 633.473V600.067L922.397 583.362L951.338 600.067V633.473L922.397 650.179ZM862.941 650.179L834 633.473V600.067L862.941 583.362L891.879 600.067L891.879 633.473L862.941 650.179ZM803.481 650.179L774.54 633.473V600.067L803.481 583.362L832.422 600.067V633.473L803.481 650.179ZM744.022 650.179L715.081 633.473V600.067L744.022 583.362L772.963 600.067V633.473L744.022 650.179ZM684.562 650.179L655.625 633.473V600.067L684.562 583.362L713.503 600.067V633.473L684.562 650.179ZM625.105 650.179L596.164 633.473V600.067L625.105 583.362L654.046 600.067V633.473L625.105 650.179ZM565.648 650.179L536.708 633.473L536.708 600.067L565.648 583.362L594.586 600.067V633.473L565.648 650.179ZM506.188 650.179L477.25 633.473V600.067L506.188 583.362L535.129 600.067V633.473L506.188 650.179ZM446.729 650.179L417.789 633.473V600.067L446.729 583.362L475.669 600.067L475.671 633.473L446.729 650.179ZM387.27 650.179L358.331 633.473L358.331 600.067L387.27 583.362L416.211 600.067V633.473L387.27 650.179ZM327.811 650.179L298.871 633.473L298.871 600.067L327.811 583.362L356.752 600.067V633.473L327.811 650.179ZM268.354 650.179L239.413 633.473V600.067L268.354 583.362L297.293 600.067V633.473L268.354 650.179ZM208.895 650.179L179.955 633.473L179.955 600.067L208.895 583.362L237.834 600.067L237.834 633.473L208.895 650.179ZM149.436 650.179L120.495 633.473L120.495 600.067L149.436 583.362L178.377 600.067L178.377 633.473L149.436 650.179ZM89.976 650.178L61.0374 633.473L61.0374 600.067L89.976 583.362L118.917 600.067L118.917 633.473L89.976 650.178ZM1.57818 600.067L30.5181 583.362L59.4589 600.067L59.4589 633.473L30.518 650.178L1.57816 633.473L1.57818 600.067ZM1.57821 496.666L30.5181 479.961L59.4589 496.666L59.4589 530.074L30.5181 546.778L1.5782 530.074L1.57821 496.666ZM1.57824 393.267L30.5176 376.563L59.4575 393.267L59.459 426.674L30.5181 443.38L1.57823 426.674L1.57824 393.267ZM1.57828 289.868L30.5177 273.163L59.4576 289.868L59.4575 323.274L30.5177 339.979L1.57827 323.274L1.57828 289.868ZM1.57831 186.468L30.5177 169.764L59.4576 186.468L59.4576 219.875L30.5177 236.579L1.5783 219.875L1.57831 186.468ZM1.57834 83.0685L30.5177 66.3644L59.4576 83.0686L59.4576 116.476L30.5177 133.182L1.57833 116.476L1.57834 83.0685ZM1.57838 -20.329L30.5178 -37.0359L59.4577 -20.329L59.4576 13.0757L30.5178 29.7827L1.57837 13.0757L1.57838 -20.329ZM1.57841 -123.729L30.5178 -140.433L59.4577 -123.729L59.4577 -90.3219L30.5178 -73.6186L1.5784 -90.3219L1.57841 -123.729ZM60.3089 -192.177L89.2479 -175.471L89.2479 -142.066L60.3089 -125.362L31.369 -142.066L31.369 -175.471L60.3089 -192.177ZM119.767 -192.177L148.708 -175.471L148.708 -142.066L119.767 -125.362L90.8274 -142.066L90.8274 -175.471L119.767 -192.177ZM179.228 -192.177L208.167 -175.471V-142.066L179.228 -125.362L150.286 -142.066L150.286 -175.471L179.228 -192.177ZM238.685 -192.177L267.625 -175.471V-142.066L238.685 -125.362L209.745 -142.066L209.745 -175.471L238.685 -192.177ZM298.143 -192.177L327.083 -175.471L327.083 -142.066L298.142 -125.362L269.204 -142.066L269.204 -175.471L298.143 -192.177ZM357.603 -192.177L386.542 -175.471V-142.066L357.603 -125.362L328.662 -142.066V-175.471L357.603 -192.177ZM417.061 -192.177L446.002 -175.471L446.002 -142.066L417.061 -125.362L388.12 -142.066V-175.471L417.061 -192.177ZM476.52 -192.177L505.459 -175.471V-142.066L476.52 -125.362L447.581 -142.066V-175.471L476.52 -192.177ZM535.979 -192.177L564.921 -175.471V-142.066L535.979 -125.362L507.038 -142.066V-175.471L535.979 -192.177ZM595.436 -192.177L624.377 -175.471V-142.066L595.436 -125.362L566.497 -142.066V-175.471L595.436 -192.177ZM654.897 -192.177L683.835 -175.471V-142.066L654.897 -125.362L625.956 -142.066L625.956 -175.471L654.897 -192.177ZM714.355 -192.177L743.294 -175.471V-142.066L714.355 -125.362L685.412 -142.066V-175.471L714.355 -192.177ZM773.813 -192.177L802.754 -175.471L802.754 -142.066L773.813 -125.362L744.873 -142.066V-175.471L773.813 -192.177ZM833.274 -192.177L862.214 -175.471L862.213 -142.066L833.274 -125.362L804.333 -142.066V-175.471L833.274 -192.177ZM892.729 -192.177L921.671 -175.471V-142.066L892.729 -125.362L863.791 -142.066L863.791 -175.471L892.729 -192.177ZM952.189 -192.177L981.129 -175.471L981.129 -142.066L952.189 -125.362L923.249 -142.066V-175.471L952.189 -192.177ZM1011.65 -192.177L1040.59 -175.471V-142.066L1011.65 -125.362L982.708 -142.066V-175.471L1011.65 -192.177ZM1071.11 -192.177L1100.05 -175.471V-142.066L1071.11 -125.362L1042.17 -142.066V-175.471L1071.11 -192.177ZM1130.57 -192.177L1159.51 -175.471L1159.51 -142.066L1130.57 -125.362L1101.62 -142.066V-175.471L1130.57 -192.177ZM1190.02 -192.177L1218.96 -175.471V-142.066L1190.02 -125.362L1161.08 -142.066V-175.471L1190.02 -192.177ZM1278.42 -142.066L1249.48 -125.362L1220.55 -142.066V-175.471L1249.48 -192.176L1278.42 -175.47V-142.066ZM1278.42 -38.6653L1249.48 -21.9612L1220.55 -38.6654V-72.0738L1249.48 -88.7761L1278.42 -72.0738V-38.6653ZM1278.42 64.734L1249.48 81.4383L1220.55 64.734V31.3256L1249.48 14.6195L1278.42 31.3256V64.734ZM1278.42 168.131L1249.48 184.838L1220.55 168.131V134.726L1249.48 118.02L1278.42 134.726V168.131ZM1278.42 271.532L1249.48 288.237L1220.55 271.532V238.125L1249.48 221.42L1278.42 238.125V271.532ZM1278.42 374.932L1249.48 391.636L1220.55 374.932V341.524L1249.48 324.819L1278.42 341.524V374.932ZM1278.42 478.33L1249.48 495.036L1220.55 478.33V444.923L1249.48 428.218L1278.42 444.923V478.33Z" fill="url(#paint0_radial)"/>
</g>
<defs>
<radialGradient id="paint0_radial" cx="0" cy="0" r="1" gradientUnits="userSpaceOnUse" gradientTransform="translate(640 229) scale(542.507 542.357)">
<stop stop-color="#1B73D6"/>
<stop offset="0.169206" stop-color="#185FB4"/>
<stop offset="0.570437" stop-color="#113267"/>
<stop offset="0.856994" stop-color="#0D1637"/>
<stop offset="0.999111" stop-color="#0B0B25"/>
</radialGradient>
</defs>
</svg>
