<svg width="26" height="25" viewBox="0 0 26 25" fill="none" xmlns="http://www.w3.org/2000/svg">
<path d="M21.0311 5.96875C21.0311 6.15876 20.9937 6.3469 20.9211 6.52245C20.8485 6.69799 20.7421 6.85749 20.608 6.99185C20.4739 7.1262 20.3146 7.23278 20.1393 7.30549C19.9641 7.3782 19.7762 7.41562 19.5865 7.41562C19.3968 7.41562 19.2089 7.3782 19.0337 7.30549C18.8584 7.23278 18.6991 7.1262 18.565 6.99185C18.4309 6.85749 18.3244 6.69799 18.2518 6.52245C18.1792 6.3469 18.1419 6.15876 18.1419 5.96875C18.1419 5.58502 18.2941 5.217 18.565 4.94566C18.8359 4.67431 19.2034 4.52187 19.5865 4.52187C19.9696 4.52187 20.3371 4.67431 20.608 4.94566C20.8789 5.217 21.0311 5.58502 21.0311 5.96875ZM25.6177 12.5V12.5188L25.535 17.7625C25.5139 19.6536 24.7546 21.4614 23.4195 22.7988C22.0844 24.1363 20.2797 24.8972 18.3915 24.9188L13.1372 25H13.1185L7.88292 24.9172C5.99474 24.8961 4.18982 24.1356 2.85444 22.7984C1.51907 21.4612 0.759335 19.6536 0.737846 17.7625L0.656723 12.5V12.4812L0.739406 7.2375C0.760482 5.34636 1.51982 3.53862 2.8549 2.20115C4.18999 0.863691 5.99475 0.102772 7.88292 0.0812501L13.1372 0H13.1559L18.3915 0.0828125C20.2797 0.103922 22.0846 0.864446 23.42 2.20162C24.7553 3.53879 25.5151 5.34637 25.5366 7.2375L25.6177 12.5ZM23.2932 12.5L23.2121 7.27344C23.1975 5.98794 22.6811 4.75922 21.7735 3.85018C20.8659 2.94114 19.6391 2.42399 18.3556 2.40938L13.1372 2.32812L7.91881 2.40938C6.63532 2.42399 5.40852 2.94114 4.50089 3.85018C3.59327 4.75922 3.07693 5.98794 3.06234 7.27344L2.98121 12.5L3.06234 17.7266C3.07693 19.0121 3.59327 20.2408 4.50089 21.1498C5.40852 22.0589 6.63532 22.576 7.91881 22.5906L13.1372 22.6719L18.3556 22.5906C19.6391 22.576 20.8659 22.0589 21.7735 21.1498C22.6811 20.2408 23.1975 19.0121 23.2121 17.7266L23.2932 12.5ZM19.5459 12.5C19.5459 14.2024 18.8707 15.835 17.6689 17.0387C16.467 18.2425 14.8369 18.9187 13.1372 18.9187C11.4375 18.9187 9.80742 18.2425 8.60555 17.0387C7.40368 15.835 6.72848 14.2024 6.72848 12.5C6.72848 10.7976 7.40368 9.16501 8.60555 7.96126C9.80742 6.75751 11.4375 6.08125 13.1372 6.08125C14.8369 6.08125 16.467 6.75751 17.6689 7.96126C18.8707 9.16501 19.5459 10.7976 19.5459 12.5ZM17.2214 12.5C17.2214 11.4151 16.7911 10.3746 16.0252 9.60749C15.2593 8.84035 14.2204 8.40938 13.1372 8.40938C12.054 8.40938 11.0152 8.84035 10.2492 9.60749C9.48327 10.3746 9.05297 11.4151 9.05297 12.5C9.05297 13.5849 9.48327 14.6254 10.2492 15.3925C11.0152 16.1597 12.054 16.5906 13.1372 16.5906C14.2204 16.5906 15.2593 16.1597 16.0252 15.3925C16.7911 14.6254 17.2214 13.5849 17.2214 12.5Z" fill="white"/>
</svg>
