<svg width="140" height="131" viewBox="0 0 140 131" fill="none" xmlns="http://www.w3.org/2000/svg">
<path d="M69.452 109.905C42.184 109.905 20.0002 87.721 20.0002 60.4519C20.0002 33.1838 42.184 11 69.452 11C96.7212 11 118.905 33.1838 118.905 60.4519C118.905 87.721 96.7212 109.905 69.452 109.905ZM69.452 11.6187C42.5252 11.6187 20.6192 33.525 20.6192 60.4519C20.6192 87.3798 42.5252 109.287 69.452 109.287C96.379 109.287 118.286 87.3798 118.286 60.4519C118.286 33.525 96.379 11.6187 69.452 11.6187Z" fill="#B752E3"/>
<path d="M47.2007 35.1357C45.5982 35.488 44.3472 36.8373 44.0538 38.5389C43.6237 41.1013 45.8421 43.4875 48.4517 43.2721C52.0385 42.9688 53.5532 38.6364 50.9441 36.1624C50.3579 35.6049 49.6344 35.2332 48.8528 35.0867C48.2074 34.9596 47.9829 34.9693 47.2007 35.1357ZM48.7645 37.1503C50.6017 37.7078 50.7094 40.3483 48.9308 41.0911C48.1099 41.4331 47.0839 41.1891 46.5365 40.5142C45.6666 39.4676 45.9696 37.9421 47.1813 37.3162C47.7385 37.0232 48.1783 36.9741 48.7645 37.1503Z" fill="url(#paint0_linear)"/>
<path d="M64.0201 35.0965C62.7884 35.341 61.616 36.2799 61.0589 37.4633C60.7558 38.1086 60.7267 38.2454 60.7267 39.0965C60.7267 40.2212 60.9124 40.8078 61.5083 41.6293C62.2216 42.5972 63.2578 43.1644 64.4986 43.2721C67.1078 43.4871 69.3267 41.1014 68.8966 38.539C68.6032 36.818 67.3522 35.488 65.7007 35.1358C64.9583 34.979 64.6456 34.9693 64.0201 35.0965ZM65.8869 37.3653C67.3139 38.2061 67.216 40.3187 65.7308 41.0421C64.343 41.7171 62.7303 40.6899 62.7303 39.145C62.7303 37.522 64.4695 36.5438 65.8869 37.3653Z" fill="url(#paint1_linear)"/>
<path d="M72.3955 41.3846C70.2358 41.9615 69.3659 44.4555 70.695 46.2546C71.0664 46.7631 71.721 47.1934 72.3955 47.3696C72.7669 47.4676 71.6429 47.4967 66.1409 47.4967L59.4369 47.5064L59.5246 47.0076C59.8277 45.3453 58.7721 43.487 57.091 42.6854C56.4752 42.3919 56.3481 42.3725 55.4491 42.3822C54.6772 42.3822 54.3548 42.4312 53.9344 42.5971C52.84 43.0372 52.0089 43.8683 51.5691 44.9639C51.4027 45.3943 51.3543 45.7073 51.3543 46.4991L51.3446 47.4967L48.4124 47.5263L45.4803 47.5554L45.0211 47.8291C43.9461 48.4647 43.6824 49.912 44.4737 50.8703C44.8155 51.2808 45.4023 51.6136 45.7931 51.6136C46.0181 51.6136 47.0441 52.5918 52.2043 57.7451C55.5859 61.129 58.694 64.2682 59.1042 64.7374C59.8761 65.6176 60.5409 66.7229 60.8731 67.6908C60.971 67.9844 61.2149 69.0402 61.4108 70.0184C61.6062 71.0063 61.792 71.8859 61.8113 71.9839C61.8603 72.1304 61.9093 72.1207 62.3001 71.8471C64.3231 70.4585 67.1179 70.0674 69.4735 70.8495C70.07 71.0451 71.2036 71.622 71.6041 71.9155C71.8291 72.0916 71.9266 72.1304 71.9659 72.0329C71.9858 71.9645 72.1613 71.0941 72.3567 70.097C72.9138 67.2901 73.4123 66.146 74.6531 64.7966L75.249 64.1319L83.0872 64.112L90.9249 64.0829L91.5897 63.7603C92.8111 63.1542 93.652 62.0489 93.906 60.719C94.0331 60.0247 94.0331 57.9611 93.8963 57.228C93.5933 55.5657 92.3423 54.2551 90.7203 53.9126C90.2413 53.8145 89.401 53.766 87.8469 53.766H85.6479L86.7132 52.7001C87.6321 51.7806 87.8275 51.6341 88.1596 51.5851C88.7362 51.5069 89.2637 51.0863 89.5668 50.47C89.7918 50.0203 89.8209 49.8635 89.7724 49.3944C89.704 48.7 89.3326 48.1425 88.7265 47.8005L88.2867 47.5559L80.8592 47.5069C76.774 47.4778 73.6077 47.4288 73.8225 47.3895C74.6628 47.2333 75.4153 46.6558 75.8847 45.815C76.1388 45.3555 76.1684 45.2182 76.1684 44.3773C76.1684 43.6049 76.1291 43.3798 75.9536 43.0474C75.4745 42.1381 74.849 41.6393 73.9011 41.3948C73.246 41.2182 73.0016 41.2182 72.3955 41.3846ZM73.6659 43.4482C73.9199 43.5753 74.2618 44.1032 74.2618 44.3773C74.2618 44.6607 73.9296 45.1498 73.6363 45.3065C72.6689 45.8247 71.6424 44.6122 72.3169 43.7514C72.6689 43.3011 73.1771 43.1837 73.6659 43.4482ZM56.3384 44.5627C57.316 45.0124 57.7751 46.1862 57.3644 47.2322L57.2568 47.5059H55.4491H53.6313L53.4849 47.1638C53.2012 46.4792 53.3772 45.599 53.915 45.0221C54.5012 44.4064 55.5471 44.2012 56.3384 44.5627ZM90.7882 56.0925C91.1693 56.2881 91.3943 56.4933 91.6091 56.8456C91.8928 57.3051 91.9025 57.3541 91.9316 58.7524C91.9509 59.6423 91.9219 60.356 91.8535 60.6205C91.6974 61.2071 90.9739 61.9111 90.3586 62.0581C89.8505 62.195 77.3898 62.2343 77.3898 62.1071C77.3898 62.0581 78.7873 60.6307 80.4878 58.9291L83.5954 55.8189H86.928H90.2703L90.7882 56.0925Z" fill="url(#paint2_linear)"/>
<path d="M65.9939 72.6293C64.6062 72.8544 63.1694 73.6365 62.2409 74.6729C61.6251 75.3576 61.0093 76.5701 60.8241 77.4798C60.0128 81.3619 62.9154 84.9903 66.8342 85C67.9776 85 68.6031 84.8632 69.6587 84.3547C70.3235 84.032 70.6459 83.8069 71.2811 83.1616C72.5224 81.9097 73.0893 80.5507 73.0893 78.8001C73.0893 77.0495 72.5224 75.6899 71.2811 74.4386C70.6459 73.7928 70.3429 73.5681 69.6684 73.2455C69.2092 73.0305 68.6424 72.8151 68.398 72.7564C67.7531 72.6002 66.571 72.5415 65.9939 72.6293ZM67.0107 74.3605C67.1965 74.4192 67.2255 74.4876 67.2255 74.9277V75.4265L67.7046 75.6026C68.5255 75.8962 69.073 76.6196 69.1118 77.461L69.1311 77.8719H68.398H67.675L67.5873 77.461C67.4408 76.7079 66.7271 76.4144 66.1801 76.8841C65.975 77.0699 65.9067 77.2067 65.9067 77.51C65.9067 77.7254 65.975 77.9797 66.0531 78.0675C66.1312 78.1655 66.6495 78.4585 67.1965 78.7128C67.8026 78.9966 68.3301 79.3193 68.5648 79.5536C69.6791 80.6686 69.2 82.5168 67.6658 82.9568L67.1281 83.1131V83.6022V84.0816H66.6883H66.2485V83.5925V83.1034L65.8087 82.9956C64.8801 82.7608 64.0985 81.8418 64.0985 80.9714V80.6487L64.8511 80.6778L65.6036 80.7074L65.672 81.05C65.7796 81.5391 66.1607 81.8321 66.698 81.8321C67.2551 81.8321 67.6169 81.5192 67.6169 81.0204C67.6169 80.5216 67.3822 80.3067 66.1511 79.7002C64.7439 79.0058 64.4699 78.6735 64.4113 77.6463C64.3817 77.0985 64.4113 76.9229 64.6067 76.5512C64.8801 76.0524 65.3296 75.7103 65.9358 75.5439L66.3465 75.4362V74.9374C66.3465 74.6535 66.3755 74.3993 66.4148 74.3702C66.4924 74.2824 66.7174 74.2824 67.0107 74.3605Z" fill="url(#paint3_linear)"/>
<path d="M54.7836 119.296C53.6185 118.999 52.4565 118.667 51.3105 118.301L52.7895 113.903C53.8014 114.224 54.8276 114.518 55.8569 114.78L54.7836 119.296ZM44.4827 115.656C43.3898 115.154 42.3065 114.617 41.246 114.052L43.4939 109.991C44.4327 110.49 45.39 110.964 46.3551 111.408L44.4827 115.656ZM35.0079 110.22C34.0249 109.531 33.0569 108.807 32.1136 108.061L35.0532 104.469C35.8884 105.129 36.7453 105.768 37.6135 106.379L35.0079 110.22ZM115.423 92.8586C116.037 91.9905 116.629 91.1007 117.194 90.2001L121.168 92.5961C120.532 93.6153 119.863 94.6217 119.166 95.6014L115.423 92.8586ZM120.485 84.1332C120.933 83.1693 121.356 82.1874 121.748 81.2029L126.09 82.8415C125.648 83.9595 125.169 85.07 124.66 86.1619L120.485 84.1332ZM123.888 74.6453C124.154 73.6175 124.392 72.5774 124.599 71.534L129.167 72.3619C128.934 73.5418 128.664 74.7209 128.362 75.8833L123.888 74.6453ZM125.522 64.6963C125.599 63.638 125.646 62.5707 125.664 61.5053H130.306C130.287 62.708 130.234 63.914 130.146 65.1091L125.522 64.6963ZM125.525 56.496C125.448 55.4351 125.342 54.3726 125.205 53.3203L129.798 52.6475C129.953 53.8383 130.073 55.0401 130.159 56.2391L125.525 56.496ZM9.60367 53.1782C9.74965 51.9845 9.93127 50.7897 10.1474 49.6087L14.6986 50.5145C14.5093 51.5575 14.3495 52.6129 14.2196 53.6686L9.60367 53.1782ZM123.897 46.5471C123.632 45.5186 123.335 44.4931 123.012 43.4821L127.408 41.9916C127.775 43.1346 128.11 44.2962 128.41 45.4612L123.897 46.5471ZM11.8999 42.501C12.2588 41.3517 12.6531 40.2102 13.0792 39.0866L17.3927 40.8001C17.017 41.7932 16.6687 42.8023 16.3509 43.8155L11.8999 42.501ZM120.502 37.058C120.055 36.0948 119.579 35.1397 119.077 34.2041L123.131 31.9438C123.7 33.0026 124.24 34.0836 124.744 35.1729L120.502 37.058ZM16.089 32.4111C16.6498 31.3476 17.2439 30.2945 17.8659 29.2656L21.7998 31.7294C21.2508 32.6386 20.7256 33.5694 20.2294 34.5084L16.089 32.4111ZM115.449 28.3333C114.837 27.4663 114.195 26.6112 113.532 25.7793L117.116 22.8299C117.866 23.77 118.59 24.7362 119.283 25.7177L115.449 28.3333ZM22.0257 23.2427C22.7652 22.2992 23.5381 21.3703 24.3356 20.4686L27.7665 23.594C27.0628 24.3924 26.3784 25.2143 25.7224 26.0492L22.0257 23.2427ZM108.912 20.6513C108.153 19.9077 107.37 19.1809 106.57 18.4802L109.57 14.9387C110.476 15.73 111.361 16.5508 112.218 17.3928L108.912 20.6513ZM29.5034 15.2866C30.4032 14.4875 31.3293 13.7122 32.2724 12.969L35.089 16.6586C34.2543 17.3164 33.435 18.0025 32.6407 18.7074L29.5034 15.2866ZM101.109 14.2607C100.228 13.6626 99.3277 13.0879 98.4158 12.5424L100.733 8.52162C101.765 9.1373 102.785 9.78692 103.778 10.4638L101.109 14.2607ZM38.2836 8.79347C39.3091 8.16847 40.3602 7.5722 41.4226 7.00983L43.5304 11.1436C42.5939 11.6414 41.6663 12.1702 40.7571 12.7214L38.2836 8.79347ZM48.0865 3.98293C49.2097 3.55222 50.3508 3.15467 51.4962 2.79297L52.8236 7.24066C51.8121 7.56063 50.8041 7.91305 49.8116 8.29044L48.0865 3.98293Z" fill="#B752E3"/>
<path d="M70.9149 129.244C88.6949 129.008 105.374 121.973 117.971 109.375C130.568 96.7773 137.605 80.0984 137.841 62.3209H139.078C138.841 80.4295 131.678 97.4179 118.846 110.251C106.014 123.083 89.0242 130.246 70.9149 130.481V129.244Z" fill="#B752E3"/>
<path d="M0.000152588 59.3153C0.122463 49.8418 2.13002 40.6868 5.9714 32.0882C9.67611 23.7924 14.9002 16.414 21.5039 10.142L22.3443 11.0511C15.864 17.2083 10.7385 24.451 7.10057 32.5928C3.33083 41.0314 1.36016 50.0171 1.23765 59.3153H0.000152588Z" fill="#B752E3"/>
<path d="M72.7964 118.698C73.9399 118.64 75.0717 118.548 76.1809 118.426L76.478 120.783C75.2874 120.916 74.0822 121.014 72.8822 121.075L72.7964 118.698Z" fill="#B752E3"/>
<path d="M65.5663 121.015C64.3648 120.932 63.1625 120.814 61.9748 120.663L62.3123 118.31C63.4392 118.453 64.5704 118.567 65.6908 118.644L65.5663 121.015Z" fill="#B752E3"/>
<path d="M83.1785 117.207C84.2803 116.946 85.3785 116.651 86.4576 116.328L87.1799 118.605C86.0289 118.95 84.8608 119.263 83.6913 119.539L83.1785 117.207Z" fill="#B752E3"/>
<path d="M93.1193 113.869C94.1422 113.415 95.1668 112.925 96.1809 112.405L97.3099 114.529C96.2415 115.076 95.1504 115.595 94.0492 116.077L93.1193 113.869Z" fill="#B752E3"/>
<path d="M102.286 108.778C103.222 108.142 104.142 107.476 105.035 106.791L106.541 108.695C105.586 109.426 104.605 110.132 103.611 110.805L102.286 108.778Z" fill="#B752E3"/>
<path d="M110.391 102.131C111.188 101.346 111.973 100.527 112.737 99.682L114.578 101.305C113.769 102.194 112.931 103.065 112.073 103.904L110.391 102.131Z" fill="#B752E3"/>
<path d="M26.6644 103.176C25.8203 102.321 24.996 101.437 24.2026 100.534L26.0582 98.9545C26.8026 99.8043 27.5743 100.637 28.3645 101.441L26.6644 103.176Z" fill="#B752E3"/>
<path d="M19.7122 94.7545C19.033 93.7641 18.38 92.746 17.7619 91.7172L19.8931 90.4821C20.4672 91.4419 21.0773 92.3974 21.7164 93.3386L19.7122 94.7545Z" fill="#B752E3"/>
<path d="M14.3811 85.2261C13.8921 84.1275 13.4332 83.0099 13.0099 81.8848L15.3632 81.0424C15.7573 82.0996 16.1834 83.1474 16.6374 84.1763L14.3811 85.2261Z" fill="#B752E3"/>
<path d="M10.8567 74.8881C10.5736 73.7198 10.3245 72.538 10.1121 71.3536L12.6136 70.9457C12.8107 72.0607 13.0397 73.1697 13.297 74.2564L10.8567 74.8881Z" fill="#B752E3"/>
<path d="M9.25644 64.0868C9.18931 62.9184 9.15575 61.7426 9.15575 60.5769C9.15575 60.5452 9.15575 60.5131 9.15575 60.4814L11.7236 60.5232C11.7236 60.6108 11.7227 60.6981 11.7227 60.7854C11.7227 61.8015 11.7518 62.8457 11.8088 63.9026L9.25644 64.0868Z" fill="#B752E3"/>
<path d="M93.0654 7.68191C92.0442 7.23444 91.0032 6.81042 89.9507 6.41963L90.8832 3.79395C92.0097 4.21422 93.1296 4.67028 94.2298 5.15582L93.0654 7.68191Z" fill="#B752E3"/>
<path d="M83.1895 4.36217C82.1096 4.1056 81.0095 3.87812 79.8999 3.68272L80.3444 0.925415C81.5271 1.13571 82.7113 1.38185 83.8787 1.66042L83.1895 4.36217Z" fill="#B752E3"/>
<path d="M58.5991 1.02178C59.7803 0.802513 60.9742 0.616813 62.1656 0.468384L62.4688 3.24059C61.3543 3.38008 60.2433 3.55085 59.1493 3.75113L58.5991 1.02178Z" fill="#B752E3"/>
<path d="M72.8801 2.87592C71.8097 2.81734 70.7508 2.78828 69.7203 2.78828C69.6554 2.78828 69.5881 2.78828 69.5232 2.78828L69.4702 0.000381925C69.5506 6.33477e-08 69.6317 0 69.7134 0C70.8356 0 71.962 0.0302053 73.0748 0.0898902L72.8801 2.87592Z" fill="#B752E3"/>
<defs>
<linearGradient id="paint0_linear" x1="38.7141" y1="45.7085" x2="54.4801" y2="21.9627" gradientUnits="userSpaceOnUse">
<stop stop-color="#D275F9"/>
<stop offset="1" stop-color="#8D1EC2"/>
</linearGradient>
<linearGradient id="paint1_linear" x1="55.4615" y1="45.706" x2="71.2284" y2="22.0275" gradientUnits="userSpaceOnUse">
<stop stop-color="#D275F9"/>
<stop offset="1" stop-color="#8D1EC2"/>
</linearGradient>
<linearGradient id="paint2_linear" x1="12.0113" y1="81.0989" x2="56.5295" y2="-28.0205" gradientUnits="userSpaceOnUse">
<stop stop-color="#D275F9"/>
<stop offset="1" stop-color="#8D1EC2"/>
</linearGradient>
<linearGradient id="paint3_linear" x1="52.747" y1="88.6294" x2="76.3386" y2="52.9984" gradientUnits="userSpaceOnUse">
<stop stop-color="#D275F9"/>
<stop offset="1" stop-color="#8D1EC2"/>
</linearGradient>
</defs>
</svg>
