<svg width="140" height="131" viewBox="0 0 140 131" fill="none" xmlns="http://www.w3.org/2000/svg">
<path d="M69.452 109.905C42.184 109.905 20.0002 87.721 20.0002 60.4519C20.0002 33.1838 42.184 11 69.452 11C96.7212 11 118.905 33.1838 118.905 60.4519C118.905 87.721 96.7212 109.905 69.452 109.905ZM69.452 11.6187C42.5252 11.6187 20.6192 33.525 20.6192 60.4519C20.6192 87.3798 42.5252 109.287 69.452 109.287C96.379 109.287 118.286 87.3798 118.286 60.4519C118.286 33.525 96.379 11.6187 69.452 11.6187Z" fill="#B752E3"/>
<path d="M88.5129 44.9697C88.5129 44.0794 87.6087 43.8198 86.9045 43.6624V46.2516C87.6896 46.1984 88.5129 45.8303 88.5129 44.9697Z" fill="url(#paint0_linear)"/>
<path d="M86.1192 39.452C85.2298 39.4776 84.6533 40.002 84.6533 40.5637C84.6533 41.2179 85.1405 41.5966 86.1202 41.7924L86.1192 39.452Z" fill="url(#paint1_linear)"/>
<path d="M86.4862 50.8153C90.8477 50.8153 94.3944 47.2676 94.3944 42.9082C94.3944 38.5488 90.8466 35 86.4862 35C82.1236 35 78.5759 38.5477 78.5759 42.9082C78.5759 47.2676 82.1236 50.8153 86.4862 50.8153ZM83.0087 40.8636C83.0087 39.0871 84.4863 38.169 86.1202 38.118V37.4222C86.1202 37.1978 86.2894 36.9765 86.5106 36.9765C86.734 36.9765 86.9042 37.1978 86.9042 37.4222V38.118C87.9223 38.1445 90.0169 38.7839 90.0169 40.0679C90.0169 40.5774 89.636 40.8774 89.1924 40.8774C88.3404 40.8774 88.3542 39.4785 86.9053 39.4519V41.9369C88.6329 42.3029 90.1605 42.8135 90.1605 44.8272C90.1605 46.5782 88.8531 47.4686 86.9053 47.5867V48.3952C86.9053 48.6186 86.7351 48.8409 86.5117 48.8409C86.2904 48.8409 86.1213 48.6186 86.1213 48.3952V47.5867C83.9118 47.5325 82.814 46.2123 82.814 45.1783C82.814 44.657 83.1289 44.3549 83.6235 44.3549C85.0884 44.3549 83.9501 46.1591 86.1224 46.2517V43.5177C84.1831 43.1646 83.0087 42.3157 83.0087 40.8636Z" fill="url(#paint2_linear)"/>
<path d="M54.649 70.2252H47.8312C46.576 70.2252 45.559 71.2433 45.559 72.4985V82.7247C45.5601 83.9821 46.5781 84.998 47.8312 84.998H54.649C55.9043 84.998 56.9213 83.9821 56.9213 82.7247V72.4985C56.9223 71.2433 55.9054 70.2252 54.649 70.2252Z" fill="url(#paint3_linear)"/>
<path d="M72.2696 62.2722H65.4518C64.1966 62.2722 63.1796 63.2903 63.1796 64.5455V82.7267C63.1796 83.9841 64.1976 85 65.4518 85H72.2696C73.5249 85 74.543 83.9841 74.543 82.7267V64.5423C74.543 63.2903 73.526 62.2722 72.2696 62.2722Z" fill="url(#paint4_linear)"/>
<path d="M89.8932 53.1812H83.0765C81.8201 53.1812 80.8032 54.1992 80.8032 55.4534V82.7246C80.8032 83.982 81.8212 84.9979 83.0765 84.9979H89.8932C91.1495 84.9979 92.1665 83.982 92.1665 82.7246V55.4545C92.1676 54.1992 91.1495 53.1812 89.8932 53.1812Z" fill="url(#paint5_linear)"/>
<path d="M76.2652 46.6719L70.6219 45.4921C70.19 45.4028 69.7453 45.5698 69.4804 45.9219C69.2155 46.2751 69.1794 46.7485 69.3868 47.1389L70.6378 49.4909L45.6155 62.3978C45.058 62.6861 44.8389 63.3722 45.1272 63.9275C45.3293 64.3179 45.7261 64.5424 46.1378 64.5424C46.3133 64.5424 46.4909 64.503 46.658 64.4158L71.7037 51.4961L72.8515 53.6535C73.0494 54.0258 73.4356 54.2567 73.8547 54.2567C73.8738 54.2567 73.8919 54.2556 73.9121 54.2545C74.3525 54.2322 74.7408 53.9577 74.9068 53.5492L77.0865 48.2112C77.2141 47.8984 77.1971 47.5463 77.0375 47.2484C76.8769 46.9538 76.595 46.7421 76.2652 46.6719Z" fill="url(#paint6_linear)"/>
<path d="M54.7836 119.296C53.6185 118.999 52.4565 118.667 51.3105 118.301L52.7895 113.903C53.8014 114.224 54.8276 114.518 55.8569 114.78L54.7836 119.296ZM44.4827 115.656C43.3898 115.154 42.3065 114.617 41.246 114.052L43.4939 109.991C44.4327 110.49 45.39 110.964 46.3551 111.408L44.4827 115.656ZM35.0079 110.22C34.0249 109.531 33.0569 108.807 32.1136 108.061L35.0532 104.469C35.8884 105.129 36.7453 105.768 37.6135 106.379L35.0079 110.22ZM115.423 92.8586C116.037 91.9905 116.629 91.1007 117.194 90.2001L121.168 92.5961C120.532 93.6153 119.863 94.6217 119.166 95.6014L115.423 92.8586ZM120.485 84.1332C120.933 83.1693 121.356 82.1874 121.748 81.2029L126.09 82.8415C125.648 83.9595 125.169 85.07 124.66 86.1619L120.485 84.1332ZM123.888 74.6453C124.154 73.6175 124.392 72.5774 124.599 71.534L129.167 72.3619C128.934 73.5418 128.664 74.7209 128.362 75.8833L123.888 74.6453ZM125.522 64.6963C125.599 63.638 125.646 62.5707 125.664 61.5053H130.306C130.287 62.708 130.234 63.914 130.146 65.1091L125.522 64.6963ZM125.525 56.496C125.448 55.4351 125.342 54.3726 125.205 53.3203L129.798 52.6475C129.953 53.8383 130.073 55.0401 130.159 56.2391L125.525 56.496ZM9.60367 53.1782C9.74965 51.9845 9.93127 50.7897 10.1474 49.6087L14.6986 50.5145C14.5093 51.5575 14.3495 52.6129 14.2196 53.6686L9.60367 53.1782ZM123.897 46.5471C123.632 45.5186 123.335 44.4931 123.012 43.4821L127.408 41.9916C127.775 43.1346 128.11 44.2962 128.41 45.4612L123.897 46.5471ZM11.8999 42.501C12.2588 41.3517 12.6531 40.2102 13.0792 39.0866L17.3927 40.8001C17.017 41.7932 16.6687 42.8023 16.3509 43.8155L11.8999 42.501ZM120.502 37.058C120.055 36.0948 119.579 35.1397 119.077 34.2041L123.131 31.9438C123.7 33.0026 124.24 34.0836 124.744 35.1729L120.502 37.058ZM16.089 32.4111C16.6498 31.3476 17.2439 30.2945 17.8659 29.2656L21.7998 31.7294C21.2508 32.6386 20.7256 33.5694 20.2294 34.5084L16.089 32.4111ZM115.449 28.3333C114.837 27.4663 114.195 26.6112 113.532 25.7793L117.116 22.8299C117.866 23.77 118.59 24.7362 119.283 25.7177L115.449 28.3333ZM22.0257 23.2427C22.7652 22.2992 23.5381 21.3703 24.3356 20.4686L27.7665 23.594C27.0628 24.3924 26.3784 25.2143 25.7224 26.0492L22.0257 23.2427ZM108.912 20.6513C108.153 19.9077 107.37 19.1809 106.57 18.4802L109.57 14.9387C110.476 15.73 111.361 16.5508 112.218 17.3928L108.912 20.6513ZM29.5034 15.2866C30.4032 14.4875 31.3293 13.7122 32.2724 12.969L35.089 16.6586C34.2543 17.3164 33.435 18.0025 32.6407 18.7074L29.5034 15.2866ZM101.109 14.2607C100.228 13.6626 99.3277 13.0879 98.4158 12.5424L100.733 8.52162C101.765 9.1373 102.785 9.78692 103.778 10.4638L101.109 14.2607ZM38.2836 8.79347C39.3091 8.16847 40.3602 7.5722 41.4226 7.00983L43.5304 11.1436C42.5939 11.6414 41.6663 12.1702 40.7571 12.7214L38.2836 8.79347ZM48.0865 3.98293C49.2097 3.55222 50.3508 3.15467 51.4962 2.79297L52.8236 7.24066C51.8121 7.56063 50.8041 7.91305 49.8116 8.29044L48.0865 3.98293Z" fill="#B752E3"/>
<path d="M70.9149 129.244C88.6949 129.008 105.374 121.973 117.971 109.375C130.568 96.7773 137.605 80.0984 137.841 62.3209H139.078C138.841 80.4295 131.678 97.4179 118.846 110.251C106.014 123.083 89.0242 130.246 70.9149 130.481V129.244Z" fill="#B752E3"/>
<path d="M0.000152588 59.3153C0.122463 49.8418 2.13002 40.6868 5.9714 32.0882C9.67611 23.7924 14.9002 16.414 21.5039 10.142L22.3443 11.0511C15.864 17.2083 10.7385 24.451 7.10057 32.5928C3.33083 41.0314 1.36016 50.0171 1.23765 59.3153H0.000152588Z" fill="#B752E3"/>
<path d="M72.7964 118.698C73.9399 118.64 75.0717 118.548 76.1809 118.426L76.478 120.783C75.2874 120.916 74.0822 121.014 72.8822 121.075L72.7964 118.698Z" fill="#B752E3"/>
<path d="M65.5663 121.015C64.3648 120.932 63.1625 120.814 61.9748 120.663L62.3123 118.31C63.4392 118.453 64.5704 118.567 65.6908 118.644L65.5663 121.015Z" fill="#B752E3"/>
<path d="M83.1785 117.207C84.2803 116.946 85.3785 116.651 86.4575 116.328L87.1799 118.605C86.0289 118.95 84.8608 119.263 83.6913 119.539L83.1785 117.207Z" fill="#B752E3"/>
<path d="M93.1193 113.869C94.1422 113.415 95.1667 112.925 96.1809 112.405L97.3099 114.529C96.2415 115.076 95.1503 115.595 94.0491 116.077L93.1193 113.869Z" fill="#B752E3"/>
<path d="M102.286 108.778C103.222 108.142 104.142 107.476 105.035 106.791L106.541 108.695C105.586 109.426 104.605 110.132 103.611 110.805L102.286 108.778Z" fill="#B752E3"/>
<path d="M110.391 102.131C111.188 101.346 111.973 100.527 112.737 99.682L114.578 101.305C113.769 102.194 112.931 103.065 112.073 103.904L110.391 102.131Z" fill="#B752E3"/>
<path d="M26.6644 103.176C25.8203 102.321 24.996 101.437 24.2026 100.534L26.0583 98.9545C26.8026 99.8043 27.5743 100.637 28.3645 101.441L26.6644 103.176Z" fill="#B752E3"/>
<path d="M19.7122 94.7545C19.033 93.7641 18.38 92.746 17.7619 91.7172L19.8931 90.4821C20.4672 91.4419 21.0773 92.3974 21.7164 93.3386L19.7122 94.7545Z" fill="#B752E3"/>
<path d="M14.3811 85.2261C13.8921 84.1275 13.4332 83.0099 13.0099 81.8848L15.3632 81.0424C15.7573 82.0996 16.1834 83.1474 16.6374 84.1763L14.3811 85.2261Z" fill="#B752E3"/>
<path d="M10.8566 74.8881C10.5736 73.7198 10.3245 72.538 10.1121 71.3536L12.6136 70.9457C12.8107 72.0607 13.0397 73.1697 13.297 74.2564L10.8566 74.8881Z" fill="#B752E3"/>
<path d="M9.25645 64.0868C9.18932 62.9184 9.15576 61.7426 9.15576 60.5769C9.15576 60.5452 9.15576 60.5131 9.15576 60.4814L11.7237 60.5232C11.7237 60.6108 11.7227 60.6981 11.7227 60.7854C11.7227 61.8015 11.7518 62.8457 11.8089 63.9026L9.25645 64.0868Z" fill="#B752E3"/>
<path d="M93.0654 7.68191C92.0442 7.23444 91.0032 6.81042 89.9507 6.41963L90.8832 3.79395C92.0097 4.21422 93.1296 4.67028 94.2298 5.15582L93.0654 7.68191Z" fill="#B752E3"/>
<path d="M83.1895 4.36217C82.1096 4.1056 81.0095 3.87812 79.8999 3.68272L80.3444 0.925415C81.5271 1.13571 82.7113 1.38185 83.8787 1.66042L83.1895 4.36217Z" fill="#B752E3"/>
<path d="M58.5991 1.02178C59.7803 0.802513 60.9742 0.616813 62.1656 0.468384L62.4688 3.24059C61.3544 3.38008 60.2433 3.55085 59.1493 3.75113L58.5991 1.02178Z" fill="#B752E3"/>
<path d="M72.8801 2.87592C71.8097 2.81734 70.7508 2.78828 69.7203 2.78828C69.6554 2.78828 69.5881 2.78828 69.5232 2.78828L69.4702 0.000381925C69.5506 6.33477e-08 69.6317 0 69.7134 0C70.8356 0 71.962 0.0302053 73.0748 0.0898902L72.8801 2.87592Z" fill="#B752E3"/>
<defs>
<linearGradient id="paint0_linear" x1="85.8747" y1="42.9052" x2="91.21" y2="47.9148" gradientUnits="userSpaceOnUse">
<stop stop-color="#D275F9"/>
<stop offset="1" stop-color="#8D1EC2"/>
</linearGradient>
<linearGradient id="paint1_linear" x1="83.714" y1="38.7677" x2="88.5389" y2="43.339" gradientUnits="userSpaceOnUse">
<stop stop-color="#D275F9"/>
<stop offset="1" stop-color="#8D1EC2"/>
</linearGradient>
<linearGradient id="paint2_linear" x1="68.4479" y1="30.3753" x2="98.4974" y2="75.8048" gradientUnits="userSpaceOnUse">
<stop stop-color="#D275F9"/>
<stop offset="1" stop-color="#8D1EC2"/>
</linearGradient>
<linearGradient id="paint3_linear" x1="38.2842" y1="65.9053" x2="68.4419" y2="100.966" gradientUnits="userSpaceOnUse">
<stop stop-color="#D275F9"/>
<stop offset="1" stop-color="#8D1EC2"/>
</linearGradient>
<linearGradient id="paint4_linear" x1="55.9041" y1="55.6261" x2="101.047" y2="89.7413" gradientUnits="userSpaceOnUse">
<stop stop-color="#D275F9"/>
<stop offset="1" stop-color="#8D1EC2"/>
</linearGradient>
<linearGradient id="paint5_linear" x1="73.5277" y1="43.8772" x2="128.447" y2="73.5248" gradientUnits="userSpaceOnUse">
<stop stop-color="#D275F9"/>
<stop offset="1" stop-color="#8D1EC2"/>
</linearGradient>
<linearGradient id="paint6_linear" x1="24.4024" y1="39.8907" x2="51.1773" y2="108.15" gradientUnits="userSpaceOnUse">
<stop stop-color="#D275F9"/>
<stop offset="1" stop-color="#8D1EC2"/>
</linearGradient>
</defs>
</svg>
