<svg width="151" height="150" viewBox="0 0 151 150" fill="none" xmlns="http://www.w3.org/2000/svg">
<mask id="path-1-inside-1" fill="white">
<path d="M75.6183 6.56028e-06L75.6621 6.55644e-06C76.7315 6.46296e-06 77.8137 0.0233951 78.8788 0.0677095L78.3769 12.0204C77.4786 11.9826 76.5651 11.9619 75.6621 11.9619L75.6183 6.56028e-06ZM69.0873 0.284782L70.1223 12.204C69.2077 12.2818 68.2885 12.3832 67.3898 12.5016L65.8351 0.638862C66.9071 0.499665 67.9995 0.379759 69.0873 0.284782ZM85.3946 0.628271C86.4704 0.767468 87.5578 0.930064 88.6287 1.1173L86.5748 12.9025C85.673 12.7464 84.7599 12.6068 83.8559 12.491L85.3946 0.628271ZM59.3912 1.77174L61.977 13.4526C61.0858 13.6489 60.1882 13.8701 59.3076 14.1043L56.2105 2.54826C57.2617 2.26721 58.3298 2.00584 59.3912 1.77174ZM95.0189 2.52479C96.0685 2.80319 97.1265 3.11259 98.1644 3.43757L94.5782 14.8498C93.7079 14.5748 92.8197 14.3176 91.9418 14.0834L95.0189 2.52479ZM49.9735 4.51785L54.0658 15.7561C53.2162 16.0685 52.3595 16.4014 51.516 16.7501L46.9285 5.70516C47.9328 5.28754 48.9575 4.88697 49.9735 4.51785ZM104.317 5.67116C105.321 6.08491 106.331 6.5301 107.322 6.99048L102.265 17.8331C101.436 17.4462 100.588 17.0724 99.7459 16.7267L104.317 5.67116ZM41.0006 8.47318L46.5397 19.0783C45.7265 19.5023 44.9177 19.9472 44.1332 20.4011L38.1406 10.0482C39.0745 9.50891 40.0383 8.97935 41.0006 8.47318ZM113.128 10.0146C114.066 10.557 115.008 11.1304 115.925 11.7145L109.497 21.8036C108.724 21.3119 107.931 20.8292 107.141 20.3711L113.128 10.0146ZM32.6276 13.5671L39.4997 23.3579C38.7507 23.8832 38.0052 24.4336 37.2861 24.9866L29.9926 15.5015C30.8524 14.843 31.7368 14.1913 32.6276 13.5671ZM121.286 15.4675C122.152 16.1336 123.01 16.8213 123.836 17.5172L116.146 26.6801C115.451 26.096 114.73 25.5158 114 24.9564L121.286 15.4675ZM24.9899 19.7066L33.0716 28.5259C32.4002 29.1399 31.7341 29.7814 31.0865 30.4304L22.6273 21.97C23.3963 21.2 24.1925 20.4389 24.9899 19.7066ZM128.658 21.9322C129.428 22.6997 130.19 23.4971 130.921 24.2944L122.109 32.381C121.494 31.7127 120.852 31.0444 120.207 30.3963L128.658 21.9322ZM18.2089 26.7878L27.3664 34.4846C26.7832 35.1805 26.2018 35.9037 25.6428 36.6296L16.1603 29.34C16.8234 28.4749 17.5118 27.6166 18.2089 26.7878ZM135.131 29.296C135.792 30.1543 136.441 31.0402 137.065 31.926L127.281 38.8042C126.755 38.0575 126.207 37.3112 125.649 36.5918L135.131 29.296ZM12.4012 34.6953L22.4874 41.1331C21.9911 41.9029 21.5115 42.6964 21.0553 43.4847L10.701 37.4947C11.2446 36.5578 11.8157 35.6148 12.4012 34.6953ZM140.591 37.4376C141.137 38.3806 141.667 39.3443 142.167 40.3017L131.566 45.8389C131.145 45.0389 130.699 44.231 130.241 43.4362L140.591 37.4376ZM7.67423 43.2971L18.5134 48.3612C18.128 49.1873 17.7551 50.0353 17.4037 50.8833L6.35219 46.2966C6.77136 45.2901 7.21617 44.2817 7.67423 43.2971ZM144.943 46.2228C145.356 47.2245 145.757 48.2454 146.128 49.2652L134.893 53.3703C134.578 52.5158 134.244 51.6572 133.897 50.8198L144.943 46.2228ZM4.11527 52.4546L15.5229 56.0488C15.2495 56.9134 14.9907 57.8034 14.7566 58.6856L3.19839 55.5975C3.48052 54.5452 3.78844 53.4873 4.11527 52.4546ZM148.101 55.5063C148.383 56.5548 148.644 57.6242 148.88 58.6855L137.202 61.2777C137.005 60.3854 136.784 59.4893 136.546 58.6076L148.101 55.5063ZM1.79052 61.9869L13.5716 64.0533C13.4157 64.9475 13.275 65.8592 13.1581 66.7681L1.29494 65.2244C1.4368 64.1419 1.60171 63.0536 1.79052 61.9869ZM150.017 65.1295C150.158 66.209 150.278 67.3014 150.372 68.3813L138.456 69.4207C138.377 68.5126 138.276 67.5972 138.156 66.6901L150.017 65.1295ZM0.733254 71.7349L12.6834 72.2471C12.6456 73.1548 12.6259 74.0831 12.6259 75.0011L12.6259 75.1747L0.662912 75.1747L0.662912 75.0507C0.662911 73.9122 0.687167 72.8125 0.733254 71.7349ZM138.697 74.9141L150.659 74.9141L150.659 75.0011C150.659 76.0553 150.64 77.1223 150.596 78.172L138.644 77.6754C138.681 76.788 138.697 75.8889 138.697 75.0011L138.697 74.9141ZM12.8771 80.6579C12.9561 81.568 13.0591 82.4871 13.1789 83.3934L1.31959 84.9646C1.17806 83.8893 1.05707 82.7977 0.962091 81.7155L12.8771 80.6579ZM138.177 83.1543L150.04 84.6867C149.901 85.765 149.737 86.8544 149.55 87.9222L137.765 85.8721C137.921 84.9745 138.06 84.0603 138.177 83.1543ZM14.1386 88.8028C14.3348 89.6899 14.5577 90.5863 14.7971 91.4699L3.24905 94.5866C2.9642 93.5347 2.69942 92.4643 2.46533 91.4056L14.1386 88.8028ZM136.589 91.241L148.15 94.3132C147.872 95.3602 147.565 96.4193 147.24 97.4572L135.826 93.8786C136.099 93.0067 136.356 92.1197 136.589 91.241ZM16.458 96.7041C16.7742 97.5627 17.1112 98.421 17.4611 99.2573L6.41882 103.863C6.005 102.869 5.6044 101.847 5.22995 100.827L16.458 96.7041ZM133.951 99.0474L145.007 103.613C144.594 104.616 144.151 105.626 143.69 106.615L132.844 101.57C133.232 100.737 133.605 99.889 133.951 99.0474ZM19.7958 104.231C20.2159 105.034 20.6619 105.843 21.1223 106.632L10.7789 112.643C10.2327 111.703 9.70206 110.741 9.19969 109.783L19.7958 104.231ZM130.309 106.445L140.669 112.425C140.13 113.361 139.56 114.303 138.973 115.224L128.881 108.802C129.375 108.027 129.854 107.234 130.309 106.445ZM24.0923 111.262C24.6139 112.005 25.1628 112.749 25.7207 113.471L16.2511 120.78C15.5866 119.919 14.9333 119.033 14.3091 118.147L24.0923 111.262ZM125.728 113.306L135.222 120.587C134.558 121.453 133.869 122.311 133.174 123.139L124.008 115.455C124.591 114.759 125.169 114.037 125.728 113.306ZM29.2664 117.678C29.8845 118.349 30.5256 119.015 31.1736 119.66L22.7332 128.135C21.9643 127.369 21.2005 126.576 20.4644 125.778L29.2664 117.678ZM120.296 119.517L128.762 127.965C127.995 128.735 127.201 129.498 126.404 130.229L118.311 121.421C118.978 120.806 119.647 120.165 120.296 119.517ZM35.2375 123.372C35.9354 123.956 36.6575 124.535 37.386 125.091L30.1145 134.59C29.2498 133.928 28.3912 133.24 27.5601 132.544L35.2375 123.372ZM114.103 124.965L121.402 134.441C120.547 135.102 119.661 135.754 118.771 136.379L111.887 126.596C112.637 126.07 113.379 125.521 114.103 124.965ZM41.8956 128.241C42.6645 128.732 43.4581 129.211 44.2491 129.667L38.2798 140.033C37.3368 139.49 36.3934 138.919 35.4765 138.335L41.8956 128.241ZM107.259 129.56L113.264 139.906C112.332 140.448 111.37 140.978 110.407 141.483L104.853 130.888C105.666 130.462 106.475 130.015 107.259 129.56ZM49.1307 132.2C49.9565 132.584 50.8034 132.956 51.6514 133.305L47.0924 144.365C46.0832 143.948 45.0724 143.505 44.0864 143.047L49.1307 132.2ZM99.881 133.218L104.482 144.262C103.486 144.676 102.464 145.077 101.445 145.45L97.3281 134.218C98.1864 133.903 99.045 133.567 99.881 133.218ZM56.8183 135.175C57.6906 135.447 58.5822 135.704 59.4627 135.938L56.394 147.5C55.3455 147.223 54.2908 146.918 53.2515 146.592L56.8183 135.175ZM92.092 135.877L95.2024 147.428C94.1504 147.71 93.0807 147.974 92.0224 148.209L89.4246 136.531C90.3116 136.334 91.2114 136.114 92.092 135.877ZM64.8271 137.111C65.7263 137.266 66.6428 137.405 67.5456 137.521L66.0239 149.385C64.9478 149.248 63.8607 149.083 62.7872 148.898L64.8271 137.111ZM84.0132 137.49L85.5819 149.349C84.5061 149.491 83.4111 149.612 82.33 149.707L81.2792 137.791C82.1885 137.711 83.1092 137.61 84.0132 137.49ZM73.0257 137.984C73.8972 138.019 74.7854 138.037 75.6622 138.037L75.7911 138.037L75.7911 150L75.6958 150C75.694 150 75.6909 150 75.6898 150C74.6178 150 73.5682 149.978 72.5371 149.936L73.0257 137.984Z"/>
</mask>
<path d="M75.6183 6.56028e-06L75.6621 6.55644e-06C76.7315 6.46296e-06 77.8137 0.0233951 78.8788 0.0677095L78.3769 12.0204C77.4786 11.9826 76.5651 11.9619 75.6621 11.9619L75.6183 6.56028e-06ZM69.0873 0.284782L70.1223 12.204C69.2077 12.2818 68.2885 12.3832 67.3898 12.5016L65.8351 0.638862C66.9071 0.499665 67.9995 0.379759 69.0873 0.284782ZM85.3946 0.628271C86.4704 0.767468 87.5578 0.930064 88.6287 1.1173L86.5748 12.9025C85.673 12.7464 84.7599 12.6068 83.8559 12.491L85.3946 0.628271ZM59.3912 1.77174L61.977 13.4526C61.0858 13.6489 60.1882 13.8701 59.3076 14.1043L56.2105 2.54826C57.2617 2.26721 58.3298 2.00584 59.3912 1.77174ZM95.0189 2.52479C96.0685 2.80319 97.1265 3.11259 98.1644 3.43757L94.5782 14.8498C93.7079 14.5748 92.8197 14.3176 91.9418 14.0834L95.0189 2.52479ZM49.9735 4.51785L54.0658 15.7561C53.2162 16.0685 52.3595 16.4014 51.516 16.7501L46.9285 5.70516C47.9328 5.28754 48.9575 4.88697 49.9735 4.51785ZM104.317 5.67116C105.321 6.08491 106.331 6.5301 107.322 6.99048L102.265 17.8331C101.436 17.4462 100.588 17.0724 99.7459 16.7267L104.317 5.67116ZM41.0006 8.47318L46.5397 19.0783C45.7265 19.5023 44.9177 19.9472 44.1332 20.4011L38.1406 10.0482C39.0745 9.50891 40.0383 8.97935 41.0006 8.47318ZM113.128 10.0146C114.066 10.557 115.008 11.1304 115.925 11.7145L109.497 21.8036C108.724 21.3119 107.931 20.8292 107.141 20.3711L113.128 10.0146ZM32.6276 13.5671L39.4997 23.3579C38.7507 23.8832 38.0052 24.4336 37.2861 24.9866L29.9926 15.5015C30.8524 14.843 31.7368 14.1913 32.6276 13.5671ZM121.286 15.4675C122.152 16.1336 123.01 16.8213 123.836 17.5172L116.146 26.6801C115.451 26.096 114.73 25.5158 114 24.9564L121.286 15.4675ZM24.9899 19.7066L33.0716 28.5259C32.4002 29.1399 31.7341 29.7814 31.0865 30.4304L22.6273 21.97C23.3963 21.2 24.1925 20.4389 24.9899 19.7066ZM128.658 21.9322C129.428 22.6997 130.19 23.4971 130.921 24.2944L122.109 32.381C121.494 31.7127 120.852 31.0444 120.207 30.3963L128.658 21.9322ZM18.2089 26.7878L27.3664 34.4846C26.7832 35.1805 26.2018 35.9037 25.6428 36.6296L16.1603 29.34C16.8234 28.4749 17.5118 27.6166 18.2089 26.7878ZM135.131 29.296C135.792 30.1543 136.441 31.0402 137.065 31.926L127.281 38.8042C126.755 38.0575 126.207 37.3112 125.649 36.5918L135.131 29.296ZM12.4012 34.6953L22.4874 41.1331C21.9911 41.9029 21.5115 42.6964 21.0553 43.4847L10.701 37.4947C11.2446 36.5578 11.8157 35.6148 12.4012 34.6953ZM140.591 37.4376C141.137 38.3806 141.667 39.3443 142.167 40.3017L131.566 45.8389C131.145 45.0389 130.699 44.231 130.241 43.4362L140.591 37.4376ZM7.67423 43.2971L18.5134 48.3612C18.128 49.1873 17.7551 50.0353 17.4037 50.8833L6.35219 46.2966C6.77136 45.2901 7.21617 44.2817 7.67423 43.2971ZM144.943 46.2228C145.356 47.2245 145.757 48.2454 146.128 49.2652L134.893 53.3703C134.578 52.5158 134.244 51.6572 133.897 50.8198L144.943 46.2228ZM4.11527 52.4546L15.5229 56.0488C15.2495 56.9134 14.9907 57.8034 14.7566 58.6856L3.19839 55.5975C3.48052 54.5452 3.78844 53.4873 4.11527 52.4546ZM148.101 55.5063C148.383 56.5548 148.644 57.6242 148.88 58.6855L137.202 61.2777C137.005 60.3854 136.784 59.4893 136.546 58.6076L148.101 55.5063ZM1.79052 61.9869L13.5716 64.0533C13.4157 64.9475 13.275 65.8592 13.1581 66.7681L1.29494 65.2244C1.4368 64.1419 1.60171 63.0536 1.79052 61.9869ZM150.017 65.1295C150.158 66.209 150.278 67.3014 150.372 68.3813L138.456 69.4207C138.377 68.5126 138.276 67.5972 138.156 66.6901L150.017 65.1295ZM0.733254 71.7349L12.6834 72.2471C12.6456 73.1548 12.6259 74.0831 12.6259 75.0011L12.6259 75.1747L0.662912 75.1747L0.662912 75.0507C0.662911 73.9122 0.687167 72.8125 0.733254 71.7349ZM138.697 74.9141L150.659 74.9141L150.659 75.0011C150.659 76.0553 150.64 77.1223 150.596 78.172L138.644 77.6754C138.681 76.788 138.697 75.8889 138.697 75.0011L138.697 74.9141ZM12.8771 80.6579C12.9561 81.568 13.0591 82.4871 13.1789 83.3934L1.31959 84.9646C1.17806 83.8893 1.05707 82.7977 0.962091 81.7155L12.8771 80.6579ZM138.177 83.1543L150.04 84.6867C149.901 85.765 149.737 86.8544 149.55 87.9222L137.765 85.8721C137.921 84.9745 138.06 84.0603 138.177 83.1543ZM14.1386 88.8028C14.3348 89.6899 14.5577 90.5863 14.7971 91.4699L3.24905 94.5866C2.9642 93.5347 2.69942 92.4643 2.46533 91.4056L14.1386 88.8028ZM136.589 91.241L148.15 94.3132C147.872 95.3602 147.565 96.4193 147.24 97.4572L135.826 93.8786C136.099 93.0067 136.356 92.1197 136.589 91.241ZM16.458 96.7041C16.7742 97.5627 17.1112 98.421 17.4611 99.2573L6.41882 103.863C6.005 102.869 5.6044 101.847 5.22995 100.827L16.458 96.7041ZM133.951 99.0474L145.007 103.613C144.594 104.616 144.151 105.626 143.69 106.615L132.844 101.57C133.232 100.737 133.605 99.889 133.951 99.0474ZM19.7958 104.231C20.2159 105.034 20.6619 105.843 21.1223 106.632L10.7789 112.643C10.2327 111.703 9.70206 110.741 9.19969 109.783L19.7958 104.231ZM130.309 106.445L140.669 112.425C140.13 113.361 139.56 114.303 138.973 115.224L128.881 108.802C129.375 108.027 129.854 107.234 130.309 106.445ZM24.0923 111.262C24.6139 112.005 25.1628 112.749 25.7207 113.471L16.2511 120.78C15.5866 119.919 14.9333 119.033 14.3091 118.147L24.0923 111.262ZM125.728 113.306L135.222 120.587C134.558 121.453 133.869 122.311 133.174 123.139L124.008 115.455C124.591 114.759 125.169 114.037 125.728 113.306ZM29.2664 117.678C29.8845 118.349 30.5256 119.015 31.1736 119.66L22.7332 128.135C21.9643 127.369 21.2005 126.576 20.4644 125.778L29.2664 117.678ZM120.296 119.517L128.762 127.965C127.995 128.735 127.201 129.498 126.404 130.229L118.311 121.421C118.978 120.806 119.647 120.165 120.296 119.517ZM35.2375 123.372C35.9354 123.956 36.6575 124.535 37.386 125.091L30.1145 134.59C29.2498 133.928 28.3912 133.24 27.5601 132.544L35.2375 123.372ZM114.103 124.965L121.402 134.441C120.547 135.102 119.661 135.754 118.771 136.379L111.887 126.596C112.637 126.07 113.379 125.521 114.103 124.965ZM41.8956 128.241C42.6645 128.732 43.4581 129.211 44.2491 129.667L38.2798 140.033C37.3368 139.49 36.3934 138.919 35.4765 138.335L41.8956 128.241ZM107.259 129.56L113.264 139.906C112.332 140.448 111.37 140.978 110.407 141.483L104.853 130.888C105.666 130.462 106.475 130.015 107.259 129.56ZM49.1307 132.2C49.9565 132.584 50.8034 132.956 51.6514 133.305L47.0924 144.365C46.0832 143.948 45.0724 143.505 44.0864 143.047L49.1307 132.2ZM99.881 133.218L104.482 144.262C103.486 144.676 102.464 145.077 101.445 145.45L97.3281 134.218C98.1864 133.903 99.045 133.567 99.881 133.218ZM56.8183 135.175C57.6906 135.447 58.5822 135.704 59.4627 135.938L56.394 147.5C55.3455 147.223 54.2908 146.918 53.2515 146.592L56.8183 135.175ZM92.092 135.877L95.2024 147.428C94.1504 147.71 93.0807 147.974 92.0224 148.209L89.4246 136.531C90.3116 136.334 91.2114 136.114 92.092 135.877ZM64.8271 137.111C65.7263 137.266 66.6428 137.405 67.5456 137.521L66.0239 149.385C64.9478 149.248 63.8607 149.083 62.7872 148.898L64.8271 137.111ZM84.0132 137.49L85.5819 149.349C84.5061 149.491 83.4111 149.612 82.33 149.707L81.2792 137.791C82.1885 137.711 83.1092 137.61 84.0132 137.49ZM73.0257 137.984C73.8972 138.019 74.7854 138.037 75.6622 138.037L75.7911 138.037L75.7911 150L75.6958 150C75.694 150 75.6909 150 75.6898 150C74.6178 150 73.5682 149.978 72.5371 149.936L73.0257 137.984Z" stroke="white" stroke-opacity="0.3" stroke-width="2" mask="url(#path-1-inside-1)"/>
</svg>
