<svg width="25" height="21" viewBox="0 0 25 21" fill="none" xmlns="http://www.w3.org/2000/svg">
<path d="M22.0025 2.50195H4.08468C3.79057 2.50195 3.51522 2.5718 3.26611 2.68693L13.0011 12.091L15.1831 10.0653C15.1831 10.0653 15.1832 10.0651 15.1833 10.065C15.1833 10.0649 15.1835 10.0649 15.1835 10.0649L22.8214 2.6871C22.5722 2.57188 22.2967 2.50195 22.0025 2.50195Z" fill="#454545"/>
<path d="M23.7218 3.55664L16.5342 10.4995L23.7215 17.4425C23.8407 17.2019 23.913 16.9359 23.913 16.6518V4.34709C23.913 4.06314 23.8409 3.7972 23.7218 3.55664Z" fill="#454545"/>
<path d="M2.36532 3.55664C2.24614 3.79728 2.17383 4.06327 2.17383 4.34738V16.6521C2.17383 16.936 2.24605 17.202 2.36515 17.4426L9.55278 10.4997L2.36532 3.55664Z" fill="#454545"/>
<path d="M15.6335 11.3692L13.4513 13.3951C13.3269 13.5153 13.1639 13.5754 13.001 13.5754C12.8381 13.5754 12.6751 13.5153 12.5507 13.3951L10.4534 11.3691L3.26562 18.3121C3.51478 18.4273 3.79029 18.4972 4.08449 18.4972H22.0023C22.2964 18.4972 22.5718 18.4274 22.8209 18.3122L15.6335 11.3692Z" fill="#454545"/>
</svg>
