<svg width="13" height="22" viewBox="0 0 13 22" fill="none" xmlns="http://www.w3.org/2000/svg">
<path d="M6.51473 0.421875H6.48517C2.90919 0.421875 0 3.37129 0 6.99656C0 9.37292 1.06711 12.5091 3.17169 16.3182C4.73201 19.1422 6.31421 21.305 6.33005 21.3265C6.3741 21.3865 6.44351 21.4219 6.51706 21.4219C6.51915 21.4219 6.52129 21.4219 6.52338 21.4218C6.59926 21.4197 6.66931 21.3803 6.71141 21.3161C6.72701 21.2922 8.29793 18.8863 9.84766 15.9436C11.9394 11.9719 13 8.96156 13 6.99656C12.9999 3.37124 10.0906 0.421875 6.51473 0.421875ZM9.50821 7.15723C9.50821 8.83954 8.15871 10.2081 6.4999 10.2081C4.84114 10.2081 3.49165 8.83949 3.49165 7.15723C3.49165 5.47497 4.84114 4.10636 6.4999 4.10636C8.15871 4.10636 9.50821 5.47497 9.50821 7.15723Z" fill="#454545"/>
</svg>
