<svg width="140" height="131" viewBox="0 0 140 131" fill="none" xmlns="http://www.w3.org/2000/svg">
<path d="M69.452 109.905C42.1839 109.905 20.0001 87.721 20.0001 60.4519C20.0001 33.1838 42.1839 11 69.452 11C96.7212 11 118.905 33.1838 118.905 60.4519C118.905 87.721 96.7212 109.905 69.452 109.905ZM69.452 11.6187C42.5251 11.6187 20.6192 33.525 20.6192 60.4519C20.6192 87.3798 42.5251 109.287 69.452 109.287C96.379 109.287 118.286 87.3798 118.286 60.4519C118.286 33.525 96.379 11.6187 69.452 11.6187Z" fill="#B752E3"/>
<path d="M68.1124 35.999C66.894 37.1561 64.7134 38.8133 63.1782 39.7638C58.768 42.4929 54.1384 44.2107 48.0103 45.4046L46.0001 45.7944L46.0369 47.0735C46.195 52.6168 47.3399 58.9643 49.0455 63.8622C51.7256 71.5255 56.246 77.702 62.0205 81.5643C63.5312 82.5755 66.6501 84.1474 68.1364 84.6464L69.196 85L69.842 84.7806C70.9022 84.4153 73.8134 82.9776 75.0562 82.2102C81.0144 78.5184 85.7782 72.5245 88.7384 65.0316C90.9435 59.4393 91.9915 54.225 92.4057 46.7934L92.4665 45.7214L92.0154 45.6117C85.3756 43.9306 81.3063 42.5173 77.4323 40.5434C74.6547 39.1301 71.7915 37.2296 70.0251 35.6092C69.6598 35.2801 69.3062 35 69.2578 35C69.1966 35.0122 68.6848 35.451 68.1124 35.999ZM80.8925 53.0801C81.5746 53.8357 82.1231 54.4934 82.1231 54.5423C82.1231 54.6276 65.3103 69.3571 65.2006 69.3571C65.1639 69.3571 63.093 67.3347 60.6195 64.8495L56.1119 60.3408L57.5129 58.9398L58.9139 57.5388L62.167 60.7918L65.4078 64.0327L66.0047 63.5332C66.3216 63.2653 69.5011 60.4872 73.0466 57.3684C76.6042 54.2495 79.5404 51.7031 79.5889 51.7031C79.6379 51.6908 80.2226 52.3122 80.8925 53.0801Z" fill="url(#paint0_linear)"/>
<path d="M54.7836 119.296C53.6184 118.999 52.4564 118.667 51.3105 118.301L52.7895 113.903C53.8013 114.224 54.8276 114.518 55.8568 114.78L54.7836 119.296ZM44.4827 115.656C43.3898 115.154 42.3065 114.617 41.246 114.052L43.4939 109.991C44.4327 110.49 45.3899 110.964 46.355 111.408L44.4827 115.656ZM35.0079 110.22C34.0249 109.531 33.0568 108.807 32.1135 108.061L35.0532 104.469C35.8883 105.129 36.7453 105.768 37.6134 106.379L35.0079 110.22ZM115.423 92.8586C116.037 91.9905 116.629 91.1007 117.194 90.2001L121.168 92.5961C120.532 93.6153 119.863 94.6217 119.166 95.6014L115.423 92.8586ZM120.485 84.1332C120.933 83.1693 121.356 82.1874 121.748 81.2029L126.09 82.8415C125.648 83.9595 125.168 85.07 124.66 86.1619L120.485 84.1332ZM123.888 74.6453C124.154 73.6175 124.392 72.5774 124.599 71.534L129.167 72.3619C128.934 73.5418 128.664 74.7209 128.362 75.8833L123.888 74.6453ZM125.522 64.6963C125.599 63.638 125.646 62.5707 125.663 61.5053H130.306C130.287 62.708 130.234 63.914 130.146 65.1091L125.522 64.6963ZM125.525 56.496C125.448 55.4351 125.342 54.3726 125.205 53.3203L129.798 52.6475C129.953 53.8383 130.073 55.0401 130.159 56.2391L125.525 56.496ZM9.60364 53.1782C9.74962 51.9845 9.93124 50.7897 10.1473 49.6087L14.6986 50.5145C14.5093 51.5575 14.3495 52.6129 14.2195 53.6686L9.60364 53.1782ZM123.897 46.5471C123.632 45.5186 123.335 44.4931 123.012 43.4821L127.408 41.9916C127.775 43.1346 128.11 44.2962 128.41 45.4612L123.897 46.5471ZM11.8998 42.501C12.2588 41.3517 12.6531 40.2102 13.0792 39.0866L17.3927 40.8001C17.0169 41.7932 16.6687 42.8023 16.3509 43.8155L11.8998 42.501ZM120.502 37.058C120.055 36.0948 119.579 35.1397 119.077 34.2041L123.13 31.9438C123.7 33.0026 124.24 34.0836 124.744 35.1729L120.502 37.058ZM16.0889 32.4111C16.6498 31.3476 17.2439 30.2945 17.8659 29.2656L21.7997 31.7294C21.2508 32.6386 20.7256 33.5694 20.2294 34.5084L16.0889 32.4111ZM115.449 28.3333C114.837 27.4663 114.195 26.6112 113.532 25.7793L117.116 22.8299C117.866 23.77 118.59 24.7362 119.283 25.7177L115.449 28.3333ZM22.0257 23.2427C22.7652 22.2992 23.538 21.3703 24.3355 20.4686L27.7665 23.594C27.0628 24.3924 26.3783 25.2143 25.7224 26.0492L22.0257 23.2427ZM108.912 20.6513C108.153 19.9077 107.37 19.1809 106.57 18.4802L109.57 14.9387C110.476 15.73 111.361 16.5508 112.218 17.3928L108.912 20.6513ZM29.5033 15.2866C30.4031 14.4875 31.3293 13.7122 32.2724 12.969L35.089 16.6586C34.2542 17.3164 33.4349 18.0025 32.6406 18.7074L29.5033 15.2866ZM101.109 14.2607C100.228 13.6626 99.3277 13.0879 98.4158 12.5424L100.733 8.52162C101.765 9.1373 102.785 9.78692 103.778 10.4638L101.109 14.2607ZM38.2836 8.79347C39.309 8.16847 40.3601 7.5722 41.4225 7.00983L43.5304 11.1436C42.5939 11.6414 41.6662 12.1702 40.7571 12.7214L38.2836 8.79347ZM48.0865 3.98293C49.2097 3.55222 50.3508 3.15467 51.4962 2.79297L52.8236 7.24066C51.812 7.56063 50.8041 7.91305 49.8115 8.29044L48.0865 3.98293Z" fill="#B752E3"/>
<path d="M70.9149 129.245C88.6949 129.008 105.374 121.974 117.971 109.375C130.568 96.7774 137.605 80.0985 137.841 62.321H139.078C138.841 80.4297 131.678 97.418 118.846 110.251C106.014 123.083 89.0242 130.246 70.9149 130.482V129.245Z" fill="#B752E3"/>
<path d="M0.00012207 59.3151C0.122432 49.8417 2.12999 40.6867 5.97137 32.0881C9.67608 23.7923 14.9002 16.4138 21.5039 10.1418L22.3443 11.051C15.864 17.2082 10.7385 24.4509 7.10054 32.5926C3.3308 41.0313 1.36013 50.017 1.23762 59.3151H0.00012207Z" fill="#B752E3"/>
<path d="M72.7963 118.698C73.9399 118.64 75.0716 118.548 76.1808 118.426L76.4779 120.783C75.2874 120.916 74.0821 121.014 72.8821 121.075L72.7963 118.698Z" fill="#B752E3"/>
<path d="M65.5663 121.015C64.3647 120.933 63.1624 120.814 61.9747 120.663L62.3122 118.31C63.4391 118.454 64.5704 118.567 65.6908 118.644L65.5663 121.015Z" fill="#B752E3"/>
<path d="M83.1785 117.207C84.2803 116.947 85.3785 116.651 86.4575 116.328L87.1799 118.605C86.0289 118.95 84.8608 119.263 83.6913 119.539L83.1785 117.207Z" fill="#B752E3"/>
<path d="M93.1193 113.869C94.1422 113.415 95.1667 112.925 96.1809 112.405L97.3099 114.529C96.2415 115.076 95.1503 115.595 94.0491 116.077L93.1193 113.869Z" fill="#B752E3"/>
<path d="M102.286 108.778C103.222 108.142 104.142 107.476 105.035 106.791L106.541 108.695C105.586 109.426 104.605 110.132 103.611 110.805L102.286 108.778Z" fill="#B752E3"/>
<path d="M110.391 102.131C111.188 101.346 111.973 100.527 112.737 99.6819L114.578 101.305C113.769 102.194 112.931 103.065 112.073 103.904L110.391 102.131Z" fill="#B752E3"/>
<path d="M26.6644 103.176C25.8203 102.321 24.9959 101.437 24.2026 100.534L26.0582 98.9543C26.8025 99.8042 27.5743 100.637 28.3644 101.441L26.6644 103.176Z" fill="#B752E3"/>
<path d="M19.7122 94.7546C19.0329 93.7642 18.38 92.7461 17.7618 91.7173L19.893 90.4822C20.4671 91.4421 21.0772 92.3975 21.7164 93.3387L19.7122 94.7546Z" fill="#B752E3"/>
<path d="M14.3811 85.226C13.892 84.1273 13.4331 83.0097 13.0099 81.8847L15.3631 81.0422C15.7573 82.0995 16.1833 83.1473 16.6374 84.1762L14.3811 85.226Z" fill="#B752E3"/>
<path d="M10.8566 74.888C10.5736 73.7196 10.3245 72.5379 10.1121 71.3535L12.6136 70.9456C12.8107 72.0606 13.0397 73.1696 13.297 74.2563L10.8566 74.888Z" fill="#B752E3"/>
<path d="M9.25639 64.0868C9.18926 62.9184 9.1557 61.7426 9.1557 60.5769C9.1557 60.5452 9.1557 60.5131 9.1557 60.4814L11.7236 60.5232C11.7236 60.6108 11.7226 60.6981 11.7226 60.7854C11.7226 61.8015 11.7517 62.8457 11.8088 63.9026L9.25639 64.0868Z" fill="#B752E3"/>
<path d="M93.0654 7.68191C92.0441 7.23444 91.0031 6.81042 89.9506 6.41963L90.8831 3.79395C92.0097 4.21422 93.1295 4.67028 94.2298 5.15582L93.0654 7.68191Z" fill="#B752E3"/>
<path d="M83.1895 4.36229C82.1095 4.10572 81.0094 3.87825 79.8998 3.68285L80.3443 0.925537C81.527 1.13583 82.7112 1.38198 83.8786 1.66054L83.1895 4.36229Z" fill="#B752E3"/>
<path d="M58.5991 1.0219C59.7803 0.802635 60.9741 0.616936 62.1656 0.468506L62.4688 3.24071C61.3543 3.3802 60.2432 3.55097 59.1493 3.75126L58.5991 1.0219Z" fill="#B752E3"/>
<path d="M72.8801 2.87592C71.8096 2.81734 70.7507 2.78828 69.7202 2.78828C69.6553 2.78828 69.588 2.78828 69.5231 2.78828L69.4702 0.000381925C69.5505 6.33477e-08 69.6316 0 69.7133 0C70.8356 0 71.962 0.0302053 73.0747 0.0898902L72.8801 2.87592Z" fill="#B752E3"/>
<defs>
<linearGradient id="paint0_linear" x1="16.2496" y1="99.6211" x2="113.795" y2="-37.4005" gradientUnits="userSpaceOnUse">
<stop stop-color="#D275F9"/>
<stop offset="1" stop-color="#8D1EC2"/>
</linearGradient>
</defs>
</svg>
