<svg width="609" height="23" viewBox="0 0 609 23" fill="none" xmlns="http://www.w3.org/2000/svg">
<g opacity="0.5">
<path d="M9.51897 8.36133L9.00439 10.7085C9.57614 10.8532 11.42 11.5445 11.7202 10.2262C12.0204 8.90793 10.105 8.52209 9.51897 8.36133Z" fill="url(#paint0_linear)"/>
<path d="M8.73333 11.8486L8.16162 14.5654C8.87626 14.7744 11.063 15.5621 11.3918 14.0831C11.7205 12.6042 9.44797 12.0898 8.73333 11.8486Z" fill="url(#paint1_linear)"/>
<path d="M9.57632 1.01393C4.29537 1.00508 0.00792446 5.81306 1.08497e-05 11.7529C-0.00785918 17.6927 4.26679 22.5151 9.54774 22.524C14.8287 22.5328 19.1161 17.7249 19.1241 11.785C19.1328 8.93094 18.1306 6.19043 16.339 4.16925C14.5473 2.14807 12.1138 1.01265 9.57632 1.01393ZM13.7927 10.2417C13.7439 11.0949 13.1937 11.8058 12.4492 11.978C13.3942 12.4156 13.8476 13.6294 13.464 14.6948C13.4497 14.7431 13.4211 14.7913 13.4068 14.8395C12.8351 16.6561 11.4916 16.8169 9.71925 16.4311L9.29046 18.3924L8.23277 18.0869L8.64727 16.1578L7.81828 15.9166L7.38949 17.8619L6.36039 17.5564L6.78918 15.5951L6.03165 15.3861L4.64523 15.0003L5.15978 13.6499L5.9459 13.8589C6.14269 13.9161 6.34454 13.7884 6.40327 13.5695L7.08934 10.4989L7.60388 8.28042C7.6298 7.94174 7.41689 7.63888 7.11792 7.58914L6.36039 7.38015L6.63196 6.1262L8.07555 6.52811L8.74732 6.7371L9.16182 4.79187L10.2195 5.09732L9.805 6.96216L10.6483 7.17116L11.0628 5.29023L12.1062 5.59568L11.6774 7.54091C12.9923 8.03927 13.9786 8.79486 13.7927 10.2417Z" fill="url(#paint2_linear)"/>
<path d="M27.1566 8.68285C27.8041 8.6762 28.4445 8.83564 29.029 9.14906C29.5476 9.43245 30.0058 9.83821 30.3725 10.3387C30.7278 10.8673 30.9898 11.4676 31.1443 12.1071C31.3158 12.8144 31.4024 13.5443 31.4016 14.2774C31.4314 16.5802 30.6264 18.7974 29.1719 20.4185C28.4841 21.2093 27.6629 21.8379 26.7564 22.2673C25.8163 22.7359 24.7975 22.9717 23.7692 22.9586H23.1403C22.7386 22.945 22.3379 22.9075 21.9397 22.846C21.4671 22.766 20.9993 22.6533 20.539 22.5084C20.0497 22.368 19.5753 22.1686 19.124 21.9136L23.0974 3.13653L26.7135 2.52563L25.2414 9.14906C25.5407 8.99495 25.8516 8.8712 26.1704 8.7793C26.4929 8.68903 26.8243 8.6458 27.1566 8.65069V8.68285ZM24.0979 19.7433C24.6728 19.7726 25.2431 19.6164 25.7416 19.2932C26.2069 19.0019 26.6152 18.6083 26.9422 18.1357C27.2756 17.6296 27.5317 17.0646 27.6998 16.4638C27.9121 15.8589 28.0282 15.2168 28.0428 14.5668C28.059 13.9391 27.9414 13.3162 27.6998 12.7501C27.4032 12.2524 26.886 11.9801 26.3562 12.0428C26.0726 12.0608 25.7906 12.1038 25.5129 12.1714C25.168 12.2649 24.8489 12.4526 24.5839 12.718L23.0117 19.6469H24.0837V19.7433H24.0979Z" fill="url(#paint3_linear)"/>
<path d="M35.1034 22.4919H31.7017L34.5745 8.93965H37.9905L35.1034 22.4919ZM36.7613 7.26772C36.2978 7.26544 35.847 7.09644 35.475 6.78544C35.0987 6.42268 34.9017 5.87765 34.9461 5.32251C34.9429 4.97383 35.0062 4.62844 35.132 4.30971C35.2725 4.02423 35.4563 3.76854 35.6751 3.55413C35.8922 3.31989 36.1436 3.12954 36.4183 2.99146C36.7042 2.85913 37.0096 2.78824 37.3188 2.78247C37.7632 2.7953 38.1929 2.96391 38.548 3.26476C38.9462 3.61233 39.1612 4.16269 39.1197 4.72769C39.1202 5.10018 39.047 5.46812 38.9053 5.80479C38.7772 6.10549 38.6084 6.38207 38.405 6.62468C38.1842 6.8537 37.9336 7.04344 37.6618 7.18734C37.3763 7.32121 37.0706 7.39216 36.7613 7.39633V7.26772Z" fill="url(#paint4_linear)"/>
<path d="M40.9636 5.59673L44.5797 4.98584L43.6936 9.05308H47.4955L46.7665 12.1397H42.9789L41.9784 16.9304C41.8936 17.294 41.8362 17.6651 41.8069 18.0396C41.7875 18.3454 41.8265 18.6524 41.9212 18.9399C42.0174 19.1928 42.1966 19.3944 42.4215 19.5025C42.7458 19.6597 43.0979 19.7312 43.4506 19.7115C43.8295 19.7227 44.2084 19.6849 44.5797 19.599C44.9265 19.5074 45.2659 19.3837 45.5945 19.2292L45.7803 22.1872C45.2934 22.3797 44.7971 22.5407 44.2939 22.6695C43.6729 22.8106 43.0407 22.8807 42.4072 22.8785C41.5748 22.9153 40.7467 22.7279 39.9917 22.3319C39.4616 22.0102 39.0399 21.502 38.7911 20.8851C38.5327 20.223 38.4199 19.5006 38.4623 18.7791C38.4996 17.9332 38.6097 17.0933 38.7911 16.2712L40.9636 5.59673Z" fill="url(#paint5_linear)"/>
<path d="M47.3236 17.1227C47.3108 15.9938 47.4803 14.8717 47.8239 13.811C48.1436 12.8085 48.634 11.8857 49.2675 11.0942C49.9082 10.307 50.6868 9.67754 51.5544 9.24543C52.5036 8.79448 53.5257 8.57004 54.556 8.58631C55.1757 8.57536 55.7945 8.6455 56.3998 8.7953C56.9107 8.92699 57.4086 9.11548 57.8863 9.35796L56.6857 12.3642C56.3712 12.2195 56.0568 12.107 55.728 11.9944C55.338 11.8689 54.9327 11.8146 54.5274 11.8337C53.4852 11.7683 52.4772 12.2635 51.8117 13.168C51.1078 14.1768 50.7569 15.4407 50.8255 16.7208C50.8097 17.447 50.9836 18.1624 51.3257 18.7785C51.7903 19.3842 52.4917 19.6913 53.1981 19.5984C53.6302 19.5989 54.0611 19.5504 54.4845 19.4537C54.8643 19.3569 55.2369 19.2279 55.5994 19.0679L55.8567 22.1223C55.3965 22.3271 54.9235 22.4937 54.4416 22.6207C53.8278 22.7784 53.1987 22.8486 52.5692 22.8297C51.7513 22.8889 50.9309 22.7687 50.1537 22.476C49.5292 22.2017 48.9675 21.7732 48.51 21.2221C48.0815 20.6915 47.7641 20.0598 47.5809 19.3733C47.3816 18.6607 47.2803 17.918 47.2808 17.1709L47.3236 17.1227Z" fill="url(#paint6_linear)"/>
<path d="M62.4173 22.9096C61.7186 22.9173 61.025 22.7754 60.3734 22.4916C59.8027 22.2451 59.2929 21.8482 58.8869 21.3341C58.4769 20.7966 58.1747 20.166 58.0007 19.4854C57.7944 18.7525 57.693 17.9873 57.7006 17.2186C57.7036 16.1647 57.8531 15.1178 58.1437 14.1159C58.4339 13.1062 58.8843 12.1639 59.4729 11.3347C60.0617 10.5132 60.7846 9.82568 61.6026 9.3091C62.4872 8.76552 63.4819 8.48861 64.4898 8.50529C65.2067 8.48557 65.9201 8.62205 66.5909 8.90719C67.1561 9.1653 67.6636 9.56053 68.0774 10.0647C68.4874 10.6022 68.7896 11.2328 68.9636 11.9135C69.1777 12.6443 69.2792 13.4109 69.2637 14.1802C69.2537 15.2177 69.1043 16.2474 68.8206 17.2347C68.5367 18.2378 68.1016 19.1786 67.5342 20.0159C66.9381 20.8649 66.1877 21.561 65.3331 22.0576C64.428 22.6016 63.4149 22.8782 62.3887 22.8614L62.4173 22.9096ZM64.061 11.7848C63.5778 11.7716 63.1046 11.9415 62.7175 12.2671C62.3284 12.6107 62.0031 13.0367 61.7598 13.5211C61.5011 14.0287 61.3086 14.5755 61.1881 15.1448C61.0622 15.6962 60.9998 16.2635 61.0023 16.8328C60.9697 17.5309 61.0925 18.2271 61.3596 18.8584C61.6376 19.3387 62.123 19.6147 62.6317 19.5818C63.115 19.5951 63.5882 19.4252 63.9753 19.0995C64.408 18.779 64.7738 18.3567 65.0472 17.8617C65.306 17.354 65.4985 16.8072 65.619 16.238C65.7238 15.6887 65.7717 15.1277 65.7619 14.566C65.7945 13.8679 65.6717 13.1717 65.4046 12.5404C65.1185 12.0277 64.5955 11.7461 64.061 11.817V11.7848Z" fill="url(#paint7_linear)"/>
<path d="M72.9229 22.4927H69.5068L72.3798 8.94036H75.7958L72.9229 22.4927ZM74.5666 7.26843C74.102 7.2737 73.6491 7.10392 73.2802 6.78614C72.882 6.43856 72.6669 5.8882 72.7085 5.3232C72.7052 4.97452 72.7686 4.62912 72.8943 4.31039C73.0119 3.99823 73.1817 3.71441 73.3946 3.47442C73.6117 3.24019 73.8631 3.04984 74.1378 2.91175C74.4216 2.77189 74.7284 2.70069 75.0383 2.70268C75.5019 2.70505 75.9526 2.87405 76.3247 3.18505C76.7229 3.53263 76.938 4.08299 76.8964 4.64799C76.8927 4.99586 76.8296 5.33969 76.7106 5.6608C76.5825 5.9615 76.4137 6.23808 76.2103 6.48069C75.9895 6.70971 75.7389 6.89945 75.4671 7.04336C75.1812 7.17569 74.8757 7.24658 74.5666 7.25235V7.26843Z" fill="url(#paint8_linear)"/>
<path d="M78.3115 9.5026L79.1119 9.14892C79.4585 9.02264 79.8117 8.92063 80.1695 8.84347C80.5978 8.73058 81.0324 8.65002 81.4702 8.60232C82.0172 8.55947 82.5659 8.54874 83.1139 8.57017C84.5422 8.38918 85.951 9.05956 86.8301 10.3386C87.5442 11.8133 87.6739 13.5578 87.1874 15.1454L85.6152 22.5727H82.1992L83.7142 15.3866C83.8133 14.9425 83.8849 14.4913 83.9286 14.0362C83.9857 13.6692 83.9857 13.2938 83.9286 12.9269C83.857 12.6023 83.6847 12.3172 83.4426 12.1231C83.1338 11.9123 82.7736 11.8167 82.4136 11.8498C81.9626 11.8493 81.5127 11.8978 81.07 11.9944L78.8975 22.4602H75.4814L78.3115 9.5026Z" fill="url(#paint9_linear)"/>
<path d="M154.603 9.51709V15.8085H153.586V8.18579H154.952L156.805 12.9527L158.641 8.18579H159.987V15.8085H158.971V9.51709L157.098 14.4128H156.495L154.603 9.51709Z" fill="url(#paint10_linear)"/>
<path d="M162.092 11.2993C162.592 10.815 163.241 10.5612 163.906 10.5907C164.54 10.567 165.159 10.8043 165.643 11.2564C166.131 11.789 166.398 12.5187 166.384 13.2748C166.412 13.9853 166.172 14.677 165.721 15.1859C164.651 16.1596 163.104 16.1596 162.034 15.1859C161.592 14.6791 161.353 13.9985 161.37 13.2963C161.341 12.5478 161.604 11.8212 162.092 11.2993ZM162.794 11.8791C162.485 12.2634 162.318 12.7615 162.326 13.2748C162.318 13.7817 162.486 14.2729 162.794 14.6491C163.069 14.9788 163.461 15.1593 163.867 15.143C164.275 15.1679 164.67 14.9859 164.94 14.6491C165.564 13.8535 165.564 12.6747 164.94 11.8791C164.666 11.5494 164.274 11.3689 163.867 11.3852C163.46 11.3603 163.065 11.5423 162.794 11.8791Z" fill="url(#paint11_linear)"/>
<path d="M168.471 10.7194V11.3206C168.657 11.124 168.867 10.9576 169.095 10.8268C169.39 10.6573 169.719 10.5759 170.051 10.5906C170.344 10.5906 170.871 10.6335 171.241 11.02C171.612 11.4065 171.651 11.9863 171.651 12.5231V15.8085H170.773V12.5446C170.79 12.2526 170.729 11.9615 170.598 11.7071C170.44 11.4836 170.191 11.3625 169.934 11.3851C169.618 11.3899 169.312 11.5025 169.056 11.7071C168.823 11.8825 168.618 12.1003 168.452 12.3513V15.787H167.574V10.7194H168.471Z" fill="url(#paint12_linear)"/>
<path d="M177.231 15.1205C176.841 15.5714 176.295 15.9365 175.319 15.9365C174.734 15.9365 174.129 15.8506 173.583 15.2708C173.125 14.7459 172.873 14.0443 172.881 13.3168C172.881 12.0285 173.602 10.6113 175.163 10.6113C176.899 10.6113 177.368 12.2862 177.368 13.4457H173.836C173.856 14.5193 174.539 15.142 175.28 15.142C175.783 15.1543 176.272 14.9546 176.646 14.5837L177.231 15.1205ZM176.334 12.6512C176.302 11.9412 175.77 11.3835 175.124 11.3843C174.468 11.3853 173.92 11.933 173.856 12.6512H176.334Z" fill="url(#paint13_linear)"/>
<path d="M181.444 10.7197H182.381L180.625 16.0448C180.254 17.1398 180.001 17.4834 179.864 17.6122C179.535 17.9079 179.119 18.0607 178.694 18.0417C178.517 18.0439 178.34 18.0223 178.167 17.9772L178.089 17.1613C178.235 17.204 178.386 17.2256 178.538 17.2257C178.801 17.2309 179.057 17.1318 179.26 16.9466C179.477 16.6847 179.631 16.3674 179.708 16.0233L179.825 15.6153L177.835 10.7412H178.85L180.313 14.3485L181.444 10.7197Z" fill="url(#paint14_linear)"/>
<path d="M185.795 1.01392H146.485V22.9585H185.775L191.901 11.9862L185.795 1.01392ZM184.449 20.9616H148.631V3.01083H184.449L189.462 11.9647L184.449 20.9616Z" fill="url(#paint15_linear)"/>
<path d="M125.279 9.92529C124.616 9.92529 123.914 10.4406 123.914 10.4406V10.1185C123.914 10.0541 123.894 10.0112 123.816 10.0112H122.958C122.88 10.0112 122.841 10.0541 122.841 10.1185V17.097C122.841 17.1614 122.86 17.2044 122.938 17.2044H123.797C123.823 17.2063 123.849 17.1956 123.868 17.1751C123.886 17.1545 123.896 17.126 123.894 17.097V11.1063C124.171 10.945 124.478 10.8568 124.792 10.8486C125.26 10.8486 125.631 11.0848 125.631 11.5787V17.097C125.631 17.1614 125.67 17.2044 125.748 17.2044H126.606C126.632 17.2063 126.658 17.1956 126.677 17.1751C126.696 17.1545 126.705 17.126 126.704 17.097V11.278C126.704 10.3977 126.196 9.92529 125.279 9.92529Z" fill="url(#paint16_linear)"/>
<path d="M131.893 6.42432H131.035C130.957 6.42432 130.918 6.46726 130.918 6.53168V10.0531C130.643 9.93732 130.353 9.87203 130.059 9.85986C128.674 9.85986 127.738 11.2341 127.738 13.8966C127.738 16.1727 128.655 17.3966 129.864 17.3966C130.323 17.3662 130.757 17.1613 131.093 16.8168L131.288 17.1389C131.327 17.2033 131.347 17.2248 131.405 17.2248H131.893C131.919 17.2267 131.945 17.216 131.964 17.1955C131.983 17.1749 131.992 17.1465 131.991 17.1175V6.53168C131.991 6.44579 131.971 6.42432 131.893 6.42432ZM128.869 13.6604C128.869 12.2003 129.279 10.7402 130.118 10.7402C130.416 10.7464 130.703 10.8595 130.937 11.0623V16.2156C130.706 16.3641 130.444 16.4454 130.176 16.4518C129.279 16.4518 128.869 15.3138 128.869 13.6604Z" fill="url(#paint17_linear)"/>
<path d="M135.151 9.85986C133.727 9.85986 133.044 11.7923 133.044 13.918C133.044 16.1296 134.039 17.3749 135.326 17.3749C135.846 17.3576 136.355 17.203 136.809 16.924C136.851 16.8982 136.874 16.8472 136.868 16.7952L136.751 16.3228C136.731 16.2584 136.712 16.2369 136.634 16.2369C136.327 16.3228 136.013 16.3731 135.697 16.3872C134.644 16.3872 134.175 15.421 134.175 14.1112V13.7892C134.453 13.8349 134.733 13.8636 135.014 13.875H136.985V13.2524C136.985 11.0408 136.243 9.85986 135.151 9.85986ZM135.092 12.9518C134.799 12.9641 134.506 12.9928 134.214 13.0377C134.216 12.8793 134.229 12.7214 134.253 12.5653C134.371 11.3629 134.644 10.7402 135.131 10.7402C135.541 10.7402 135.834 11.3629 135.892 12.4579C135.912 12.6941 135.912 12.9518 135.912 12.9518H135.092Z" fill="url(#paint18_linear)"/>
<path d="M121.261 10.7622C120.949 10.118 120.383 9.83887 119.739 9.83887C119.23 9.86992 118.729 9.99326 118.257 10.2039C118.179 10.2468 118.12 10.2683 118.12 10.3542C118.124 10.3998 118.137 10.4439 118.159 10.483L118.452 11.1272C118.474 11.1769 118.519 11.2096 118.569 11.2131C118.61 11.2087 118.65 11.194 118.686 11.1702C119.096 10.891 119.408 10.7407 119.661 10.7407C119.972 10.7515 120.245 10.9742 120.344 11.299C120.472 11.6988 120.531 12.1209 120.52 12.5444V12.6947C120.222 12.5336 119.896 12.4456 119.564 12.4371C118.335 12.4371 117.671 13.661 117.671 14.9709C117.671 16.3881 118.452 17.4187 119.369 17.4187C119.88 17.3968 120.358 17.1301 120.676 16.6887C120.676 16.6887 120.851 17.0967 120.871 17.1611C120.89 17.2255 120.91 17.2255 120.988 17.2255H121.476C121.502 17.2274 121.528 17.2167 121.546 17.1962C121.565 17.1756 121.575 17.1471 121.573 17.1181V13.0383C121.554 12.0506 121.515 11.2775 121.261 10.7622ZM120.5 16.066C120.285 16.2976 120.001 16.435 119.7 16.4525C119.45 16.4529 119.216 16.316 119.076 16.0874C118.865 15.7231 118.762 15.2951 118.783 14.8635C118.783 14.0905 119.056 13.296 119.642 13.296C119.952 13.2977 120.253 13.4108 120.5 13.6181V16.066Z" fill="url(#paint19_linear)"/>
<path d="M141.471 10.0115H140.711C140.643 10.0054 140.579 10.0491 140.555 10.1189C140.516 10.2477 140.184 11.1281 140.047 11.4931C139.95 11.7507 139.696 12.5023 139.696 12.5023H139.657C139.657 12.5023 139.462 11.9655 139.365 11.6863C139.287 11.4716 138.857 10.2906 138.799 10.1618C138.788 10.0672 138.709 10.0001 138.623 10.0115H137.843C137.805 10.012 137.769 10.032 137.746 10.0656C137.723 10.0993 137.716 10.1428 137.726 10.1833C137.765 10.2477 139.072 13.4041 139.072 13.4041C139.072 13.4041 137.648 16.9469 137.609 17.0114C137.592 17.0544 137.595 17.1042 137.619 17.1434C137.643 17.1826 137.683 17.2057 137.726 17.2046H138.448C138.547 17.2103 138.637 17.1387 138.662 17.0328C138.76 16.7322 138.916 16.3028 139.15 15.6372C139.287 15.2077 139.521 14.4347 139.521 14.4347H139.54C139.54 14.4347 139.794 15.2077 139.891 15.4654C140.125 16.1095 140.438 16.9469 140.457 17.0543C140.477 17.1617 140.535 17.2046 140.613 17.2046H141.432C141.468 17.2018 141.5 17.1784 141.516 17.1432C141.532 17.1079 141.53 17.066 141.51 17.0328C141.413 16.8396 140.633 14.8427 140.086 13.5329C140.086 13.5329 141.491 10.2692 141.53 10.1833C141.569 10.0974 141.588 10.0115 141.471 10.0115Z" fill="url(#paint20_linear)"/>
<path d="M118.53 5.37288H117.574C117.506 5.3668 117.443 5.41044 117.418 5.48024C117.398 5.54466 115.994 10.0754 115.877 10.4619C115.799 10.7195 115.564 11.6858 115.506 11.9005L115.018 10.4833C114.901 10.0968 113.75 6.72565 113.711 6.59681C113.694 6.50284 113.622 6.43275 113.536 6.42503H112.599C112.561 6.42548 112.525 6.44547 112.502 6.47914C112.479 6.5128 112.472 6.5563 112.482 6.59681C112.502 6.63976 114.199 11.3423 114.862 13.1459V17.0969C114.862 17.1613 114.882 17.2043 114.96 17.2043H115.838C115.864 17.2062 115.89 17.1955 115.908 17.1749C115.927 17.1544 115.937 17.1259 115.935 17.0969V13.1674C116.501 11.514 118.569 5.5876 118.588 5.52319C118.647 5.45877 118.647 5.37288 118.53 5.37288Z" fill="url(#paint21_linear)"/>
<path d="M216.901 2.05255C217.066 2.05255 217.066 2.05255 217.231 2.23435C218.764 2.61468 220.257 3.16279 221.691 3.87048C222.377 4.19865 222.872 4.87921 223.012 5.68841L226.976 22.5952C226.976 22.9587 227.141 22.9587 227.471 22.9587H232.096C232.426 22.9587 232.426 22.777 232.592 22.5952C235.069 16.0506 237.547 9.68786 240.024 3.14331C240.177 2.62492 240.4 2.13469 240.685 1.68897H235.73C235.399 1.68897 235.234 1.87076 235.234 2.05255L230.279 15.687C230.279 15.8688 230.114 15.8688 230.114 16.0506C230.114 15.8688 230.114 15.687 229.949 15.687C229.288 11.8694 228.628 7.86993 227.967 4.05228C227.828 2.59762 226.646 1.54071 225.324 1.68897H217.562C216.901 1.50717 217.066 1.32538 216.901 2.05255Z" fill="url(#paint22_linear)"/>
<path d="M262.157 2.05227C261.992 2.05227 261.992 2.05227 261.992 1.87047C259.924 1.08221 257.719 0.83328 255.55 1.1433C253.691 1.37616 251.951 2.26966 250.595 3.68841C249.265 5.02185 248.643 7.00821 248.943 8.9604C249.219 10.2351 249.855 11.3807 250.76 12.2327C251.636 12.9442 252.577 13.5535 253.568 14.0506C254.21 14.4091 254.818 14.8353 255.385 15.3232C255.715 15.6605 255.889 16.1445 255.857 16.6393C255.825 17.1341 255.59 17.5861 255.22 17.8683C254.867 18.1254 254.476 18.3102 254.063 18.4136C252.52 18.7468 250.924 18.6213 249.439 18.0501C248.778 17.8683 248.283 17.5047 247.622 17.3229C247.292 18.959 246.961 20.4134 246.796 21.8677C246.961 21.8677 247.126 22.0495 247.292 22.0495C249.531 22.8321 251.896 23.08 254.229 22.7767C255.997 22.6342 257.676 21.8693 259.018 20.5952C260.363 19.3878 261.1 17.545 261.002 15.6386C260.904 13.7322 259.982 11.9928 258.523 10.9601C257.697 10.233 256.706 9.86937 255.715 9.1422C255.246 8.82312 254.804 8.45805 254.394 8.05144C254.158 7.82034 254.024 7.48966 254.024 7.14247C254.024 6.79529 254.158 6.46461 254.394 6.23351C254.741 5.92413 255.131 5.67857 255.55 5.50634C256.698 5.20269 257.902 5.26576 259.018 5.68813C259.702 5.84795 260.367 6.09188 261.001 6.4153C261.537 5.01468 261.925 3.55068 262.157 2.05227Z" fill="url(#paint23_linear)"/>
<path d="M238.538 22.7767H242.998C243.493 22.7767 243.493 22.7767 243.658 22.2313C244.814 16.0503 246.136 9.8693 247.292 3.6883C247.457 2.96112 247.622 2.23394 247.787 1.32497H243.328C243.192 1.3072 243.057 1.35892 242.96 1.4653C242.863 1.57168 242.816 1.72097 242.832 1.87036C241.676 8.05136 240.52 14.2324 239.199 20.4134C238.882 21.1643 238.659 21.9595 238.538 22.7767Z" fill="url(#paint24_linear)"/>
<path d="M279.003 22.7763H274.709C274.544 22.7763 274.379 22.7763 274.379 22.4127C274.213 21.5038 274.048 20.5948 273.883 19.504H267.772C267.442 19.504 267.442 19.504 267.276 19.8676C266.946 20.7766 266.781 21.5038 266.451 22.4127C266.451 22.5945 266.285 22.5945 266.12 22.5945H261C261 22.4127 261.165 22.4127 261.165 22.2309C263.643 15.8682 265.955 9.5054 268.433 3.14263C268.758 1.96338 269.796 1.202 270.91 1.3247H274.709C275.039 1.3247 275.039 1.3247 275.204 1.68829C276.361 7.68746 277.517 13.8684 278.673 19.8676C278.691 20.8472 278.802 21.822 279.003 22.7763ZM271.406 7.32388C270.415 9.86898 269.589 12.5959 268.763 15.141H272.892C272.397 12.5959 271.901 10.0508 271.406 7.32388Z" fill="url(#paint25_linear)"/>
<path d="M216.901 2.05215C217.066 1.32498 216.901 1.50677 217.562 1.50677H225.324C226.646 1.35852 227.828 2.41542 227.967 3.87007C228.628 7.6877 229.288 11.6871 229.949 15.5048C229.949 15.6866 229.949 15.6866 230.114 15.8683C230.132 15.7305 230.19 15.6028 230.279 15.5048L235.234 1.87036C235.399 1.50677 235.399 1.50677 235.73 1.50677H240.685C240.567 2.04023 240.341 2.53744 240.024 2.96111C237.547 9.50562 235.069 15.8683 232.592 22.4129C232.426 22.5947 232.426 22.7764 232.096 22.7764H227.471C227.141 22.7764 227.141 22.5947 226.976 22.4129L223.012 5.5062C222.872 4.69699 222.377 4.01644 221.691 3.68828C220.257 2.98058 218.764 2.43248 217.231 2.05215H216.901Z" fill="url(#paint26_linear)"/>
<path d="M262.157 2.05166C261.803 3.48654 261.527 4.94349 261.331 6.41467C260.67 6.23287 260.01 5.86929 259.349 5.6875C258.218 5.35703 257.035 5.29506 255.88 5.50571C255.445 5.63625 255.047 5.88648 254.724 6.23287C254.489 6.46397 254.354 6.79465 254.354 7.14183C254.354 7.48902 254.489 7.8197 254.724 8.05079C255.134 8.4574 255.576 8.82247 256.046 9.14155C257.036 9.63865 257.977 10.2479 258.853 10.9595C260.313 11.9922 261.234 13.7316 261.332 15.638C261.43 17.5443 260.693 19.3871 259.349 20.5944C258.006 21.8686 256.327 22.6334 254.559 22.7759C252.226 23.0856 249.86 22.8375 247.622 22.0488C247.457 22.0488 247.292 21.867 247.127 21.867C247.457 20.2309 247.787 18.7765 247.952 17.3222C248.613 17.504 249.109 17.8676 249.769 18.0494C251.253 18.6267 252.851 18.7523 254.394 18.4129C254.724 18.2311 255.22 18.0494 255.55 17.8676C255.921 17.5854 256.155 17.1334 256.187 16.6386C256.219 16.1439 256.046 15.6598 255.715 15.3225C255.175 14.7951 254.561 14.3656 253.898 14.0499C252.908 13.5528 251.967 12.9436 251.091 12.232C250.1 11.465 249.442 10.2802 249.274 8.95975C248.973 7.00757 249.596 5.02122 250.925 3.68779C252.285 2.27454 254.023 1.38195 255.88 1.1427C258.05 0.84187 260.253 1.09059 262.322 1.86987C261.992 1.86987 262.157 2.05166 262.157 2.05166Z" fill="url(#paint27_linear)"/>
<path d="M238.538 22.7767C238.703 21.8677 238.868 21.1405 239.034 20.4134C240.19 14.2324 241.346 8.05136 242.667 1.87036C242.651 1.72097 242.698 1.57168 242.795 1.4653C242.891 1.35892 243.027 1.3072 243.163 1.32497H247.622C247.457 2.05215 247.292 2.96112 247.127 3.6883C245.971 9.8693 244.649 16.0503 243.493 22.2313C243.328 22.7767 243.328 22.7767 242.832 22.7767H238.538Z" fill="url(#paint28_linear)"/>
<path d="M353.404 15.6678V11.0961C353.404 9.3589 352.407 8.20074 350.801 8.20074C349.865 8.13059 348.971 8.63465 348.475 9.51129C348.016 8.66974 347.179 8.1681 346.287 8.20074C345.51 8.15838 344.77 8.57681 344.349 9.29794V8.38361H342.909V15.6983H344.377V11.6143C344.377 10.3342 345.014 9.66368 346.011 9.66368C347.007 9.66368 347.45 10.3342 347.45 11.5838V15.6374H348.89V11.6143C348.89 10.3342 349.555 9.66368 350.524 9.66368C351.493 9.66368 351.992 10.3342 351.992 11.5838V15.6374L353.404 15.6678ZM374.947 8.38361H372.594V6.15872H371.126V8.38361H369.769V9.84655H371.126V13.1686C371.126 14.8754 371.708 15.8812 373.424 15.8812C374.059 15.8874 374.683 15.6974 375.224 15.3326L374.809 13.9611C374.422 14.2117 373.984 14.3482 373.535 14.3573C372.815 14.3573 372.566 13.8696 372.566 13.1382V9.81607H374.92L374.947 8.38361ZM387.242 8.20074C386.526 8.17421 385.855 8.58442 385.498 9.26747V8.38361H384.058V15.6678H385.498V11.5838C385.498 10.3647 385.968 9.69416 386.91 9.69416C387.222 9.69562 387.531 9.75752 387.824 9.87703L388.267 8.38361C387.937 8.25858 387.591 8.19673 387.242 8.20074ZM368.662 8.96269C367.845 8.42044 366.901 8.1554 365.948 8.20074C364.259 8.20074 363.179 9.0846 363.179 10.5475C363.179 11.7362 363.982 12.4677 365.477 12.7115L366.169 12.8029C366.972 12.9248 367.332 13.1686 367.332 13.5649C367.332 14.1135 366.806 14.4487 365.809 14.4487C365.014 14.478 364.233 14.2094 363.594 13.6868L362.93 14.9059C363.774 15.5499 364.783 15.8809 365.809 15.8507C367.72 15.8507 368.828 14.8449 368.828 13.4734C368.828 12.1933 367.942 11.5228 366.502 11.279L365.809 11.1876C365.2 11.0961 364.674 10.9438 364.674 10.4866C364.674 9.93798 365.145 9.6332 365.948 9.6332C366.676 9.63666 367.391 9.84659 368.025 10.2428L368.662 8.96269ZM407.29 8.20074C406.574 8.17421 405.903 8.58442 405.546 9.26747V8.38361H404.106V15.6678H405.546V11.5838C405.546 10.3647 406.016 9.69416 406.958 9.69416C407.27 9.69562 407.579 9.75752 407.872 9.87703L408.315 8.38361C407.985 8.26128 407.638 8.19953 407.29 8.20074ZM388.71 12.0105C388.71 14.2354 390.122 15.8507 392.254 15.8507C393.121 15.9 393.973 15.584 394.635 14.9668L393.943 13.6868C393.44 14.1051 392.83 14.3396 392.199 14.3573C391.036 14.3573 390.205 13.4125 390.205 12.0105C390.205 10.6085 391.063 9.69416 392.199 9.66368C392.832 9.66699 393.446 9.90298 393.943 10.3342L394.635 9.05412C393.966 8.44975 393.119 8.13541 392.254 8.17026C390.122 8.20074 388.71 9.81607 388.71 12.0105ZM402.223 12.0105V8.35313H400.783V9.23699C400.277 8.53056 399.495 8.13385 398.678 8.17026C396.823 8.17026 395.355 9.78559 395.355 12.0105C395.355 14.2354 396.823 15.8507 398.678 15.8507C399.493 15.8807 400.274 15.4852 400.783 14.784V15.6678H402.223V12.0105ZM396.851 12.0105C396.851 10.7304 397.626 9.66368 398.872 9.66368C400.063 9.66368 400.866 10.6695 400.866 12.0105C400.866 13.3515 400.063 14.3573 398.872 14.3573C397.626 14.3573 396.851 13.2906 396.851 12.0105ZM379.461 8.20074C377.523 8.20074 376.166 9.75511 376.166 12.041C376.166 14.3268 377.578 15.8812 379.572 15.8812C380.562 15.9165 381.528 15.5473 382.285 14.8449L381.593 13.6563C381.043 14.1434 380.36 14.4119 379.655 14.4182C378.713 14.4182 377.883 13.9611 377.661 12.62H382.59C382.59 12.4067 382.618 12.2238 382.618 12.0105C382.59 9.75511 381.289 8.20074 379.461 8.20074ZM379.433 9.60272C380.375 9.60272 380.956 10.2428 381.122 11.3704H377.661C377.8 10.3342 378.381 9.60272 379.433 9.60272ZM415.597 12.0105V5.42725H414.157V9.23699C413.652 8.53056 412.869 8.13385 412.053 8.17026C410.198 8.17026 408.73 9.78559 408.73 12.0105C408.73 14.2354 410.198 15.8507 412.053 15.8507C412.868 15.8807 413.648 15.4852 414.157 14.784V15.6678H415.597V12.0105ZM417.286 14.9973C417.343 14.9925 417.4 15.003 417.453 15.0278C417.508 15.0583 417.536 15.0888 417.591 15.1192C417.634 15.1577 417.664 15.2116 417.674 15.2716C417.73 15.3858 417.73 15.5231 417.674 15.6374C417.646 15.6983 417.619 15.7288 417.591 15.7897C417.556 15.8372 417.507 15.8696 417.453 15.8812C417.4 15.906 417.343 15.9165 417.286 15.9117C417.12 15.9093 416.97 15.8029 416.899 15.6374C416.844 15.523 416.844 15.386 416.899 15.2716C416.942 15.1625 417.021 15.0754 417.12 15.0278C417.173 15.003 417.23 14.9925 417.286 14.9973ZM417.286 15.8202C417.334 15.825 417.382 15.8144 417.425 15.7897C417.453 15.7593 417.508 15.7593 417.536 15.7288C417.602 15.6624 417.64 15.5683 417.64 15.4697C417.64 15.3711 417.602 15.2771 417.536 15.2107C417.509 15.173 417.468 15.1506 417.425 15.1497C417.383 15.1221 417.334 15.1113 417.286 15.1192C417.239 15.1145 417.191 15.1251 417.148 15.1497C417.067 15.1896 417.004 15.2636 416.972 15.3553C416.941 15.4469 416.945 15.5485 416.982 15.6374C417.01 15.6678 417.01 15.7288 417.037 15.7593C417.064 15.7969 417.105 15.8193 417.148 15.8202H417.286ZM417.314 15.2411C417.353 15.2366 417.392 15.2474 417.425 15.2716C417.453 15.3021 417.48 15.3326 417.453 15.3631C417.457 15.3967 417.447 15.4309 417.425 15.455C417.404 15.4791 417.372 15.4902 417.342 15.485L417.48 15.6374H417.37L417.259 15.485H417.231V15.6374H417.148V15.2107L417.314 15.2411ZM417.203 15.3326V15.4545H417.37L417.397 15.424C417.397 15.3935 417.397 15.3935 417.37 15.3935H417.314L417.203 15.3326ZM410.225 12.0105C410.225 10.7304 411.001 9.66368 412.247 9.66368C413.437 9.66368 414.241 10.6695 414.241 12.0105C414.241 13.3515 413.437 14.3573 412.247 14.3573C411.001 14.3573 410.225 13.2906 410.225 12.0105ZM361.517 12.0105V8.35313H360.077V9.23699C359.579 8.53704 358.808 8.14072 358.001 8.17026C356.145 8.17026 354.678 9.78559 354.678 12.0105C354.678 14.2354 356.145 15.8507 358.001 15.8507C358.816 15.8807 359.596 15.4852 360.105 14.784V15.6678H361.545L361.517 12.0105ZM356.173 12.0105C356.173 10.7304 356.948 9.66368 358.194 9.66368C359.385 9.66368 360.188 10.6695 360.188 12.0105C360.188 13.3515 359.385 14.3573 358.194 14.3573C356.921 14.3573 356.173 13.2906 356.173 12.0105Z" fill="url(#paint29_linear)"/>
<path d="M324.495 3.35522H315.772V20.6058H324.495V3.35522Z" fill="url(#paint30_linear)"/>
<path d="M316.326 11.9808C316.329 8.61256 317.738 5.43264 320.147 3.35554C316.066 -0.189233 310.195 0.313427 306.661 4.5102C303.127 8.70698 303.116 15.1885 306.637 19.399C310.158 23.6095 316.027 24.135 320.12 20.6061C317.708 18.5341 316.307 15.3479 316.326 11.9808Z" fill="url(#paint31_linear)"/>
<path d="M336.263 11.9807C336.259 16.176 334.082 20.0014 330.654 21.8359C327.226 23.6705 323.148 23.1931 320.147 20.606C324.462 16.8611 325.217 9.98264 321.837 5.21454C321.345 4.52096 320.778 3.89655 320.147 3.35537C323.144 0.750285 327.231 0.262752 330.665 2.1007C334.099 3.93865 336.274 7.77775 336.263 11.9807Z" fill="url(#paint32_linear)"/>
<path d="M335.295 18.7766V18.4108H335.433V18.3499H335.101V18.4108H335.239V18.7766H335.295ZM335.933 18.7766V18.3499H335.849L335.738 18.6547L335.627 18.3499H335.517V18.7766H335.572V18.4413L335.683 18.7156H335.766L335.877 18.4413V18.7766H335.933Z" fill="url(#paint33_linear)"/>
<path d="M442.716 12.1738L448.837 16.1542V0.996582L442.716 12.1738Z" fill="url(#paint34_linear)"/>
<path d="M448.837 0.996582V16.1542L454.955 12.1738L448.837 0.996582Z" fill="url(#paint35_linear)"/>
<path d="M442.716 13.45L448.837 22.9409V17.4303L442.716 13.45Z" fill="url(#paint36_linear)"/>
<path d="M448.837 17.4303V22.9409L454.96 13.45L448.837 17.4303Z" fill="url(#paint37_linear)"/>
<path d="M448.837 9.10962L448.837 12.3937V16.1535L454.955 12.1732L448.837 9.10962Z" fill="url(#paint38_linear)"/>
<path d="M448.834 9.09692L448.834 12.3811V16.141L442.716 12.1606L448.834 9.09692Z" fill="url(#paint39_linear)"/>
<path d="M467.822 17.8158H462.807V8.08301H467.696V8.80841H463.502V12.5206H467.317V13.2435H463.502V17.095H467.82L467.822 17.8158Z" fill="url(#paint40_linear)"/>
<path d="M472.382 8.80829H469.11V8.08496H476.349V8.80829H473.077V17.8188H472.382V8.80829Z" fill="url(#paint41_linear)"/>
<path d="M485.101 17.8158H484.406V13.2137H478.886V17.8158H478.191V8.08301H478.886V12.4908H484.406V8.08301H485.101V17.8158Z" fill="url(#paint42_linear)"/>
<path d="M493.238 17.8158H488.223V8.08301H493.111V8.80841H488.917V12.5206H492.732V13.2435H488.917V17.095H493.236L493.238 17.8158Z" fill="url(#paint43_linear)"/>
<path d="M496.497 13.7269V17.8147H495.804V8.08287C496.182 8.08287 496.566 8.07832 496.953 8.06923C497.341 8.06014 497.665 8.05545 497.926 8.05518C499.989 8.05518 501.02 8.99137 501.02 10.8638C501.027 11.5127 500.815 12.1414 500.427 12.6295C500.031 13.1208 499.53 13.4359 498.925 13.5748L502.02 17.8156H501.16L498.215 13.7269H496.497ZM497.886 8.77727C497.701 8.77727 497.238 8.78663 496.497 8.80537V13.0048H498.025C498.623 13.0048 499.145 12.8056 499.592 12.4071C500.055 12.0087 500.286 11.4942 500.286 10.8638C500.286 9.47331 499.486 8.77809 497.886 8.77809V8.77727Z" fill="url(#paint44_linear)"/>
<path d="M509.103 17.8158H504.088V8.08301H508.977V8.80841H504.783V12.5206H508.598V13.2435H504.783V17.095H509.102L509.103 17.8158Z" fill="url(#paint45_linear)"/>
<path d="M517.782 8.08301H518.476V13.742C518.476 15.1415 518.16 16.1887 517.529 16.8833C516.897 17.578 516.097 17.9256 515.129 17.9262C514.059 17.9262 513.192 17.5601 512.526 16.828C511.87 16.0955 511.541 15.0346 511.541 13.6453V8.08301H512.236V13.5056C512.236 14.6646 512.495 15.5706 513.013 16.2237C513.531 16.8767 514.236 17.2035 515.129 17.2041C515.955 17.2041 516.603 16.8935 517.074 16.2724C517.545 15.6513 517.781 14.7522 517.782 13.575V8.08301Z" fill="url(#paint46_linear)"/>
<path d="M522.165 17.8158H521.471V8.08301H522.178L525.74 13.4221L529.164 8.08301H529.833V17.8158H529.138V9.27879L525.74 14.5344H525.628L522.165 9.32053V17.8158Z" fill="url(#paint47_linear)"/>
<path d="M590.598 5.61509V15.8723C590.603 15.9461 590.579 16.0189 590.532 16.0713C590.484 16.1236 590.418 16.1502 590.351 16.144H588.438C588.371 16.1502 588.304 16.1236 588.257 16.0713C588.209 16.0189 588.185 15.9461 588.191 15.8723V5.61509C588.185 5.54128 588.209 5.46846 588.257 5.41609C588.304 5.36371 588.371 5.3371 588.438 5.34337H590.351C590.474 5.30941 590.598 5.44527 590.598 5.61509Z" fill="url(#paint48_linear)"/>
<path d="M605.44 5.34374C605.535 5.35232 605.624 5.40099 605.687 5.4796C605.741 5.54399 605.754 5.63878 605.718 5.71735L602.57 16.0085C602.531 16.1189 602.431 16.188 602.324 16.1783H600.626C600.519 16.188 600.419 16.1189 600.379 16.0085L598.559 9.99684L596.738 16.0085C596.699 16.1189 596.599 16.188 596.491 16.1783H594.794C594.687 16.188 594.586 16.1189 594.547 16.0085L591.4 5.71735C591.364 5.63878 591.376 5.54399 591.431 5.4796C591.477 5.39676 591.558 5.34555 591.647 5.34374H593.776C593.893 5.33413 593.998 5.42119 594.023 5.54753L595.689 11.6271L597.54 5.54753C597.58 5.43712 597.68 5.36808 597.787 5.37771H599.269C599.376 5.36808 599.476 5.43712 599.515 5.54753L601.367 11.6271L603.033 5.54753C603.068 5.42913 603.167 5.34763 603.28 5.34374H605.44Z" fill="url(#paint49_linear)"/>
<path d="M608.649 5.34392C608.782 5.35378 608.887 5.46985 608.896 5.61564V15.8728C608.902 15.9467 608.878 16.0195 608.83 16.0719C608.782 16.1242 608.716 16.1508 608.649 16.1446H606.736C606.669 16.1508 606.603 16.1242 606.555 16.0719C606.508 16.0195 606.483 15.9467 606.489 15.8728V5.61564C606.483 5.54183 606.508 5.46901 606.555 5.41663C606.603 5.36426 606.669 5.33765 606.736 5.34392H608.649Z" fill="url(#paint50_linear)"/>
<path d="M570.17 14.8201C570.51 14.9559 570.634 15.4994 570.665 15.7711C570.727 16.2126 570.603 16.3824 570.479 16.3824C570.356 16.3824 570.17 16.2126 569.985 15.873C569.799 15.5333 569.707 15.1597 569.83 14.9559C569.861 14.7861 569.985 14.7182 570.17 14.8201Z" fill="url(#paint51_linear)"/>
<path d="M568.195 16.416C568.437 16.4279 568.668 16.5365 568.843 16.7216C569.244 17.0952 569.367 17.5028 569.151 17.8424C569.024 18.0171 568.83 18.1173 568.627 18.1141C568.403 18.1078 568.188 18.0247 568.01 17.8763C567.661 17.5944 567.555 17.0718 567.763 16.6537C567.86 16.4981 568.023 16.4083 568.195 16.416Z" fill="url(#paint52_linear)"/>
<path d="M563.689 20.492C558.798 20.492 554.833 16.1278 554.833 10.7443C554.833 5.36078 558.798 0.996582 563.689 0.996582C568.58 0.996582 572.546 5.36078 572.546 10.7443C572.544 12.4996 572.118 14.2227 571.311 15.737C571.28 15.771 571.219 15.771 571.219 15.7031C570.91 13.2916 569.583 12.001 567.639 11.5934C567.485 11.5594 567.454 11.4575 567.67 11.4236C568.297 11.3657 568.927 11.3771 569.552 11.4575C569.578 11.2095 569.588 10.9599 569.583 10.7103C569.583 7.14633 566.958 4.25714 563.72 4.25714C560.482 4.25714 557.857 7.14633 557.857 10.7103C557.857 14.2743 560.482 17.1635 563.72 17.1635H563.998C563.911 16.5912 563.869 16.0116 563.874 15.4313C563.874 15.0238 563.967 14.9898 564.121 15.2955C564.978 17.105 566.532 18.391 568.349 18.7938C570.2 19.2353 572.052 19.7788 574.058 22.5638C574.243 22.8016 573.965 23.0733 573.749 22.8695C571.712 20.8996 569.861 20.2203 568.164 20.2203C566.281 20.2203 564.985 20.492 563.689 20.492Z" fill="url(#paint53_linear)"/>
<path d="M587.08 15.8045L585.537 13.8007C586.069 12.8897 586.348 11.8271 586.339 10.7439C586.339 8.44981 585.083 6.38161 583.158 5.5037C581.232 4.62578 579.016 5.11105 577.542 6.73322C576.068 8.3554 575.627 10.795 576.425 12.9145C577.222 15.0339 579.101 16.4159 581.186 16.4159C582.173 16.4143 583.138 16.0956 583.963 15.4989L584.364 16.0423C584.428 16.1201 584.516 16.1685 584.611 16.1781H586.925C586.999 16.1643 587.061 16.1112 587.092 16.0363C587.123 15.9615 587.118 15.8747 587.08 15.8045ZM583.716 11.7968H581.587C581.511 11.8073 581.446 11.8601 581.415 11.9362C581.384 12.0123 581.39 12.101 581.433 12.1704L582.451 13.5289C582.067 13.772 581.628 13.8899 581.186 13.8686C580.449 13.8508 579.749 13.5115 579.24 12.9255C578.73 12.3394 578.454 11.5547 578.47 10.7439C578.47 9.04572 579.612 7.58527 581.186 7.58527C582.759 7.58527 583.901 9.04572 583.901 10.7439C583.902 11.1048 583.84 11.4625 583.716 11.7968Z" fill="url(#paint54_linear)"/>
</g>
<defs>
<linearGradient id="paint0_linear" x1="7.24529" y1="7.58426" x2="12.2269" y2="15.3696" gradientUnits="userSpaceOnUse">
<stop stop-color="#D275F9"/>
<stop offset="1" stop-color="#8D1EC2"/>
</linearGradient>
<linearGradient id="paint1_linear" x1="6.07281" y1="10.9382" x2="11.8767" y2="20.1304" gradientUnits="userSpaceOnUse">
<stop stop-color="#D275F9"/>
<stop offset="1" stop-color="#8D1EC2"/>
</linearGradient>
<linearGradient id="paint2_linear" x1="-12.2444" y1="-5.27611" x2="30.2947" y2="51.8907" gradientUnits="userSpaceOnUse">
<stop stop-color="#D275F9"/>
<stop offset="1" stop-color="#8D1EC2"/>
</linearGradient>
<linearGradient id="paint3_linear" x1="11.2627" y1="-3.44957" x2="53.2559" y2="34.6914" gradientUnits="userSpaceOnUse">
<stop stop-color="#D275F9"/>
<stop offset="1" stop-color="#8D1EC2"/>
</linearGradient>
<linearGradient id="paint4_linear" x1="26.949" y1="-2.981" x2="61.9402" y2="16.9388" gradientUnits="userSpaceOnUse">
<stop stop-color="#D275F9"/>
<stop offset="1" stop-color="#8D1EC2"/>
</linearGradient>
<linearGradient id="paint5_linear" x1="32.6645" y1="-0.247701" x2="68.3118" y2="26.9739" gradientUnits="userSpaceOnUse">
<stop stop-color="#D275F9"/>
<stop offset="1" stop-color="#8D1EC2"/>
</linearGradient>
<linearGradient id="paint6_linear" x1="40.4905" y1="4.41551" x2="69.7298" y2="37.287" gradientUnits="userSpaceOnUse">
<stop stop-color="#D275F9"/>
<stop offset="1" stop-color="#8D1EC2"/>
</linearGradient>
<linearGradient id="paint7_linear" x1="50.2956" y1="4.29064" x2="79.4919" y2="39.7174" gradientUnits="userSpaceOnUse">
<stop stop-color="#D275F9"/>
<stop offset="1" stop-color="#8D1EC2"/>
</linearGradient>
<linearGradient id="paint8_linear" x1="64.7723" y1="-3.08441" x2="99.7641" y2="16.6785" gradientUnits="userSpaceOnUse">
<stop stop-color="#D275F9"/>
<stop offset="1" stop-color="#8D1EC2"/>
</linearGradient>
<linearGradient id="paint9_linear" x1="67.8009" y1="4.43783" x2="95.8447" y2="40.6769" gradientUnits="userSpaceOnUse">
<stop stop-color="#D275F9"/>
<stop offset="1" stop-color="#8D1EC2"/>
</linearGradient>
<linearGradient id="paint10_linear" x1="149.488" y1="5.95673" x2="164.79" y2="25.3774" gradientUnits="userSpaceOnUse">
<stop stop-color="#D275F9"/>
<stop offset="1" stop-color="#8D1EC2"/>
</linearGradient>
<linearGradient id="paint11_linear" x1="158.155" y1="9.0304" x2="168.503" y2="23.7619" gradientUnits="userSpaceOnUse">
<stop stop-color="#D275F9"/>
<stop offset="1" stop-color="#8D1EC2"/>
</linearGradient>
<linearGradient id="paint12_linear" x1="164.963" y1="9.06254" x2="175.593" y2="21.6132" gradientUnits="userSpaceOnUse">
<stop stop-color="#D275F9"/>
<stop offset="1" stop-color="#8D1EC2"/>
</linearGradient>
<linearGradient id="paint13_linear" x1="170.007" y1="9.05414" x2="180.688" y2="22.6575" gradientUnits="userSpaceOnUse">
<stop stop-color="#D275F9"/>
<stop offset="1" stop-color="#8D1EC2"/>
</linearGradient>
<linearGradient id="paint14_linear" x1="174.925" y1="8.57817" x2="190.015" y2="22.7343" gradientUnits="userSpaceOnUse">
<stop stop-color="#D275F9"/>
<stop offset="1" stop-color="#8D1EC2"/>
</linearGradient>
<linearGradient id="paint15_linear" x1="117.408" y1="-5.40316" x2="143.689" y2="76.8106" gradientUnits="userSpaceOnUse">
<stop stop-color="#D275F9"/>
<stop offset="1" stop-color="#8D1EC2"/>
</linearGradient>
<linearGradient id="paint16_linear" x1="120.368" y1="7.79666" x2="135.039" y2="19.5648" gradientUnits="userSpaceOnUse">
<stop stop-color="#D275F9"/>
<stop offset="1" stop-color="#8D1EC2"/>
</linearGradient>
<linearGradient id="paint17_linear" x1="125.015" y1="3.21578" x2="144.777" y2="14.794" gradientUnits="userSpaceOnUse">
<stop stop-color="#D275F9"/>
<stop offset="1" stop-color="#8D1EC2"/>
</linearGradient>
<linearGradient id="paint18_linear" x1="130.521" y1="7.66229" x2="145.627" y2="19.6354" gradientUnits="userSpaceOnUse">
<stop stop-color="#D275F9"/>
<stop offset="1" stop-color="#8D1EC2"/>
</linearGradient>
<linearGradient id="paint19_linear" x1="115.173" y1="7.62234" x2="130.343" y2="19.4257" gradientUnits="userSpaceOnUse">
<stop stop-color="#D275F9"/>
<stop offset="1" stop-color="#8D1EC2"/>
</linearGradient>
<linearGradient id="paint20_linear" x1="135.061" y1="7.90637" x2="149.669" y2="20.0656" gradientUnits="userSpaceOnUse">
<stop stop-color="#D275F9"/>
<stop offset="1" stop-color="#8D1EC2"/>
</linearGradient>
<linearGradient id="paint21_linear" x1="108.54" y1="1.91232" x2="132.275" y2="20.5565" gradientUnits="userSpaceOnUse">
<stop stop-color="#D275F9"/>
<stop offset="1" stop-color="#8D1EC2"/>
</linearGradient>
<linearGradient id="paint22_linear" x1="201.673" y1="-4.74094" x2="240.599" y2="60.5525" gradientUnits="userSpaceOnUse">
<stop stop-color="#D275F9"/>
<stop offset="1" stop-color="#8D1EC2"/>
</linearGradient>
<linearGradient id="paint23_linear" x1="236.961" y1="-5.38672" x2="282.074" y2="42.4665" gradientUnits="userSpaceOnUse">
<stop stop-color="#D275F9"/>
<stop offset="1" stop-color="#8D1EC2"/>
</linearGradient>
<linearGradient id="paint24_linear" x1="232.616" y1="-4.95243" x2="273.139" y2="21.4534" gradientUnits="userSpaceOnUse">
<stop stop-color="#D275F9"/>
<stop offset="1" stop-color="#8D1EC2"/>
</linearGradient>
<linearGradient id="paint25_linear" x1="249.473" y1="-4.96494" x2="292.571" y2="49.6734" gradientUnits="userSpaceOnUse">
<stop stop-color="#D275F9"/>
<stop offset="1" stop-color="#8D1EC2"/>
</linearGradient>
<linearGradient id="paint26_linear" x1="201.673" y1="-4.73906" x2="240.217" y2="60.3464" gradientUnits="userSpaceOnUse">
<stop stop-color="#D275F9"/>
<stop offset="1" stop-color="#8D1EC2"/>
</linearGradient>
<linearGradient id="paint27_linear" x1="237.398" y1="-5.38128" x2="282.533" y2="41.9846" gradientUnits="userSpaceOnUse">
<stop stop-color="#D275F9"/>
<stop offset="1" stop-color="#8D1EC2"/>
</linearGradient>
<linearGradient id="paint28_linear" x1="232.722" y1="-4.95243" x2="272.946" y2="20.7904" gradientUnits="userSpaceOnUse">
<stop stop-color="#D275F9"/>
<stop offset="1" stop-color="#8D1EC2"/>
</linearGradient>
<linearGradient id="paint29_linear" x1="295.014" y1="2.36104" x2="298.994" y2="45.2897" gradientUnits="userSpaceOnUse">
<stop stop-color="#D275F9"/>
<stop offset="1" stop-color="#8D1EC2"/>
</linearGradient>
<linearGradient id="paint30_linear" x1="310.187" y1="-1.68922" x2="344.554" y2="24.577" gradientUnits="userSpaceOnUse">
<stop stop-color="#D275F9"/>
<stop offset="1" stop-color="#8D1EC2"/>
</linearGradient>
<linearGradient id="paint31_linear" x1="293.667" y1="-5.4205" x2="338.721" y2="44.6782" gradientUnits="userSpaceOnUse">
<stop stop-color="#D275F9"/>
<stop offset="1" stop-color="#8D1EC2"/>
</linearGradient>
<linearGradient id="paint32_linear" x1="309.829" y1="-5.41848" x2="354.886" y2="44.6023" gradientUnits="userSpaceOnUse">
<stop stop-color="#D275F9"/>
<stop offset="1" stop-color="#8D1EC2"/>
</linearGradient>
<linearGradient id="paint33_linear" x1="334.568" y1="18.2251" x2="335.104" y2="19.8052" gradientUnits="userSpaceOnUse">
<stop stop-color="#D275F9"/>
<stop offset="1" stop-color="#8D1EC2"/>
</linearGradient>
<linearGradient id="paint34_linear" x1="438.797" y1="-3.43584" x2="466.631" y2="13.5543" gradientUnits="userSpaceOnUse">
<stop stop-color="#D275F9"/>
<stop offset="1" stop-color="#8D1EC2"/>
</linearGradient>
<linearGradient id="paint35_linear" x1="444.92" y1="-3.43584" x2="472.748" y2="13.5422" gradientUnits="userSpaceOnUse">
<stop stop-color="#D275F9"/>
<stop offset="1" stop-color="#8D1EC2"/>
</linearGradient>
<linearGradient id="paint36_linear" x1="438.797" y1="10.6746" x2="458.386" y2="29.7709" gradientUnits="userSpaceOnUse">
<stop stop-color="#D275F9"/>
<stop offset="1" stop-color="#8D1EC2"/>
</linearGradient>
<linearGradient id="paint37_linear" x1="444.917" y1="10.6746" x2="464.506" y2="29.7774" gradientUnits="userSpaceOnUse">
<stop stop-color="#D275F9"/>
<stop offset="1" stop-color="#8D1EC2"/>
</linearGradient>
<linearGradient id="paint38_linear" x1="444.92" y1="7.04984" x2="458.94" y2="25.4573" gradientUnits="userSpaceOnUse">
<stop stop-color="#D275F9"/>
<stop offset="1" stop-color="#8D1EC2"/>
</linearGradient>
<linearGradient id="paint39_linear" x1="452.752" y1="7.03707" x2="438.731" y2="25.4448" gradientUnits="userSpaceOnUse">
<stop stop-color="#D275F9"/>
<stop offset="1" stop-color="#8D1EC2"/>
</linearGradient>
<linearGradient id="paint40_linear" x1="459.596" y1="5.23692" x2="479.079" y2="20.4103" gradientUnits="userSpaceOnUse">
<stop stop-color="#D275F9"/>
<stop offset="1" stop-color="#8D1EC2"/>
</linearGradient>
<linearGradient id="paint41_linear" x1="464.476" y1="5.23856" x2="484.436" y2="27.6741" gradientUnits="userSpaceOnUse">
<stop stop-color="#D275F9"/>
<stop offset="1" stop-color="#8D1EC2"/>
</linearGradient>
<linearGradient id="paint42_linear" x1="473.767" y1="5.23692" x2="493.812" y2="26.747" gradientUnits="userSpaceOnUse">
<stop stop-color="#D275F9"/>
<stop offset="1" stop-color="#8D1EC2"/>
</linearGradient>
<linearGradient id="paint43_linear" x1="485.012" y1="5.23692" x2="504.495" y2="20.4105" gradientUnits="userSpaceOnUse">
<stop stop-color="#D275F9"/>
<stop offset="1" stop-color="#8D1EC2"/>
</linearGradient>
<linearGradient id="paint44_linear" x1="491.824" y1="5.20102" x2="511.961" y2="24.5853" gradientUnits="userSpaceOnUse">
<stop stop-color="#D275F9"/>
<stop offset="1" stop-color="#8D1EC2"/>
</linearGradient>
<linearGradient id="paint45_linear" x1="500.878" y1="5.23692" x2="520.36" y2="20.4103" gradientUnits="userSpaceOnUse">
<stop stop-color="#D275F9"/>
<stop offset="1" stop-color="#8D1EC2"/>
</linearGradient>
<linearGradient id="paint46_linear" x1="507.101" y1="5.20464" x2="527.383" y2="26.8049" gradientUnits="userSpaceOnUse">
<stop stop-color="#D275F9"/>
<stop offset="1" stop-color="#8D1EC2"/>
</linearGradient>
<linearGradient id="paint47_linear" x1="516.117" y1="5.23692" x2="535.544" y2="30.4672" gradientUnits="userSpaceOnUse">
<stop stop-color="#D275F9"/>
<stop offset="1" stop-color="#8D1EC2"/>
</linearGradient>
<linearGradient id="paint48_linear" x1="586.648" y1="2.178" x2="600.148" y2="6.72598" gradientUnits="userSpaceOnUse">
<stop stop-color="#D275F9"/>
<stop offset="1" stop-color="#8D1EC2"/>
</linearGradient>
<linearGradient id="paint49_linear" x1="582.186" y1="2.17427" x2="600.069" y2="37.9915" gradientUnits="userSpaceOnUse">
<stop stop-color="#D275F9"/>
<stop offset="1" stop-color="#8D1EC2"/>
</linearGradient>
<linearGradient id="paint50_linear" x1="604.946" y1="2.18414" x2="618.446" y2="6.73397" gradientUnits="userSpaceOnUse">
<stop stop-color="#D275F9"/>
<stop offset="1" stop-color="#8D1EC2"/>
</linearGradient>
<linearGradient id="paint51_linear" x1="569.193" y1="14.3014" x2="572.475" y2="17.0964" gradientUnits="userSpaceOnUse">
<stop stop-color="#D275F9"/>
<stop offset="1" stop-color="#8D1EC2"/>
</linearGradient>
<linearGradient id="paint52_linear" x1="566.632" y1="15.9188" x2="569.932" y2="20.6153" gradientUnits="userSpaceOnUse">
<stop stop-color="#D275F9"/>
<stop offset="1" stop-color="#8D1EC2"/>
</linearGradient>
<linearGradient id="paint53_linear" x1="542.485" y1="-5.4205" x2="586.026" y2="52.4167" gradientUnits="userSpaceOnUse">
<stop stop-color="#D275F9"/>
<stop offset="1" stop-color="#8D1EC2"/>
</linearGradient>
<linearGradient id="paint54_linear" x1="568.938" y1="1.75451" x2="590.688" y2="33.8655" gradientUnits="userSpaceOnUse">
<stop stop-color="#D275F9"/>
<stop offset="1" stop-color="#8D1EC2"/>
</linearGradient>
</defs>
</svg>
