<svg width="251" height="52" viewBox="0 0 251 52" fill="none" xmlns="http://www.w3.org/2000/svg">
<g opacity="0.5">
<path d="M44.9273 45.3713V41.2047C44.9273 39.6214 44.0207 38.5658 42.56 38.5658C41.7089 38.5019 40.8953 38.9613 40.4446 39.7602C40.0272 38.9933 39.2657 38.5361 38.4552 38.5658C37.7477 38.5272 37.0754 38.9086 36.6923 39.5658V38.7325H35.3828V45.399H36.7175V41.6769C36.7175 40.5102 37.2967 39.8991 38.2033 39.8991C39.1099 39.8991 39.5129 40.5102 39.5129 41.6491V45.3435H40.8224V41.6769C40.8224 40.5102 41.4268 39.8991 42.3082 39.8991C43.1896 39.8991 43.6429 40.5102 43.6429 41.6491V45.3435L44.9273 45.3713ZM64.5198 38.7325H62.3792V36.7047H61.0445V38.7325H59.8105V40.0658H61.0445V43.0935C61.0445 44.6491 61.5734 45.5657 63.1347 45.5657C63.7121 45.5714 64.2792 45.3982 64.7716 45.0657L64.3939 43.8157C64.0424 44.0442 63.6434 44.1686 63.2355 44.1768C62.5807 44.1768 62.3541 43.7324 62.3541 43.0657V40.038H64.4946L64.5198 38.7325ZM75.7012 38.5658C75.0501 38.5416 74.44 38.9155 74.1146 39.538V38.7325H72.8051V45.3713H74.1146V41.6491C74.1146 40.538 74.5427 39.9269 75.399 39.9269C75.6827 39.9282 75.964 39.9847 76.23 40.0936L76.6329 38.7325C76.3333 38.6185 76.0181 38.5622 75.7012 38.5658ZM58.8032 39.2603C58.0604 38.7661 57.2019 38.5245 56.3353 38.5658C54.7991 38.5658 53.8169 39.3714 53.8169 40.7047C53.8169 41.788 54.5473 42.4546 55.9071 42.6769L56.5367 42.7602C57.267 42.8713 57.5944 43.0935 57.5944 43.4546C57.5944 43.9546 57.1159 44.2602 56.2093 44.2602C55.4859 44.2868 54.7756 44.042 54.1947 43.5657L53.5903 44.6768C54.3581 45.2638 55.2755 45.5654 56.2093 45.5379C57.947 45.5379 58.9543 44.6213 58.9543 43.3713C58.9543 42.2046 58.1485 41.5935 56.8389 41.3713L56.2093 41.288C55.6553 41.2047 55.1768 41.0658 55.1768 40.6491C55.1768 40.1491 55.6049 39.8714 56.3353 39.8714C56.9977 39.8745 57.6481 40.0658 58.224 40.4269L58.8032 39.2603ZM93.9338 38.5658C93.2827 38.5416 92.6726 38.9155 92.3473 39.538V38.7325H91.0378V45.3713H92.3473V41.6491C92.3473 40.538 92.7754 39.9269 93.6316 39.9269C93.9154 39.9282 94.1967 39.9847 94.4627 40.0936L94.8656 38.7325C94.5654 38.621 94.2506 38.5647 93.9338 38.5658ZM77.0359 42.038C77.0359 44.0657 78.3202 45.5379 80.2593 45.5379C81.0478 45.5829 81.8223 45.2949 82.4251 44.7324L81.7955 43.5657C81.3374 43.947 80.7827 44.1607 80.209 44.1768C79.1513 44.1768 78.3958 43.3157 78.3958 42.038C78.3958 40.7602 79.1764 39.9269 80.209 39.8991C80.7848 39.9021 81.3432 40.1172 81.7955 40.5102L82.4251 39.3436C81.8164 38.7928 81.0462 38.5063 80.2593 38.538C78.3202 38.5658 77.0359 40.038 77.0359 42.038ZM89.3253 42.038V38.7047H88.0158V39.5102C87.556 38.8664 86.8442 38.5049 86.1018 38.538C84.4146 38.538 83.0798 40.0102 83.0798 42.038C83.0798 44.0657 84.4146 45.5379 86.1018 45.5379C86.8432 45.5652 87.5527 45.2048 88.0158 44.5657V45.3713H89.3253V42.038ZM84.4397 42.038C84.4397 40.8713 85.1449 39.8991 86.2781 39.8991C87.361 39.8991 88.0913 40.8158 88.0913 42.038C88.0913 43.2602 87.361 44.1768 86.2781 44.1768C85.1449 44.1768 84.4397 43.2046 84.4397 42.038ZM68.6247 38.5658C66.8619 38.5658 65.6279 39.9825 65.6279 42.0658C65.6279 44.1491 66.9122 45.5657 68.7254 45.5657C69.6256 45.5979 70.5047 45.2614 71.1934 44.6213L70.5638 43.538C70.0639 43.9819 69.4427 44.2266 68.801 44.2324C67.9447 44.2324 67.1892 43.8157 66.9878 42.5935H71.4704C71.4704 42.3991 71.4956 42.2324 71.4956 42.038C71.4704 39.9825 70.2868 38.5658 68.6247 38.5658ZM68.5995 39.8436C69.4557 39.8436 69.9846 40.4269 70.1357 41.4547H66.9878C67.1137 40.5102 67.6425 39.8436 68.5995 39.8436ZM101.489 42.038V36.0381H100.179V39.5102C99.7195 38.8664 99.0077 38.5049 98.2653 38.538C96.5781 38.538 95.2434 40.0102 95.2434 42.038C95.2434 44.0657 96.5781 45.5379 98.2653 45.5379C99.0067 45.5652 99.7162 45.2048 100.179 44.5657V45.3713H101.489V42.038ZM103.025 44.7602C103.077 44.7558 103.128 44.7653 103.176 44.7879C103.226 44.8157 103.252 44.8435 103.302 44.8713C103.341 44.9063 103.368 44.9555 103.378 45.0102C103.428 45.1143 103.428 45.2394 103.378 45.3435C103.352 45.399 103.327 45.4268 103.302 45.4824C103.27 45.5257 103.226 45.5552 103.176 45.5657C103.128 45.5883 103.077 45.5979 103.025 45.5935C102.874 45.5914 102.737 45.4943 102.672 45.3435C102.622 45.2393 102.622 45.1144 102.672 45.0102C102.712 44.9107 102.784 44.8314 102.874 44.7879C102.921 44.7653 102.973 44.7558 103.025 44.7602ZM103.025 45.5101C103.068 45.5145 103.112 45.5048 103.151 45.4824C103.176 45.4546 103.226 45.4546 103.252 45.4268C103.312 45.3663 103.346 45.2806 103.346 45.1907C103.346 45.1008 103.312 45.0151 103.252 44.9546C103.227 44.9203 103.19 44.8999 103.151 44.899C103.113 44.8739 103.069 44.864 103.025 44.8713C102.981 44.8669 102.938 44.8766 102.899 44.899C102.825 44.9354 102.768 45.0029 102.739 45.0864C102.711 45.1699 102.714 45.2625 102.748 45.3435C102.773 45.3713 102.773 45.4268 102.798 45.4546C102.823 45.4889 102.86 45.5093 102.899 45.5101H103.025ZM103.05 44.9824C103.086 44.9782 103.121 44.9881 103.151 45.0102C103.176 45.0379 103.201 45.0657 103.176 45.0935C103.18 45.1242 103.171 45.1553 103.151 45.1773C103.131 45.1993 103.103 45.2094 103.075 45.2046L103.201 45.3435H103.101L103 45.2046H102.975V45.3435H102.899V44.9546L103.05 44.9824ZM102.949 45.0657V45.1768H103.101L103.126 45.149C103.126 45.1213 103.126 45.1213 103.101 45.1213H103.05L102.949 45.0657ZM96.6032 42.038C96.6032 40.8713 97.3084 39.8991 98.4416 39.8991C99.5245 39.8991 100.255 40.8158 100.255 42.038C100.255 43.2602 99.5245 44.1768 98.4416 44.1768C97.3084 44.1768 96.6032 43.2046 96.6032 42.038ZM52.3059 42.038V38.7047H50.9964V39.5102C50.5435 38.8723 49.8418 38.5111 49.1077 38.538C47.4204 38.538 46.0857 40.0102 46.0857 42.038C46.0857 44.0657 47.4204 45.5379 49.1077 45.5379C49.849 45.5652 50.5585 45.2048 51.0216 44.5657V45.3713H52.3311L52.3059 42.038ZM47.4456 42.038C47.4456 40.8713 48.1507 39.8991 49.284 39.8991C50.3668 39.8991 51.0971 40.8158 51.0971 42.038C51.0971 43.2602 50.3668 44.1768 49.284 44.1768C48.1255 44.1768 47.4456 43.2046 47.4456 42.038Z" fill="url(#paint0_linear)"/>
<path d="M18.6356 34.1494H10.7029V49.8714H18.6356V34.1494Z" fill="url(#paint1_linear)"/>
<path d="M11.2068 42.0109C11.2099 38.9411 12.4911 36.043 14.6821 34.1499C10.9704 30.9193 5.63098 31.3774 2.41687 35.2023C-0.79725 39.0272 -0.806711 44.9344 2.39513 48.7718C5.59697 52.6092 10.9349 53.0881 14.6569 49.872C12.4639 47.9836 11.1894 45.0796 11.2068 42.0109Z" fill="url(#paint2_linear)"/>
<path d="M29.3388 42.0107C29.3349 45.8342 27.3548 49.3207 24.2373 50.9927C21.1199 52.6647 17.411 52.2296 14.6821 49.8718C18.6062 46.4586 19.2927 40.1897 16.2183 35.8441C15.7711 35.212 15.2552 34.6429 14.6821 34.1497C17.4074 31.7754 21.1241 31.3311 24.2473 33.0062C27.3704 34.6813 29.3488 38.1802 29.3388 42.0107Z" fill="url(#paint3_linear)"/>
<path d="M28.4577 48.2046V47.8712H28.5838V47.8157H28.2812V47.8712H28.4073V48.2046H28.4577ZM29.0376 48.2046V47.8157H28.962L28.8611 48.0935L28.7603 47.8157H28.6594V48.2046H28.7098V47.899L28.8107 48.149H28.8863L28.9872 47.899V48.2046H29.0376Z" fill="url(#paint4_linear)"/>
<path d="M112.51 42.1868L118.077 45.8145V32L112.51 42.1868Z" fill="url(#paint5_linear)"/>
<path d="M118.077 32V45.8145L123.641 42.1868L118.077 32Z" fill="url(#paint6_linear)"/>
<path d="M112.51 43.3499L118.077 51.9998V46.9775L112.51 43.3499Z" fill="url(#paint7_linear)"/>
<path d="M118.077 46.9775V51.9998L123.645 43.3499L118.077 46.9775Z" fill="url(#paint8_linear)"/>
<path d="M118.077 39.394L118.077 42.3871V45.8137L123.641 42.1861L118.077 39.394Z" fill="url(#paint9_linear)"/>
<path d="M118.074 39.3826L118.074 42.3758V45.8025L112.51 42.1748L118.074 39.3826Z" fill="url(#paint10_linear)"/>
<path d="M135.342 47.3289H130.782V38.4585H135.228V39.1196H131.414V42.5029H134.883V43.1617H131.414V46.6719H135.341L135.342 47.3289Z" fill="url(#paint11_linear)"/>
<path d="M139.49 39.1194H136.514V38.4602H143.097V39.1194H140.122V47.3316H139.49V39.1194Z" fill="url(#paint12_linear)"/>
<path d="M151.057 47.3289H150.425V43.1346H145.404V47.3289H144.772V38.4585H145.405V42.4757H150.425V38.4585H151.057V47.3289Z" fill="url(#paint13_linear)"/>
<path d="M158.457 47.3289H153.896V38.4585H158.342V39.1196H154.528V42.5029H157.997V43.1617H154.528V46.6719H158.455L158.457 47.3289Z" fill="url(#paint14_linear)"/>
<path d="M161.421 43.6023V47.3279H160.791V38.4583C161.135 38.4583 161.483 38.4542 161.836 38.4459C162.188 38.4376 162.483 38.4334 162.72 38.4331C164.597 38.4331 165.535 39.2863 165.535 40.9928C165.541 41.5843 165.348 42.1572 164.995 42.6021C164.635 43.0499 164.18 43.3371 163.629 43.4636L166.444 47.3286H165.662L162.983 43.6023H161.421ZM162.685 39.0912C162.516 39.0912 162.095 39.0997 161.421 39.1168V42.9442H162.811C163.355 42.9442 163.829 42.7626 164.235 42.3994C164.657 42.0363 164.867 41.5674 164.867 40.9928C164.867 39.7256 164.14 39.092 162.685 39.092V39.0912Z" fill="url(#paint15_linear)"/>
<path d="M172.886 47.3289H168.325V38.4585H172.771V39.1196H168.957V42.5029H172.426V43.1617H168.957V46.6719H172.884L172.886 47.3289Z" fill="url(#paint16_linear)"/>
<path d="M180.778 38.4585H181.41V43.616C181.41 44.8916 181.123 45.8459 180.548 46.479C179.974 47.1122 179.246 47.429 178.366 47.4295C177.393 47.4295 176.604 47.0958 175.999 46.4286C175.402 45.761 175.103 44.7941 175.103 43.5279V38.4585H175.735V43.4006C175.735 44.4569 175.97 45.2826 176.441 45.8778C176.912 46.473 177.554 46.7709 178.366 46.7714C179.117 46.7714 179.707 46.4883 180.135 45.9223C180.563 45.3562 180.777 44.5367 180.778 43.4638V38.4585Z" fill="url(#paint17_linear)"/>
<path d="M184.765 47.3289H184.133V38.4585H184.776L188.016 43.3245L191.129 38.4585H191.738V47.3289H191.106V39.5483L188.016 44.3382H187.913L184.765 39.5864V47.3289Z" fill="url(#paint18_linear)"/>
<path d="M233.358 36.2092V45.5575C233.363 45.6248 233.341 45.6911 233.298 45.7389C233.254 45.7866 233.194 45.8108 233.133 45.8051H231.394C231.333 45.8108 231.273 45.7866 231.23 45.7389C231.186 45.6911 231.165 45.6248 231.17 45.5575V36.2092C231.165 36.1419 231.186 36.0756 231.23 36.0278C231.273 35.9801 231.333 35.9558 231.394 35.9616H233.133C233.246 35.9306 233.358 36.0544 233.358 36.2092Z" fill="url(#paint19_linear)"/>
<path d="M246.857 35.9618C246.943 35.9697 247.024 36.014 247.081 36.0857C247.131 36.1443 247.142 36.2307 247.109 36.3023L244.247 45.6816C244.211 45.7822 244.12 45.8452 244.022 45.8364H242.479C242.381 45.8452 242.29 45.7822 242.254 45.6816L240.599 40.2026L238.943 45.6816C238.907 45.7822 238.816 45.8452 238.718 45.8364H237.175C237.077 45.8452 236.986 45.7822 236.95 45.6816L234.088 36.3023C234.055 36.2307 234.066 36.1443 234.116 36.0857C234.158 36.0102 234.232 35.9635 234.312 35.9618H236.249C236.355 35.9531 236.451 36.0324 236.473 36.1476L237.989 41.6885L239.673 36.1476C239.708 36.0469 239.799 35.984 239.897 35.9928H241.244C241.342 35.984 241.433 36.0469 241.469 36.1476L243.152 41.6885L244.668 36.1476C244.7 36.0397 244.79 35.9654 244.892 35.9618H246.857Z" fill="url(#paint20_linear)"/>
<path d="M249.775 35.962C249.895 35.971 249.991 36.0768 249.999 36.2096V45.558C250.004 45.6252 249.982 45.6916 249.939 45.7393C249.896 45.7871 249.836 45.8113 249.775 45.8056H248.035C247.974 45.8113 247.914 45.7871 247.871 45.7393C247.828 45.6916 247.806 45.6252 247.811 45.558V36.2096C247.806 36.1424 247.828 36.076 247.871 36.0283C247.914 35.9805 247.974 35.9563 248.035 35.962H249.775Z" fill="url(#paint21_linear)"/>
<path d="M214.781 44.5986C215.09 44.7224 215.202 45.2177 215.23 45.4653C215.286 45.8677 215.174 46.0225 215.062 46.0225C214.949 46.0225 214.781 45.8677 214.612 45.5581C214.443 45.2486 214.359 44.9081 214.472 44.7224C214.5 44.5676 214.612 44.5057 214.781 44.5986Z" fill="url(#paint22_linear)"/>
<path d="M212.984 46.0531C213.205 46.064 213.414 46.163 213.573 46.3317C213.938 46.6722 214.05 47.0436 213.854 47.3531C213.738 47.5124 213.562 47.6038 213.377 47.6008C213.174 47.5951 212.978 47.5193 212.816 47.3841C212.499 47.1271 212.403 46.6508 212.591 46.2698C212.68 46.128 212.828 46.0462 212.984 46.0531Z" fill="url(#paint23_linear)"/>
<path d="M208.887 49.7679C204.439 49.7679 200.833 45.7905 200.833 40.884C200.833 35.9775 204.439 32 208.887 32C213.335 32 216.941 35.9775 216.941 40.884C216.939 42.4837 216.552 44.0542 215.819 45.4343C215.791 45.4653 215.734 45.4653 215.734 45.4033C215.454 43.2056 214.247 42.0293 212.479 41.6578C212.339 41.6269 212.311 41.534 212.507 41.5031C213.077 41.4503 213.651 41.4607 214.219 41.534C214.242 41.308 214.252 41.0805 214.247 40.853C214.247 37.6048 211.86 34.9716 208.915 34.9716C205.97 34.9716 203.583 37.6048 203.583 40.853C203.583 44.1012 205.97 46.7344 208.915 46.7344H209.167C209.088 46.2128 209.051 45.6845 209.055 45.1557C209.055 44.7843 209.139 44.7533 209.28 45.0319C210.058 46.6811 211.472 47.8531 213.124 48.2202C214.808 48.6226 216.492 49.1179 218.316 51.6562C218.485 51.8729 218.232 52.1205 218.036 51.9348C216.183 50.1394 214.5 49.5203 212.956 49.5203C211.244 49.5203 210.066 49.7679 208.887 49.7679Z" fill="url(#paint24_linear)"/>
<path d="M230.159 45.4958L228.756 43.6695C229.24 42.8393 229.494 41.8709 229.486 40.8836C229.486 38.7928 228.344 36.9079 226.593 36.1078C224.841 35.3076 222.825 35.7499 221.485 37.2283C220.145 38.7068 219.744 40.9302 220.469 42.8619C221.195 44.7935 222.904 46.053 224.799 46.053C225.697 46.0516 226.575 45.7611 227.325 45.2172L227.69 45.7125C227.748 45.7834 227.828 45.8276 227.914 45.8363H230.019C230.086 45.8237 230.143 45.7753 230.171 45.7071C230.199 45.6389 230.195 45.5598 230.159 45.4958ZM227.1 41.8432H225.164C225.095 41.8528 225.036 41.9009 225.008 41.9703C224.979 42.0397 224.985 42.1204 225.024 42.1837L225.95 43.4219C225.601 43.6435 225.201 43.7508 224.799 43.7314C224.129 43.7152 223.493 43.406 223.029 42.8719C222.566 42.3378 222.314 41.6226 222.329 40.8836C222.329 39.3359 223.368 38.0049 224.799 38.0049C226.23 38.0049 227.269 39.3359 227.269 40.8836C227.27 41.2126 227.213 41.5385 227.1 41.8432Z" fill="url(#paint25_linear)"/>
<path d="M10.519 7.36572L10.0044 9.71877C10.5761 9.86382 12.42 10.5568 12.7202 9.23527C13.0204 7.91369 11.105 7.52689 10.519 7.36572Z" fill="url(#paint26_linear)"/>
<path d="M9.73333 10.8618L9.16162 13.5854C9.87626 13.7949 12.063 14.5845 12.3918 13.1019C12.7205 11.6193 10.448 11.1036 9.73333 10.8618Z" fill="url(#paint27_linear)"/>
<path d="M10.5763 1.22216e-05C5.29537 -0.00885739 1.00792 4.81112 1.00001 10.7658C0.992141 16.7204 5.26679 21.5548 10.5477 21.5637C15.8287 21.5726 20.1161 16.7526 20.1241 10.798C20.1328 7.93678 19.1306 5.18944 17.339 3.16321C15.5473 1.13699 13.1138 -0.00126578 10.5763 1.22216e-05ZM14.7927 9.25083C14.7439 10.1061 14.1937 10.8189 13.4492 10.9914C14.3942 11.4301 14.8476 12.647 14.464 13.7151C14.4497 13.7634 14.4211 13.8118 14.4068 13.8601C13.8351 15.6813 12.4916 15.8424 10.7192 15.4556L10.2905 17.4218L9.23277 17.1156L9.64727 15.1817L8.81828 14.9399L8.38949 16.89L7.36039 16.5838L7.78918 14.6176L7.03165 14.4081L5.64523 14.0213L6.15978 12.6675L6.9459 12.877C7.14269 12.9344 7.34454 12.8063 7.40327 12.5869L8.08934 9.50869L8.60388 7.28463C8.6298 6.94511 8.41689 6.64149 8.11792 6.59163L7.36039 6.38212L7.63196 5.12504L9.07555 5.52795L9.74732 5.73746L10.1618 3.78738L11.2195 4.09359L10.805 5.96309L11.6483 6.1726L12.0628 4.28699L13.1062 4.5932L12.6774 6.54328C13.9923 7.04289 14.9786 7.80036 14.7927 9.25083Z" fill="url(#paint28_linear)"/>
<path d="M28.1566 7.68796C28.8041 7.68129 29.4445 7.84113 30.029 8.15533C30.5476 8.43944 31.0058 8.8462 31.3725 9.34795C31.7278 9.87787 31.9898 10.4797 32.1443 11.1207C32.3158 11.8298 32.4024 12.5615 32.4016 13.2965C32.4314 15.605 31.6264 17.8278 30.1719 19.4529C29.4841 20.2457 28.6629 20.8758 27.7564 21.3063C26.8163 21.7761 25.7975 22.0125 24.7692 21.9993H24.1403C23.7386 21.9857 23.3379 21.9481 22.9397 21.8865C22.4671 21.8063 21.9993 21.6932 21.539 21.5481C21.0497 21.4073 20.5753 21.2074 20.124 20.9517L24.0974 2.1278L27.7135 1.51538L26.2414 8.15533C26.5407 8.00084 26.8516 7.87678 27.1704 7.78466C27.4929 7.69415 27.8243 7.65082 28.1566 7.65573V7.68796ZM25.0979 18.776C25.6728 18.8053 26.2431 18.6488 26.7416 18.3248C27.2069 18.0328 27.6152 17.6382 27.9422 17.1644C28.2756 16.6571 28.5317 16.0906 28.6998 15.4883C28.9121 14.882 29.0282 14.2382 29.0428 13.5866C29.059 12.9573 28.9414 12.3329 28.6998 11.7654C28.4032 11.2664 27.886 10.9934 27.3562 11.0563C27.0726 11.0744 26.7906 11.1175 26.5129 11.1852C26.168 11.2789 25.8489 11.4671 25.5839 11.7332L24.0117 18.6793H25.0837V18.776H25.0979Z" fill="url(#paint29_linear)"/>
<path d="M36.1034 21.5308H32.7017L35.5745 7.94476H38.9905L36.1034 21.5308ZM37.7613 6.26866C37.2978 6.26637 36.847 6.09695 36.475 5.78517C36.0987 5.42151 35.9017 4.87512 35.9461 4.31859C35.9429 3.96905 36.0062 3.62279 36.132 3.30326C36.2725 3.01708 36.4563 2.76074 36.6751 2.5458C36.8922 2.31098 37.1436 2.12015 37.4183 1.98173C37.7042 1.84907 38.0096 1.778 38.3188 1.77222C38.7632 1.78508 39.1929 1.95411 39.548 2.25571C39.9462 2.60415 40.1612 3.15588 40.1197 3.72229C40.1202 4.09571 40.047 4.46457 39.9053 4.80208C39.7772 5.10353 39.6084 5.3808 39.405 5.62401C39.1842 5.8536 38.9336 6.04382 38.6618 6.18808C38.3763 6.32228 38.0706 6.39341 37.7613 6.39759V6.26866Z" fill="url(#paint30_linear)"/>
<path d="M41.9636 4.59435L45.5797 3.98193L44.6936 8.05933H48.4955L47.7665 11.1536H43.9789L42.9784 15.9563C42.8936 16.3208 42.8362 16.6928 42.8069 17.0683C42.7875 17.3749 42.8265 17.6826 42.9212 17.9708C43.0174 18.2244 43.1966 18.4264 43.4215 18.5348C43.7458 18.6924 44.0979 18.7641 44.4506 18.7444C44.8295 18.7556 45.2084 18.7177 45.5797 18.6315C45.9265 18.5397 46.2659 18.4158 46.5945 18.2609L46.7803 21.2263C46.2934 21.4192 45.7971 21.5806 45.2939 21.7097C44.6729 21.8512 44.0407 21.9214 43.4072 21.9192C42.5748 21.9561 41.7467 21.7683 40.9917 21.3713C40.4616 21.0487 40.0399 20.5393 39.7911 19.9208C39.5327 19.2571 39.4199 18.5329 39.4623 17.8096C39.4996 16.9616 39.6097 16.1196 39.7911 15.2955L41.9636 4.59435Z" fill="url(#paint31_linear)"/>
<path d="M48.3236 16.1489C48.3108 15.0172 48.4803 13.8923 48.8239 12.8289C49.1436 11.824 49.634 10.8989 50.2675 10.1053C50.9082 9.31618 51.6868 8.68515 52.5544 8.25196C53.5036 7.79989 54.5257 7.57489 55.556 7.5912C56.1757 7.58022 56.7945 7.65053 57.3998 7.80071C57.9107 7.93273 58.4086 8.12168 58.8863 8.36478L57.6857 11.3785C57.3712 11.2334 57.0568 11.1206 56.728 11.0078C56.338 10.882 55.9327 10.8276 55.5274 10.8467C54.4852 10.7811 53.4772 11.2776 52.8117 12.1843C52.1078 13.1956 51.7569 14.4627 51.8255 15.746C51.8097 16.474 51.9836 17.1912 52.3257 17.8088C52.7903 18.416 53.4917 18.7239 54.1981 18.6308C54.6302 18.6312 55.0611 18.5826 55.4845 18.4857C55.8643 18.3887 56.2369 18.2594 56.5994 18.0989L56.8567 21.161C56.3965 21.3663 55.9235 21.5333 55.4416 21.6606C54.8278 21.8187 54.1987 21.8891 53.5692 21.8701C52.7513 21.9294 51.9309 21.809 51.1537 21.5155C50.5292 21.2405 49.9675 20.811 49.51 20.2585C49.0815 19.7266 48.7641 19.0934 48.5809 18.4051C48.3816 17.6907 48.2803 16.9461 48.2808 16.1972L48.3236 16.1489Z" fill="url(#paint32_linear)"/>
<path d="M63.4173 21.9504C62.7186 21.9581 62.025 21.8159 61.3734 21.5314C60.8027 21.2843 60.2929 20.8864 59.8869 20.371C59.4769 19.8321 59.1747 19.2 59.0007 18.5177C58.7944 17.7829 58.693 17.0159 58.7006 16.2452C58.7036 15.1887 58.8531 14.1392 59.1437 13.1348C59.4339 12.1226 59.8843 11.178 60.4729 10.3467C61.0617 9.52309 61.7846 8.83386 62.6026 8.31599C63.4872 7.77106 64.4819 7.49346 65.4898 7.51017C66.2067 7.49041 66.9201 7.62723 67.5909 7.91308C68.1561 8.17183 68.6636 8.56805 69.0774 9.07346C69.4874 9.61235 69.7896 10.2445 69.9636 10.9268C70.1777 11.6595 70.2792 12.428 70.2637 13.1993C70.2537 14.2393 70.1043 15.2717 69.8206 16.2614C69.5367 17.267 69.1016 18.2101 68.5342 19.0495C67.9381 19.9007 67.1877 20.5985 66.3331 21.0963C65.428 21.6416 64.4149 21.9189 63.3887 21.9021L63.4173 21.9504ZM65.061 10.7979C64.5778 10.7846 64.1046 10.9549 63.7175 11.2814C63.3284 11.6258 63.0031 12.0529 62.7598 12.5385C62.5011 13.0474 62.3086 13.5956 62.1881 14.1662C62.0622 14.719 61.9998 15.2877 62.0023 15.8585C61.9697 16.5583 62.0925 17.2563 62.3596 17.8891C62.6376 18.3706 63.123 18.6473 63.6317 18.6143C64.115 18.6276 64.5882 18.4573 64.9753 18.1309C65.408 17.8095 65.7738 17.3861 66.0472 16.8899C66.306 16.381 66.4985 15.8328 66.619 15.2621C66.7238 14.7115 66.7717 14.1491 66.7619 13.586C66.7945 12.8862 66.6717 12.1882 66.4046 11.5554C66.1185 11.0414 65.5955 10.7591 65.061 10.8301V10.7979Z" fill="url(#paint33_linear)"/>
<path d="M73.9229 21.5318H70.5068L73.3798 7.94567H76.7958L73.9229 21.5318ZM75.5666 6.26957C75.102 6.27485 74.6491 6.10465 74.2802 5.78607C73.882 5.43763 73.6669 4.88589 73.7085 4.31948C73.7052 3.96994 73.7686 3.62368 73.8943 3.30415C74.0119 2.99121 74.1817 2.70669 74.3946 2.4661C74.6117 2.23127 74.8631 2.04045 75.1378 1.90202C75.4216 1.76181 75.7284 1.69043 76.0383 1.69242C76.5019 1.6948 76.9526 1.86422 77.3247 2.176C77.7229 2.52445 77.938 3.07618 77.8964 3.64259C77.8927 3.99133 77.8296 4.33602 77.7106 4.65793C77.5825 4.95938 77.4137 5.23665 77.2103 5.47986C76.9895 5.70946 76.7389 5.89967 76.4671 6.04394C76.1812 6.1766 75.8757 6.24766 75.5666 6.25345V6.26957Z" fill="url(#paint34_linear)"/>
<path d="M79.3115 8.50989L80.1119 8.15532C80.4585 8.02873 80.8117 7.92646 81.1695 7.84911C81.5978 7.73594 82.0324 7.65518 82.4702 7.60736C83.0172 7.5644 83.5659 7.55364 84.1139 7.57513C85.5422 7.39368 86.951 8.06574 87.8301 9.34795C88.5442 10.8263 88.6739 12.5752 88.1874 14.1668L86.6152 21.6126H83.1992L84.7142 14.4085C84.8133 13.9634 84.8849 13.5111 84.9286 13.0548C84.9857 12.6869 84.9857 12.3106 84.9286 11.9427C84.857 11.6173 84.6847 11.3315 84.4426 11.1369C84.1338 10.9256 83.7736 10.8297 83.4136 10.8629C82.9626 10.8625 82.5127 10.911 82.07 11.0079L79.8975 21.4998H76.4814L79.3115 8.50989Z" fill="url(#paint35_linear)"/>
<path d="M140.603 8.52431V14.8315H139.586V7.1897H140.952L142.805 11.9685L144.641 7.1897H145.987V14.8315H144.971V8.52431L143.098 13.4323H142.495L140.603 8.52431Z" fill="url(#paint36_linear)"/>
<path d="M148.092 10.3111C148.592 9.82555 149.241 9.57112 149.906 9.60071C150.54 9.57694 151.159 9.81489 151.643 10.268C152.131 10.8021 152.398 11.5335 152.384 12.2915C152.412 13.0038 152.172 13.6972 151.721 14.2074C150.651 15.1835 149.104 15.1835 148.034 14.2074C147.592 13.6993 147.353 13.017 147.37 12.3131C147.341 11.5627 147.604 10.8343 148.092 10.3111ZM148.794 10.8923C148.485 11.2776 148.318 11.7769 148.326 12.2915C148.318 12.7997 148.486 13.2921 148.794 13.6693C149.069 13.9998 149.461 14.1807 149.867 14.1644C150.275 14.1894 150.67 14.0069 150.94 13.6693C151.564 12.8717 151.564 11.6899 150.94 10.8923C150.666 10.5618 150.274 10.3808 149.867 10.3972C149.46 10.3722 149.065 10.5547 148.794 10.8923Z" fill="url(#paint37_linear)"/>
<path d="M154.471 9.72973V10.3325C154.657 10.1353 154.867 9.96857 155.095 9.83736C155.39 9.66749 155.719 9.58584 156.051 9.60057C156.344 9.60057 156.871 9.64362 157.241 10.0311C157.612 10.4186 157.651 10.9998 157.651 11.538V14.8315H156.773V11.5595C156.79 11.2667 156.729 10.975 156.598 10.7199C156.44 10.4958 156.191 10.3745 155.934 10.397C155.618 10.4019 155.312 10.5147 155.056 10.7199C154.823 10.8957 154.618 11.1141 154.452 11.3657V14.81H153.574V9.72973H154.471Z" fill="url(#paint38_linear)"/>
<path d="M163.231 14.1418C162.841 14.5938 162.295 14.9598 161.319 14.9598C160.734 14.9598 160.129 14.8737 159.583 14.2925C159.125 13.7663 158.873 13.0629 158.881 12.3336C158.881 11.0421 159.602 9.62134 161.163 9.62134C162.899 9.62134 163.368 11.3004 163.368 12.4628H159.836C159.856 13.5391 160.539 14.1633 161.28 14.1633C161.783 14.1757 162.272 13.9755 162.646 13.6036L163.231 14.1418ZM162.334 11.6663C162.302 10.9546 161.77 10.3954 161.124 10.3963C160.468 10.3972 159.92 10.9463 159.856 11.6663H162.334Z" fill="url(#paint39_linear)"/>
<path d="M167.444 9.72998H168.381L166.625 15.0683C166.254 16.1661 166.001 16.5105 165.864 16.6397C165.535 16.9361 165.119 17.0892 164.694 17.0702C164.517 17.0724 164.34 17.0507 164.167 17.0056L164.089 16.1876C164.235 16.2304 164.386 16.2521 164.538 16.2522C164.801 16.2574 165.057 16.1581 165.26 15.9724C165.477 15.7099 165.631 15.3917 165.708 15.0468L165.825 14.6378L163.835 9.75151H164.85L166.313 13.3678L167.444 9.72998Z" fill="url(#paint40_linear)"/>
<path d="M171.795 0H132.485V21.9993H171.775L177.901 10.9997L171.795 0ZM170.449 19.9974H134.631V2.0019H170.449L175.462 10.9781L170.449 19.9974Z" fill="url(#paint41_linear)"/>
<path d="M111.279 8.93359C110.616 8.93359 109.914 9.45021 109.914 9.45021V9.12733C109.914 9.06275 109.894 9.0197 109.816 9.0197H108.958C108.88 9.0197 108.841 9.06275 108.841 9.12733V16.1232C108.841 16.1878 108.86 16.2309 108.938 16.2309H109.797C109.823 16.2328 109.849 16.2221 109.868 16.2014C109.886 16.1808 109.896 16.1523 109.894 16.1232V10.1175C110.171 9.95582 110.478 9.86739 110.792 9.8592C111.26 9.8592 111.631 10.096 111.631 10.5911V16.1232C111.631 16.1878 111.67 16.2309 111.748 16.2309H112.606C112.632 16.2328 112.658 16.2221 112.677 16.2014C112.696 16.1808 112.705 16.1523 112.704 16.1232V10.2897C112.704 9.40716 112.196 8.93359 111.279 8.93359Z" fill="url(#paint42_linear)"/>
<path d="M117.893 5.42383H117.035C116.957 5.42383 116.918 5.46688 116.918 5.53146V9.06168C116.643 8.94559 116.353 8.88014 116.059 8.86795C114.674 8.86795 113.738 10.2456 113.738 12.9148C113.738 15.1965 114.655 16.4235 115.864 16.4235C116.323 16.393 116.757 16.1876 117.093 15.8423L117.288 16.1652C117.327 16.2298 117.347 16.2513 117.405 16.2513H117.893C117.919 16.2532 117.945 16.2425 117.964 16.2219C117.983 16.2013 117.992 16.1727 117.991 16.1437V5.53146C117.991 5.44535 117.971 5.42383 117.893 5.42383ZM114.869 12.678C114.869 11.2143 115.279 9.7505 116.118 9.7505C116.416 9.75669 116.703 9.87007 116.937 10.0734V15.2396C116.706 15.3884 116.444 15.4699 116.176 15.4764C115.279 15.4764 114.869 14.3355 114.869 12.678Z" fill="url(#paint43_linear)"/>
<path d="M121.151 8.86792C119.727 8.86792 119.044 10.8052 119.044 12.9362C119.044 15.1533 120.039 16.4017 121.326 16.4017C121.846 16.3844 122.355 16.2293 122.809 15.9497C122.851 15.9238 122.874 15.8727 122.868 15.8205L122.751 15.347C122.731 15.2824 122.712 15.2609 122.634 15.2609C122.327 15.347 122.013 15.3975 121.697 15.4116C120.644 15.4116 120.175 14.4429 120.175 13.1299V12.807C120.453 12.8529 120.733 12.8816 121.014 12.8931H122.985V12.2689C122.985 10.0518 122.243 8.86792 121.151 8.86792ZM121.092 11.9675C120.799 11.9799 120.506 12.0086 120.214 12.0536C120.216 11.8949 120.229 11.7366 120.253 11.5801C120.371 10.3747 120.644 9.75045 121.131 9.75045C121.541 9.75045 121.834 10.3747 121.892 11.4725C121.912 11.7092 121.912 11.9675 121.912 11.9675H121.092Z" fill="url(#paint44_linear)"/>
<path d="M107.261 9.77256C106.949 9.12677 106.383 8.84692 105.739 8.84692C105.23 8.87806 104.729 9.0017 104.257 9.21287C104.179 9.25592 104.12 9.27745 104.12 9.36356C104.124 9.4093 104.137 9.45344 104.159 9.49271L104.452 10.1385C104.474 10.1882 104.519 10.2211 104.569 10.2246C104.61 10.2201 104.65 10.2054 104.686 10.1816C105.096 9.90171 105.408 9.75103 105.661 9.75103C105.972 9.76188 106.245 9.98508 106.344 10.3107C106.472 10.7115 106.531 11.1347 106.52 11.5592V11.7099C106.222 11.5483 105.896 11.4602 105.564 11.4516C104.335 11.4516 103.671 12.6786 103.671 13.9917C103.671 15.4125 104.452 16.4457 105.369 16.4457C105.88 16.4237 106.358 16.1564 106.676 15.7138C106.676 15.7138 106.851 16.1228 106.871 16.1874C106.89 16.252 106.91 16.252 106.988 16.252H107.476C107.502 16.2539 107.528 16.2432 107.546 16.2226C107.565 16.202 107.575 16.1734 107.573 16.1443V12.0543C107.554 11.0641 107.515 10.2892 107.261 9.77256ZM106.5 15.0896C106.285 15.3218 106.001 15.4595 105.7 15.477C105.45 15.4775 105.216 15.3402 105.076 15.1111C104.865 14.7459 104.762 14.3168 104.783 13.8841C104.783 13.1091 105.056 12.3127 105.642 12.3127C105.952 12.3144 106.253 12.4277 106.5 12.6356V15.0896Z" fill="url(#paint45_linear)"/>
<path d="M127.471 9.02006H126.711C126.643 9.01397 126.579 9.05772 126.555 9.12769C126.516 9.25684 126.184 10.1394 126.047 10.5053C125.95 10.7636 125.696 11.517 125.696 11.517H125.657C125.657 11.517 125.462 10.9789 125.365 10.6991C125.287 10.4838 124.857 9.29989 124.799 9.17074C124.788 9.07587 124.709 9.00864 124.623 9.02006H123.843C123.805 9.02051 123.769 9.04055 123.746 9.0743C123.723 9.10805 123.716 9.15165 123.726 9.19227C123.765 9.25684 125.072 12.4211 125.072 12.4211C125.072 12.4211 123.648 15.9728 123.609 16.0374C123.592 16.0805 123.595 16.1305 123.619 16.1698C123.643 16.2091 123.683 16.2322 123.726 16.2311H124.448C124.547 16.2368 124.637 16.165 124.662 16.0589C124.76 15.7575 124.916 15.327 125.15 14.6597C125.287 14.2292 125.521 13.4543 125.521 13.4543H125.54C125.54 13.4543 125.794 14.2292 125.891 14.4875C126.125 15.1333 126.438 15.9728 126.457 16.0804C126.477 16.188 126.535 16.2311 126.613 16.2311H127.432C127.468 16.2283 127.5 16.2049 127.516 16.1695C127.532 16.1342 127.53 16.0921 127.51 16.0589C127.413 15.8652 126.633 13.8633 126.086 12.5502C126.086 12.5502 127.491 9.27837 127.53 9.19227C127.569 9.10617 127.588 9.02006 127.471 9.02006Z" fill="url(#paint46_linear)"/>
<path d="M104.53 4.36995H103.574C103.506 4.36385 103.443 4.4076 103.418 4.47758C103.398 4.54216 101.994 9.08418 101.877 9.47165C101.799 9.72996 101.564 10.6986 101.506 10.9139L101.018 9.49317C100.901 9.1057 99.7502 5.7261 99.7111 5.59694C99.694 5.50273 99.6224 5.43246 99.5356 5.42473H98.5992C98.5609 5.42517 98.5251 5.44522 98.5021 5.47897C98.4792 5.51272 98.4718 5.55632 98.4821 5.59694C98.5016 5.63999 100.199 10.3542 100.862 12.1624V16.1232C100.862 16.1878 100.882 16.2309 100.96 16.2309H101.838C101.864 16.2328 101.89 16.2221 101.908 16.2014C101.927 16.1808 101.937 16.1523 101.935 16.1232V12.1839C102.501 10.5264 104.569 4.58521 104.588 4.52063C104.647 4.45605 104.647 4.36995 104.53 4.36995Z" fill="url(#paint47_linear)"/>
<path d="M187.901 1.04117C188.066 1.04117 188.066 1.04117 188.231 1.22342C189.764 1.6047 191.257 2.15418 192.691 2.86364C193.377 3.19262 193.872 3.87488 194.012 4.6861L197.976 21.635C197.976 21.9995 198.141 21.9995 198.471 21.9995H203.096C203.426 21.9995 203.426 21.8173 203.592 21.635C206.069 15.0742 208.547 8.69553 211.024 2.13465C211.177 1.61496 211.4 1.12351 211.685 0.676678H206.73C206.399 0.676678 206.234 0.858925 206.234 1.04117L201.279 14.7097C201.279 14.8919 201.114 14.8919 201.114 15.0742C201.114 14.8919 201.114 14.7097 200.949 14.7097C200.288 10.8825 199.628 6.87306 198.967 3.04588C198.828 1.5876 197.646 0.528055 196.324 0.676678H188.562C187.901 0.494432 188.066 0.312185 187.901 1.04117Z" fill="url(#paint48_linear)"/>
<path d="M233.157 1.04094C232.992 1.04094 232.992 1.04094 232.992 0.858696C230.925 0.0684683 228.719 -0.181087 226.55 0.129709C224.691 0.36315 222.951 1.25887 221.595 2.68116C220.265 4.01793 219.643 6.00925 219.943 7.96632C220.219 9.2442 220.856 10.3927 221.76 11.2468C222.636 11.9601 223.577 12.5709 224.568 13.0692C225.21 13.4286 225.818 13.8558 226.385 14.345C226.715 14.6831 226.889 15.1684 226.857 15.6644C226.825 16.1604 226.59 16.6135 226.22 16.8964C225.867 17.1542 225.476 17.3394 225.064 17.4431C223.52 17.7771 221.924 17.6513 220.439 17.0787C219.778 16.8964 219.283 16.5319 218.622 16.3497C218.292 17.9899 217.961 19.4479 217.796 20.9058C217.961 20.9058 218.126 21.0881 218.292 21.0881C220.531 21.8727 222.896 22.1212 225.229 21.8171C226.997 21.6742 228.676 20.9074 230.019 19.6301C231.363 18.4198 232.1 16.5724 232.002 14.6612C231.904 12.7501 230.982 11.0063 229.523 9.97103C228.697 9.24205 227.706 8.87755 226.715 8.14857C226.246 7.82869 225.804 7.46271 225.394 7.05509C225.158 6.82341 225.024 6.4919 225.024 6.14385C225.024 5.7958 225.158 5.46429 225.394 5.23262C225.741 4.92247 226.132 4.6763 226.55 4.50363C227.698 4.19923 228.902 4.26245 230.019 4.68588C230.702 4.8461 231.367 5.09063 232.001 5.41486C232.537 4.01075 232.925 2.54309 233.157 1.04094Z" fill="url(#paint49_linear)"/>
<path d="M209.538 21.8163H213.998C214.493 21.8163 214.493 21.8163 214.658 21.2696C215.814 15.0731 217.136 8.87671 218.292 2.68029C218.457 1.9513 218.622 1.2223 218.787 0.311065H214.328C214.192 0.293252 214.057 0.345101 213.96 0.451745C213.863 0.558388 213.816 0.708047 213.832 0.857809C212.676 7.05424 211.52 13.2507 210.199 19.4471C209.882 20.1999 209.659 20.997 209.538 21.8163Z" fill="url(#paint50_linear)"/>
<path d="M250.003 21.816H245.709C245.544 21.816 245.379 21.816 245.379 21.4515C245.213 20.5402 245.048 19.629 244.883 18.5355H238.772C238.442 18.5355 238.442 18.5355 238.276 18.9C237.946 19.8112 237.781 20.5402 237.451 21.4515C237.451 21.6337 237.285 21.6337 237.12 21.6337H232C232 21.4515 232.165 21.4515 232.165 21.2692C234.643 14.8906 236.955 8.51193 239.433 2.13329C239.758 0.951088 240.796 0.187806 241.91 0.310817H245.709C246.039 0.310817 246.039 0.310817 246.204 0.675311C247.361 6.68946 248.517 12.8859 249.673 18.9C249.691 19.882 249.802 20.8592 250.003 21.816ZM242.406 6.32497C241.415 8.87642 240.589 11.6101 239.763 14.1616H243.892C243.397 11.6101 242.901 9.05867 242.406 6.32497Z" fill="url(#paint51_linear)"/>
<path d="M187.901 1.04086C188.066 0.311881 187.901 0.494126 188.562 0.494126H196.324C197.646 0.345504 198.828 1.40504 198.967 2.86332C199.628 6.69048 200.288 10.6999 200.949 14.527C200.949 14.7093 200.949 14.7093 201.114 14.8915C201.132 14.7534 201.19 14.6253 201.279 14.527L206.234 0.858618C206.399 0.494126 206.399 0.494126 206.73 0.494126H211.685C211.567 1.02892 211.341 1.52737 211.024 1.95209C208.547 8.51294 206.069 14.8915 203.592 21.4524C203.426 21.6346 203.426 21.8169 203.096 21.8169H198.471C198.141 21.8169 198.141 21.6346 197.976 21.4524L194.012 4.50353C193.872 3.69231 193.377 3.01006 192.691 2.68108C191.257 1.97162 189.764 1.42214 188.231 1.04086H187.901Z" fill="url(#paint52_linear)"/>
<path d="M233.157 1.04032C232.803 2.47878 232.527 3.93936 232.331 5.41422C231.67 5.23197 231.01 4.86748 230.349 4.68523C229.217 4.35394 228.035 4.29181 226.88 4.50299C226.445 4.63385 226.047 4.88471 225.724 5.23197C225.489 5.46365 225.354 5.79515 225.354 6.1432C225.354 6.49124 225.489 6.82275 225.724 7.05443C226.134 7.46205 226.576 7.82802 227.046 8.1479C228.036 8.64625 228.977 9.25702 229.853 9.97036C231.313 11.0056 232.234 12.7494 232.332 14.6605C232.43 16.5717 231.693 18.419 230.349 19.6294C229.006 20.9067 227.327 21.6735 225.559 21.8163C223.226 22.1267 220.86 21.878 218.622 21.0873C218.457 21.0873 218.292 20.9051 218.126 20.9051C218.457 19.2649 218.787 17.8069 218.952 16.349C219.613 16.5312 220.108 16.8957 220.769 17.0779C222.253 17.6568 223.851 17.7827 225.394 17.4424C225.724 17.2602 226.22 17.0779 226.55 16.8957C226.921 16.6128 227.155 16.1597 227.187 15.6637C227.219 15.1677 227.046 14.6824 226.715 14.3442C226.175 13.8155 225.561 13.3849 224.898 13.0685C223.908 12.5702 222.967 11.9594 222.09 11.2461C221.1 10.4772 220.442 9.28944 220.274 7.96565C219.973 6.0086 220.596 4.01729 221.925 2.68053C223.285 1.26375 225.023 0.368938 226.88 0.129093C229.05 -0.172488 231.253 0.0768508 233.322 0.858076C232.992 0.858076 233.157 1.04032 233.157 1.04032Z" fill="url(#paint53_linear)"/>
<path d="M209.538 21.8163C209.703 20.9051 209.868 20.1761 210.034 19.4471C211.19 13.2507 212.346 7.05424 213.667 0.857809C213.651 0.708047 213.698 0.558388 213.795 0.451745C213.891 0.345101 214.027 0.293252 214.163 0.311065H218.622C218.457 1.04006 218.292 1.9513 218.127 2.68029C216.971 8.87671 215.649 15.0731 214.493 21.2696C214.328 21.8163 214.328 21.8163 213.832 21.8163H209.538Z" fill="url(#paint54_linear)"/>
</g>
<defs>
<linearGradient id="paint0_linear" x1="-8.17569" y1="33.2436" x2="-4.53989" y2="72.3669" gradientUnits="userSpaceOnUse">
<stop stop-color="#D275F9"/>
<stop offset="1" stop-color="#8D1EC2"/>
</linearGradient>
<linearGradient id="paint1_linear" x1="5.62388" y1="29.552" x2="36.928" y2="53.4262" gradientUnits="userSpaceOnUse">
<stop stop-color="#D275F9"/>
<stop offset="1" stop-color="#8D1EC2"/>
</linearGradient>
<linearGradient id="paint2_linear" x1="-9.40033" y1="26.1515" x2="31.6703" y2="71.7238" gradientUnits="userSpaceOnUse">
<stop stop-color="#D275F9"/>
<stop offset="1" stop-color="#8D1EC2"/>
</linearGradient>
<linearGradient id="paint3_linear" x1="5.29804" y1="26.1533" x2="46.3721" y2="71.6545" gradientUnits="userSpaceOnUse">
<stop stop-color="#D275F9"/>
<stop offset="1" stop-color="#8D1EC2"/>
</linearGradient>
<linearGradient id="paint4_linear" x1="27.797" y1="47.7019" x2="28.2867" y2="49.1413" gradientUnits="userSpaceOnUse">
<stop stop-color="#D275F9"/>
<stop offset="1" stop-color="#8D1EC2"/>
</linearGradient>
<linearGradient id="paint5_linear" x1="108.946" y1="27.9603" x2="134.289" y2="43.3968" gradientUnits="userSpaceOnUse">
<stop stop-color="#D275F9"/>
<stop offset="1" stop-color="#8D1EC2"/>
</linearGradient>
<linearGradient id="paint6_linear" x1="114.514" y1="27.9603" x2="139.852" y2="43.3858" gradientUnits="userSpaceOnUse">
<stop stop-color="#D275F9"/>
<stop offset="1" stop-color="#8D1EC2"/>
</linearGradient>
<linearGradient id="paint7_linear" x1="108.946" y1="40.8204" x2="126.798" y2="58.1865" gradientUnits="userSpaceOnUse">
<stop stop-color="#D275F9"/>
<stop offset="1" stop-color="#8D1EC2"/>
</linearGradient>
<linearGradient id="paint8_linear" x1="114.511" y1="40.8204" x2="132.364" y2="58.1924" gradientUnits="userSpaceOnUse">
<stop stop-color="#D275F9"/>
<stop offset="1" stop-color="#8D1EC2"/>
</linearGradient>
<linearGradient id="paint9_linear" x1="114.514" y1="37.5168" x2="127.299" y2="54.2669" gradientUnits="userSpaceOnUse">
<stop stop-color="#D275F9"/>
<stop offset="1" stop-color="#8D1EC2"/>
</linearGradient>
<linearGradient id="paint10_linear" x1="121.637" y1="37.5052" x2="108.851" y2="54.2555" gradientUnits="userSpaceOnUse">
<stop stop-color="#D275F9"/>
<stop offset="1" stop-color="#8D1EC2"/>
</linearGradient>
<linearGradient id="paint11_linear" x1="127.862" y1="35.8646" x2="145.609" y2="49.6567" gradientUnits="userSpaceOnUse">
<stop stop-color="#D275F9"/>
<stop offset="1" stop-color="#8D1EC2"/>
</linearGradient>
<linearGradient id="paint12_linear" x1="132.299" y1="35.866" x2="150.496" y2="56.275" gradientUnits="userSpaceOnUse">
<stop stop-color="#D275F9"/>
<stop offset="1" stop-color="#8D1EC2"/>
</linearGradient>
<linearGradient id="paint13_linear" x1="140.749" y1="35.8646" x2="159.02" y2="55.4298" gradientUnits="userSpaceOnUse">
<stop stop-color="#D275F9"/>
<stop offset="1" stop-color="#8D1EC2"/>
</linearGradient>
<linearGradient id="paint14_linear" x1="150.976" y1="35.8646" x2="168.723" y2="49.6569" gradientUnits="userSpaceOnUse">
<stop stop-color="#D275F9"/>
<stop offset="1" stop-color="#8D1EC2"/>
</linearGradient>
<linearGradient id="paint15_linear" x1="157.171" y1="35.8319" x2="175.522" y2="53.4593" gradientUnits="userSpaceOnUse">
<stop stop-color="#D275F9"/>
<stop offset="1" stop-color="#8D1EC2"/>
</linearGradient>
<linearGradient id="paint16_linear" x1="165.405" y1="35.8646" x2="183.152" y2="49.6567" gradientUnits="userSpaceOnUse">
<stop stop-color="#D275F9"/>
<stop offset="1" stop-color="#8D1EC2"/>
</linearGradient>
<linearGradient id="paint17_linear" x1="171.065" y1="35.8352" x2="189.552" y2="55.4821" gradientUnits="userSpaceOnUse">
<stop stop-color="#D275F9"/>
<stop offset="1" stop-color="#8D1EC2"/>
</linearGradient>
<linearGradient id="paint18_linear" x1="179.264" y1="35.8646" x2="196.979" y2="58.8227" gradientUnits="userSpaceOnUse">
<stop stop-color="#D275F9"/>
<stop offset="1" stop-color="#8D1EC2"/>
</linearGradient>
<linearGradient id="paint19_linear" x1="229.767" y1="33.0767" x2="242.047" y2="37.2029" gradientUnits="userSpaceOnUse">
<stop stop-color="#D275F9"/>
<stop offset="1" stop-color="#8D1EC2"/>
</linearGradient>
<linearGradient id="paint20_linear" x1="225.708" y1="33.0732" x2="242.028" y2="65.6888" gradientUnits="userSpaceOnUse">
<stop stop-color="#D275F9"/>
<stop offset="1" stop-color="#8D1EC2"/>
</linearGradient>
<linearGradient id="paint21_linear" x1="246.408" y1="33.0822" x2="258.687" y2="37.2101" gradientUnits="userSpaceOnUse">
<stop stop-color="#D275F9"/>
<stop offset="1" stop-color="#8D1EC2"/>
</linearGradient>
<linearGradient id="paint22_linear" x1="213.892" y1="44.1258" x2="216.882" y2="46.6658" gradientUnits="userSpaceOnUse">
<stop stop-color="#D275F9"/>
<stop offset="1" stop-color="#8D1EC2"/>
</linearGradient>
<linearGradient id="paint23_linear" x1="211.564" y1="45.6" x2="214.573" y2="49.8732" gradientUnits="userSpaceOnUse">
<stop stop-color="#D275F9"/>
<stop offset="1" stop-color="#8D1EC2"/>
</linearGradient>
<linearGradient id="paint24_linear" x1="189.603" y1="26.1515" x2="229.309" y2="78.7824" gradientUnits="userSpaceOnUse">
<stop stop-color="#D275F9"/>
<stop offset="1" stop-color="#8D1EC2"/>
</linearGradient>
<linearGradient id="paint25_linear" x1="213.66" y1="32.6908" x2="233.499" y2="61.9171" gradientUnits="userSpaceOnUse">
<stop stop-color="#D275F9"/>
<stop offset="1" stop-color="#8D1EC2"/>
</linearGradient>
<linearGradient id="paint26_linear" x1="8.24529" y1="6.58672" x2="13.2446" y2="14.3801" gradientUnits="userSpaceOnUse">
<stop stop-color="#D275F9"/>
<stop offset="1" stop-color="#8D1EC2"/>
</linearGradient>
<linearGradient id="paint27_linear" x1="7.07281" y1="9.94907" x2="12.8974" y2="19.1511" gradientUnits="userSpaceOnUse">
<stop stop-color="#D275F9"/>
<stop offset="1" stop-color="#8D1EC2"/>
</linearGradient>
<linearGradient id="paint28_linear" x1="-11.2444" y1="-6.30572" x2="31.4313" y2="50.9018" gradientUnits="userSpaceOnUse">
<stop stop-color="#D275F9"/>
<stop offset="1" stop-color="#8D1EC2"/>
</linearGradient>
<linearGradient id="paint29_linear" x1="12.2627" y1="-4.47473" x2="54.3505" y2="33.657" gradientUnits="userSpaceOnUse">
<stop stop-color="#D275F9"/>
<stop offset="1" stop-color="#8D1EC2"/>
</linearGradient>
<linearGradient id="paint30_linear" x1="27.949" y1="-4.00563" x2="62.9828" y2="15.8888" gradientUnits="userSpaceOnUse">
<stop stop-color="#D275F9"/>
<stop offset="1" stop-color="#8D1EC2"/>
</linearGradient>
<linearGradient id="paint31_linear" x1="33.6645" y1="-1.26467" x2="69.3772" y2="25.939" gradientUnits="userSpaceOnUse">
<stop stop-color="#D275F9"/>
<stop offset="1" stop-color="#8D1EC2"/>
</linearGradient>
<linearGradient id="paint32_linear" x1="41.4905" y1="3.40999" x2="70.8112" y2="36.291" gradientUnits="userSpaceOnUse">
<stop stop-color="#D275F9"/>
<stop offset="1" stop-color="#8D1EC2"/>
</linearGradient>
<linearGradient id="paint33_linear" x1="51.2956" y1="3.28501" x2="80.5786" y2="38.7286" gradientUnits="userSpaceOnUse">
<stop stop-color="#D275F9"/>
<stop offset="1" stop-color="#8D1EC2"/>
</linearGradient>
<linearGradient id="paint34_linear" x1="65.7723" y1="-4.1091" x2="100.806" y2="15.6283" gradientUnits="userSpaceOnUse">
<stop stop-color="#D275F9"/>
<stop offset="1" stop-color="#8D1EC2"/>
</linearGradient>
<linearGradient id="paint35_linear" x1="68.8009" y1="3.43247" x2="96.9322" y2="39.6941" gradientUnits="userSpaceOnUse">
<stop stop-color="#D275F9"/>
<stop offset="1" stop-color="#8D1EC2"/>
</linearGradient>
<linearGradient id="paint36_linear" x1="135.488" y1="4.95508" x2="150.837" y2="24.387" gradientUnits="userSpaceOnUse">
<stop stop-color="#D275F9"/>
<stop offset="1" stop-color="#8D1EC2"/>
</linearGradient>
<linearGradient id="paint37_linear" x1="144.155" y1="8.03653" x2="154.538" y2="22.7805" gradientUnits="userSpaceOnUse">
<stop stop-color="#D275F9"/>
<stop offset="1" stop-color="#8D1EC2"/>
</linearGradient>
<linearGradient id="paint38_linear" x1="150.963" y1="8.06874" x2="161.624" y2="20.6245" gradientUnits="userSpaceOnUse">
<stop stop-color="#D275F9"/>
<stop offset="1" stop-color="#8D1EC2"/>
</linearGradient>
<linearGradient id="paint39_linear" x1="156.007" y1="8.06026" x2="166.721" y2="21.6717" gradientUnits="userSpaceOnUse">
<stop stop-color="#D275F9"/>
<stop offset="1" stop-color="#8D1EC2"/>
</linearGradient>
<linearGradient id="paint40_linear" x1="160.925" y1="7.58308" x2="176.05" y2="21.737" gradientUnits="userSpaceOnUse">
<stop stop-color="#D275F9"/>
<stop offset="1" stop-color="#8D1EC2"/>
</linearGradient>
<linearGradient id="paint41_linear" x1="103.408" y1="-6.43309" x2="129.808" y2="75.9476" gradientUnits="userSpaceOnUse">
<stop stop-color="#D275F9"/>
<stop offset="1" stop-color="#8D1EC2"/>
</linearGradient>
<linearGradient id="paint42_linear" x1="106.368" y1="6.79965" x2="121.067" y2="18.5614" gradientUnits="userSpaceOnUse">
<stop stop-color="#D275F9"/>
<stop offset="1" stop-color="#8D1EC2"/>
</linearGradient>
<linearGradient id="paint43_linear" x1="111.015" y1="2.20728" x2="130.802" y2="13.7714" gradientUnits="userSpaceOnUse">
<stop stop-color="#D275F9"/>
<stop offset="1" stop-color="#8D1EC2"/>
</linearGradient>
<linearGradient id="paint44_linear" x1="116.521" y1="6.66487" x2="131.656" y2="18.6312" gradientUnits="userSpaceOnUse">
<stop stop-color="#D275F9"/>
<stop offset="1" stop-color="#8D1EC2"/>
</linearGradient>
<linearGradient id="paint45_linear" x1="101.173" y1="6.62487" x2="116.371" y2="18.421" gradientUnits="userSpaceOnUse">
<stop stop-color="#D275F9"/>
<stop offset="1" stop-color="#8D1EC2"/>
</linearGradient>
<linearGradient id="paint46_linear" x1="121.061" y1="6.90967" x2="135.699" y2="19.0634" gradientUnits="userSpaceOnUse">
<stop stop-color="#D275F9"/>
<stop offset="1" stop-color="#8D1EC2"/>
</linearGradient>
<linearGradient id="paint47_linear" x1="94.5405" y1="0.90076" x2="118.32" y2="19.5338" gradientUnits="userSpaceOnUse">
<stop stop-color="#D275F9"/>
<stop offset="1" stop-color="#8D1EC2"/>
</linearGradient>
<linearGradient id="paint48_linear" x1="172.673" y1="-5.76927" x2="211.743" y2="59.6014" gradientUnits="userSpaceOnUse">
<stop stop-color="#D275F9"/>
<stop offset="1" stop-color="#8D1EC2"/>
</linearGradient>
<linearGradient id="paint49_linear" x1="207.961" y1="-6.4166" x2="253.194" y2="41.4435" gradientUnits="userSpaceOnUse">
<stop stop-color="#D275F9"/>
<stop offset="1" stop-color="#8D1EC2"/>
</linearGradient>
<linearGradient id="paint50_linear" x1="203.616" y1="-5.982" x2="244.2" y2="20.3972" gradientUnits="userSpaceOnUse">
<stop stop-color="#D275F9"/>
<stop offset="1" stop-color="#8D1EC2"/>
</linearGradient>
<linearGradient id="paint51_linear" x1="220.473" y1="-5.99452" x2="263.704" y2="48.6754" gradientUnits="userSpaceOnUse">
<stop stop-color="#D275F9"/>
<stop offset="1" stop-color="#8D1EC2"/>
</linearGradient>
<linearGradient id="paint52_linear" x1="172.673" y1="-5.76729" x2="211.36" y2="59.396" gradientUnits="userSpaceOnUse">
<stop stop-color="#D275F9"/>
<stop offset="1" stop-color="#8D1EC2"/>
</linearGradient>
<linearGradient id="paint53_linear" x1="208.397" y1="-6.41117" x2="253.65" y2="40.9603" gradientUnits="userSpaceOnUse">
<stop stop-color="#D275F9"/>
<stop offset="1" stop-color="#8D1EC2"/>
</linearGradient>
<linearGradient id="paint54_linear" x1="203.722" y1="-5.982" x2="244.004" y2="19.7339" gradientUnits="userSpaceOnUse">
<stop stop-color="#D275F9"/>
<stop offset="1" stop-color="#8D1EC2"/>
</linearGradient>
</defs>
</svg>
