<svg width="46" height="46" viewBox="0 0 46 46" fill="none" xmlns="http://www.w3.org/2000/svg">
<g clip-path="url(#clip0)">
<path d="M16.9644 9.88001C16.9644 15.3278 21.4052 19.7604 26.8637 19.7604C32.3222 19.7604 36.763 15.3278 36.763 9.88001C36.763 4.43218 32.3222 0 26.8637 0C21.4052 0 16.9644 4.43218 16.9644 9.88001ZM34.9633 9.88001C34.9633 14.3375 31.3299 17.9638 26.8637 17.9638C22.3975 17.9638 18.764 14.3375 18.764 9.88001C18.764 5.42291 22.3975 1.79652 26.8637 1.79652C31.3299 1.79652 34.9633 5.42291 34.9633 9.88001Z" fill="white"/>
<path d="M10.4108 45.734C10.7596 46.0849 11.3275 46.0888 11.6809 45.7414L16.0441 41.4513C16.7853 40.7115 17.0107 39.6162 16.6847 38.664L17.6233 37.7607C18.1286 37.2736 18.7939 37.0051 19.4972 37.0051H31.461C33.5835 37.0051 35.5896 36.1916 37.1104 34.7144C37.173 34.6537 36.6353 35.2858 45.2723 24.9832C46.5533 23.4706 46.3617 21.1993 44.8447 19.9193C43.3372 18.6513 41.079 18.8335 39.7945 20.3201L34.484 25.7676C33.8134 24.9439 32.7909 24.4305 31.686 24.4305H21.6506C20.2226 23.8342 18.7074 23.5324 17.144 23.5324C12.8104 23.5324 9.0264 25.53 6.99568 29.2754C6.14014 29.1136 5.23784 29.3719 4.58871 30.0197L0.307509 34.3052C-0.0420203 34.6551 -0.0427235 35.2212 0.306102 35.5722L10.4108 45.734ZM17.1436 25.3286C18.5221 25.3286 19.8548 25.6055 21.1055 26.1515C21.2195 26.2014 21.3422 26.227 21.4663 26.227H31.686C32.6618 26.227 33.4861 27.0212 33.4861 28.0232C33.4861 29.0139 32.6787 29.8197 31.686 29.8197H24.3434C23.8466 29.8197 23.4436 30.2219 23.4436 30.7178C23.4436 31.214 23.8466 31.6159 24.3434 31.6159H31.686C33.671 31.6159 35.2857 30.0043 35.2857 28.0232C35.2857 27.8652 35.2745 27.7087 35.2541 27.5536C40.3912 22.2833 41.1156 21.5428 41.1465 21.506C41.7879 20.7504 42.9265 20.6546 43.6839 21.2919C44.4421 21.9317 44.5381 23.0674 43.8949 23.8272L35.823 33.458C34.6444 34.5874 33.0968 35.2089 31.461 35.2089H19.4972C18.3248 35.2089 17.215 35.6564 16.3732 36.4681L15.6084 37.2048L8.55801 30.1685C10.2058 27.0833 13.2978 25.3286 17.1436 25.3286ZM5.86235 31.2891C6.15913 30.9929 6.61486 30.9396 6.97669 31.1628C7.13247 31.2575 6.68518 30.8511 14.7715 38.9104C15.1312 39.2694 15.1119 39.8415 14.7764 40.1763L11.0568 43.8336L2.2141 34.9408L5.86235 31.2891Z" fill="white"/>
<path d="M25.7838 4.49121V5.54372C24.7363 5.91432 23.9838 6.91278 23.9838 8.08391C23.9838 9.56949 25.1948 10.7785 26.6837 10.7785C27.1798 10.7785 27.5835 11.1814 27.5835 11.6766C27.5835 12.1718 27.1798 12.5747 26.6837 12.5747C26.2993 12.5747 25.8841 12.3336 25.5152 11.8953C25.1952 11.5155 24.6276 11.4667 24.2472 11.7858C23.8667 12.1051 23.8175 12.6716 24.1375 13.0513C24.6185 13.6223 25.1843 14.0203 25.7838 14.221V15.2693C25.7838 15.7656 26.1868 16.1674 26.6837 16.1674C27.1805 16.1674 27.5835 15.7656 27.5835 15.2693V14.2168C28.6311 13.8458 29.3836 12.8474 29.3836 11.6766C29.3836 10.1907 28.1725 8.982 26.6837 8.982C26.1875 8.982 25.7838 8.5791 25.7838 8.08391C25.7838 7.58872 26.1875 7.18547 26.6837 7.18547C27.0026 7.18547 27.3391 7.34796 27.657 7.65505C28.0143 8.00003 28.5839 7.99056 28.9296 7.63434C29.2753 7.27777 29.2658 6.70923 28.9089 6.36424C28.4521 5.9231 27.9949 5.67357 27.5835 5.5374V4.49121C27.5835 3.99496 27.1805 3.59277 26.6837 3.59277C26.1868 3.59277 25.7838 3.99496 25.7838 4.49121Z" fill="white"/>
</g>
<defs>
<clipPath id="clip0">
<rect width="46" height="46" fill="white"/>
</clipPath>
</defs>
</svg>
