<svg width="21" height="19" viewBox="0 0 21 19" fill="none" xmlns="http://www.w3.org/2000/svg">
<path d="M0.00446488 13.5718C0.00446488 16.3327 2.24251 18.5708 5.0034 18.5708C7.76433 18.5708 10.0024 16.3327 10.0024 13.5718C10.0024 10.8109 7.76433 8.57287 5.0034 8.57287C4.43599 8.57287 3.89285 8.67179 3.38439 8.8461C4.50936 2.39407 9.5407 -1.76675 4.87666 1.65769C-0.295049 5.45501 -0.00107401 13.419 0.00471289 13.565C0.00471289 13.5673 0.00446488 13.5693 0.00446488 13.5718Z" fill="#CE0C23"/>
<path d="M11.0015 13.5718C11.0015 16.3327 13.2396 18.5708 16.0005 18.5708C18.7614 18.5708 20.9995 16.3327 20.9995 13.5718C20.9995 10.8109 18.7614 8.57287 16.0005 8.57287C15.433 8.57287 14.8899 8.67179 14.3815 8.8461C15.5064 2.39407 20.5378 -1.76675 15.8737 1.65769C10.702 5.45501 10.996 13.419 11.0018 13.565C11.0018 13.5673 11.0015 13.5693 11.0015 13.5718Z" fill="#CE0C23"/>
</svg>
