<svg width="42" height="44" viewBox="0 0 42 44" fill="none" xmlns="http://www.w3.org/2000/svg">
<g clip-path="url(#clip0)">
<path d="M38.8402 11.9922L38.839 11.9587C38.8207 11.5457 38.8085 11.1087 38.8011 10.6225C38.7669 8.25161 36.926 6.29045 34.6099 6.15791C29.7809 5.88201 26.0453 4.26991 22.8535 1.08474L22.8262 1.05817C21.7852 0.0808703 20.2147 0.0808703 19.1733 1.05817L19.1461 1.08474C15.9542 4.26991 12.2186 5.88201 7.38967 6.15824C5.07389 6.29045 3.23268 8.25161 3.19839 10.6228C3.19135 11.1058 3.17885 11.5427 3.16058 11.9587L3.15866 12.0365C3.06477 17.0778 2.94814 23.352 4.99827 29.0469C6.12556 32.1786 7.83283 34.9008 10.0723 37.1385C12.623 39.6869 15.9638 41.7101 20.0019 43.1516C20.1333 43.1985 20.2698 43.2366 20.4089 43.2651C20.605 43.3051 20.8024 43.3252 20.9998 43.3252C21.1972 43.3252 21.3949 43.3051 21.5906 43.2651C21.7297 43.2366 21.8672 43.1982 21.9992 43.151C26.0325 41.7068 29.3698 39.6827 31.9182 37.1346C34.1568 34.8962 35.864 32.1733 36.9923 29.041C39.0501 23.3291 38.9338 17.043 38.8402 11.9922ZM34.68 28.168C32.5178 34.1702 28.1038 38.2923 21.1859 40.7692C21.1613 40.7777 21.135 40.7853 21.1078 40.7909C21.0363 40.8053 20.9636 40.8053 20.8911 40.7905C20.8642 40.785 20.8379 40.7777 20.8136 40.7692C13.8884 38.2969 9.47153 34.1771 7.31084 28.1746C5.42124 22.9252 5.52827 17.1657 5.6228 12.0847L5.62344 12.0565C5.64266 11.6198 5.65548 11.1625 5.66253 10.6599C5.67791 9.60717 6.49694 8.73616 7.52713 8.67743C10.2598 8.52128 12.6605 7.98063 14.8663 7.02465C17.0693 6.06999 19.0259 4.72428 20.8472 2.91074C20.9398 2.83069 21.06 2.83037 21.1523 2.91074C22.974 4.72428 24.9305 6.06999 27.1332 7.02465C29.3391 7.98063 31.7397 8.52128 34.4727 8.67743C35.5029 8.73616 36.3219 9.60717 36.337 10.6602C36.3444 11.1655 36.3572 11.6228 36.3764 12.0565C36.4706 17.1434 36.5751 22.9075 34.68 28.168Z" fill="white"/>
<path d="M20.9992 11.1094C15.2276 11.1094 10.5322 15.9168 10.5322 21.8256C10.5322 27.7347 15.2276 32.5421 20.9992 32.5421C26.7706 32.5421 31.4662 27.7347 31.4662 21.8256C31.4662 15.9168 26.7706 11.1094 20.9992 11.1094ZM20.9992 30.0187C16.5865 30.0187 12.9967 26.3434 12.9967 21.8256C12.9967 17.3078 16.5865 13.6325 20.9992 13.6325C25.4116 13.6325 29.0014 17.3078 29.0014 21.8256C29.0014 26.3434 25.4116 30.0187 20.9992 30.0187Z" fill="white"/>
<path d="M24.0074 18.4987L19.1458 23.4761L17.8262 22.1251C17.3449 21.6324 16.5647 21.6324 16.0834 22.1251C15.6024 22.6179 15.6024 23.4167 16.0834 23.9091L18.2745 26.1524C18.5152 26.3988 18.8305 26.5218 19.1458 26.5218C19.4611 26.5218 19.7764 26.3988 20.017 26.1524L25.7503 20.2827C26.2312 19.79 26.2312 18.9911 25.7503 18.4987C25.269 18.0056 24.4887 18.0056 24.0074 18.4987Z" fill="white"/>
</g>
<defs>
<clipPath id="clip0">
<rect width="42" height="43" fill="white" transform="translate(-0.000488281 0.325195)"/>
</clipPath>
</defs>
</svg>
