<svg width="20" height="20" viewBox="0 0 20 20" fill="none" xmlns="http://www.w3.org/2000/svg">
<g clip-path="url(#clip0)">
<path d="M10.3574 19.988C11.8868 19.7707 13.2276 18.1745 14.0712 15.8171C12.8516 15.5439 11.6071 15.3973 10.3574 15.3799V19.988Z" fill="#454545"/>
<path d="M12.8009 19.6133C12.8913 19.5871 12.9814 19.5608 13.0707 19.5318C13.1461 19.5076 13.2205 19.4814 13.2948 19.4554C13.3828 19.425 13.4704 19.3938 13.5577 19.3606C13.632 19.3323 13.7057 19.3023 13.7795 19.2723C13.8647 19.2365 13.9497 19.2009 14.0338 19.1651C14.1073 19.1328 14.1802 19.099 14.2532 19.065C14.3357 19.026 14.4179 18.9864 14.4994 18.9452C14.571 18.9087 14.6424 18.8716 14.7139 18.8334C14.794 18.7904 14.8736 18.7466 14.9527 18.7016C15.0242 18.6611 15.0932 18.6204 15.1628 18.5785C15.2403 18.5309 15.3174 18.4832 15.3941 18.4356C15.4626 18.392 15.5311 18.3476 15.5986 18.3019C15.674 18.2511 15.7484 18.1982 15.8224 18.1454C15.8888 18.0977 15.955 18.0502 16.0199 18.0024C16.0915 17.9473 16.1648 17.8902 16.2365 17.8329C16.3002 17.7822 16.3637 17.7317 16.4264 17.6795C16.4978 17.6202 16.5662 17.5588 16.6355 17.4973C16.6962 17.4434 16.7573 17.39 16.8166 17.3347C16.8849 17.271 16.9514 17.205 17.0179 17.1395C17.0755 17.0826 17.1338 17.0266 17.1901 16.9683C17.2006 16.9575 17.2106 16.9458 17.2214 16.9346C16.4418 16.532 15.6206 16.2159 14.7722 15.9922C14.331 17.3992 13.5458 18.6744 12.4878 19.7016C12.5168 19.6941 12.5457 19.688 12.5747 19.6805C12.6512 19.6591 12.7262 19.6355 12.8009 19.6133Z" fill="#454545"/>
<path d="M20.0001 10.3652H15.7144C15.6981 12.0386 15.4554 13.7021 14.9927 15.3104C15.9362 15.5624 16.8467 15.9247 17.7054 16.3898C19.1152 14.6906 19.9223 12.572 20.0001 10.3652Z" fill="#454545"/>
<path d="M10.3574 9.65103H14.9994C14.9812 8.03681 14.7444 6.43253 14.2957 4.88184C13.0031 5.17662 11.683 5.33404 10.3574 5.35149V9.65103Z" fill="#454545"/>
<path d="M10.3574 0.0283203V4.63642C11.6071 4.6188 12.8516 4.47237 14.0712 4.19923C13.2276 1.84186 11.8868 0.24561 10.3574 0.0283203Z" fill="#454545"/>
<path d="M10.3574 14.6648C11.683 14.6824 13.0031 14.8398 14.2957 15.1346C14.7444 13.5839 14.9812 11.9795 14.9994 10.3652H10.3574V14.6648Z" fill="#454545"/>
<path d="M17.7054 3.62598C16.8467 4.0911 15.9362 4.45342 14.9927 4.70544C15.4554 6.31373 15.6981 7.97717 15.7144 9.65056H20.0001C19.9221 7.44399 19.1151 5.32537 17.7054 3.62598Z" fill="#454545"/>
<path d="M17.2227 3.0835C17.2122 3.07285 17.2023 3.06134 17.192 3.05034C17.1354 2.99205 17.0768 2.93585 17.0192 2.87913C16.9529 2.81368 16.8867 2.74753 16.8183 2.684C16.7592 2.62885 16.6979 2.57667 16.6372 2.52169C16.5679 2.46026 16.4986 2.3983 16.4274 2.33896C16.3656 2.28677 16.3022 2.23686 16.2394 2.18677C16.1679 2.12882 16.0946 2.07123 16.0209 2.0159C15.9563 1.96721 15.8909 1.92009 15.8251 1.87296C15.7504 1.81921 15.6753 1.76563 15.5992 1.71449C15.5324 1.66946 15.4645 1.62548 15.3966 1.58237C15.3193 1.53263 15.2422 1.48394 15.1634 1.43682C15.0945 1.39545 15.0249 1.35461 14.955 1.31499C14.8751 1.26927 14.795 1.22494 14.7142 1.18165C14.6426 1.14587 14.5713 1.10695 14.4997 1.07118C14.4175 1.02964 14.3346 0.98967 14.2496 0.950401C14.178 0.916368 14.1054 0.883207 14.0318 0.850919C13.9471 0.813396 13.8616 0.779537 13.7763 0.743758C13.7026 0.713739 13.6293 0.684069 13.555 0.655796C13.4682 0.622635 13.3803 0.591569 13.2923 0.561201C13.218 0.535021 13.1436 0.509016 13.0682 0.484582C12.9789 0.45561 12.8895 0.429256 12.7977 0.402728C12.7233 0.380912 12.6486 0.358746 12.5734 0.33885C12.5446 0.330996 12.5153 0.324888 12.4863 0.317383C13.5443 1.34466 14.3294 2.6196 14.7707 4.02683C15.62 3.80309 16.4424 3.48684 17.2227 3.0835Z" fill="#454545"/>
<path d="M0 9.65056H4.28575C4.30198 7.97717 4.54475 6.31373 5.00725 4.70544C4.06392 4.4536 3.1534 4.09127 2.29471 3.62598C0.884865 5.3252 0.0778402 7.44399 0 9.65056Z" fill="#454545"/>
<path d="M9.64252 19.988V15.3799C8.39289 15.3975 7.14832 15.5439 5.92871 15.8171C6.77221 18.1745 8.11312 19.7707 9.64252 19.988Z" fill="#454545"/>
<path d="M9.64245 10.3652H5.00049C5.01864 11.9795 5.2553 13.5839 5.70419 15.1346C6.99676 14.8396 8.31673 14.6822 9.64245 14.6648V10.3652Z" fill="#454545"/>
<path d="M9.64252 0.0283203C8.11312 0.24561 6.77221 1.84186 5.92871 4.19923C7.14832 4.47254 8.39289 4.61897 9.64252 4.63642V0.0283203Z" fill="#454545"/>
<path d="M9.64245 5.35149C8.3169 5.33404 6.99676 5.17662 5.70419 4.88184C5.2553 6.43253 5.01864 8.03681 5.00049 9.65103H9.64245V5.35149Z" fill="#454545"/>
<path d="M7.51086 0.317383C7.48189 0.324888 7.45292 0.330996 7.42395 0.338501C7.3482 0.358746 7.2735 0.381261 7.19811 0.403077C7.1084 0.429256 7.01939 0.45561 6.92933 0.484233C6.85341 0.508842 6.77871 0.535021 6.70401 0.561026C6.61657 0.591918 6.52896 0.622635 6.44239 0.655446C6.36769 0.684069 6.29404 0.713739 6.22004 0.744107C6.13505 0.779886 6.04988 0.815665 5.96593 0.851269C5.89228 0.883557 5.8195 0.917415 5.74654 0.951449C5.66399 0.990369 5.58179 1.02999 5.50028 1.07118C5.42873 1.10765 5.35717 1.145 5.28579 1.18305C5.20568 1.22598 5.12627 1.26996 5.04738 1.31499C4.97582 1.35496 4.90549 1.39598 4.83655 1.43786C4.75888 1.48464 4.68209 1.53298 4.60564 1.5808C4.53688 1.62478 4.46864 1.66911 4.4011 1.71484C4.3257 1.76563 4.25135 1.81851 4.17735 1.87139C4.11085 1.91904 4.04471 1.96651 3.97961 2.01451C3.90648 2.06948 3.83667 2.12673 3.76302 2.1838C3.69949 2.23459 3.63543 2.28503 3.5733 2.33756C3.50175 2.39655 3.43385 2.45764 3.36491 2.51872C3.30383 2.57318 3.24222 2.62606 3.18253 2.68243C3.11464 2.74579 3.04849 2.81158 2.98217 2.87686C2.92458 2.93375 2.86593 2.98995 2.80939 3.04842C2.79909 3.05924 2.78914 3.07111 2.77832 3.0821C3.55777 3.48492 4.37911 3.80099 5.22749 4.02474C5.6687 2.61838 6.45339 1.34414 7.51086 0.317383Z" fill="#454545"/>
<path d="M2.98081 17.1372C3.0473 17.2027 3.11345 17.2688 3.18169 17.3325C3.24103 17.3875 3.30212 17.4397 3.36303 17.4947C3.43232 17.5563 3.5016 17.6181 3.57281 17.6774C3.6346 17.7292 3.6976 17.7793 3.76078 17.8296C3.83234 17.8875 3.90372 17.9451 3.97947 18.0008C4.04387 18.0492 4.10932 18.0959 4.17476 18.1439C4.24946 18.1975 4.32486 18.2511 4.40096 18.3026C4.4678 18.3476 4.53569 18.3916 4.60358 18.4349C4.6809 18.4844 4.75804 18.5331 4.83676 18.5803C4.90569 18.6218 4.97533 18.6625 5.04514 18.7023C5.12508 18.748 5.20519 18.7923 5.286 18.8354C5.35738 18.8712 5.42893 18.9101 5.50049 18.9459C5.5827 18.9874 5.6656 19.0274 5.75059 19.0668C5.82215 19.1005 5.89475 19.1337 5.96841 19.1662C6.05305 19.2037 6.1384 19.2375 6.22392 19.2733C6.29757 19.3033 6.37087 19.333 6.44522 19.3613C6.53196 19.3946 6.61992 19.4257 6.70789 19.456C6.78224 19.4821 6.85659 19.5082 6.93198 19.5325C7.02134 19.5615 7.1107 19.588 7.2025 19.6143C7.27685 19.6362 7.35155 19.6583 7.4266 19.6784C7.45557 19.6863 7.48489 19.6924 7.51387 19.6999C6.45587 18.6724 5.67083 17.3975 5.22945 15.9902C4.38106 16.2142 3.55972 16.5302 2.78027 16.9332C2.79075 16.9439 2.80069 16.9554 2.81117 16.9664C2.86475 17.0243 2.92252 17.0805 2.98081 17.1372Z" fill="#454545"/>
<path d="M2.29471 16.3898C3.1534 15.9247 4.06392 15.5624 5.00725 15.3104C4.54475 13.7021 4.30198 12.0386 4.28575 10.3652H0C0.0780147 12.5718 0.884865 14.6904 2.29471 16.3898Z" fill="#454545"/>
</g>
<defs>
<clipPath id="clip0">
<rect width="20" height="20" fill="white"/>
</clipPath>
</defs>
</svg>
