<svg width="55" height="55" viewBox="0 0 55 55" fill="none" xmlns="http://www.w3.org/2000/svg">
<g clip-path="url(#clip0)">
<path d="M51.4256 31.1744V30.2984H53.1776V32.0505H52.3017C51.8187 32.0505 51.4256 31.6574 51.4256 31.1744ZM51.2308 24.7653L49.8463 19.2273C50.2299 19.1012 50.5071 18.7404 50.5071 18.3144V17.3959C50.5071 15.3462 48.8397 13.679 46.7902 13.679H40.4028V11.8843C40.4028 10.8476 39.5596 10.0045 38.523 10.0045H5.45402C4.41739 10.0045 3.57426 10.8476 3.57426 11.8843V27.5002C3.57426 28.031 4.00456 28.4614 4.53546 28.4614C5.06624 28.4614 5.49666 28.0311 5.49666 27.5002V11.9269H38.4802V27.5004C38.4802 28.0312 38.9105 28.4616 39.4414 28.4616C39.9722 28.4616 40.4026 28.0313 40.4026 27.5004V26.6241H50.457C50.459 26.6243 50.4612 26.6244 50.4637 26.6244C50.4655 26.6244 50.4672 26.6243 50.4685 26.6243C51.624 26.6261 52.6125 27.3543 53.0011 28.3762H50.4643C49.9335 28.3762 49.5031 28.8065 49.5031 29.3374V31.1745C49.5031 32.7177 50.7583 33.9729 52.3015 33.9729H53.1775V37.562H51.0964C50.3242 35.4223 48.2746 33.8876 45.8714 33.8876C43.4682 33.8876 41.4184 35.4222 40.6464 37.562H40.4024V31.1744C40.4024 30.6437 39.9721 30.2132 39.4412 30.2132C38.9104 30.2132 38.48 30.6435 38.48 31.1744V37.5618H20.7835C20.0113 35.422 17.9616 33.8874 15.5584 33.8874C13.1553 33.8874 11.1055 35.422 10.3334 37.5618H5.49666V35.8098H9.12839C9.65917 35.8098 10.0896 35.3795 10.0896 34.8486C10.0896 34.3177 9.65928 33.8874 9.12839 33.8874H0.861201C0.330424 33.8874 -0.1 34.3177 -0.1 34.8486C-0.1 35.3795 0.330309 35.8098 0.861201 35.8098H3.57437V37.6044C3.57437 38.641 4.4175 39.4842 5.45413 39.4842H10.0046C10.0276 42.5272 12.5102 44.9955 15.5584 44.9955C18.6067 44.9955 21.0893 42.5272 21.1123 39.4842H40.3175C40.3405 42.5272 42.8231 44.9955 45.8714 44.9955C48.9197 44.9955 51.4023 42.5272 51.4253 39.4842H54.1387C54.6695 39.4842 55.0999 39.0538 55.0999 38.5229V29.3372C55.1 27.042 53.4235 25.1316 51.2308 24.7653ZM40.4028 15.6013H46.7902C47.7654 15.6013 48.5615 16.3834 48.5843 17.3532H40.4028V15.6013ZM40.4028 24.7018V19.2755H47.8769L49.2335 24.7018H40.4028ZM15.5584 43.0735C13.556 43.0735 11.9267 41.4443 11.9267 39.4417C11.9267 37.4392 13.556 35.81 15.5584 35.81C17.5609 35.81 19.1902 37.4392 19.1902 39.4417C19.1902 41.4443 17.5609 43.0735 15.5584 43.0735ZM45.8716 43.0735C43.8692 43.0735 42.2399 41.4443 42.2399 39.4417C42.2399 37.4392 43.8692 35.81 45.8716 35.81C47.8741 35.81 49.5033 37.4392 49.5033 39.4417C49.5033 41.4443 47.8741 43.0735 45.8716 43.0735Z" fill="white" stroke="white" stroke-width="0.2"/>
<path d="M15.5586 37.5621C14.5219 37.5621 13.6788 38.4052 13.6788 39.4419C13.6788 40.4785 14.5219 41.3216 15.5586 41.3216C16.5952 41.3216 17.4383 40.4785 17.4383 39.4419C17.4383 38.4052 16.5952 37.5621 15.5586 37.5621Z" fill="white" stroke="white" stroke-width="0.2"/>
<path d="M45.8716 37.5621C44.8349 37.5621 43.9918 38.4052 43.9918 39.4419C43.9918 40.4785 44.8349 41.3216 45.8716 41.3216C46.9082 41.3216 47.7513 40.4785 47.7513 39.4419C47.7513 38.4052 46.9082 37.5621 45.8716 37.5621Z" fill="white" stroke="white" stroke-width="0.2"/>
<path d="M35.7672 33.8873H22.9071C22.3763 33.8873 21.9459 34.3176 21.9459 34.8485C21.9459 35.3794 22.3762 35.8097 22.9071 35.8097H35.7672C36.298 35.8097 36.7284 35.3794 36.7284 34.8485C36.7284 34.3176 36.2981 33.8873 35.7672 33.8873Z" fill="white" stroke="white" stroke-width="0.2"/>
<path d="M13.7216 30.2135H2.6986C2.16783 30.2135 1.7374 30.6438 1.7374 31.1747C1.7374 31.7056 2.16771 32.1359 2.6986 32.1359H13.7216C14.2524 32.1359 14.6828 31.7056 14.6828 31.1747C14.6828 30.6438 14.2524 30.2135 13.7216 30.2135Z" fill="white" stroke="white" stroke-width="0.2"/>
<path d="M30.0166 18.5525L30.0167 18.5526C30.3919 18.9279 30.3919 19.5364 30.0166 19.9119L30.0165 19.9119L21.7494 28.1791L30.0166 18.5525ZM30.0166 18.5525C29.6414 18.1773 29.0327 18.1773 28.6574 18.5526M30.0166 18.5525L28.6574 18.5526M28.6574 18.5526C28.6574 18.5527 28.6574 18.5527 28.6574 18.5527M28.6574 18.5526L28.6574 18.5527M28.6574 18.5527L21.0698 26.1402L17.1565 22.2269C16.7811 21.8515 16.1725 21.8515 15.7973 22.2269C15.4219 22.6023 15.4219 23.2108 15.7973 23.5862L20.3902 28.1791C20.3902 28.1791 20.3902 28.1791 20.3902 28.1791C20.5778 28.3669 20.824 28.4606 21.0698 28.4606C21.3155 28.4606 21.5618 28.3669 21.7494 28.1791L28.6574 18.5527Z" fill="white" stroke="white" stroke-width="0.2"/>
</g>
<defs>
<clipPath id="clip0">
<rect width="55" height="55" fill="white"/>
</clipPath>
</defs>
</svg>
