<svg width="98" height="89" viewBox="0 0 98 89" fill="none" xmlns="http://www.w3.org/2000/svg">
<path d="M60.8712 34.5478L60.8376 34.5196L53.1822 43.7111C53.8739 44.2915 54.5603 44.8946 55.2242 45.5009L63.2918 36.6673C62.5043 35.9487 61.6903 35.2351 60.8712 34.5478Z" fill="#1AFD31"/>
<path d="M48.7828 40.3356L55.6515 30.5397C54.7571 29.9132 53.8433 29.3029 52.9326 28.7205L46.4983 38.8071C47.2628 39.2942 48.0321 39.8073 48.7828 40.3356Z" fill="#1AFD31"/>
<path d="M70.0859 43.7384C69.386 42.9066 68.6574 42.0831 67.9228 41.2849L59.1188 49.3833C59.737 50.053 60.3467 50.7469 60.9371 51.4462L70.0859 43.7384Z" fill="#1AFD31"/>
<path d="M41.7406 36.0563L47.2681 25.4462C46.3045 24.9433 45.3182 24.4569 44.3324 23.9966L39.2768 34.8398C40.1019 35.2264 40.9317 35.6339 41.7406 36.0563Z" fill="#1AFD31"/>
<path d="M75.8993 51.6453C75.3131 50.7291 74.7015 49.8121 74.0764 48.9241L64.2895 55.8007C64.8114 56.5444 65.3265 57.3123 65.8164 58.0824L75.8993 51.6453Z" fill="#1AFD31"/>
<path d="M34.1996 32.7358L38.2885 21.4963C37.2729 21.126 36.2305 20.7742 35.1927 20.4485L31.6074 31.8583C32.4777 32.1333 33.3479 32.429 34.1996 32.7358Z" fill="#1AFD31"/>
<path d="M80.6303 60.2531C80.1671 59.2634 79.6802 58.2737 79.1768 57.3112L68.5687 62.8419C68.9912 63.6477 69.4005 64.4791 69.7876 65.309L80.6303 60.2531Z" fill="#1AFD31"/>
<path d="M26.2988 30.4431L28.8724 18.7586C27.8099 18.5278 26.7312 18.3139 25.6691 18.1268L23.6051 29.9095C24.4978 30.066 25.4033 30.2451 26.2988 30.4431Z" fill="#1AFD31"/>
<path d="M84.1843 69.4019C83.8571 68.365 83.5044 67.3205 83.1345 66.3021L71.8909 70.387C72.2014 71.2456 72.4988 72.1252 72.775 72.9989L84.1843 69.4019Z" fill="#1AFD31"/>
<path d="M18.155 29.1961L19.184 17.2787C18.1004 17.1842 17.004 17.115 15.9221 17.0668L15.4124 29.021C16.3186 29.0596 17.2435 29.1172 18.155 29.1961Z" fill="#1AFD31"/>
<path d="M86.5147 78.9324C86.3295 77.8684 86.1138 76.7897 85.8784 75.7227L74.1977 78.3083C74.3974 79.2061 74.5772 80.1145 74.7341 81.0085L86.5147 78.9324Z" fill="#1AFD31"/>
<path d="M9.90877 29.0232L9.3868 17.0723C8.30529 17.1208 7.20614 17.192 6.12204 17.2876L7.16395 29.2062C8.07728 29.1252 8.99985 29.0619 9.90877 29.0232Z" fill="#1AFD31"/>
</svg>
