<svg width="21" height="22" viewBox="0 0 21 22" fill="none" xmlns="http://www.w3.org/2000/svg">
<path d="M20.0787 5.33457L20.0726 5.30963C19.5812 3.27074 17.3657 1.08289 15.3312 0.627723L15.3082 0.622873C12.0174 -0.0214264 8.68075 -0.0214264 5.39065 0.622873L5.36702 0.627723C3.33315 1.08289 1.1177 3.27074 0.625598 5.30963L0.620197 5.33457C0.0126687 8.18196 0.0126687 11.0695 0.620197 13.9169L0.625598 13.9419C1.0967 15.8937 3.14718 17.9811 5.10578 18.5551V20.8311C5.10578 21.6548 6.0839 22.0594 6.64013 21.465L8.88697 19.068C9.37428 19.096 9.86185 19.1116 10.3494 19.1116C12.006 19.1116 13.6632 18.9508 15.3082 18.6287L15.3312 18.6238C17.3657 18.1687 19.5812 15.9808 20.0726 13.9419L20.0787 13.917C20.6862 11.0695 20.6862 8.18196 20.0787 5.33457ZM18.3006 13.504C17.9726 14.8342 16.2904 16.4879 14.9538 16.7934C13.2041 17.1349 11.4405 17.2809 9.67865 17.2308C9.64362 17.2298 9.60993 17.2437 9.58549 17.2695C9.33546 17.5329 7.94497 18.9979 7.94497 18.9979L6.20001 20.8359C6.07243 20.9723 5.84832 20.8795 5.84832 20.6911V16.9207C5.84832 16.8585 5.80498 16.8055 5.74538 16.7935C5.74504 16.7935 5.7447 16.7934 5.74436 16.7933C4.4078 16.4878 2.7263 14.8341 2.39756 13.5039C1.85078 10.9302 1.85078 8.32114 2.39756 5.74741C2.7263 4.41724 4.4078 2.76354 5.74436 2.45802C8.80023 1.86152 11.8986 1.86152 14.9538 2.45802C16.2911 2.76354 17.9726 4.41724 18.3006 5.74741C18.848 8.32121 18.848 10.9303 18.3006 13.504Z" fill="white"/>
<path d="M13.257 15.2444C13.0515 15.1804 12.8557 15.1374 12.6738 15.0599C10.7894 14.2575 9.05509 13.2224 7.68134 11.6355C6.90012 10.7331 6.28868 9.71438 5.77181 8.63625C5.5267 8.12497 5.32014 7.59366 5.1096 7.06582C4.91762 6.58447 5.20039 6.08718 5.49815 5.7245C5.77754 5.38413 6.13707 5.12364 6.52642 4.93167C6.83032 4.78181 7.13011 4.8682 7.35206 5.13258C7.83187 5.70413 8.2726 6.30492 8.62948 6.96744C8.84894 7.37495 8.78873 7.87307 8.391 8.15039C8.29433 8.2178 8.20624 8.29692 8.11619 8.37306C8.03721 8.43977 7.96289 8.50718 7.90875 8.59752C7.80979 8.76282 7.80507 8.95778 7.86879 9.13749C8.35927 10.5209 9.18598 11.5966 10.5427 12.176C10.7597 12.2686 10.9778 12.3766 11.2279 12.3467C11.6467 12.2964 11.7824 11.8249 12.0759 11.5786C12.3627 11.3378 12.7294 11.3346 13.0384 11.5353C13.3475 11.7361 13.6471 11.9516 13.945 12.1694C14.2373 12.3832 14.5284 12.5924 14.7981 12.8361C15.0573 13.0705 15.1466 13.378 15.0006 13.696C14.7333 14.2785 14.3444 14.7631 13.7833 15.0725C13.6249 15.1597 13.4356 15.1879 13.257 15.2444C13.4356 15.1879 13.0515 15.1803 13.257 15.2444Z" fill="white"/>
<path d="M10.3545 4.2657C12.8194 4.33657 14.8439 6.01543 15.2777 8.51642C15.3517 8.94256 15.378 9.37826 15.4109 9.81077C15.4247 9.9927 15.3243 10.1655 15.133 10.1679C14.9354 10.1703 14.8465 10.0007 14.8337 9.81881C14.8083 9.45883 14.7907 9.09726 14.7424 8.74026C14.4872 6.85579 13.0231 5.29672 11.1954 4.96217C10.9204 4.9118 10.6389 4.89857 10.3603 4.86857C10.1842 4.84959 9.95358 4.83864 9.91456 4.61397C9.88182 4.4256 10.0367 4.27561 10.2115 4.26598C10.259 4.26328 10.3068 4.26549 10.3545 4.2657C10.3068 4.26549 12.8194 4.33657 10.3545 4.2657Z" fill="white"/>
<path d="M14.0998 9.24892C14.0958 9.28052 14.0936 9.35478 14.0756 9.42476C14.0102 9.67873 13.635 9.71053 13.5486 9.4542C13.523 9.37813 13.5192 9.2916 13.519 9.20971C13.5182 8.6739 13.4047 8.13865 13.1414 7.67247C12.8708 7.19333 12.4574 6.79054 11.9724 6.54681C11.6792 6.39946 11.362 6.30787 11.0407 6.25328C10.9002 6.22945 10.7582 6.21497 10.6171 6.1948C10.446 6.17042 10.3547 6.05853 10.3628 5.88554C10.3704 5.72343 10.4858 5.60683 10.6579 5.61681C11.2236 5.64978 11.77 5.77525 12.2729 6.04856C13.2955 6.60439 13.8797 7.48174 14.0502 8.65326C14.0579 8.70633 14.0703 8.75891 14.0743 8.81219C14.0839 8.94375 14.09 9.07545 14.0998 9.24892C14.09 9.07545 14.0958 9.28052 14.0998 9.24892Z" fill="white"/>
<path d="M12.5673 9.18755C12.361 9.19136 12.2507 9.07421 12.2294 8.88016C12.2146 8.74485 12.203 8.60775 12.1715 8.47612C12.1095 8.21687 11.9753 7.97661 11.7628 7.81775C11.6625 7.74272 11.5488 7.68806 11.4297 7.6528C11.2784 7.60797 11.1214 7.62031 10.9704 7.58234C10.8065 7.54112 10.7159 7.40492 10.7416 7.2471C10.7651 7.10348 10.9012 6.99138 11.0541 7.00275C12.0098 7.07355 12.6928 7.58061 12.7902 8.73522C12.7971 8.8167 12.8052 8.90281 12.7876 8.98075C12.7574 9.11418 12.6612 9.18104 12.5673 9.18755C12.6612 9.18104 12.361 9.19136 12.5673 9.18755Z" fill="white"/>
</svg>
