<svg width="22" height="23" viewBox="0 0 22 23" fill="none" xmlns="http://www.w3.org/2000/svg">
<g clip-path="url(#clip0)">
<path fill-rule="evenodd" clip-rule="evenodd" d="M18.1093 4.00424C16.2206 2.06355 13.7087 0.994302 11.0327 0.993164C5.51863 0.993164 1.03096 5.59881 1.02874 11.2595C1.028 13.0691 1.48859 14.8355 2.36407 16.3925L0.944824 21.7128L6.2481 20.2851C7.70937 21.1032 9.35448 21.5343 11.0287 21.5348H11.0329C16.5463 21.5348 21.0345 16.9287 21.0366 11.2678C21.0377 8.52428 19.9981 5.94482 18.1093 4.00424ZM11.0327 19.8008H11.0293C9.53734 19.8002 8.0741 19.3887 6.79729 18.6113L6.4938 18.4263L3.34676 19.2736L4.18675 16.1246L3.98898 15.8017C3.15663 14.443 2.7171 12.8726 2.71784 11.2602C2.71956 6.55513 6.44969 2.72722 11.0361 2.72722C13.257 2.72798 15.3447 3.61676 16.9145 5.2298C18.4844 6.84283 19.3484 8.98688 19.3476 11.2671C19.3457 15.9726 15.6158 19.8008 11.0327 19.8008V19.8008ZM15.5936 13.4095C15.3437 13.2811 14.1147 12.6606 13.8855 12.5749C13.6566 12.4893 13.4897 12.4466 13.3233 12.7034C13.1566 12.9601 12.6776 13.538 12.5317 13.7091C12.3858 13.8804 12.2402 13.9019 11.9902 13.7734C11.7401 13.645 10.9348 13.374 9.97994 12.5C9.23693 11.8198 8.7353 10.9797 8.5894 10.723C8.44376 10.466 8.58817 10.3405 8.69907 10.1994C8.96966 9.85454 9.24062 9.49298 9.32392 9.32188C9.40734 9.15065 9.36557 9.00079 9.30297 8.87243C9.24062 8.74407 8.74072 7.48134 8.53248 6.96752C8.32941 6.46749 8.12351 6.53502 7.96998 6.52718C7.82433 6.51972 7.65761 6.5182 7.4909 6.5182C7.3243 6.5182 7.05347 6.58231 6.82428 6.83929C6.59521 7.09613 5.94954 7.71669 5.94954 8.97942C5.94954 10.2421 6.84522 11.462 6.97017 11.6332C7.09511 11.8045 8.73283 14.3957 11.2402 15.5068C11.8366 15.7714 12.3022 15.9291 12.6653 16.0473C13.2641 16.2426 13.8089 16.215 14.2397 16.149C14.72 16.0752 15.7184 15.5283 15.9269 14.9291C16.1352 14.3298 16.1352 13.8162 16.0726 13.7091C16.0102 13.6021 15.8435 13.538 15.5936 13.4095V13.4095Z" fill="white"/>
</g>
<defs>
<clipPath id="clip0">
<rect width="21.5343" height="22.101" fill="white" transform="translate(0.202637 0.314453)"/>
</clipPath>
</defs>
</svg>
